  0
SECTION
  2
HEADER
  9
$ACADVER
  1
AC1027
  9
$ACADMAINTVER
 70
105
  9
$DWGCODEPAGE
  3
ANSI_1252
  9
$LASTSAVEDBY
  1
ezdxf
  9
$REQUIREDVERSIONS
160
0
  9
$INSBASE
 10
0.0
 20
0.0
 30
0.0
  9
$EXTMIN
 10
1e+20
 20
1e+20
 30
1e+20
  9
$EXTMAX
 10
-1e+20
 20
-1e+20
 30
-1e+20
  9
$LIMMIN
 10
0.0
 20
0.0
  9
$LIMMAX
 10
420.0
 20
297.0
  9
$ORTHOMODE
 70
0
  9
$REGENMODE
 70
1
  9
$FILLMODE
 70
1
  9
$QTEXTMODE
 70
0
  9
$MIRRTEXT
 70
1
  9
$LTSCALE
 40
1.0
  9
$ATTMODE
 70
1
  9
$TEXTSIZE
 40
2.5
  9
$TRACEWID
 40
1.0
  9
$TEXTSTYLE
  7
Standard
  9
$CLAYER
  8
0
  9
$CELTYPE
  6
ByLayer
  9
$CECOLOR
 62
256
  9
$CELTSCALE
 40
1.0
  9
$DISPSILH
 70
0
  9
$DIMSCALE
 40
1.0
  9
$DIMASZ
 40
2.5
  9
$DIMEXO
 40
0.625
  9
$DIMDLI
 40
3.75
  9
$DIMRND
 40
0.0
  9
$DIMDLE
 40
0.0
  9
$DIMEXE
 40
1.25
  9
$DIMTP
 40
0.0
  9
$DIMTM
 40
0.0
  9
$DIMTXT
 40
2.5
  9
$DIMCEN
 40
2.5
  9
$DIMTSZ
 40
0.0
  9
$DIMTOL
 70
0
  9
$DIMLIM
 70
0
  9
$DIMTIH
 70
0
  9
$DIMTOH
 70
0
  9
$DIMSE1
 70
0
  9
$DIMSE2
 70
0
  9
$DIMTAD
 70
1
  9
$DIMZIN
 70
8
  9
$DIMBLK
  1

  9
$DIMASO
 70
1
  9
$DIMSHO
 70
1
  9
$DIMPOST
  1

  9
$DIMAPOST
  1

  9
$DIMALT
 70
0
  9
$DIMALTD
 70
3
  9
$DIMALTF
 40
0.03937007874
  9
$DIMLFAC
 40
1.0
  9
$DIMTOFL
 70
1
  9
$DIMTVP
 40
0.0
  9
$DIMTIX
 70
0
  9
$DIMSOXD
 70
0
  9
$DIMSAH
 70
0
  9
$DIMBLK1
  1

  9
$DIMBLK2
  1

  9
$DIMSTYLE
  2
ISO-25
  9
$DIMCLRD
 70
0
  9
$DIMCLRE
 70
0
  9
$DIMCLRT
 70
0
  9
$DIMTFAC
 40
1.0
  9
$DIMGAP
 40
0.625
  9
$DIMJUST
 70
0
  9
$DIMSD1
 70
0
  9
$DIMSD2
 70
0
  9
$DIMTOLJ
 70
0
  9
$DIMTZIN
 70
8
  9
$DIMALTZ
 70
0
  9
$DIMALTTZ
 70
0
  9
$DIMUPT
 70
0
  9
$DIMDEC
 70
2
  9
$DIMTDEC
 70
2
  9
$DIMALTU
 70
2
  9
$DIMALTTD
 70
3
  9
$DIMTXSTY
  7
Standard
  9
$DIMAUNIT
 70
0
  9
$DIMADEC
 70
0
  9
$DIMALTRND
 40
0.0
  9
$DIMAZIN
 70
0
  9
$DIMDSEP
 70
44
  9
$DIMATFIT
 70
3
  9
$DIMFRAC
 70
0
  9
$DIMLDRBLK
  1

  9
$DIMLUNIT
 70
2
  9
$DIMLWD
 70
-2
  9
$DIMLWE
 70
-2
  9
$DIMTMOVE
 70
0
  9
$DIMFXL
 40
1.0
  9
$DIMFXLON
 70
0
  9
$DIMJOGANG
 40
0.785398163397
  9
$DIMTFILL
 70
0
  9
$DIMTFILLCLR
 70
0
  9
$DIMARCSYM
 70
0
  9
$DIMLTYPE
  6

  9
$DIMLTEX1
  6

  9
$DIMLTEX2
  6

  9
$DIMTXTDIRECTION
 70
0
  9
$LUNITS
 70
2
  9
$LUPREC
 70
4
  9
$SKETCHINC
 40
1.0
  9
$FILLETRAD
 40
10.0
  9
$AUNITS
 70
0
  9
$AUPREC
 70
2
  9
$MENU
  1
.
  9
$ELEVATION
 40
0.0
  9
$PELEVATION
 40
0.0
  9
$THICKNESS
 40
0.0
  9
$LIMCHECK
 70
0
  9
$CHAMFERA
 40
0.0
  9
$CHAMFERB
 40
0.0
  9
$CHAMFERC
 40
0.0
  9
$CHAMFERD
 40
0.0
  9
$SKPOLY
 70
0
  9
$TDCREATE
 40
2459852.9275115742
  9
$TDUCREATE
 40
2458532.153996898
  9
$TDUPDATE
 40
2459852.9275231482
  9
$TDUUPDATE
 40
2458532.1544311
  9
$TDINDWG
 40
0.0
  9
$TDUSRTIMER
 40
0.0
  9
$USRTIMER
 70
1
  9
$ANGBASE
 50
0.0
  9
$ANGDIR
 70
0
  9
$PDMODE
 70
0
  9
$PDSIZE
 40
0.0
  9
$PLINEWID
 40
0.0
  9
$SPLFRAME
 70
0
  9
$SPLINETYPE
 70
6
  9
$SPLINESEGS
 70
8
  9
$HANDSEED
  5
234
  9
$SURFTAB1
 70
6
  9
$SURFTAB2
 70
6
  9
$SURFTYPE
 70
6
  9
$SURFU
 70
6
  9
$SURFV
 70
6
  9
$UCSBASE
  2

  9
$UCSNAME
  2

  9
$UCSORG
 10
0.0
 20
0.0
 30
0.0
  9
$UCSXDIR
 10
1.0
 20
0.0
 30
0.0
  9
$UCSYDIR
 10
0.0
 20
1.0
 30
0.0
  9
$UCSORTHOREF
  2

  9
$UCSORTHOVIEW
 70
0
  9
$UCSORGTOP
 10
0.0
 20
0.0
 30
0.0
  9
$UCSORGBOTTOM
 10
0.0
 20
0.0
 30
0.0
  9
$UCSORGLEFT
 10
0.0
 20
0.0
 30
0.0
  9
$UCSORGRIGHT
 10
0.0
 20
0.0
 30
0.0
  9
$UCSORGFRONT
 10
0.0
 20
0.0
 30
0.0
  9
$UCSORGBACK
 10
0.0
 20
0.0
 30
0.0
  9
$PUCSBASE
  2

  9
$PUCSNAME
  2

  9
$PUCSORG
 10
0.0
 20
0.0
 30
0.0
  9
$PUCSXDIR
 10
1.0
 20
0.0
 30
0.0
  9
$PUCSYDIR
 10
0.0
 20
1.0
 30
0.0
  9
$PUCSORTHOREF
  2

  9
$PUCSORTHOVIEW
 70
0
  9
$PUCSORGTOP
 10
0.0
 20
0.0
 30
0.0
  9
$PUCSORGBOTTOM
 10
0.0
 20
0.0
 30
0.0
  9
$PUCSORGLEFT
 10
0.0
 20
0.0
 30
0.0
  9
$PUCSORGRIGHT
 10
0.0
 20
0.0
 30
0.0
  9
$PUCSORGFRONT
 10
0.0
 20
0.0
 30
0.0
  9
$PUCSORGBACK
 10
0.0
 20
0.0
 30
0.0
  9
$USERI1
 70
0
  9
$USERI2
 70
0
  9
$USERI3
 70
0
  9
$USERI4
 70
0
  9
$USERI5
 70
0
  9
$USERR1
 40
0.0
  9
$USERR2
 40
0.0
  9
$USERR3
 40
0.0
  9
$USERR4
 40
0.0
  9
$USERR5
 40
0.0
  9
$WORLDVIEW
 70
1
  9
$SHADEDGE
 70
3
  9
$SHADEDIF
 70
70
  9
$TILEMODE
 70
1
  9
$MAXACTVP
 70
64
  9
$PINSBASE
 10
0.0
 20
0.0
 30
0.0
  9
$PLIMCHECK
 70
0
  9
$PEXTMIN
 10
1e+20
 20
1e+20
 30
1e+20
  9
$PEXTMAX
 10
-1e+20
 20
-1e+20
 30
-1e+20
  9
$PLIMMIN
 10
0.0
 20
0.0
  9
$PLIMMAX
 10
420.0
 20
297.0
  9
$UNITMODE
 70
0
  9
$VISRETAIN
 70
1
  9
$PLINEGEN
 70
0
  9
$PSLTSCALE
 70
1
  9
$TREEDEPTH
 70
3020
  9
$CMLSTYLE
  2
Standard
  9
$CMLJUST
 70
0
  9
$CMLSCALE
 40
20.0
  9
$PROXYGRAPHICS
 70
1
  9
$MEASUREMENT
 70
1
  9
$CELWEIGHT
370
-1
  9
$ENDCAPS
280
0
  9
$JOINSTYLE
280
0
  9
$LWDISPLAY
290
0
  9
$INSUNITS
 70
6
  9
$HYPERLINKBASE
  1

  9
$STYLESHEET
  1

  9
$XEDIT
290
1
  9
$CEPSNTYPE
380
0
  9
$PSTYLEMODE
290
1
  9
$FINGERPRINTGUID
  2
{FBFABD8D-D819-488B-A1E5-3C2039C38146}
  9
$VERSIONGUID
  2
{AAB0B3E0-B207-4F32-8BA9-DA38756EF39B}
  9
$EXTNAMES
290
1
  9
$PSVPSCALE
 40
0.0
  9
$OLESTARTUP
290
0
  9
$SORTENTS
280
127
  9
$INDEXCTL
280
0
  9
$HIDETEXT
280
1
  9
$XCLIPFRAME
280
0
  9
$HALOGAP
280
0
  9
$OBSCOLOR
 70
257
  9
$OBSLTYPE
280
0
  9
$INTERSECTIONDISPLAY
280
0
  9
$INTERSECTIONCOLOR
 70
257
  9
$DIMASSOC
280
2
  9
$PROJECTNAME
  1

  9
$CAMERADISPLAY
290
0
  9
$LENSLENGTH
 40
50.0
  9
$CAMERAHEIGHT
 40
0.0
  9
$STEPSPERSEC
 40
24.0
  9
$STEPSIZE
 40
100.0
  9
$3DDWFPREC
 40
2.0
  9
$PSOLWIDTH
 40
0.005
  9
$PSOLHEIGHT
 40
0.08
  9
$LOFTANG1
 40
1.570796326795
  9
$LOFTANG2
 40
1.570796326795
  9
$LOFTMAG1
 40
0.0
  9
$LOFTMAG2
 40
0.0
  9
$LOFTPARAM
 70
7
  9
$LOFTNORMALS
280
1
  9
$LATITUDE
 40
37.795
  9
$LONGITUDE
 40
-122.394
  9
$NORTHDIRECTION
 40
0.0
  9
$TIMEZONE
 70
-8000
  9
$LIGHTGLYPHDISPLAY
280
1
  9
$TILEMODELIGHTSYNCH
280
1
  9
$CMATERIAL
347
20
  9
$SOLIDHIST
280
0
  9
$SHOWHIST
280
1
  9
$DWFFRAME
280
2
  9
$DGNFRAME
280
2
  9
$REALWORLDSCALE
290
1
  9
$INTERFERECOLOR
 62
256
  9
$CSHADOW
280
0
  9
$SHADOWPLANELOCATION
 40
0.0
  0
ENDSEC
  0
SECTION
  2
CLASSES
  0
CLASS
  1
ACDBDICTIONARYWDFLT
  2
AcDbDictionaryWithDefault
  3
ObjectDBX Classes
 90
0
 91
0
280
0
281
0
  0
CLASS
  1
SUN
  2
AcDbSun
  3
SCENEOE
 90
1153
 91
0
280
0
281
0
  0
CLASS
  1
VISUALSTYLE
  2
AcDbVisualStyle
  3
ObjectDBX Classes
 90
4095
 91
0
280
0
281
0
  0
CLASS
  1
MATERIAL
  2
AcDbMaterial
  3
ObjectDBX Classes
 90
1153
 91
0
280
0
281
0
  0
CLASS
  1
SCALE
  2
AcDbScale
  3
ObjectDBX Classes
 90
1153
 91
0
280
0
281
0
  0
CLASS
  1
TABLESTYLE
  2
AcDbTableStyle
  3
ObjectDBX Classes
 90
4095
 91
0
280
0
281
0
  0
CLASS
  1
MLEADERSTYLE
  2
AcDbMLeaderStyle
  3
ACDB_MLEADERSTYLE_CLASS
 90
4095
 91
0
280
0
281
0
  0
CLASS
  1
DICTIONARYVAR
  2
AcDbDictionaryVar
  3
ObjectDBX Classes
 90
0
 91
0
280
0
281
0
  0
CLASS
  1
CELLSTYLEMAP
  2
AcDbCellStyleMap
  3
ObjectDBX Classes
 90
1152
 91
0
280
0
281
0
  0
CLASS
  1
MENTALRAYRENDERSETTINGS
  2
AcDbMentalRayRenderSettings
  3
SCENEOE
 90
1024
 91
0
280
0
281
0
  0
CLASS
  1
ACDBDETAILVIEWSTYLE
  2
AcDbDetailViewStyle
  3
ObjectDBX Classes
 90
1025
 91
0
280
0
281
0
  0
CLASS
  1
ACDBSECTIONVIEWSTYLE
  2
AcDbSectionViewStyle
  3
ObjectDBX Classes
 90
1025
 91
0
280
0
281
0
  0
CLASS
  1
RASTERVARIABLES
  2
AcDbRasterVariables
  3
ISM
 90
0
 91
0
280
0
281
0
  0
CLASS
  1
ACDBPLACEHOLDER
  2
AcDbPlaceHolder
  3
ObjectDBX Classes
 90
0
 91
0
280
0
281
0
  0
CLASS
  1
LAYOUT
  2
AcDbLayout
  3
ObjectDBX Classes
 90
0
 91
0
280
0
281
0
  0
ENDSEC
  0
SECTION
  2
TABLES
  0
TABLE
  2
VPORT
  5
8
330
0
100
AcDbSymbolTable
 70
1
  0
VPORT
  5
23
330
8
100
AcDbSymbolTableRecord
100
AcDbViewportTableRecord
  2
*Active
 70
0
 10
0.0
 20
0.0
 11
1.0
 21
1.0
 12
0.0
 22
0.0
 13
0.0
 23
0.0
 14
0.5
 24
0.5
 15
0.5
 25
0.5
 16
0.0
 26
0.0
 36
1.0
 17
0.0
 27
0.0
 37
0.0
 40
1000.0
 41
1.34
 42
50.0
 43
0.0
 44
0.0
 50
0.0
 51
0.0
 71
0
 72
1000
 73
1
 74
3
 75
0
 76
0
 77
0
 78
0
281
0
 65
0
146
0.0
  0
ENDTAB
  0
TABLE
  2
LTYPE
  5
2
330
0
100
AcDbSymbolTable
 70
3
  0
LTYPE
  5
24
330
2
100
AcDbSymbolTableRecord
100
AcDbLinetypeTableRecord
  2
ByBlock
 70
0
  3

 72
65
 73
0
 40
0.0
  0
LTYPE
  5
25
330
2
100
AcDbSymbolTableRecord
100
AcDbLinetypeTableRecord
  2
ByLayer
 70
0
  3

 72
65
 73
0
 40
0.0
  0
LTYPE
  5
26
330
2
100
AcDbSymbolTableRecord
100
AcDbLinetypeTableRecord
  2
Continuous
 70
0
  3

 72
65
 73
0
 40
0.0
  0
ENDTAB
  0
TABLE
  2
LAYER
  5
1
330
0
100
AcDbSymbolTable
 70
15
  0
LAYER
  5
27
330
1
100
AcDbSymbolTableRecord
100
AcDbLayerTableRecord
  2
0
 70
0
 62
7
  6
Continuous
370
-3
390
13
347
21
  0
LAYER
  5
28
330
1
100
AcDbSymbolTableRecord
100
AcDbLayerTableRecord
  2
Defpoints
 70
0
 62
7
  6
Continuous
290
0
370
-3
390
13
347
21
  0
LAYER
  5
2F
330
1
100
AcDbSymbolTableRecord
100
AcDbLayerTableRecord
  2
TEXT
 70
0
 62
121
  6
Continuous
370
-3
390
13
347
21
  0
LAYER
  5
31
330
1
100
AcDbSymbolTableRecord
100
AcDbLayerTableRecord
  2
Top_X
 70
0
 62
49
  6
Continuous
370
-3
390
13
347
21
  0
LAYER
  5
32
330
1
100
AcDbSymbolTableRecord
100
AcDbLayerTableRecord
  2
TEXT_Top_X
 70
0
 62
116
  6
Continuous
370
-3
390
13
347
21
  0
LAYER
  5
227
330
1
100
AcDbSymbolTableRecord
100
AcDbLayerTableRecord
  2
Top_Y
 70
0
 62
40
  6
Continuous
370
-3
390
13
347
21
  0
LAYER
  5
228
330
1
100
AcDbSymbolTableRecord
100
AcDbLayerTableRecord
  2
TEXT_Top_Y
 70
0
 62
167
  6
Continuous
370
-3
390
13
347
21
  0
LAYER
  5
229
330
1
100
AcDbSymbolTableRecord
100
AcDbLayerTableRecord
  2
Bot_X
 70
0
 62
57
  6
Continuous
370
-3
390
13
347
21
  0
LAYER
  5
22A
330
1
100
AcDbSymbolTableRecord
100
AcDbLayerTableRecord
  2
TEXT_Bot_X
 70
0
 62
221
  6
Continuous
370
-3
390
13
347
21
  0
LAYER
  5
22B
330
1
100
AcDbSymbolTableRecord
100
AcDbLayerTableRecord
  2
Bot_Y
 70
0
 62
87
  6
Continuous
370
-3
390
13
347
21
  0
LAYER
  5
22C
330
1
100
AcDbSymbolTableRecord
100
AcDbLayerTableRecord
  2
TEXT_Bot_Y
 70
0
 62
117
  6
Continuous
370
-3
390
13
347
21
  0
LAYER
  5
22D
330
1
100
AcDbSymbolTableRecord
100
AcDbLayerTableRecord
  2
Lat_X
 70
0
 62
114
  6
Continuous
370
-3
390
13
347
21
  0
LAYER
  5
22E
330
1
100
AcDbSymbolTableRecord
100
AcDbLayerTableRecord
  2
TEXT_Lat_X
 70
0
 62
22
  6
Continuous
370
-3
390
13
347
21
  0
LAYER
  5
22F
330
1
100
AcDbSymbolTableRecord
100
AcDbLayerTableRecord
  2
Lat_Y
 70
0
 62
99
  6
Continuous
370
-3
390
13
347
21
  0
LAYER
  5
230
330
1
100
AcDbSymbolTableRecord
100
AcDbLayerTableRecord
  2
TEXT_Lat_Y
 70
0
 62
34
  6
Continuous
370
-3
390
13
347
21
  0
ENDTAB
  0
TABLE
  2
STYLE
  5
5
330
0
100
AcDbSymbolTable
 70
1
  0
STYLE
  5
29
330
5
100
AcDbSymbolTableRecord
100
AcDbTextStyleTableRecord
  2
Standard
 70
0
 40
0.0
 41
1.0
 50
0.0
 71
0
 42
2.5
  3
txt
  4

  0
ENDTAB
  0
TABLE
  2
VIEW
  5
7
330
0
100
AcDbSymbolTable
 70
0
  0
ENDTAB
  0
TABLE
  2
UCS
  5
6
330
0
100
AcDbSymbolTable
 70
0
  0
ENDTAB
  0
TABLE
  2
APPID
  5
3
330
0
100
AcDbSymbolTable
 70
3
  0
APPID
  5
2A
330
3
100
AcDbSymbolTableRecord
100
AcDbRegAppTableRecord
  2
ACAD
 70
0
  0
APPID
  5
231
330
3
100
AcDbSymbolTableRecord
100
AcDbRegAppTableRecord
  2
HATCHBACKGROUNDCOLOR
 70
0
  0
APPID
  5
232
330
3
100
AcDbSymbolTableRecord
100
AcDbRegAppTableRecord
  2
EZDXF
 70
0
  0
ENDTAB
  0
TABLE
  2
DIMSTYLE
  5
4
330
0
100
AcDbSymbolTable
 70
1
100
AcDbDimStyleTable
  0
DIMSTYLE
105
2B
330
4
100
AcDbSymbolTableRecord
100
AcDbDimStyleTableRecord
  2
Standard
 70
0
 40
1.0
 41
2.5
 42
0.625
 43
3.75
 44
1.25
 45
0.0
 46
0.0
 47
0.0
 48
0.0
 49
2.5
140
2.5
141
2.5
142
0.0
143
0.03937007874
144
1.0
145
0.0
146
1.0
147
0.625
148
0.0
 69
0
 70
0
 71
0
 72
0
 73
0
 74
0
 75
0
 76
0
 77
1
 78
8
 79
3
170
0
171
3
172
1
173
0
174
0
175
0
176
0
177
0
178
0
179
2
271
2
272
2
273
2
274
3
275
0
276
0
277
2
278
44
279
0
280
0
281
0
282
0
283
0
284
8
285
0
286
0
288
0
289
3
290
0
371
-2
372
-2
  0
ENDTAB
  0
TABLE
  2
BLOCK_RECORD
  5
9
330
0
100
AcDbSymbolTable
 70
2
  0
BLOCK_RECORD
  5
17
330
9
100
AcDbSymbolTableRecord
100
AcDbBlockTableRecord
  2
*Model_Space
340
1A
 70
0
280
1
281
0
  0
BLOCK_RECORD
  5
1B
330
9
100
AcDbSymbolTableRecord
100
AcDbBlockTableRecord
  2
*Paper_Space
340
1E
 70
0
280
1
281
0
  0
ENDTAB
  0
ENDSEC
  0
SECTION
  2
BLOCKS
  0
BLOCK
  5
18
330
17
100
AcDbEntity
  8
0
100
AcDbBlockBegin
  2
*Model_Space
 70
0
 10
0.0
 20
0.0
 30
0.0
  3
*Model_Space
  1

  0
ENDBLK
  5
19
330
17
100
AcDbEntity
  8
0
100
AcDbBlockEnd
  0
BLOCK
  5
1C
330
1B
100
AcDbEntity
  8
0
100
AcDbBlockBegin
  2
*Paper_Space
 70
0
 10
0.0
 20
0.0
 30
0.0
  3
*Paper_Space
  1

  0
ENDBLK
  5
1D
330
1B
100
AcDbEntity
  8
0
100
AcDbBlockEnd
  0
ENDSEC
  0
SECTION
  2
ENTITIES
  0
TEXT
  5
30
330
17
100
AcDbEntity
  8
TEXT
100
AcDbText
 10
0.0
 20
0.0
 30
0.0
 40
0.2
  1
Фон 6 шаг 200
 11
0.0
 21
0.0
 31
0.0
100
AcDbText
  0
LINE
  5
33
330
17
100
AcDbEntity
  8
Top_X
 62
9
100
AcDbLine
 10
-3.1870000014419997
 20
19.365999999729997
 30
0.0
 11
-0.7330000011489999
 21
19.366000002184
 31
0.0
  0
LINE
  5
34
330
17
100
AcDbEntity
  8
Top_X
100
AcDbLine
 10
-3.236352289961025
 20
19.638064383361918
 30
0.0
 11
-0.6836477122018461
 21
19.638064387569216
 31
0.0
  0
LINE
  5
35
330
17
100
AcDbEntity
  8
Top_X
 62
9
100
AcDbLine
 10
-0.7330000011489999
 20
19.366000002184
 30
0.0
 11
-0.732999999707
 21
17.924000002454
 31
0.0
  0
LINE
  5
36
330
17
100
AcDbEntity
  8
Top_X
100
AcDbLine
 10
-0.6836477122018461
 20
19.638064387569216
 30
0.0
 11
-0.6836477111879748
 21
17.651935618822087
 31
0.0
  0
LINE
  5
37
330
17
100
AcDbEntity
  8
Top_X
 62
9
100
AcDbLine
 10
-0.732999999707
 20
17.924000002454
 30
0.0
 11
-3.187
 21
17.924
 31
0.0
  0
LINE
  5
38
330
17
100
AcDbEntity
  8
Top_X
100
AcDbLine
 10
-0.6836477111879748
 20
17.651935618822087
 30
0.0
 11
-3.236352288947154
 21
17.65193561461479
 31
0.0
  0
LINE
  5
39
330
17
100
AcDbEntity
  8
Top_X
 62
9
100
AcDbLine
 10
-3.187
 20
17.924
 30
0.0
 11
-3.1870000014419997
 21
19.365999999729997
 31
0.0
  0
LINE
  5
3A
330
17
100
AcDbEntity
  8
Top_X
100
AcDbLine
 10
-3.236352288947154
 20
17.65193561461479
 30
0.0
 11
-3.236352289961025
 21
19.638064383361918
 31
0.0
  0
TEXT
  5
3B
330
17
100
AcDbEntity
  8
TEXT_Top_X
100
AcDbText
 10
-1.9600000005745
 20
18.645000001092
 30
0.0
 40
0.2
  1
12 шаг 100
 11
-1.9600000005745
 21
18.645000001092
 31
0.0
100
AcDbText
  0
TEXT
  5
3C
330
17
100
AcDbEntity
  8
TEXT_Top_X
100
AcDbText
 10
-1.9600000005745
 20
18.395000001092
 30
0.0
 40
0.2
  1
(3380x1500)
 11
-1.9600000005745
 21
18.395000001092
 31
0.0
100
AcDbText
  0
LINE
  5
3D
330
17
100
AcDbEntity
  8
Top_X
 62
9
100
AcDbLine
 10
-6.441000000496
 20
19.417999998164
 30
0.0
 11
-4.187000000244001
 21
19.418000000417997
 31
0.0
  0
LINE
  5
3E
330
17
100
AcDbEntity
  8
Top_X
100
AcDbLine
 10
-6.562753462739173
 20
19.674095383159298
 30
0.0
 11
-4.065246537722635
 21
19.674095387301787
 31
0.0
  0
LINE
  5
3F
330
17
100
AcDbEntity
  8
Top_X
 62
9
100
AcDbLine
 10
-4.187000000244001
 20
19.418000000417997
 30
0.0
 11
-4.186999999161
 21
18.335000000214
 31
0.0
  0
LINE
  5
40
330
17
100
AcDbEntity
  8
Top_X
100
AcDbLine
 10
-4.065246537722635
 20
19.674095387301787
 30
0.0
 11
-4.065246536917826
 21
18.078904615218697
 31
0.0
  0
LINE
  5
41
330
17
100
AcDbEntity
  8
Top_X
 62
9
100
AcDbLine
 10
-4.186999999161
 20
18.335000000214
 30
0.0
 11
-6.440999999413
 21
18.33499999796
 31
0.0
  0
LINE
  5
42
330
17
100
AcDbEntity
  8
Top_X
100
AcDbLine
 10
-4.065246536917826
 20
18.078904615218697
 30
0.0
 11
-6.562753461934364
 21
18.078904611076208
 31
0.0
  0
LINE
  5
43
330
17
100
AcDbEntity
  8
Top_X
 62
9
100
AcDbLine
 10
-6.440999999413
 20
18.33499999796
 30
0.0
 11
-6.441000000496
 21
19.417999998164
 31
0.0
  0
LINE
  5
44
330
17
100
AcDbEntity
  8
Top_X
100
AcDbLine
 10
-6.562753461934364
 20
18.078904611076208
 30
0.0
 11
-6.562753462739173
 21
19.674095383159298
 31
0.0
  0
TEXT
  5
45
330
17
100
AcDbEntity
  8
TEXT_Top_X
100
AcDbText
 10
-5.3139999998285
 20
18.876499999188997
 30
0.0
 40
0.2
  1
14 шаг 200
 11
-5.3139999998285
 21
18.876499999188997
 31
0.0
100
AcDbText
  0
TEXT
  5
46
330
17
100
AcDbEntity
  8
TEXT_Top_X
100
AcDbText
 10
-5.3139999998285
 20
18.626499999188997
 30
0.0
 40
0.2
  1
(3320x1200)
 11
-5.3139999998285
 21
18.626499999188997
 31
0.0
100
AcDbText
  0
LINE
  5
47
330
17
100
AcDbEntity
  8
Top_X
 62
9
100
AcDbLine
 10
-0.6750000046909996
 20
25.535999992111
 30
0.0
 11
7.214
 21
25.536
 31
0.0
  0
LINE
  5
48
330
17
100
AcDbEntity
  8
Top_X
100
AcDbLine
 10
-0.7216893948554552
 20
25.841754710869896
 30
0.0
 11
7.260689390651965
 21
25.841754720507517
 31
0.0
  0
LINE
  5
49
330
17
100
AcDbEntity
  8
Top_X
 62
9
100
AcDbLine
 10
7.214
 20
25.536
 30
0.0
 11
7.214000005238
 21
20.298000006717995
 31
0.0
  0
LINE
  5
4A
330
17
100
AcDbEntity
  8
Top_X
100
AcDbLine
 10
7.260689390651965
 20
25.841754720507517
 30
0.0
 11
7.260689395402455
 21
19.992245287959104
 31
0.0
  0
LINE
  5
4B
330
17
100
AcDbEntity
  8
Top_X
 62
9
100
AcDbLine
 10
7.214000005238
 20
20.298000006717995
 30
0.0
 11
-0.674999999453
 21
20.297999998828995
 31
0.0
  0
LINE
  5
4C
330
17
100
AcDbEntity
  8
Top_X
100
AcDbLine
 10
7.260689395402455
 20
19.992245287959104
 30
0.0
 11
-0.7216893901049651
 21
19.992245278321484
 31
0.0
  0
LINE
  5
4D
330
17
100
AcDbEntity
  8
Top_X
 62
9
100
AcDbLine
 10
-0.674999999453
 20
20.297999998828995
 30
0.0
 11
-0.6750000046909996
 21
25.535999992111
 31
0.0
  0
LINE
  5
4E
330
17
100
AcDbEntity
  8
Top_X
100
AcDbLine
 10
-0.7216893901049651
 20
19.992245278321484
 30
0.0
 11
-0.7216893948554552
 21
25.841754710869896
 31
0.0
  0
TEXT
  5
4F
330
17
100
AcDbEntity
  8
TEXT_Top_X
100
AcDbText
 10
3.2695000002735
 20
22.9169999994145
 30
0.0
 40
0.2
  1
12 шаг 100
 11
3.2695000002735
 21
22.9169999994145
 31
0.0
100
AcDbText
  0
TEXT
  5
50
330
17
100
AcDbEntity
  8
TEXT_Top_X
100
AcDbText
 10
3.2695000002735
 20
22.6669999994145
 30
0.0
 40
0.2
  1
(8810x5300)
 11
3.2695000002735
 21
22.6669999994145
 31
0.0
100
AcDbText
  0
LINE
  5
51
330
17
100
AcDbEntity
  8
Top_X
 62
9
100
AcDbLine
 10
-4.9880000017079995
 20
25.948999998465002
 30
0.0
 11
1.468
 21
25.949000004921
 31
0.0
  0
LINE
  5
52
330
17
100
AcDbEntity
  8
Top_X
100
AcDbLine
 10
-5.062301793713662
 20
26.14231969960811
 30
0.0
 11
1.5423017922843019
 21
26.1423197080435
 31
0.0
  0
LINE
  5
53
330
17
100
AcDbEntity
  8
Top_X
 62
9
100
AcDbLine
 10
1.468
 20
25.949000004921
 30
0.0
 11
1.4680000023459998
 21
23.603000006231
 31
0.0
  0
LINE
  5
54
330
17
100
AcDbEntity
  8
Top_X
100
AcDbLine
 10
1.5423017922843019
 20
26.1423197080435
 30
0.0
 11
1.5423017943516624
 21
23.409680305087885
 31
0.0
  0
LINE
  5
55
330
17
100
AcDbEntity
  8
Top_X
 62
9
100
AcDbLine
 10
1.4680000023459998
 20
23.603000006231
 30
0.0
 11
-4.987999999362
 21
23.602999999775
 31
0.0
  0
LINE
  5
56
330
17
100
AcDbEntity
  8
Top_X
100
AcDbLine
 10
1.5423017943516624
 20
23.409680305087885
 30
0.0
 11
-5.062301791646302
 21
23.409680296652493
 31
0.0
  0
LINE
  5
57
330
17
100
AcDbEntity
  8
Top_X
 62
9
100
AcDbLine
 10
-4.987999999362
 20
23.602999999775
 30
0.0
 11
-4.9880000017079995
 21
25.948999998465002
 31
0.0
  0
LINE
  5
58
330
17
100
AcDbEntity
  8
Top_X
100
AcDbLine
 10
-5.062301791646302
 20
23.409680296652493
 30
0.0
 11
-5.062301793713662
 21
26.14231969960811
 31
0.0
  0
TEXT
  5
59
330
17
100
AcDbEntity
  8
TEXT_Top_X
100
AcDbText
 10
-1.7599999996809998
 20
24.776000002348
 30
0.0
 40
0.2
  1
14 шаг 100
 11
-1.7599999996809998
 21
24.776000002348
 31
0.0
100
AcDbText
  0
TEXT
  5
5A
330
17
100
AcDbEntity
  8
TEXT_Top_X
100
AcDbText
 10
-1.7599999996809998
 20
24.526000002348
 30
0.0
 40
0.2
  1
(7520x2400)
 11
-1.7599999996809998
 21
24.526000002348
 31
0.0
100
AcDbText
  0
LINE
  5
5B
330
17
100
AcDbEntity
  8
Top_X
 62
9
100
AcDbLine
 10
2.078999998282
 20
25.948999999366
 30
0.0
 11
6.614
 21
25.949000003901
 31
0.0
  0
LINE
  5
5C
330
17
100
AcDbEntity
  8
Top_X
100
AcDbLine
 10
2.0219426822394206
 20
26.115805951927726
 30
0.0
 11
6.671057316268193
 21
26.115805957758614
 31
0.0
  0
LINE
  5
5D
330
17
100
AcDbEntity
  8
Top_X
 62
9
100
AcDbLine
 10
6.614
 20
25.949000003901
 30
0.0
 11
6.614000002146
 21
23.803000004083
 31
0.0
  0
LINE
  5
5E
330
17
100
AcDbEntity
  8
Top_X
100
AcDbLine
 10
6.671057316268193
 20
26.115805957758614
 30
0.0
 11
6.671057318188581
 21
23.636194051521272
 31
0.0
  0
LINE
  5
5F
330
17
100
AcDbEntity
  8
Top_X
 62
9
100
AcDbLine
 10
6.614000002146
 20
23.803000004083
 30
0.0
 11
2.079000000428
 21
23.802999999548
 31
0.0
  0
LINE
  5
60
330
17
100
AcDbEntity
  8
Top_X
100
AcDbLine
 10
6.671057318188581
 20
23.636194051521272
 30
0.0
 11
2.021942684159809
 21
23.636194045690385
 31
0.0
  0
LINE
  5
61
330
17
100
AcDbEntity
  8
Top_X
 62
9
100
AcDbLine
 10
2.079000000428
 20
23.802999999548
 30
0.0
 11
2.078999998282
 21
25.948999999366
 31
0.0
  0
LINE
  5
62
330
17
100
AcDbEntity
  8
Top_X
100
AcDbLine
 10
2.021942684159809
 20
23.636194045690385
 30
0.0
 11
2.0219426822394206
 21
26.115805951927726
 31
0.0
  0
TEXT
  5
63
330
17
100
AcDbEntity
  8
TEXT_Top_X
100
AcDbText
 10
4.346500000214
 20
24.8760000017245
 30
0.0
 40
0.2
  1
8 шаг 200
 11
4.346500000214
 21
24.8760000017245
 31
0.0
100
AcDbText
  0
TEXT
  5
64
330
17
100
AcDbEntity
  8
TEXT_Top_X
100
AcDbText
 10
4.346500000214
 20
24.6260000017245
 30
0.0
 40
0.2
  1
(5240x2200)
 11
4.346500000214
 21
24.6260000017245
 31
0.0
100
AcDbText
  0
LINE
  5
65
330
17
100
AcDbEntity
  8
Top_X
 62
9
100
AcDbLine
 10
0.08199999999100001
 20
17.161999999585
 30
0.0
 11
1.386999999557
 21
17.16200000089
 31
0.0
  0
LINE
  5
66
330
17
100
AcDbEntity
  8
Top_X
100
AcDbLine
 10
0.07466854019172088
 20
17.402402298199764
 30
0.0
 11
1.3943314598170835
 21
17.402402300900103
 31
0.0
  0
LINE
  5
67
330
17
100
AcDbEntity
  8
Top_X
 62
9
100
AcDbLine
 10
1.386999999557
 20
17.16200000089
 30
0.0
 11
1.387000000447
 21
16.272000000024
 31
0.0
  0
LINE
  5
68
330
17
100
AcDbEntity
  8
Top_X
100
AcDbLine
 10
1.3943314598170835
 20
17.402402300900103
 30
0.0
 11
1.3943314602462789
 21
16.031597701409233
 31
0.0
  0
LINE
  5
69
330
17
100
AcDbEntity
  8
Top_X
 62
9
100
AcDbLine
 10
1.387000000447
 20
16.272000000024
 30
0.0
 11
0.08200000088099993
 21
16.271999998719
 31
0.0
  0
LINE
  5
6A
330
17
100
AcDbEntity
  8
Top_X
100
AcDbLine
 10
1.3943314602462789
 20
16.031597701409233
 30
0.0
 11
0.07466854062091624
 21
16.031597698708893
 31
0.0
  0
LINE
  5
6B
330
17
100
AcDbEntity
  8
Top_X
 62
9
100
AcDbLine
 10
0.08200000088099993
 20
16.271999998719
 30
0.0
 11
0.08199999999100001
 21
17.161999999585
 31
0.0
  0
LINE
  5
6C
330
17
100
AcDbEntity
  8
Top_X
100
AcDbLine
 10
0.07466854062091624
 20
16.031597698708893
 30
0.0
 11
0.07466854019172088
 21
17.402402298199764
 31
0.0
  0
TEXT
  5
6D
330
17
100
AcDbEntity
  8
TEXT_Top_X
100
AcDbText
 10
0.734500000219
 20
16.7169999998045
 30
0.0
 40
0.2
  1
8 шаг 100
 11
0.734500000219
 21
16.7169999998045
 31
0.0
100
AcDbText
  0
TEXT
  5
6E
330
17
100
AcDbEntity
  8
TEXT_Top_X
100
AcDbText
 10
0.734500000219
 20
16.4669999998045
 30
0.0
 40
0.2
  1
(2010x900)
 11
0.734500000219
 21
16.4669999998045
 31
0.0
100
AcDbText
  0
LINE
  5
6F
330
17
100
AcDbEntity
  8
Top_X
 62
9
100
AcDbLine
 10
-7.937000000896001
 20
21.854
 30
0.0
 11
-7.48500000045
 21
21.854000000452
 31
0.0
  0
LINE
  5
70
330
17
100
AcDbEntity
  8
Top_X
100
AcDbLine
 10
-7.963232143260585
 20
22.47644247621811
 30
0.0
 11
-7.458767857048532
 21
22.476442477873647
 31
0.0
  0
LINE
  5
71
330
17
100
AcDbEntity
  8
Top_X
 62
9
100
AcDbLine
 10
-7.48500000045
 20
21.854000000452
 30
0.0
 11
-7.484999999554
 21
20.958000000452
 31
0.0
  0
LINE
  5
72
330
17
100
AcDbEntity
  8
Top_X
100
AcDbLine
 10
-7.458767857048532
 20
22.476442477873647
 30
0.0
 11
-7.4587678571894145
 21
20.3355575242339
 31
0.0
  0
LINE
  5
73
330
17
100
AcDbEntity
  8
Top_X
 62
9
100
AcDbLine
 10
-7.484999999554
 20
20.958000000452
 30
0.0
 11
-7.937
 21
20.958
 31
0.0
  0
LINE
  5
74
330
17
100
AcDbEntity
  8
Top_X
100
AcDbLine
 10
-7.4587678571894145
 20
20.3355575242339
 30
0.0
 11
-7.963232143401468
 21
20.335557522578362
 31
0.0
  0
LINE
  5
75
330
17
100
AcDbEntity
  8
Top_X
 62
9
100
AcDbLine
 10
-7.937
 20
20.958
 30
0.0
 11
-7.937000000896001
 21
21.854
 31
0.0
  0
LINE
  5
76
330
17
100
AcDbEntity
  8
Top_X
100
AcDbLine
 10
-7.963232143401468
 20
20.335557522578362
 30
0.0
 11
-7.963232143260585
 21
22.47644247621811
 31
0.0
  0
TEXT
  5
77
330
17
100
AcDbEntity
  8
TEXT_Top_X
100
AcDbText
 10
-7.711000000225001
 20
21.406000000226
 30
0.0
 40
0.2
  1
6 шаг 200
 11
-7.711000000225001
 21
21.406000000226
 31
0.0
100
AcDbText
  0
TEXT
  5
78
330
17
100
AcDbEntity
  8
TEXT_Top_X
100
AcDbText
 10
-7.711000000225001
 20
21.156000000226
 30
0.0
 40
0.2
  1
(1080x1000)
 11
-7.711000000225001
 21
21.156000000226
 31
0.0
100
AcDbText
  0
LINE
  5
79
330
17
100
AcDbEntity
  8
Top_X
 62
9
100
AcDbLine
 10
-7.265000000632
 20
22.262999998967
 30
0.0
 11
-6.028000000201
 21
22.263000000204002
 31
0.0
  0
LINE
  5
7A
330
17
100
AcDbEntity
  8
Top_X
100
AcDbLine
 10
-7.387218564017827
 20
22.675774855706205
 30
0.0
 11
-5.905781436319622
 21
22.67577485914477
 31
0.0
  0
LINE
  5
7B
330
17
100
AcDbEntity
  8
Top_X
 62
9
100
AcDbLine
 10
-6.028000000201
 20
22.263000000204002
 30
0.0
 11
-6.027999999365999
 21
21.428000001012002
 31
0.0
  0
LINE
  5
7C
330
17
100
AcDbEntity
  8
Top_X
100
AcDbLine
 10
-5.905781436319622
 20
22.67577485914477
 30
0.0
 11
-5.905781435980171
 21
21.0152251442728
 31
0.0
  0
LINE
  5
7D
330
17
100
AcDbEntity
  8
Top_X
 62
9
100
AcDbLine
 10
-6.027999999365999
 20
21.428000001012002
 30
0.0
 11
-7.264999999796999
 21
21.427999999775
 31
0.0
  0
LINE
  5
7E
330
17
100
AcDbEntity
  8
Top_X
100
AcDbLine
 10
-5.905781435980171
 20
21.0152251442728
 30
0.0
 11
-7.387218563678378
 21
21.015225140834236
 31
0.0
  0
LINE
  5
7F
330
17
100
AcDbEntity
  8
Top_X
 62
9
100
AcDbLine
 10
-7.264999999796999
 20
21.427999999775
 30
0.0
 11
-7.265000000632
 21
22.262999998967
 31
0.0
  0
LINE
  5
80
330
17
100
AcDbEntity
  8
Top_X
100
AcDbLine
 10
-7.387218563678378
 20
21.015225140834236
 30
0.0
 11
-7.387218564017827
 21
22.675774855706205
 31
0.0
  0
TEXT
  5
81
330
17
100
AcDbEntity
  8
TEXT_Top_X
100
AcDbText
 10
-6.6464999999989995
 20
21.845499999989503
 30
0.0
 40
0.2
  1
16 шаг 200
 11
-6.6464999999989995
 21
21.845499999989503
 31
0.0
100
AcDbText
  0
TEXT
  5
82
330
17
100
AcDbEntity
  8
TEXT_Top_X
100
AcDbText
 10
-6.6464999999989995
 20
21.595499999989503
 30
0.0
 40
0.2
  1
(2460x1000)
 11
-6.6464999999989995
 21
21.595499999989503
 31
0.0
100
AcDbText
  0
LINE
  5
83
330
17
100
AcDbEntity
  8
Top_X
 62
9
100
AcDbLine
 10
-0.937000000439
 20
15.587999999791
 30
0.0
 11
-0.728
 21
15.588
 31
0.0
  0
LINE
  5
84
330
17
100
AcDbEntity
  8
Top_X
100
AcDbLine
 10
-0.9753246013116752
 20
16.32421770046679
 30
0.0
 11
-0.6896753979768896
 21
16.32421770200115
 31
0.0
  0
LINE
  5
85
330
17
100
AcDbEntity
  8
Top_X
 62
9
100
AcDbLine
 10
-0.728
 20
15.588
 30
0.0
 11
-0.727999999561
 21
15.149000000001998
 31
0.0
  0
LINE
  5
86
330
17
100
AcDbEntity
  8
Top_X
100
AcDbLine
 10
-0.6896753979768896
 20
16.32421770200115
 30
0.0
 11
-0.689675398688325
 21
14.41278229932621
 31
0.0
  0
LINE
  5
87
330
17
100
AcDbEntity
  8
Top_X
 62
9
100
AcDbLine
 10
-0.727999999561
 20
15.149000000001998
 30
0.0
 11
-0.937
 21
15.148999999792998
 31
0.0
  0
LINE
  5
88
330
17
100
AcDbEntity
  8
Top_X
100
AcDbLine
 10
-0.689675398688325
 20
14.41278229932621
 30
0.0
 11
-0.9753246020231103
 21
14.412782297791864
 31
0.0
  0
LINE
  5
89
330
17
100
AcDbEntity
  8
Top_X
 62
9
100
AcDbLine
 10
-0.937
 20
15.148999999792998
 30
0.0
 11
-0.937000000439
 21
15.587999999791
 31
0.0
  0
LINE
  5
8A
330
17
100
AcDbEntity
  8
Top_X
100
AcDbLine
 10
-0.9753246020231103
 20
14.412782297791864
 30
0.0
 11
-0.9753246013116752
 21
16.32421770046679
 31
0.0
  0
TEXT
  5
8B
330
17
100
AcDbEntity
  8
TEXT_Top_X
100
AcDbText
 10
-0.8325
 20
15.368499999896498
 30
0.0
 40
0.2
  1
8 шаг 200
 11
-0.8325
 21
15.368499999896498
 31
0.0
100
AcDbText
  0
TEXT
  5
8C
330
17
100
AcDbEntity
  8
TEXT_Top_X
100
AcDbText
 10
-0.8325
 20
15.118499999896498
 30
0.0
 40
0.2
  1
(910x600)
 11
-0.8325
 21
15.118499999896498
 31
0.0
100
AcDbText
  0
LINE
  5
8D
330
17
100
AcDbEntity
  8
Top_X
 62
9
100
AcDbLine
 10
-7.937000000869
 20
17.622999999782
 30
0.0
 11
-7.717000000218
 21
17.623000000002
 31
0.0
  0
LINE
  5
8E
330
17
100
AcDbEntity
  8
Top_X
100
AcDbLine
 10
-7.953582278285541
 20
18.867249994203867
 30
0.0
 11
-7.700417720574961
 21
18.867249995650702
 31
0.0
  0
LINE
  5
8F
330
17
100
AcDbEntity
  8
Top_X
 62
9
100
AcDbLine
 10
-7.717000000218
 20
17.623000000002
 30
0.0
 11
-7.716999999349
 21
16.754
 31
0.0
  0
LINE
  5
90
330
17
100
AcDbEntity
  8
Top_X
100
AcDbLine
 10
-7.700417720574961
 20
18.867249995650702
 30
0.0
 11
-7.700417721932462
 21
15.50975000557812
 31
0.0
  0
LINE
  5
91
330
17
100
AcDbEntity
  8
Top_X
 62
9
100
AcDbLine
 10
-7.716999999349
 20
16.754
 30
0.0
 11
-7.937
 21
16.75399999978
 31
0.0
  0
LINE
  5
92
330
17
100
AcDbEntity
  8
Top_X
100
AcDbLine
 10
-7.700417721932462
 20
15.50975000557812
 30
0.0
 11
-7.953582279643042
 21
15.509750004131284
 31
0.0
  0
LINE
  5
93
330
17
100
AcDbEntity
  8
Top_X
 62
9
100
AcDbLine
 10
-7.937
 20
16.75399999978
 30
0.0
 11
-7.937000000869
 21
17.622999999782
 31
0.0
  0
LINE
  5
94
330
17
100
AcDbEntity
  8
Top_X
100
AcDbLine
 10
-7.953582279643042
 20
15.509750004131284
 30
0.0
 11
-7.953582278285541
 21
18.867249994203867
 31
0.0
  0
TEXT
  5
95
330
17
100
AcDbEntity
  8
TEXT_Top_X
100
AcDbText
 10
-7.827000000109001
 20
17.188499999891
 30
0.0
 40
0.2
  1
6 шаг 200
 11
-7.827000000109001
 21
17.188499999891
 31
0.0
100
AcDbText
  0
TEXT
  5
96
330
17
100
AcDbEntity
  8
TEXT_Top_X
100
AcDbText
 10
-7.827000000109001
 20
16.938499999891
 30
0.0
 40
0.2
  1
(850x1000)
 11
-7.827000000109001
 21
16.938499999891
 31
0.0
100
AcDbText
  0
LINE
  5
97
330
17
100
AcDbEntity
  8
Top_X
 62
9
100
AcDbLine
 10
-7.937000005978
 20
15.36899999633
 30
0.0
 11
-3.00000000044
 21
15.369000001266999
 31
0.0
  0
LINE
  5
98
330
17
100
AcDbEntity
  8
Top_X
100
AcDbLine
 10
-7.959499355979296
 20
15.806434870948612
 30
0.0
 11
-2.9775006496758336
 21
15.80643487724661
 31
0.0
  0
LINE
  5
99
330
17
100
AcDbEntity
  8
Top_X
 62
9
100
AcDbLine
 10
-3.00000000044
 20
15.369000001266999
 30
0.0
 11
-2.9999999942960005
 21
9.225000004717998
 31
0.0
  0
LINE
  5
9A
330
17
100
AcDbEntity
  8
Top_X
100
AcDbLine
 10
-2.9775006496758336
 20
15.80643487724661
 30
0.0
 11
-2.977500644294704
 21
8.787565130099386
 31
0.0
  0
LINE
  5
9B
330
17
100
AcDbEntity
  8
Top_X
 62
9
100
AcDbLine
 10
-2.9999999942960005
 20
9.225000004717998
 30
0.0
 11
-7.936999999834001
 21
9.224999999781
 31
0.0
  0
LINE
  5
9C
330
17
100
AcDbEntity
  8
Top_X
100
AcDbLine
 10
-2.977500644294704
 20
8.787565130099386
 30
0.0
 11
-7.9594993505981675
 21
8.787565123801386
 31
0.0
  0
LINE
  5
9D
330
17
100
AcDbEntity
  8
Top_X
 62
9
100
AcDbLine
 10
-7.936999999834001
 20
9.224999999781
 30
0.0
 11
-7.937000005978
 21
15.36899999633
 31
0.0
  0
LINE
  5
9E
330
17
100
AcDbEntity
  8
Top_X
100
AcDbLine
 10
-7.9594993505981675
 20
8.787565123801386
 30
0.0
 11
-7.959499355979296
 21
15.806434870948612
 31
0.0
  0
TEXT
  5
9F
330
17
100
AcDbEntity
  8
TEXT_Top_X
100
AcDbText
 10
-5.468500000137
 20
12.297000000524
 30
0.0
 40
0.2
  1
8 шаг 100
 11
-5.468500000137
 21
12.297000000524
 31
0.0
100
AcDbText
  0
TEXT
  5
A0
330
17
100
AcDbEntity
  8
TEXT_Top_X
100
AcDbText
 10
-5.468500000137
 20
12.047000000524
 30
0.0
 40
0.2
  1
(5640x6200)
 11
-5.468500000137
 21
12.047000000524
 31
0.0
100
AcDbText
  0
LINE
  5
A1
330
17
100
AcDbEntity
  8
Top_X
 62
9
100
AcDbLine
 10
-1.971000000632
 20
14.348999998966
 30
0.0
 11
-0.49400000042099995
 21
14.349000000443
 31
0.0
  0
LINE
  5
A2
330
17
100
AcDbEntity
  8
Top_X
100
AcDbLine
 10
-2.102346878750837
 20
14.654513539041165
 30
0.0
 11
-0.3626531219931364
 21
14.654513542381473
 31
0.0
  0
LINE
  5
A3
330
17
100
AcDbEntity
  8
Top_X
 62
9
100
AcDbLine
 10
-0.49400000042099995
 20
14.349000000443
 30
0.0
 11
-0.493999999572
 21
13.500000000027
 31
0.0
  0
LINE
  5
A4
330
17
100
AcDbEntity
  8
Top_X
100
AcDbLine
 10
-0.3626531219931364
 20
14.654513542381473
 30
0.0
 11
-0.36265312145316353
 21
13.194486459951836
 31
0.0
  0
LINE
  5
A5
330
17
100
AcDbEntity
  8
Top_X
 62
9
100
AcDbLine
 10
-0.493999999572
 20
13.500000000027
 30
0.0
 11
-1.9709999997830001
 21
13.49999999855
 31
0.0
  0
LINE
  5
A6
330
17
100
AcDbEntity
  8
Top_X
100
AcDbLine
 10
-0.36265312145316353
 20
13.194486459951836
 30
0.0
 11
-2.1023468782108643
 21
13.194486456611529
 31
0.0
  0
LINE
  5
A7
330
17
100
AcDbEntity
  8
Top_X
 62
9
100
AcDbLine
 10
-1.9709999997830001
 20
13.49999999855
 30
0.0
 11
-1.971000000632
 21
14.348999998966
 31
0.0
  0
LINE
  5
A8
330
17
100
AcDbEntity
  8
Top_X
100
AcDbLine
 10
-2.1023468782108643
 20
13.194486456611529
 30
0.0
 11
-2.102346878750837
 21
14.654513539041165
 31
0.0
  0
TEXT
  5
A9
330
17
100
AcDbEntity
  8
TEXT_Top_X
100
AcDbText
 10
-1.2325000001020001
 20
13.9244999994965
 30
0.0
 40
0.2
  1
14 шаг 200
 11
-1.2325000001020001
 21
13.9244999994965
 31
0.0
100
AcDbText
  0
TEXT
  5
AA
330
17
100
AcDbEntity
  8
TEXT_Top_X
100
AcDbText
 10
-1.2325000001020001
 20
13.6744999994965
 30
0.0
 40
0.2
  1
(2540x1000)
 11
-1.2325000001020001
 21
13.6744999994965
 31
0.0
100
AcDbText
  0
LINE
  5
AB
330
17
100
AcDbEntity
  8
Top_X
 62
9
100
AcDbLine
 10
0.492
 20
4.569
 30
0.0
 11
0.9629999998
 21
4.569000000471
 31
0.0
  0
LINE
  5
AC
330
17
100
AcDbEntity
  8
Top_X
100
AcDbLine
 10
0.44978773621884915
 20
4.852116772594801
 30
0.0
 11
1.0052122639953842
 21
4.852116774239377
 31
0.0
  0
LINE
  5
AD
330
17
100
AcDbEntity
  8
Top_X
 62
9
100
AcDbLine
 10
0.9629999998
 20
4.569000000471
 30
0.0
 11
0.9630000002239999
 21
4.14500000025
 31
0.0
  0
LINE
  5
AE
330
17
100
AcDbEntity
  8
Top_X
100
AcDbLine
 10
1.0052122639953842
 20
4.852116774239377
 30
0.0
 11
1.0052122640051508
 21
3.8618832276552
 31
0.0
  0
LINE
  5
AF
330
17
100
AcDbEntity
  8
Top_X
 62
9
100
AcDbLine
 10
0.9630000002239999
 20
4.14500000025
 30
0.0
 11
0.49200000042399994
 21
4.1449999997789995
 31
0.0
  0
LINE
  5
B0
330
17
100
AcDbEntity
  8
Top_X
100
AcDbLine
 10
1.0052122640051508
 20
3.8618832276552
 30
0.0
 11
0.4497877362286157
 21
3.861883226010624
 31
0.0
  0
LINE
  5
B1
330
17
100
AcDbEntity
  8
Top_X
 62
9
100
AcDbLine
 10
0.49200000042399994
 20
4.1449999997789995
 30
0.0
 11
0.492
 21
4.569
 31
0.0
  0
LINE
  5
B2
330
17
100
AcDbEntity
  8
Top_X
100
AcDbLine
 10
0.4497877362286157
 20
3.861883226010624
 30
0.0
 11
0.44978773621884915
 21
4.852116772594801
 31
0.0
  0
TEXT
  5
B3
330
17
100
AcDbEntity
  8
TEXT_Top_X
100
AcDbText
 10
0.727500000112
 20
4.357000000125
 30
0.0
 40
0.2
  1
6 шаг 100
 11
0.727500000112
 21
4.357000000125
 31
0.0
100
AcDbText
  0
TEXT
  5
B4
330
17
100
AcDbEntity
  8
TEXT_Top_X
100
AcDbText
 10
0.727500000112
 20
4.107000000125
 30
0.0
 40
0.2
  1
(1100x500)
 11
0.727500000112
 21
4.107000000125
 31
0.0
100
AcDbText
  0
LINE
  5
B5
330
17
100
AcDbEntity
  8
Top_X
 62
9
100
AcDbLine
 10
-1.62400000001
 20
4.7899999996
 30
0.0
 11
-0.816000000005
 21
4.790000000408
 31
0.0
  0
LINE
  5
B6
330
17
100
AcDbEntity
  8
Top_X
100
AcDbLine
 10
-1.9256768571455072
 20
4.878142325866758
 30
0.0
 11
-0.5143231430352089
 21
4.878142327315404
 31
0.0
  0
LINE
  5
B7
330
17
100
AcDbEntity
  8
Top_X
 62
9
100
AcDbLine
 10
-0.816000000005
 20
4.790000000408
 30
0.0
 11
-0.815999999776
 21
4.561000000783
 31
0.0
  0
LINE
  5
B8
330
17
100
AcDbEntity
  8
Top_X
100
AcDbLine
 10
-0.5143231430352089
 20
4.878142327315404
 30
0.0
 11
-0.5143231426404935
 21
4.472857674516241
 31
0.0
  0
LINE
  5
B9
330
17
100
AcDbEntity
  8
Top_X
 62
9
100
AcDbLine
 10
-0.815999999776
 20
4.561000000783
 30
0.0
 11
-1.623999999781
 21
4.560999999975
 31
0.0
  0
LINE
  5
BA
330
17
100
AcDbEntity
  8
Top_X
100
AcDbLine
 10
-0.5143231426404935
 20
4.472857674516241
 30
0.0
 11
-1.9256768567507914
 21
4.472857673067596
 31
0.0
  0
LINE
  5
BB
330
17
100
AcDbEntity
  8
Top_X
 62
9
100
AcDbLine
 10
-1.623999999781
 20
4.560999999975
 30
0.0
 11
-1.62400000001
 21
4.7899999996
 31
0.0
  0
LINE
  5
BC
330
17
100
AcDbEntity
  8
Top_X
100
AcDbLine
 10
-1.9256768567507914
 20
4.472857673067596
 30
0.0
 11
-1.9256768571455072
 21
4.878142325866758
 31
0.0
  0
TEXT
  5
BD
330
17
100
AcDbEntity
  8
TEXT_Top_X
100
AcDbText
 10
-1.219999999893
 20
4.6755000001915
 30
0.0
 40
0.2
  1
6 шаг 200
 11
-1.219999999893
 21
4.6755000001915
 31
0.0
100
AcDbText
  0
TEXT
  5
BE
330
17
100
AcDbEntity
  8
TEXT_Top_X
100
AcDbText
 10
-1.219999999893
 20
4.4255000001915
 30
0.0
 40
0.2
  1
(1430x400)
 11
-1.219999999893
 21
4.4255000001915
 31
0.0
100
AcDbText
  0
LINE
  5
BF
330
17
100
AcDbEntity
  8
Top_X
 62
9
100
AcDbLine
 10
-1.036000000221
 20
1.686
 30
0.0
 11
-0.816000000015
 21
1.68600000022
 31
0.0
  0
LINE
  5
C0
330
17
100
AcDbEntity
  8
Top_X
100
AcDbLine
 10
-1.1164761904417584
 20
2.016749999326146
 30
0.0
 11
-0.7355238094707418
 21
2.016750000645194
 31
0.0
  0
LINE
  5
C1
330
17
100
AcDbEntity
  8
Top_X
 62
9
100
AcDbLine
 10
-0.816000000015
 20
1.68600000022
 30
0.0
 11
-0.815999999784
 21
1.455000000015
 31
0.0
  0
LINE
  5
C2
330
17
100
AcDbEntity
  8
Top_X
100
AcDbLine
 10
-0.7355238094707418
 20
2.016750000645194
 30
0.0
 11
-0.7355238095632418
 21
1.1242500006888534
 31
0.0
  0
LINE
  5
C3
330
17
100
AcDbEntity
  8
Top_X
 62
9
100
AcDbLine
 10
-0.815999999784
 20
1.455000000015
 30
0.0
 11
-1.03599999999
 21
1.454999999795
 31
0.0
  0
LINE
  5
C4
330
17
100
AcDbEntity
  8
Top_X
100
AcDbLine
 10
-0.7355238095632418
 20
1.1242500006888534
 30
0.0
 11
-1.1164761905342586
 21
1.1242499993698063
 31
0.0
  0
LINE
  5
C5
330
17
100
AcDbEntity
  8
Top_X
 62
9
100
AcDbLine
 10
-1.03599999999
 20
1.454999999795
 30
0.0
 11
-1.036000000221
 21
1.686
 31
0.0
  0
LINE
  5
C6
330
17
100
AcDbEntity
  8
Top_X
100
AcDbLine
 10
-1.1164761905342586
 20
1.1242499993698063
 30
0.0
 11
-1.1164761904417584
 21
2.016749999326146
 31
0.0
  0
TEXT
  5
C7
330
17
100
AcDbEntity
  8
TEXT_Top_X
100
AcDbText
 10
-0.9260000000025
 20
1.5705000000074998
 30
0.0
 40
0.2
  1
6 шаг 200
 11
-0.9260000000025
 21
1.5705000000074998
 31
0.0
100
AcDbText
  0
TEXT
  5
C8
330
17
100
AcDbEntity
  8
TEXT_Top_X
100
AcDbText
 10
-0.9260000000025
 20
1.3205000000074998
 30
0.0
 40
0.2
  1
(850x400)
 11
-0.9260000000025
 21
1.3205000000074998
 31
0.0
100
AcDbText
  0
LINE
  5
C9
330
17
100
AcDbEntity
  8
Top_X
 62
9
100
AcDbLine
 10
-1.286000000221
 20
10.869999999974999
 30
0.0
 11
-0.809000000007
 21
10.870000000452
 31
0.0
  0
LINE
  5
CA
330
17
100
AcDbEntity
  8
Top_X
100
AcDbLine
 10
-1.4659210521379142
 20
11.018893081466237
 30
0.0
 11
-0.6290789481362995
 21
11.018893082829399
 31
0.0
  0
LINE
  5
CB
330
17
100
AcDbEntity
  8
Top_X
 62
9
100
AcDbLine
 10
-0.809000000007
 20
10.870000000452
 30
0.0
 11
-0.8089999997790001
 21
10.642000000006
 31
0.0
  0
LINE
  5
CC
330
17
100
AcDbEntity
  8
Top_X
100
AcDbLine
 10
-0.6290789481362995
 20
11.018893082829399
 30
0.0
 11
-0.629078947862086
 21
10.49310691851476
 31
0.0
  0
LINE
  5
CD
330
17
100
AcDbEntity
  8
Top_X
 62
9
100
AcDbLine
 10
-0.8089999997790001
 20
10.642000000006
 30
0.0
 11
-1.2859999999929999
 21
10.641999999528998
 31
0.0
  0
LINE
  5
CE
330
17
100
AcDbEntity
  8
Top_X
100
AcDbLine
 10
-0.629078947862086
 20
10.49310691851476
 30
0.0
 11
-1.4659210518637003
 21
10.493106917151598
 31
0.0
  0
LINE
  5
CF
330
17
100
AcDbEntity
  8
Top_X
 62
9
100
AcDbLine
 10
-1.2859999999929999
 20
10.641999999528998
 30
0.0
 11
-1.286000000221
 21
10.869999999974999
 31
0.0
  0
LINE
  5
D0
330
17
100
AcDbEntity
  8
Top_X
100
AcDbLine
 10
-1.4659210518637003
 20
10.493106917151598
 30
0.0
 11
-1.4659210521379142
 21
11.018893081466237
 31
0.0
  0
TEXT
  5
D1
330
17
100
AcDbEntity
  8
TEXT_Top_X
100
AcDbText
 10
-1.0474999999999999
 20
10.755999999990498
 30
0.0
 40
0.2
  1
6 шаг 200
 11
-1.0474999999999999
 21
10.755999999990498
 31
0.0
100
AcDbText
  0
TEXT
  5
D2
330
17
100
AcDbEntity
  8
TEXT_Top_X
100
AcDbText
 10
-1.0474999999999999
 20
10.505999999990498
 30
0.0
 40
0.2
  1
(1100x400)
 11
-1.0474999999999999
 21
10.505999999990498
 31
0.0
100
AcDbText
  0
LINE
  5
D3
330
17
100
AcDbEntity
  8
Top_X
 62
9
100
AcDbLine
 10
-8.23036217589161
 20
-3.8752226186556475
 30
0.0
 11
-6.144914246356822
 21
-0.2631225174088617
 31
0.0
  0
LINE
  5
D4
330
17
100
AcDbEntity
  8
Top_X
100
AcDbLine
 10
-8.810665316042064
 20
-4.1876773151177105
 30
0.0
 11
-6.049822438402732
 21
-0.13613714299565816
 31
0.0
  0
LINE
  5
D5
330
17
100
AcDbEntity
  8
Top_X
 62
9
100
AcDbLine
 10
-6.144914246356822
 20
-0.2631225174088617
 30
0.0
 11
-2.156579914628919
 21
-2.5657894815728763
 31
0.0
  0
LINE
  5
D6
330
17
100
AcDbEntity
  8
Top_X
100
AcDbLine
 10
-6.049822438402732
 20
-0.13613714299565816
 30
0.0
 11
-1.576276774478465
 21
-2.253334785110814
 31
0.0
  0
LINE
  5
D7
330
17
100
AcDbEntity
  8
Top_X
 62
9
100
AcDbLine
 10
-2.156579914628919
 20
-2.5657894815728763
 30
0.0
 11
-4.242027844163706
 21
-6.177889582819662
 31
0.0
  0
LINE
  5
D8
330
17
100
AcDbEntity
  8
Top_X
100
AcDbLine
 10
-1.576276774478465
 20
-2.253334785110814
 30
0.0
 11
-4.3371196521177975
 21
-6.304874957232867
 31
0.0
  0
LINE
  5
D9
330
17
100
AcDbEntity
  8
Top_X
 62
9
100
AcDbLine
 10
-4.242027844163706
 20
-6.177889582819662
 30
0.0
 11
-8.23036217589161
 21
-3.8752226186556475
 31
0.0
  0
LINE
  5
DA
330
17
100
AcDbEntity
  8
Top_X
100
AcDbLine
 10
-4.3371196521177975
 20
-6.304874957232867
 30
0.0
 11
-8.810665316042064
 21
-4.1876773151177105
 31
0.0
  0
TEXT
  5
DB
330
17
100
AcDbEntity
  8
TEXT_Top_X
100
AcDbText
 10
-5.1934710452602655
 20
-3.220506050114262
 30
0.0
 40
0.2
  1
12 шаг 100
 11
-5.1934710452602655
 21
-3.220506050114262
 31
0.0
100
AcDbText
  0
TEXT
  5
DC
330
17
100
AcDbEntity
  8
TEXT_Top_X
100
AcDbText
 10
-5.1934710452602655
 20
-3.470506050114262
 30
0.0
 40
0.2
  1
(5100x4700)
 11
-5.1934710452602655
 21
-3.470506050114262
 31
0.0
100
AcDbText
  0
LINE
  5
DD
330
17
100
AcDbEntity
  8
Top_X
 62
9
100
AcDbLine
 10
-17.722363696919988
 20
-2.534749205431435
 30
0.0
 11
-15.269422924916379
 21
1.7138668762384213
 31
0.0
  0
LINE
  5
DE
330
17
100
AcDbEntity
  8
Top_X
100
AcDbLine
 10
-18.627450052449298
 20
-3.004766857292256
 30
0.0
 11
-15.282176147855354
 21
1.8185216761046945
 31
0.0
  0
LINE
  5
DF
330
17
100
AcDbEntity
  8
Top_X
 62
9
100
AcDbLine
 10
-15.269422924916379
 20
1.7138668762384213
 30
0.0
 11
-8.483726919098
 21
-2.203858349843174
 31
0.0
  0
LINE
  5
E0
330
17
100
AcDbEntity
  8
Top_X
100
AcDbLine
 10
-15.282176147855354
 20
1.8185216761046945
 30
0.0
 11
-7.578640563568696
 21
-1.733840697982353
 31
0.0
  0
LINE
  5
E1
330
17
100
AcDbEntity
  8
Top_X
 62
9
100
AcDbLine
 10
-8.483726919098
 20
-2.203858349843174
 30
0.0
 11
-10.93666769110161
 21
-6.45247443151303
 31
0.0
  0
LINE
  5
E2
330
17
100
AcDbEntity
  8
Top_X
100
AcDbLine
 10
-7.578640563568696
 20
-1.733840697982353
 30
0.0
 11
-10.923914468162641
 21
-6.557129231379303
 31
0.0
  0
LINE
  5
E3
330
17
100
AcDbEntity
  8
Top_X
 62
9
100
AcDbLine
 10
-10.93666769110161
 20
-6.45247443151303
 30
0.0
 11
-17.722363696919988
 21
-2.534749205431435
 31
0.0
  0
LINE
  5
E4
330
17
100
AcDbEntity
  8
Top_X
100
AcDbLine
 10
-10.923914468162641
 20
-6.557129231379303
 30
0.0
 11
-18.627450052449298
 21
-3.004766857292256
 31
0.0
  0
TEXT
  5
E5
330
17
100
AcDbEntity
  8
TEXT_Top_X
100
AcDbText
 10
-13.103045308008996
 20
-2.3693037776373043
 30
0.0
 40
0.2
  1
16 шаг 200
 11
-13.103045308008996
 21
-2.3693037776373043
 31
0.0
100
AcDbText
  0
TEXT
  5
E6
330
17
100
AcDbEntity
  8
TEXT_Top_X
100
AcDbText
 10
-13.103045308008996
 20
-2.6193037776373043
 30
0.0
 40
0.2
  1
(6130x8000)
 11
-13.103045308008996
 21
-2.6193037776373043
 31
0.0
100
AcDbText
  0
LINE
  5
E7
330
17
100
AcDbEntity
  8
Top_X
 62
9
100
AcDbLine
 10
-12.593319719089516
 20
-0.8101948833227061
 30
0.0
 11
-10.461737118412175
 21
2.88181277540607
 31
0.0
  0
LINE
  5
E8
330
17
100
AcDbEntity
  8
Top_X
100
AcDbLine
 10
-13.368292082588559
 20
-1.239242268650761
 30
0.0
 11
-10.33247772591183
 21
3.011533288150775
 31
0.0
  0
LINE
  5
E9
330
17
100
AcDbEntity
  8
Top_X
 62
9
100
AcDbLine
 10
-10.461737118412175
 20
2.88181277540607
 30
0.0
 11
-6.1952425293578335
 21
0.4185498375811759
 31
0.0
  0
LINE
  5
EA
330
17
100
AcDbEntity
  8
Top_X
100
AcDbLine
 10
-10.33247772591183
 20
3.011533288150775
 30
0.0
 11
-5.420270165858791
 21
0.8475972229092305
 31
0.0
  0
LINE
  5
EB
330
17
100
AcDbEntity
  8
Top_X
 62
9
100
AcDbLine
 10
-6.1952425293578335
 20
0.4185498375811759
 30
0.0
 11
-8.326825130035173
 21
-3.2734578211476
 31
0.0
  0
LINE
  5
EC
330
17
100
AcDbEntity
  8
Top_X
100
AcDbLine
 10
-5.420270165858791
 20
0.8475972229092305
 30
0.0
 11
-8.45608452253552
 21
-3.4031783338923045
 31
0.0
  0
LINE
  5
ED
330
17
100
AcDbEntity
  8
Top_X
 62
9
100
AcDbLine
 10
-8.326825130035173
 20
-3.2734578211476
 30
0.0
 11
-12.593319719089516
 21
-0.8101948833227061
 31
0.0
  0
LINE
  5
EE
330
17
100
AcDbEntity
  8
Top_X
100
AcDbLine
 10
-8.45608452253552
 20
-3.4031783338923045
 30
0.0
 11
-13.368292082588559
 21
-1.239242268650761
 31
0.0
  0
TEXT
  5
EF
330
17
100
AcDbEntity
  8
TEXT_Top_X
100
AcDbText
 10
-9.394281124223674
 20
-0.19582252287076507
 30
0.0
 40
0.2
  1
16 шаг 200
 11
-9.394281124223674
 21
-0.19582252287076507
 31
0.0
100
AcDbText
  0
TEXT
  5
F0
330
17
100
AcDbEntity
  8
TEXT_Top_X
100
AcDbText
 10
-9.394281124223674
 20
-0.44582252287076507
 30
0.0
 40
0.2
  1
(5490x5000)
 11
-9.394281124223674
 21
-0.44582252287076507
 31
0.0
100
AcDbText
  0
LINE
  5
F1
330
17
100
AcDbEntity
  8
Top_X
 62
9
100
AcDbLine
 10
-2.9282967573530656
 20
0.5434209495602166
 30
0.0
 11
-2.5574272113006935
 21
1.1857855494492962
 31
0.0
  0
LINE
  5
F2
330
17
100
AcDbEntity
  8
Top_X
100
AcDbLine
 10
-3.2707110359942133
 20
0.34892689863800136
 30
0.0
 11
-2.4367340462637572
 21
1.2773463798416926
 31
0.0
  0
LINE
  5
F3
330
17
100
AcDbEntity
  8
Top_X
 62
9
100
AcDbLine
 10
-2.5574272113006935
 20
1.1857855494492962
 30
0.0
 11
-2.059529843187164
 21
0.8983242370967461
 31
0.0
  0
LINE
  5
F4
330
17
100
AcDbEntity
  8
Top_X
100
AcDbLine
 10
-2.4367340462637572
 20
1.2773463798416926
 30
0.0
 11
-1.7171155645460154
 21
1.0928182880189614
 31
0.0
  0
LINE
  5
F5
330
17
100
AcDbEntity
  8
Top_X
 62
9
100
AcDbLine
 10
-2.059529843187164
 20
0.8983242370967461
 30
0.0
 11
-2.430399389239536
 21
0.25595963720766657
 31
0.0
  0
LINE
  5
F6
330
17
100
AcDbEntity
  8
Top_X
100
AcDbLine
 10
-1.7171155645460154
 20
1.0928182880189614
 30
0.0
 11
-2.5510925542764724
 21
0.16439880681526997
 31
0.0
  0
LINE
  5
F7
330
17
100
AcDbEntity
  8
Top_X
 62
9
100
AcDbLine
 10
-2.430399389239536
 20
0.25595963720766657
 30
0.0
 11
-2.9282967573530656
 21
0.5434209495602166
 31
0.0
  0
LINE
  5
F8
330
17
100
AcDbEntity
  8
Top_X
100
AcDbLine
 10
-2.5510925542764724
 20
0.16439880681526997
 30
0.0
 11
-3.2707110359942133
 21
0.34892689863800136
 31
0.0
  0
TEXT
  5
F9
330
17
100
AcDbEntity
  8
TEXT_Top_X
100
AcDbText
 10
-2.4939133002701146
 20
0.7208725933284813
 30
0.0
 40
0.2
  1
6 шаг 200
 11
-2.4939133002701146
 21
0.7208725933284813
 31
0.0
100
AcDbText
  0
TEXT
  5
FA
330
17
100
AcDbEntity
  8
TEXT_Top_X
100
AcDbText
 10
-2.4939133002701146
 20
0.4708725933284813
 30
0.0
 40
0.2
  1
(1370x600)
 11
-2.4939133002701146
 21
0.4708725933284813
 31
0.0
100
AcDbText
  0
LINE
  5
FB
330
17
100
AcDbEntity
  8
Top_X
 62
9
100
AcDbLine
 10
-14.702154835259028
 20
-10.97609239044008
 30
0.0
 11
-12.862135940047617
 21
-7.789087649846162
 31
0.0
  0
LINE
  5
FC
330
17
100
AcDbEntity
  8
Top_X
100
AcDbLine
 10
-15.409684046937913
 20
-11.35469032821754
 30
0.0
 11
-12.697195081333797
 21
-7.548488377827333
 31
0.0
  0
LINE
  5
FD
330
17
100
AcDbEntity
  8
Top_X
 62
9
100
AcDbLine
 10
-12.862135940047617
 20
-7.789087649846162
 30
0.0
 11
-10.069433788837824
 21
-9.401455733731083
 31
0.0
  0
LINE
  5
FE
330
17
100
AcDbEntity
  8
Top_X
100
AcDbLine
 10
-12.697195081333797
 20
-7.548488377827333
 30
0.0
 11
-9.361904577158944
 21
-9.022857795953625
 31
0.0
  0
LINE
  5
FF
330
17
100
AcDbEntity
  8
Top_X
 62
9
100
AcDbLine
 10
-10.069433788837824
 20
-9.401455733731083
 30
0.0
 11
-11.909452684049235
 21
-12.588460474325
 31
0.0
  0
LINE
  5
100
330
17
100
AcDbEntity
  8
Top_X
100
AcDbLine
 10
-9.361904577158944
 20
-9.022857795953625
 30
0.0
 11
-12.074393542763056
 21
-12.829059746343832
 31
0.0
  0
LINE
  5
101
330
17
100
AcDbEntity
  8
Top_X
 62
9
100
AcDbLine
 10
-11.909452684049235
 20
-12.588460474325
 30
0.0
 11
-14.702154835259028
 21
-10.97609239044008
 31
0.0
  0
LINE
  5
102
330
17
100
AcDbEntity
  8
Top_X
100
AcDbLine
 10
-12.074393542763056
 20
-12.829059746343832
 30
0.0
 11
-15.409684046937913
 21
-11.35469032821754
 31
0.0
  0
TEXT
  5
103
330
17
100
AcDbEntity
  8
TEXT_Top_X
100
AcDbText
 10
-12.385794312048427
 20
-10.188774062085582
 30
0.0
 40
0.2
  1
16 шаг 200
 11
-12.385794312048427
 21
-10.188774062085582
 31
0.0
100
AcDbText
  0
TEXT
  5
104
330
17
100
AcDbEntity
  8
TEXT_Top_X
100
AcDbText
 10
-12.385794312048427
 20
-10.438774062085582
 30
0.0
 40
0.2
  1
(4910x3400)
 11
-12.385794312048427
 21
-10.438774062085582
 31
0.0
100
AcDbText
  0
LINE
  5
105
330
17
100
AcDbEntity
  8
Top_X
 62
9
100
AcDbLine
 10
-16.759776238195204
 20
-13.610499590671548
 30
0.0
 11
-15.681999961874574
 21
-11.743737183571996
 31
0.0
  0
LINE
  5
106
330
17
100
AcDbEntity
  8
Top_X
100
AcDbLine
 10
-17.285243715391232
 20
-13.903189621977049
 30
0.0
 11
-15.742594806953385
 21
-11.760033986110635
 31
0.0
  0
LINE
  5
107
330
17
100
AcDbEntity
  8
Top_X
 62
9
100
AcDbLine
 10
-15.681999961874574
 20
-11.743737183571996
 30
0.0
 11
-11.723724401965379
 21
-14.029049699715026
 31
0.0
  0
LINE
  5
108
330
17
100
AcDbEntity
  8
Top_X
100
AcDbLine
 10
-15.742594806953385
 20
-11.760033986110635
 30
0.0
 11
-11.198256924769357
 21
-13.736359668409527
 31
0.0
  0
LINE
  5
109
330
17
100
AcDbEntity
  8
Top_X
 62
9
100
AcDbLine
 10
-11.723724401965379
 20
-14.029049699715026
 30
0.0
 11
-12.801500678286011
 21
-15.895812106814578
 31
0.0
  0
LINE
  5
10A
330
17
100
AcDbEntity
  8
Top_X
100
AcDbLine
 10
-11.198256924769357
 20
-13.736359668409527
 30
0.0
 11
-12.740905833207204
 21
-15.879515304275937
 31
0.0
  0
LINE
  5
10B
330
17
100
AcDbEntity
  8
Top_X
 62
9
100
AcDbLine
 10
-12.801500678286011
 20
-15.895812106814578
 30
0.0
 11
-16.759776238195204
 21
-13.610499590671548
 31
0.0
  0
LINE
  5
10C
330
17
100
AcDbEntity
  8
Top_X
100
AcDbLine
 10
-12.740905833207204
 20
-15.879515304275937
 30
0.0
 11
-17.285243715391232
 21
-13.903189621977049
 31
0.0
  0
TEXT
  5
10D
330
17
100
AcDbEntity
  8
TEXT_Top_X
100
AcDbText
 10
-14.241750320080293
 20
-13.819774645193288
 30
0.0
 40
0.2
  1
6 шаг 200
 11
-14.241750320080293
 21
-13.819774645193288
 31
0.0
100
AcDbText
  0
TEXT
  5
10E
330
17
100
AcDbEntity
  8
TEXT_Top_X
100
AcDbText
 10
-14.241750320080293
 20
-14.069774645193288
 30
0.0
 40
0.2
  1
(2780x4600)
 11
-14.241750320080293
 21
-14.069774645193288
 31
0.0
100
AcDbText
  0
LINE
  5
10F
330
17
100
AcDbEntity
  8
Top_X
 62
9
100
AcDbLine
 10
-10.350851826513278
 20
-9.941890607146984
 30
0.0
 11
-10.108370382674211
 21
-9.521900620613518
 31
0.0
  0
LINE
  5
110
330
17
100
AcDbEntity
  8
Top_X
100
AcDbLine
 10
-10.910325018533742
 20
-10.233593593042476
 30
0.0
 11
-10.208142121627583
 21
-9.527233310361266
 31
0.0
  0
LINE
  5
111
330
17
100
AcDbEntity
  8
Top_X
 62
9
100
AcDbLine
 10
-10.108370382674211
 20
-9.521900620613518
 30
0.0
 11
-9.141522161623985
 21
-10.080110959265987
 31
0.0
  0
LINE
  5
112
330
17
100
AcDbEntity
  8
Top_X
100
AcDbLine
 10
-10.208142121627583
 20
-9.527233310361266
 30
0.0
 11
-8.582048969603521
 21
-9.788407973370495
 31
0.0
  0
LINE
  5
113
330
17
100
AcDbEntity
  8
Top_X
 62
9
100
AcDbLine
 10
-9.141522161623985
 20
-10.080110959265987
 30
0.0
 11
-9.384003605463054
 21
-10.500100945799453
 31
0.0
  0
LINE
  5
114
330
17
100
AcDbEntity
  8
Top_X
100
AcDbLine
 10
-8.582048969603521
 20
-9.788407973370495
 30
0.0
 11
-9.284231866509684
 21
-10.494768256051705
 31
0.0
  0
LINE
  5
115
330
17
100
AcDbEntity
  8
Top_X
 62
9
100
AcDbLine
 10
-9.384003605463054
 20
-10.500100945799453
 30
0.0
 11
-10.350851826513278
 21
-9.941890607146984
 31
0.0
  0
LINE
  5
116
330
17
100
AcDbEntity
  8
Top_X
100
AcDbLine
 10
-9.284231866509684
 20
-10.494768256051705
 30
0.0
 11
-10.910325018533742
 21
-10.233593593042476
 31
0.0
  0
TEXT
  5
117
330
17
100
AcDbEntity
  8
TEXT_Top_X
100
AcDbText
 10
-9.746186994068632
 20
-10.011000783206486
 30
0.0
 40
0.2
  1
6 шаг 200
 11
-9.746186994068632
 21
-10.011000783206486
 31
0.0
100
AcDbText
  0
TEXT
  5
118
330
17
100
AcDbEntity
  8
TEXT_Top_X
100
AcDbText
 10
-9.746186994068632
 20
-10.261000783206486
 30
0.0
 40
0.2
  1
(1110x1200)
 11
-9.746186994068632
 21
-10.261000783206486
 31
0.0
100
AcDbText
  0
LINE
  5
119
330
17
100
AcDbEntity
  8
Top_X
 62
9
100
AcDbLine
 10
-10.692159933031892
 20
-9.840214062730462
 30
0.0
 11
-10.541799003399762
 21
-9.579781413487124
 31
0.0
  0
LINE
  5
11A
330
17
100
AcDbEntity
  8
Top_X
100
AcDbLine
 10
-11.072325962815771
 20
-10.038406136242564
 30
0.0
 11
-10.47577263783786
 21
-9.460859262091745
 31
0.0
  0
LINE
  5
11B
330
17
100
AcDbEntity
  8
Top_X
 62
9
100
AcDbLine
 10
-10.541799003399762
 20
-9.579781413487124
 30
0.0
 11
-10.283808979434058
 21
-9.728732092105968
 31
0.0
  0
LINE
  5
11C
330
17
100
AcDbEntity
  8
Top_X
100
AcDbLine
 10
-10.47577263783786
 20
-9.460859262091745
 30
0.0
 11
-9.903642949650166
 21
-9.530540018593864
 31
0.0
  0
LINE
  5
11D
330
17
100
AcDbEntity
  8
Top_X
 62
9
100
AcDbLine
 10
-10.283808979434058
 20
-9.728732092105968
 30
0.0
 11
-10.434169909066188
 21
-9.989164741349306
 31
0.0
  0
LINE
  5
11E
330
17
100
AcDbEntity
  8
Top_X
100
AcDbLine
 10
-9.903642949650166
 20
-9.530540018593864
 30
0.0
 11
-10.500196274628077
 21
-10.108086892744684
 31
0.0
  0
LINE
  5
11F
330
17
100
AcDbEntity
  8
Top_X
 62
9
100
AcDbLine
 10
-10.434169909066188
 20
-9.989164741349306
 30
0.0
 11
-10.692159933031892
 21
-9.840214062730462
 31
0.0
  0
LINE
  5
120
330
17
100
AcDbEntity
  8
Top_X
100
AcDbLine
 10
-10.500196274628077
 20
-10.108086892744684
 30
0.0
 11
-11.072325962815771
 21
-10.038406136242564
 31
0.0
  0
TEXT
  5
121
330
17
100
AcDbEntity
  8
TEXT_Top_X
100
AcDbText
 10
-10.487984456232976
 20
-9.784473077418216
 30
0.0
 40
0.2
  1
6 шаг 200
 11
-10.487984456232976
 21
-9.784473077418216
 31
0.0
100
AcDbText
  0
TEXT
  5
122
330
17
100
AcDbEntity
  8
TEXT_Top_X
100
AcDbText
 10
-10.487984456232976
 20
-10.034473077418216
 30
0.0
 40
0.2
  1
(930x400)
 11
-10.487984456232976
 21
-10.034473077418216
 31
0.0
100
AcDbText
  0
LINE
  5
123
330
17
100
AcDbEntity
  8
Top_X
 62
9
100
AcDbLine
 10
-15.198602560389094
 20
-9.635999965340522
 30
0.0
 11
-14.774638553614363
 21
-8.901673104378034
 31
0.0
  0
LINE
  5
124
330
17
100
AcDbEntity
  8
Top_X
100
AcDbLine
 10
-15.649924342019142
 20
-9.849030439843489
 30
0.0
 11
-14.786151463049725
 21
-8.799013868062731
 31
0.0
  0
LINE
  5
125
330
17
100
AcDbEntity
  8
Top_X
 62
9
100
AcDbLine
 10
-14.774638553614363
 20
-8.901673104378034
 30
0.0
 11
-13.698036221977832
 21
-9.523250037605537
 31
0.0
  0
LINE
  5
126
330
17
100
AcDbEntity
  8
Top_X
100
AcDbLine
 10
-14.786151463049725
 20
-8.799013868062731
 30
0.0
 11
-13.246714440347775
 21
-9.31021956310257
 31
0.0
  0
LINE
  5
127
330
17
100
AcDbEntity
  8
Top_X
 62
9
100
AcDbLine
 10
-13.698036221977832
 20
-9.523250037605537
 30
0.0
 11
-14.122000228752563
 21
-10.257576898568026
 31
0.0
  0
LINE
  5
128
330
17
100
AcDbEntity
  8
Top_X
100
AcDbLine
 10
-13.246714440347775
 20
-9.31021956310257
 30
0.0
 11
-14.110487319317189
 21
-10.360236134883326
 31
0.0
  0
LINE
  5
129
330
17
100
AcDbEntity
  8
Top_X
 62
9
100
AcDbLine
 10
-14.122000228752563
 20
-10.257576898568026
 30
0.0
 11
-15.198602560389094
 21
-9.635999965340522
 31
0.0
  0
LINE
  5
12A
330
17
100
AcDbEntity
  8
Top_X
100
AcDbLine
 10
-14.110487319317189
 20
-10.360236134883326
 30
0.0
 11
-15.649924342019142
 21
-9.849030439843489
 31
0.0
  0
TEXT
  5
12B
330
17
100
AcDbEntity
  8
TEXT_Top_X
100
AcDbText
 10
-14.448319391183462
 20
-9.57962500147303
 30
0.0
 40
0.2
  1
6 шаг 200
 11
-14.448319391183462
 21
-9.57962500147303
 31
0.0
100
AcDbText
  0
TEXT
  5
12C
330
17
100
AcDbEntity
  8
TEXT_Top_X
100
AcDbText
 10
-14.448319391183462
 20
-9.82962500147303
 30
0.0
 40
0.2
  1
(1470x1400)
 11
-14.448319391183462
 21
-9.82962500147303
 31
0.0
100
AcDbText
  0
LINE
  5
12D
330
17
100
AcDbEntity
  8
Top_X
 62
9
100
AcDbLine
 10
-16.018458321264557
 20
-8.52349988735669
 30
0.0
 11
-15.681151886275982
 21
-7.939268274225398
 31
0.0
  0
LINE
  5
12E
330
17
100
AcDbEntity
  8
Top_X
100
AcDbLine
 10
-16.35922300628303
 20
-8.70941821693611
 30
0.0
 11
-15.584207044069247
 21
-7.800118830123381
 31
0.0
  0
LINE
  5
12F
330
17
100
AcDbEntity
  8
Top_X
 62
9
100
AcDbLine
 10
-15.681151886275982
 20
-7.939268274225398
 30
0.0
 11
-15.24294360123058
 21
-8.19226806247531
 31
0.0
  0
LINE
  5
130
330
17
100
AcDbEntity
  8
Top_X
100
AcDbLine
 10
-15.584207044069247
 20
-7.800118830123381
 30
0.0
 11
-14.902178916212096
 21
-8.006349732895893
 31
0.0
  0
LINE
  5
131
330
17
100
AcDbEntity
  8
Top_X
 62
9
100
AcDbLine
 10
-15.24294360123058
 20
-8.19226806247531
 30
0.0
 11
-15.580250036219157
 21
-8.776499675606603
 31
0.0
  0
LINE
  5
132
330
17
100
AcDbEntity
  8
Top_X
100
AcDbLine
 10
-14.902178916212096
 20
-8.006349732895893
 30
0.0
 11
-15.677194878425885
 21
-8.915649119708624
 31
0.0
  0
LINE
  5
133
330
17
100
AcDbEntity
  8
Top_X
 62
9
100
AcDbLine
 10
-15.580250036219157
 20
-8.776499675606603
 30
0.0
 11
-16.018458321264557
 21
-8.52349988735669
 31
0.0
  0
LINE
  5
134
330
17
100
AcDbEntity
  8
Top_X
100
AcDbLine
 10
-15.677194878425885
 20
-8.915649119708624
 30
0.0
 11
-16.35922300628303
 21
-8.70941821693611
 31
0.0
  0
TEXT
  5
135
330
17
100
AcDbEntity
  8
TEXT_Top_X
100
AcDbText
 10
-15.630700961247568
 20
-8.357883974916001
 30
0.0
 40
0.2
  1
6 шаг 200
 11
-15.630700961247568
 21
-8.357883974916001
 31
0.0
100
AcDbText
  0
TEXT
  5
136
330
17
100
AcDbEntity
  8
TEXT_Top_X
100
AcDbText
 10
-15.630700961247568
 20
-8.607883974916001
 30
0.0
 40
0.2
  1
(1300x600)
 11
-15.630700961247568
 21
-8.607883974916001
 31
0.0
100
AcDbText
  0
LINE
  5
137
330
17
100
AcDbEntity
  8
Top_X
 62
9
100
AcDbLine
 10
-10.686978188417424
 20
-13.984224971641103
 30
0.0
 11
-10.440241929155752
 21
-13.556865432024521
 31
0.0
  0
LINE
  5
138
330
17
100
AcDbEntity
  8
Top_X
100
AcDbLine
 10
-11.025287495098855
 20
-14.176155379068824
 30
0.0
 11
-10.31841521549698
 21
-13.46059683564459
 31
0.0
  0
LINE
  5
139
330
17
100
AcDbEntity
  8
Top_X
 62
9
100
AcDbLine
 10
-10.440241929155752
 20
-13.556865432024521
 30
0.0
 11
-10.119227583920317
 21
-13.742203236309383
 31
0.0
  0
LINE
  5
13A
330
17
100
AcDbEntity
  8
Top_X
100
AcDbLine
 10
-10.31841521549698
 20
-13.46059683564459
 30
0.0
 11
-9.780918277238886
 21
-13.550272828881656
 31
0.0
  0
LINE
  5
13B
330
17
100
AcDbEntity
  8
Top_X
 62
9
100
AcDbLine
 10
-10.119227583920317
 20
-13.742203236309383
 30
0.0
 11
-10.36596384318199
 21
-14.169562775925963
 31
0.0
  0
LINE
  5
13C
330
17
100
AcDbEntity
  8
Top_X
100
AcDbLine
 10
-9.780918277238886
 20
-13.550272828881656
 30
0.0
 11
-10.487790556840757
 21
-14.26583137230589
 31
0.0
  0
LINE
  5
13D
330
17
100
AcDbEntity
  8
Top_X
 62
9
100
AcDbLine
 10
-10.36596384318199
 20
-14.169562775925963
 30
0.0
 11
-10.686978188417424
 21
-13.984224971641103
 31
0.0
  0
LINE
  5
13E
330
17
100
AcDbEntity
  8
Top_X
100
AcDbLine
 10
-10.487790556840757
 20
-14.26583137230589
 30
0.0
 11
-11.025287495098855
 21
-14.176155379068824
 31
0.0
  0
TEXT
  5
13F
330
17
100
AcDbEntity
  8
TEXT_Top_X
100
AcDbText
 10
-10.40310288616887
 20
-13.863214103975242
 30
0.0
 40
0.2
  1
6 шаг 200
 11
-10.40310288616887
 21
-13.863214103975242
 31
0.0
100
AcDbText
  0
TEXT
  5
140
330
17
100
AcDbEntity
  8
TEXT_Top_X
100
AcDbText
 10
-10.40310288616887
 20
-14.113214103975242
 30
0.0
 40
0.2
  1
(1120x400)
 11
-10.40310288616887
 21
-14.113214103975242
 31
0.0
100
AcDbText
  0
LINE
  5
141
330
17
100
AcDbEntity
  8
Top_X
 62
9
100
AcDbLine
 10
-14.670888439777306
 20
1.4534663774773744
 30
0.0
 11
-13.279476809671278
 21
3.863460901341176
 31
0.0
  0
LINE
  5
142
330
17
100
AcDbEntity
  8
Top_X
100
AcDbLine
 10
-15.095621569500231
 20
1.2167499051758899
 30
0.0
 11
-13.141376744382871
 21
4.049961822662015
 31
0.0
  0
LINE
  5
143
330
17
100
AcDbEntity
  8
Top_X
 62
9
100
AcDbLine
 10
-13.279476809671278
 20
3.863460901341176
 30
0.0
 11
-11.647254811708914
 21
2.9210966559491887
 31
0.0
  0
LINE
  5
144
330
17
100
AcDbEntity
  8
Top_X
100
AcDbLine
 10
-13.141376744382871
 20
4.049961822662015
 30
0.0
 11
-11.222521681985988
 21
3.157813128250673
 31
0.0
  0
LINE
  5
145
330
17
100
AcDbEntity
  8
Top_X
 62
9
100
AcDbLine
 10
-11.647254811708914
 20
2.9210966559491887
 30
0.0
 11
-13.038666441814941
 21
0.5111021320853874
 31
0.0
  0
LINE
  5
146
330
17
100
AcDbEntity
  8
Top_X
100
AcDbLine
 10
-11.222521681985988
 20
3.157813128250673
 30
0.0
 11
-13.176766507103348
 21
0.3246012107645484
 31
0.0
  0
LINE
  5
147
330
17
100
AcDbEntity
  8
Top_X
 62
9
100
AcDbLine
 10
-13.038666441814941
 20
0.5111021320853874
 30
0.0
 11
-14.670888439777306
 21
1.4534663774773744
 31
0.0
  0
LINE
  5
148
330
17
100
AcDbEntity
  8
Top_X
100
AcDbLine
 10
-13.176766507103348
 20
0.3246012107645484
 30
0.0
 11
-15.095621569500231
 21
1.2167499051758899
 31
0.0
  0
TEXT
  5
149
330
17
100
AcDbEntity
  8
TEXT_Top_X
100
AcDbText
 10
-13.15907162574311
 20
2.1872815167132815
 30
0.0
 40
0.2
  1
10 шаг 200
 11
-13.15907162574311
 21
2.1872815167132815
 31
0.0
100
AcDbText
  0
TEXT
  5
14A
330
17
100
AcDbEntity
  8
TEXT_Top_X
100
AcDbText
 10
-13.15907162574311
 20
1.9372815167132815
 30
0.0
 40
0.2
  1
(3590x2000)
 11
-13.15907162574311
 21
1.9372815167132815
 31
0.0
100
AcDbText
  0
LINE
  5
14B
330
17
100
AcDbEntity
  8
Top_X
 62
9
100
AcDbLine
 10
-7.593972291058314
 20
2.9984537895297896
 30
0.0
 11
-6.9682393917410135
 21
4.082254462261842
 31
0.0
  0
LINE
  5
14C
330
17
100
AcDbEntity
  8
Top_X
100
AcDbLine
 10
-8.284866528511579
 20
2.6201558606484636
 30
0.0
 11
-6.873856684800606
 21
4.194573660082689
 31
0.0
  0
LINE
  5
14D
330
17
100
AcDbEntity
  8
Top_X
 62
9
100
AcDbLine
 10
-6.9682393917410135
 20
4.082254462261842
 30
0.0
 11
-5.650510439511053
 21
3.3214629453912345
 31
0.0
  0
LINE
  5
14E
330
17
100
AcDbEntity
  8
Top_X
100
AcDbLine
 10
-6.873856684800606
 20
4.194573660082689
 30
0.0
 11
-4.959616202057787
 21
3.6997608742725605
 31
0.0
  0
LINE
  5
14F
330
17
100
AcDbEntity
  8
Top_X
 62
9
100
AcDbLine
 10
-5.650510439511053
 20
3.3214629453912345
 30
0.0
 11
-6.276243338828354
 21
2.2376622726591826
 31
0.0
  0
LINE
  5
150
330
17
100
AcDbEntity
  8
Top_X
100
AcDbLine
 10
-4.959616202057787
 20
3.6997608742725605
 30
0.0
 11
-6.37062604576876
 21
2.125343074838336
 31
0.0
  0
LINE
  5
151
330
17
100
AcDbEntity
  8
Top_X
 62
9
100
AcDbLine
 10
-6.276243338828354
 20
2.2376622726591826
 30
0.0
 11
-7.593972291058314
 21
2.9984537895297896
 31
0.0
  0
LINE
  5
152
330
17
100
AcDbEntity
  8
Top_X
100
AcDbLine
 10
-6.37062604576876
 20
2.125343074838336
 30
0.0
 11
-8.284866528511579
 21
2.6201558606484636
 31
0.0
  0
TEXT
  5
153
330
17
100
AcDbEntity
  8
TEXT_Top_X
100
AcDbText
 10
-6.622241365284684
 20
3.1599583674605123
 30
0.0
 40
0.2
  1
14 шаг 200
 11
-6.622241365284684
 21
3.1599583674605123
 31
0.0
100
AcDbText
  0
TEXT
  5
154
330
17
100
AcDbEntity
  8
TEXT_Top_X
100
AcDbText
 10
-6.622241365284684
 20
2.9099583674605123
 30
0.0
 40
0.2
  1
(2320x1600)
 11
-6.622241365284684
 21
2.9099583674605123
 31
0.0
100
AcDbText
  0
LINE
  5
155
330
17
100
AcDbEntity
  8
Top_X
 62
9
100
AcDbLine
 10
-10.695571451366169
 20
3.75074746726429
 30
0.0
 11
-10.350623623811021
 21
4.348214354445098
 31
0.0
  0
LINE
  5
156
330
17
100
AcDbEntity
  8
Top_X
100
AcDbLine
 10
-11.034228002575047
 20
3.56426039575481
 30
0.0
 11
-10.248768957640591
 21
4.47279234714123
 31
0.0
  0
LINE
  5
157
330
17
100
AcDbEntity
  8
Top_X
 62
9
100
AcDbLine
 10
-10.350623623811021
 20
4.348214354445098
 30
0.0
 11
-9.89579457389113
 21
4.085618558686195
 31
0.0
  0
LINE
  5
158
330
17
100
AcDbEntity
  8
Top_X
100
AcDbLine
 10
-10.248768957640591
 20
4.47279234714123
 30
0.0
 11
-9.557138022682249
 21
4.272105630195676
 31
0.0
  0
LINE
  5
159
330
17
100
AcDbEntity
  8
Top_X
 62
9
100
AcDbLine
 10
-9.89579457389113
 20
4.085618558686195
 30
0.0
 11
-10.240742401446278
 21
3.4881516715053875
 31
0.0
  0
LINE
  5
15A
330
17
100
AcDbEntity
  8
Top_X
100
AcDbLine
 10
-9.557138022682249
 20
4.272105630195676
 30
0.0
 11
-10.34259706761671
 21
3.3635736788092565
 31
0.0
  0
LINE
  5
15B
330
17
100
AcDbEntity
  8
Top_X
 62
9
100
AcDbLine
 10
-10.240742401446278
 20
3.4881516715053875
 30
0.0
 11
-10.695571451366169
 21
3.75074746726429
 31
0.0
  0
LINE
  5
15C
330
17
100
AcDbEntity
  8
Top_X
100
AcDbLine
 10
-10.34259706761671
 20
3.3635736788092565
 30
0.0
 11
-11.034228002575047
 21
3.56426039575481
 31
0.0
  0
TEXT
  5
15D
330
17
100
AcDbEntity
  8
TEXT_Top_X
100
AcDbText
 10
-10.295683012628649
 20
3.918183012975243
 30
0.0
 40
0.2
  1
6 шаг 200
 11
-10.295683012628649
 21
3.918183012975243
 31
0.0
100
AcDbText
  0
TEXT
  5
15E
330
17
100
AcDbEntity
  8
TEXT_Top_X
100
AcDbText
 10
-10.295683012628649
 20
3.668183012975243
 30
0.0
 40
0.2
  1
(1310x600)
 11
-10.295683012628649
 21
3.668183012975243
 31
0.0
100
AcDbText
  0
LINE
  5
15F
330
17
100
AcDbEntity
  8
Top_X
 62
9
100
AcDbLine
 10
-7.086352543579247
 20
-4.16299772355181
 30
0.0
 11
-6.937448689825004
 21
-3.905088802593174
 31
0.0
  0
LINE
  5
160
330
17
100
AcDbEntity
  8
Top_X
100
AcDbLine
 10
-7.4592157796735155
 20
-4.3556019651524664
 30
0.0
 11
-6.8730570173616865
 21
-3.77737169473623
 31
0.0
  0
LINE
  5
161
330
17
100
AcDbEntity
  8
Top_X
 62
9
100
AcDbLine
 10
-6.937448689825004
 20
-3.905088802593174
 30
0.0
 11
-6.689080469915888
 21
-4.048484327482676
 31
0.0
  0
LINE
  5
162
330
17
100
AcDbEntity
  8
Top_X
100
AcDbLine
 10
-6.8730570173616865
 20
-3.77737169473623
 30
0.0
 11
-6.316217233821623
 21
-3.8558800858820206
 31
0.0
  0
LINE
  5
163
330
17
100
AcDbEntity
  8
Top_X
 62
9
100
AcDbLine
 10
-6.689080469915888
 20
-4.048484327482676
 30
0.0
 11
-6.837984323670132
 21
-4.306393248441312
 31
0.0
  0
LINE
  5
164
330
17
100
AcDbEntity
  8
Top_X
100
AcDbLine
 10
-6.316217233821623
 20
-3.8558800858820206
 30
0.0
 11
-6.902375996133456
 21
-4.434110356298257
 31
0.0
  0
LINE
  5
165
330
17
100
AcDbEntity
  8
Top_X
 62
9
100
AcDbLine
 10
-6.837984323670132
 20
-4.306393248441312
 30
0.0
 11
-7.086352543579247
 21
-4.16299772355181
 31
0.0
  0
LINE
  5
166
330
17
100
AcDbEntity
  8
Top_X
100
AcDbLine
 10
-6.902375996133456
 20
-4.434110356298257
 30
0.0
 11
-7.4592157796735155
 21
-4.3556019651524664
 31
0.0
  0
TEXT
  5
167
330
17
100
AcDbEntity
  8
TEXT_Top_X
100
AcDbText
 10
-6.887716506747568
 20
-4.1057410255172435
 30
0.0
 40
0.2
  1
6 шаг 200
 11
-6.887716506747568
 21
-4.1057410255172435
 31
0.0
100
AcDbText
  0
TEXT
  5
168
330
17
100
AcDbEntity
  8
TEXT_Top_X
100
AcDbText
 10
-6.887716506747568
 20
-4.3557410255172435
 30
0.0
 40
0.2
  1
(920x400)
 11
-6.887716506747568
 21
-4.3557410255172435
 31
0.0
100
AcDbText
  0
LINE
  5
169
330
17
100
AcDbEntity
  8
Top_X
 62
9
100
AcDbLine
 10
4.930999999921
 20
21.019999999607
 30
0.0
 11
5.751999999884
 21
21.020000000428
 31
0.0
  0
LINE
  5
16A
330
17
100
AcDbEntity
  8
Top_X
100
AcDbLine
 10
4.843924242720708
 20
21.146412910242304
 30
0.0
 11
5.8390757571971195
 21
21.146412912147156
 31
0.0
  0
LINE
  5
16B
330
17
100
AcDbEntity
  8
Top_X
 62
9
100
AcDbLine
 10
5.751999999884
 20
21.020000000428
 30
0.0
 11
5.752000000214
 21
20.690000000219
 31
0.0
  0
LINE
  5
16C
330
17
100
AcDbEntity
  8
Top_X
100
AcDbLine
 10
5.8390757571971195
 20
21.146412912147156
 30
0.0
 11
5.839075757414293
 21
20.563587089583685
 31
0.0
  0
LINE
  5
16D
330
17
100
AcDbEntity
  8
Top_X
 62
9
100
AcDbLine
 10
5.752000000214
 20
20.690000000219
 30
0.0
 11
4.931000000251
 21
20.689999999398
 31
0.0
  0
LINE
  5
16E
330
17
100
AcDbEntity
  8
Top_X
100
AcDbLine
 10
5.839075757414293
 20
20.563587089583685
 30
0.0
 11
4.843924242937882
 21
20.563587087678833
 31
0.0
  0
LINE
  5
16F
330
17
100
AcDbEntity
  8
Top_X
 62
9
100
AcDbLine
 10
4.931000000251
 20
20.689999999398
 30
0.0
 11
4.930999999921
 21
21.019999999607
 31
0.0
  0
LINE
  5
170
330
17
100
AcDbEntity
  8
Top_X
100
AcDbLine
 10
4.843924242937882
 20
20.563587087678833
 30
0.0
 11
4.843924242720708
 21
21.146412910242304
 31
0.0
  0
TEXT
  5
171
330
17
100
AcDbEntity
  8
TEXT_Top_X
100
AcDbText
 10
5.341500000067501
 20
20.854999999912998
 30
0.0
 40
0.2
  1
6 шаг 200
 11
5.341500000067501
 21
20.854999999912998
 31
0.0
100
AcDbText
  0
TEXT
  5
172
330
17
100
AcDbEntity
  8
TEXT_Top_X
100
AcDbText
 10
5.341500000067501
 20
20.604999999912998
 30
0.0
 40
0.2
  1
(1450x400)
 11
5.341500000067501
 21
20.604999999912998
 31
0.0
100
AcDbText
  0
LINE
  5
173
330
17
100
AcDbEntity
  8
Top_X
 62
9
100
AcDbLine
 10
4.8789999993299995
 20
20.725999999967996
 30
0.0
 11
5.109999999965
 21
20.726000000198997
 31
0.0
  0
LINE
  5
174
330
17
100
AcDbEntity
  8
Top_X
100
AcDbLine
 10
4.858617647174164
 20
21.651800861922993
 30
0.0
 11
5.130382353732439
 21
21.651800863371236
 31
0.0
  0
LINE
  5
175
330
17
100
AcDbEntity
  8
Top_X
 62
9
100
AcDbLine
 10
5.109999999965
 20
20.726000000198997
 30
0.0
 11
5.110000000645
 21
20.046000000021
 31
0.0
  0
LINE
  5
176
330
17
100
AcDbEntity
  8
Top_X
100
AcDbLine
 10
5.130382353732439
 20
21.651800863371236
 30
0.0
 11
5.130382352800837
 21
19.120199138066
 31
0.0
  0
LINE
  5
177
330
17
100
AcDbEntity
  8
Top_X
 62
9
100
AcDbLine
 10
5.110000000645
 20
20.046000000021
 30
0.0
 11
4.87900000001
 21
20.04599999979
 31
0.0
  0
LINE
  5
178
330
17
100
AcDbEntity
  8
Top_X
100
AcDbLine
 10
5.130382352800837
 20
19.120199138066
 30
0.0
 11
4.858617646242562
 21
19.120199136617757
 31
0.0
  0
LINE
  5
179
330
17
100
AcDbEntity
  8
Top_X
 62
9
100
AcDbLine
 10
4.87900000001
 20
20.04599999979
 30
0.0
 11
4.8789999993299995
 21
20.725999999967996
 31
0.0
  0
LINE
  5
17A
330
17
100
AcDbEntity
  8
Top_X
100
AcDbLine
 10
4.858617646242562
 20
19.120199136617757
 30
0.0
 11
4.858617647174164
 21
21.651800861922993
 31
0.0
  0
TEXT
  5
17B
330
17
100
AcDbEntity
  8
TEXT_Top_X
100
AcDbText
 10
4.9944999999875
 20
20.385999999994496
 30
0.0
 40
0.2
  1
6 шаг 200
 11
4.9944999999875
 21
20.385999999994496
 31
0.0
100
AcDbText
  0
TEXT
  5
17C
330
17
100
AcDbEntity
  8
TEXT_Top_X
100
AcDbText
 10
4.9944999999875
 20
20.135999999994496
 30
0.0
 40
0.2
  1
(860x800)
 11
4.9944999999875
 21
20.135999999994496
 31
0.0
100
AcDbText
  0
LINE
  5
17D
330
17
100
AcDbEntity
  8
Top_X
 62
9
100
AcDbLine
 10
4.643999998683
 20
19.420999998246
 30
0.0
 11
6.406999999347001
 21
19.421000000009
 31
0.0
  0
LINE
  5
17E
330
17
100
AcDbEntity
  8
Top_X
100
AcDbLine
 10
4.593928003426053
 20
19.94785138571762
 30
0.0
 11
6.457071995485649
 21
19.947851389834476
 31
0.0
  0
LINE
  5
17F
330
17
100
AcDbEntity
  8
Top_X
 62
9
100
AcDbLine
 10
6.406999999347001
 20
19.421000000009
 30
0.0
 11
6.407000000861
 21
17.907000001574
 31
0.0
  0
LINE
  5
180
330
17
100
AcDbEntity
  8
Top_X
100
AcDbLine
 10
6.457071995485649
 20
19.947851389834476
 30
0.0
 11
6.457071996117945
 21
17.380148614102378
 31
0.0
  0
LINE
  5
181
330
17
100
AcDbEntity
  8
Top_X
 62
9
100
AcDbLine
 10
6.407000000861
 20
17.907000001574
 30
0.0
 11
4.644000000197
 21
17.906999999811003
 31
0.0
  0
LINE
  5
182
330
17
100
AcDbEntity
  8
Top_X
100
AcDbLine
 10
6.457071996117945
 20
17.380148614102378
 30
0.0
 11
4.59392800405835
 21
17.380148609985525
 31
0.0
  0
LINE
  5
183
330
17
100
AcDbEntity
  8
Top_X
 62
9
100
AcDbLine
 10
4.644000000197
 20
17.906999999811003
 30
0.0
 11
4.643999998683
 21
19.420999998246
 31
0.0
  0
LINE
  5
184
330
17
100
AcDbEntity
  8
Top_X
100
AcDbLine
 10
4.59392800405835
 20
17.380148609985525
 30
0.0
 11
4.593928003426053
 21
19.94785138571762
 31
0.0
  0
TEXT
  5
185
330
17
100
AcDbEntity
  8
TEXT_Top_X
100
AcDbText
 10
5.525499999772
 20
18.66399999991
 30
0.0
 40
0.2
  1
16 шаг 200
 11
5.525499999772
 21
18.66399999991
 31
0.0
100
AcDbText
  0
TEXT
  5
186
330
17
100
AcDbEntity
  8
TEXT_Top_X
100
AcDbText
 10
5.525499999772
 20
18.41399999991
 30
0.0
 40
0.2
  1
(2990x1600)
 11
5.525499999772
 21
18.41399999991
 31
0.0
100
AcDbText
  0
LINE
  5
187
330
17
100
AcDbEntity
  8
Top_X
 62
9
100
AcDbLine
 10
3.7129999993440004
 20
15.804999999107
 30
0.0
 11
5.720999999561
 21
15.805000001115
 31
0.0
  0
LINE
  5
188
330
17
100
AcDbEntity
  8
Top_X
100
AcDbLine
 10
3.492609757456437
 20
15.906601592457156
 30
0.0
 11
5.941390241363767
 21
15.906601595268372
 31
0.0
  0
LINE
  5
189
330
17
100
AcDbEntity
  8
Top_X
 62
9
100
AcDbLine
 10
5.720999999561
 20
15.805000001115
 30
0.0
 11
5.721000000217001
 21
15.149
 31
0.0
  0
LINE
  5
18A
330
17
100
AcDbEntity
  8
Top_X
100
AcDbLine
 10
5.941390241363767
 20
15.906601595268372
 30
0.0
 11
5.941390242104565
 21
15.047398406649846
 31
0.0
  0
LINE
  5
18B
330
17
100
AcDbEntity
  8
Top_X
 62
9
100
AcDbLine
 10
5.721000000217001
 20
15.149
 30
0.0
 11
3.713
 21
15.148999997992
 31
0.0
  0
LINE
  5
18C
330
17
100
AcDbEntity
  8
Top_X
100
AcDbLine
 10
5.941390242104565
 20
15.047398406649846
 30
0.0
 11
3.492609758197233
 21
15.047398403838626
 31
0.0
  0
LINE
  5
18D
330
17
100
AcDbEntity
  8
Top_X
 62
9
100
AcDbLine
 10
3.713
 20
15.148999997992
 30
0.0
 11
3.7129999993440004
 21
15.804999999107
 31
0.0
  0
LINE
  5
18E
330
17
100
AcDbEntity
  8
Top_X
100
AcDbLine
 10
3.492609758197233
 20
15.047398403838626
 30
0.0
 11
3.492609757456437
 21
15.906601592457156
 31
0.0
  0
TEXT
  5
18F
330
17
100
AcDbEntity
  8
TEXT_Top_X
100
AcDbText
 10
4.7169999997805006
 20
15.4769999995535
 30
0.0
 40
0.2
  1
6 шаг 200
 11
4.7169999997805006
 21
15.4769999995535
 31
0.0
100
AcDbText
  0
TEXT
  5
190
330
17
100
AcDbEntity
  8
TEXT_Top_X
100
AcDbText
 10
4.7169999997805006
 20
15.2269999995535
 30
0.0
 40
0.2
  1
(2630x800)
 11
4.7169999997805006
 21
15.2269999995535
 31
0.0
100
AcDbText
  0
LINE
  5
191
330
17
100
AcDbEntity
  8
Top_X
 62
9
100
AcDbLine
 10
1.766
 20
15.586
 30
0.0
 11
2.61299999998
 21
15.586000000847
 31
0.0
  0
LINE
  5
192
330
17
100
AcDbEntity
  8
Top_X
100
AcDbLine
 10
1.6080354702566368
 20
15.767352420122869
 30
0.0
 11
2.770964529760067
 21
15.76735242205994
 31
0.0
  0
LINE
  5
193
330
17
100
AcDbEntity
  8
Top_X
 62
9
100
AcDbLine
 10
2.61299999998
 20
15.586000000847
 30
0.0
 11
2.6130000004169998
 21
15.149
 31
0.0
  0
LINE
  5
194
330
17
100
AcDbEntity
  8
Top_X
100
AcDbLine
 10
2.770964529760067
 20
15.76735242205994
 30
0.0
 11
2.770964530160362
 21
14.967647579877124
 31
0.0
  0
LINE
  5
195
330
17
100
AcDbEntity
  8
Top_X
 62
9
100
AcDbLine
 10
2.6130000004169998
 20
15.149
 30
0.0
 11
1.766000000437
 21
15.148999999153
 31
0.0
  0
LINE
  5
196
330
17
100
AcDbEntity
  8
Top_X
100
AcDbLine
 10
2.770964530160362
 20
14.967647579877124
 30
0.0
 11
1.6080354706569322
 21
14.967647577940056
 31
0.0
  0
LINE
  5
197
330
17
100
AcDbEntity
  8
Top_X
 62
9
100
AcDbLine
 10
1.766000000437
 20
15.148999999153
 30
0.0
 11
1.766
 21
15.586
 31
0.0
  0
LINE
  5
198
330
17
100
AcDbEntity
  8
Top_X
100
AcDbLine
 10
1.6080354706569322
 20
14.967647577940056
 30
0.0
 11
1.6080354702566368
 21
15.767352420122869
 31
0.0
  0
TEXT
  5
199
330
17
100
AcDbEntity
  8
TEXT_Top_X
100
AcDbText
 10
2.1895000002084997
 20
15.3675
 30
0.0
 40
0.2
  1
8 шаг 200
 11
2.1895000002084997
 21
15.3675
 31
0.0
100
AcDbText
  0
TEXT
  5
19A
330
17
100
AcDbEntity
  8
TEXT_Top_X
100
AcDbText
 10
2.1895000002084997
 20
15.1175
 30
0.0
 40
0.2
  1
(1550x600)
 11
2.1895000002084997
 21
15.1175
 31
0.0
100
AcDbText
  0
LINE
  5
19B
330
17
100
AcDbEntity
  8
Top_X
 62
9
100
AcDbLine
 10
-4.456000000558
 20
4.884999999371
 30
0.0
 11
-3.379000000499
 21
4.8850000004480005
 31
0.0
  0
LINE
  5
19C
330
17
100
AcDbEntity
  8
Top_X
100
AcDbLine
 10
-4.4946704184570745
 20
5.284795262908477
 30
0.0
 11
-3.340329581934335
 21
5.284795265754139
 31
0.0
  0
LINE
  5
19D
330
17
100
AcDbEntity
  8
Top_X
 62
9
100
AcDbLine
 10
-3.379000000499
 20
4.8850000004480005
 30
0.0
 11
-3.378999999566
 21
3.952000000809
 31
0.0
  0
LINE
  5
19E
330
17
100
AcDbEntity
  8
Top_X
100
AcDbLine
 10
-3.340329581934335
 20
5.284795265754139
 30
0.0
 11
-3.3403295816669254
 21
3.5522047372715218
 31
0.0
  0
LINE
  5
19F
330
17
100
AcDbEntity
  8
Top_X
 62
9
100
AcDbLine
 10
-3.378999999566
 20
3.952000000809
 30
0.0
 11
-4.455999999625
 21
3.951999999732
 31
0.0
  0
LINE
  5
1A0
330
17
100
AcDbEntity
  8
Top_X
100
AcDbLine
 10
-3.3403295816669254
 20
3.5522047372715218
 30
0.0
 11
-4.494670418189665
 21
3.552204734425863
 31
0.0
  0
LINE
  5
1A1
330
17
100
AcDbEntity
  8
Top_X
 62
9
100
AcDbLine
 10
-4.455999999625
 20
3.951999999732
 30
0.0
 11
-4.456000000558
 21
4.884999999371
 31
0.0
  0
LINE
  5
1A2
330
17
100
AcDbEntity
  8
Top_X
100
AcDbLine
 10
-4.494670418189665
 20
3.552204734425863
 30
0.0
 11
-4.4946704184570745
 21
5.284795262908477
 31
0.0
  0
TEXT
  5
1A3
330
17
100
AcDbEntity
  8
TEXT_Top_X
100
AcDbText
 10
-3.917500000062
 20
4.41850000009
 30
0.0
 40
0.2
  1
12 шаг 200
 11
-3.917500000062
 21
4.41850000009
 31
0.0
100
AcDbText
  0
TEXT
  5
1A4
330
17
100
AcDbEntity
  8
TEXT_Top_X
100
AcDbText
 10
-3.917500000062
 20
4.16850000009
 30
0.0
 40
0.2
  1
(2000x1000)
 11
-3.917500000062
 21
4.16850000009
 31
0.0
100
AcDbText
  0
LINE
  5
1A5
330
17
100
AcDbEntity
  8
Top_X
 62
9
100
AcDbLine
 10
-6.858000000845999
 20
9.474999997838001
 30
0.0
 11
-3.912000000626
 21
9.475000000784
 31
0.0
  0
LINE
  5
1A6
330
17
100
AcDbEntity
  8
Top_X
100
AcDbLine
 10
-7.029497608490248
 20
9.701452135366873
 30
0.0
 11
-3.740502392820847
 21
9.701452140097876
 31
0.0
  0
LINE
  5
1A7
330
17
100
AcDbEntity
  8
Top_X
 62
9
100
AcDbLine
 10
-3.912000000626
 20
9.475000000784
 30
0.0
 11
-3.911999999372
 21
8.221000000827
 31
0.0
  0
LINE
  5
1A8
330
17
100
AcDbEntity
  8
Top_X
100
AcDbLine
 10
-3.740502392820847
 20
9.701452140097876
 30
0.0
 11
-3.740502391727752
 21
7.994547863298131
 31
0.0
  0
LINE
  5
1A9
330
17
100
AcDbEntity
  8
Top_X
 62
9
100
AcDbLine
 10
-3.911999999372
 20
8.221000000827
 30
0.0
 11
-6.857999999591999
 21
8.220999997881002
 31
0.0
  0
LINE
  5
1AA
330
17
100
AcDbEntity
  8
Top_X
100
AcDbLine
 10
-3.740502391727752
 20
7.994547863298131
 30
0.0
 11
-7.029497607397152
 21
7.9945478585671275
 31
0.0
  0
LINE
  5
1AB
330
17
100
AcDbEntity
  8
Top_X
 62
9
100
AcDbLine
 10
-6.857999999591999
 20
8.220999997881002
 30
0.0
 11
-6.858000000845999
 21
9.474999997838001
 31
0.0
  0
LINE
  5
1AC
330
17
100
AcDbEntity
  8
Top_X
100
AcDbLine
 10
-7.029497607397152
 20
7.9945478585671275
 30
0.0
 11
-7.029497608490248
 21
9.701452135366873
 31
0.0
  0
TEXT
  5
1AD
330
17
100
AcDbEntity
  8
TEXT_Top_X
100
AcDbText
 10
-5.385000000109
 20
8.847999999332501
 30
0.0
 40
0.2
  1
14 шаг 200
 11
-5.385000000109
 21
8.847999999332501
 31
0.0
100
AcDbText
  0
TEXT
  5
1AE
330
17
100
AcDbEntity
  8
TEXT_Top_X
100
AcDbText
 10
-5.385000000109
 20
8.597999999332501
 30
0.0
 40
0.2
  1
(4010x1400)
 11
-5.385000000109
 21
8.597999999332501
 31
0.0
100
AcDbText
  0
LINE
  5
1AF
330
17
100
AcDbEntity
  8
Top_X
 62
9
100
AcDbLine
 10
-3.63200000085
 20
9.698999999165
 30
0.0
 11
-2.388000000196
 21
9.699000000409
 31
0.0
  0
LINE
  5
1B0
330
17
100
AcDbEntity
  8
Top_X
100
AcDbLine
 10
-3.647697161440377
 20
10.058810287326256
 30
0.0
 11
-2.3723028389500027
 21
10.058810289950863
 31
0.0
  0
LINE
  5
1B1
330
17
100
AcDbEntity
  8
Top_X
 62
9
100
AcDbLine
 10
-2.388000000196
 20
9.699000000409
 30
0.0
 11
-2.387999998928
 21
8.431000000462
 31
0.0
  0
LINE
  5
1B2
330
17
100
AcDbEntity
  8
Top_X
100
AcDbLine
 10
-2.3723028389500027
 20
10.058810289950863
 30
0.0
 11
-2.372302838337623
 21
8.071189712300745
 31
0.0
  0
LINE
  5
1B3
330
17
100
AcDbEntity
  8
Top_X
 62
9
100
AcDbLine
 10
-2.387999998928
 20
8.431000000462
 30
0.0
 11
-3.6319999995820003
 21
8.430999999217999
 31
0.0
  0
LINE
  5
1B4
330
17
100
AcDbEntity
  8
Top_X
100
AcDbLine
 10
-2.372302838337623
 20
8.071189712300745
 30
0.0
 11
-3.647697160827997
 21
8.071189709676139
 31
0.0
  0
LINE
  5
1B5
330
17
100
AcDbEntity
  8
Top_X
 62
9
100
AcDbLine
 10
-3.6319999995820003
 20
8.430999999217999
 30
0.0
 11
-3.63200000085
 21
9.698999999165
 31
0.0
  0
LINE
  5
1B6
330
17
100
AcDbEntity
  8
Top_X
100
AcDbLine
 10
-3.647697160827997
 20
8.071189709676139
 30
0.0
 11
-3.647697161440377
 21
10.058810287326256
 31
0.0
  0
TEXT
  5
1B7
330
17
100
AcDbEntity
  8
TEXT_Top_X
100
AcDbText
 10
-3.009999999889
 20
9.0649999998135
 30
0.0
 40
0.2
  1
8 шаг 100
 11
-3.009999999889
 21
9.0649999998135
 31
0.0
100
AcDbText
  0
TEXT
  5
1B8
330
17
100
AcDbEntity
  8
TEXT_Top_X
100
AcDbText
 10
-3.009999999889
 20
8.8149999998135
 30
0.0
 40
0.2
  1
(1950x1300)
 11
-3.009999999889
 21
8.8149999998135
 31
0.0
100
AcDbText
  0
LINE
  5
1B9
330
17
100
AcDbEntity
  8
Top_X
 62
9
100
AcDbLine
 10
-3.4640000001499995
 20
3.63599999974
 30
0.0
 11
-2.971000000279
 21
3.636000000233
 31
0.0
  0
LINE
  5
1BA
330
17
100
AcDbEntity
  8
Top_X
100
AcDbLine
 10
-3.4811363635066104
 20
3.873827585505426
 30
0.0
 11
-2.9538636364987356
 21
3.873827587218152
 31
0.0
  0
LINE
  5
1BB
330
17
100
AcDbEntity
  8
Top_X
 62
9
100
AcDbLine
 10
-2.971000000279
 20
3.636000000233
 30
0.0
 11
-2.970999999905
 21
3.262000000143
 31
0.0
  0
LINE
  5
1BC
330
17
100
AcDbEntity
  8
Top_X
100
AcDbLine
 10
-2.9538636364987356
 20
3.873827587218152
 30
0.0
 11
-2.9538636365483906
 21
3.0241724143775714
 31
0.0
  0
LINE
  5
1BD
330
17
100
AcDbEntity
  8
Top_X
 62
9
100
AcDbLine
 10
-2.970999999905
 20
3.262000000143
 30
0.0
 11
-3.4639999997759996
 21
3.26199999965
 31
0.0
  0
LINE
  5
1BE
330
17
100
AcDbEntity
  8
Top_X
100
AcDbLine
 10
-2.9538636365483906
 20
3.0241724143775714
 30
0.0
 11
-3.4811363635562653
 21
3.0241724126648446
 31
0.0
  0
LINE
  5
1BF
330
17
100
AcDbEntity
  8
Top_X
 62
9
100
AcDbLine
 10
-3.4639999997759996
 20
3.26199999965
 30
0.0
 11
-3.4640000001499995
 21
3.63599999974
 31
0.0
  0
LINE
  5
1C0
330
17
100
AcDbEntity
  8
Top_X
100
AcDbLine
 10
-3.4811363635562653
 20
3.0241724126648446
 30
0.0
 11
-3.4811363635066104
 21
3.873827585505426
 31
0.0
  0
TEXT
  5
1C1
330
17
100
AcDbEntity
  8
TEXT_Top_X
100
AcDbText
 10
-3.2175000000275
 20
3.4489999999414995
 30
0.0
 40
0.2
  1
6 шаг 200
 11
-3.2175000000275
 21
3.4489999999414995
 31
0.0
100
AcDbText
  0
TEXT
  5
1C2
330
17
100
AcDbEntity
  8
TEXT_Top_X
100
AcDbText
 10
-3.2175000000275
 20
3.1989999999414995
 30
0.0
 40
0.2
  1
(1120x400)
 11
-3.2175000000275
 21
3.1989999999414995
 31
0.0
100
AcDbText
  0
LINE
  5
1C3
330
17
100
AcDbEntity
  8
Top_X
 62
9
100
AcDbLine
 10
6.11399999843
 20
8.187999999991002
 30
0.0
 11
7.213999999993
 21
8.188000001091002
 31
0.0
  0
LINE
  5
1C4
330
17
100
AcDbEntity
  8
Top_X
100
AcDbLine
 10
6.107254817910016
 20
9.659049993877336
 30
0.0
 11
7.220745183329083
 21
9.659049996223846
 31
0.0
  0
LINE
  5
1C5
330
17
100
AcDbEntity
  8
Top_X
 62
9
100
AcDbLine
 10
7.213999999993
 20
8.188000001091002
 30
0.0
 11
7.21400000513
 21
3.05100000022
 31
0.0
  0
LINE
  5
1C6
330
17
100
AcDbEntity
  8
Top_X
100
AcDbLine
 10
7.220745183329083
 20
9.659049996223846
 30
0.0
 11
7.220745185649984
 21
1.5799500063336653
 31
0.0
  0
LINE
  5
1C7
330
17
100
AcDbEntity
  8
Top_X
 62
9
100
AcDbLine
 10
7.21400000513
 20
3.05100000022
 30
0.0
 11
6.114000003567
 21
3.05099999912
 31
0.0
  0
LINE
  5
1C8
330
17
100
AcDbEntity
  8
Top_X
100
AcDbLine
 10
7.220745185649984
 20
1.5799500063336653
 30
0.0
 11
6.107254820230917
 21
1.5799500039871557
 31
0.0
  0
LINE
  5
1C9
330
17
100
AcDbEntity
  8
Top_X
 62
9
100
AcDbLine
 10
6.114000003567
 20
3.05099999912
 30
0.0
 11
6.11399999843
 21
8.187999999991002
 31
0.0
  0
LINE
  5
1CA
330
17
100
AcDbEntity
  8
Top_X
100
AcDbLine
 10
6.107254820230917
 20
1.5799500039871557
 30
0.0
 11
6.107254817910016
 21
9.659049993877336
 31
0.0
  0
TEXT
  5
1CB
330
17
100
AcDbEntity
  8
TEXT_Top_X
100
AcDbText
 10
6.66400000178
 20
5.619500000105502
 30
0.0
 40
0.2
  1
6 шаг 200
 11
6.66400000178
 21
5.619500000105502
 31
0.0
100
AcDbText
  0
TEXT
  5
1CC
330
17
100
AcDbEntity
  8
TEXT_Top_X
100
AcDbText
 10
6.66400000178
 20
5.369500000105502
 30
0.0
 40
0.2
  1
(1730x5200)
 11
6.66400000178
 21
5.369500000105502
 31
0.0
100
AcDbText
  0
LINE
  5
1CD
330
17
100
AcDbEntity
  8
Top_X
 62
9
100
AcDbLine
 10
1.3459999987150002
 20
3.417999999159
 30
0.0
 11
3.037999999931
 21
3.418000000851
 31
0.0
  0
LINE
  5
1CE
330
17
100
AcDbEntity
  8
Top_X
100
AcDbLine
 10
1.311999999435892
 20
4.185499996708211
 30
0.0
 11
3.072000000575107
 21
4.1855000007882115
 31
0.0
  0
LINE
  5
1CF
330
17
100
AcDbEntity
  8
Top_X
 62
9
100
AcDbLine
 10
3.037999999931
 20
3.418000000851
 30
0.0
 11
3.0380000020459996
 21
1.3030000007
 31
0.0
  0
LINE
  5
1D0
330
17
100
AcDbEntity
  8
Top_X
100
AcDbLine
 10
3.072000000575107
 20
4.1855000007882115
 30
0.0
 11
3.0720000013251068
 21
0.5355000031507875
 31
0.0
  0
LINE
  5
1D1
330
17
100
AcDbEntity
  8
Top_X
 62
9
100
AcDbLine
 10
3.0380000020459996
 20
1.3030000007
 30
0.0
 11
1.34600000083
 21
1.3029999990080001
 31
0.0
  0
LINE
  5
1D2
330
17
100
AcDbEntity
  8
Top_X
100
AcDbLine
 10
3.0720000013251068
 20
0.5355000031507875
 30
0.0
 11
1.3120000001858918
 21
0.535499999070788
 31
0.0
  0
LINE
  5
1D3
330
17
100
AcDbEntity
  8
Top_X
 62
9
100
AcDbLine
 10
1.34600000083
 20
1.3029999990080001
 30
0.0
 11
1.3459999987150002
 21
3.417999999159
 31
0.0
  0
LINE
  5
1D4
330
17
100
AcDbEntity
  8
Top_X
100
AcDbLine
 10
1.3120000001858918
 20
0.535499999070788
 30
0.0
 11
1.311999999435892
 21
4.185499996708211
 31
0.0
  0
TEXT
  5
1D5
330
17
100
AcDbEntity
  8
TEXT_Top_X
100
AcDbText
 10
2.1920000003805
 20
2.3604999999294995
 30
0.0
 40
0.2
  1
16 шаг 200
 11
2.1920000003805
 21
2.3604999999294995
 31
0.0
100
AcDbText
  0
TEXT
  5
1D6
330
17
100
AcDbEntity
  8
TEXT_Top_X
100
AcDbText
 10
2.1920000003805
 20
2.1104999999294995
 30
0.0
 40
0.2
  1
(2920x2200)
 11
2.1920000003805
 21
2.1104999999294995
 31
0.0
100
AcDbText
  0
LINE
  5
1D7
330
17
100
AcDbEntity
  8
Top_X
 62
9
100
AcDbLine
 10
2.65099999978
 20
8.848999999998
 30
0.0
 11
6.128
 21
8.849000003475
 31
0.0
  0
LINE
  5
1D8
330
17
100
AcDbEntity
  8
Top_X
100
AcDbLine
 10
2.2822272827969607
 20
8.915721311442935
 30
0.0
 11
6.4967727168364835
 21
8.91572131558839
 31
0.0
  0
LINE
  5
1D9
330
17
100
AcDbEntity
  8
Top_X
 62
9
100
AcDbLine
 10
6.128
 20
8.849000003475
 30
0.0
 11
6.128000000659999
 21
8.189000000222
 31
0.0
  0
LINE
  5
1DA
330
17
100
AcDbEntity
  8
Top_X
100
AcDbLine
 10
6.4967727168364835
 20
8.91572131558839
 30
0.0
 11
6.49677271764304
 21
8.122278688777063
 31
0.0
  0
LINE
  5
1DB
330
17
100
AcDbEntity
  8
Top_X
 62
9
100
AcDbLine
 10
6.128000000659999
 20
8.189000000222
 30
0.0
 11
2.65100000044
 21
8.188999996745
 31
0.0
  0
LINE
  5
1DC
330
17
100
AcDbEntity
  8
Top_X
100
AcDbLine
 10
6.49677271764304
 20
8.122278688777063
 30
0.0
 11
2.2822272836035182
 21
8.12227868463161
 31
0.0
  0
LINE
  5
1DD
330
17
100
AcDbEntity
  8
Top_X
 62
9
100
AcDbLine
 10
2.65100000044
 20
8.188999996745
 30
0.0
 11
2.65099999978
 21
8.848999999998
 31
0.0
  0
LINE
  5
1DE
330
17
100
AcDbEntity
  8
Top_X
100
AcDbLine
 10
2.2822272836035182
 20
8.12227868463161
 30
0.0
 11
2.2822272827969607
 21
8.915721311442935
 31
0.0
  0
TEXT
  5
1DF
330
17
100
AcDbEntity
  8
TEXT_Top_X
100
AcDbText
 10
4.38950000022
 20
8.519000000110001
 30
0.0
 40
0.2
  1
8 шаг 200
 11
4.38950000022
 21
8.519000000110001
 31
0.0
100
AcDbText
  0
TEXT
  5
1E0
330
17
100
AcDbEntity
  8
TEXT_Top_X
100
AcDbText
 10
4.38950000022
 20
8.269000000110001
 30
0.0
 40
0.2
  1
(4180x800)
 11
4.38950000022
 21
8.269000000110001
 31
0.0
100
AcDbText
  0
LINE
  5
1E1
330
17
100
AcDbEntity
  8
Top_X
 62
9
100
AcDbLine
 10
0.912999999789
 20
7.159999999600001
 30
0.0
 11
1.544999999565
 21
7.160000000232
 31
0.0
  0
LINE
  5
1E2
330
17
100
AcDbEntity
  8
Top_X
100
AcDbLine
 10
0.7931379312114955
 20
7.43806961948898
 30
0.0
 11
1.6648620683686435
 21
7.438069621497254
 31
0.0
  0
LINE
  5
1E3
330
17
100
AcDbEntity
  8
Top_X
 62
9
100
AcDbLine
 10
1.544999999565
 20
7.160000000232
 30
0.0
 11
1.545
 21
6.725
 31
0.0
  0
LINE
  5
1E4
330
17
100
AcDbEntity
  8
Top_X
100
AcDbLine
 10
1.6648620683686435
 20
7.438069621497254
 30
0.0
 11
1.664862068577504
 21
6.446930380111025
 31
0.0
  0
LINE
  5
1E5
330
17
100
AcDbEntity
  8
Top_X
 62
9
100
AcDbLine
 10
1.545
 20
6.725
 30
0.0
 11
0.9130000002240001
 21
6.724999999368
 31
0.0
  0
LINE
  5
1E6
330
17
100
AcDbEntity
  8
Top_X
100
AcDbLine
 10
1.664862068577504
 20
6.446930380111025
 30
0.0
 11
0.7931379314203564
 21
6.446930378102751
 31
0.0
  0
LINE
  5
1E7
330
17
100
AcDbEntity
  8
Top_X
 62
9
100
AcDbLine
 10
0.9130000002240001
 20
6.724999999368
 30
0.0
 11
0.912999999789
 21
7.159999999600001
 31
0.0
  0
LINE
  5
1E8
330
17
100
AcDbEntity
  8
Top_X
100
AcDbLine
 10
0.7931379314203564
 20
6.446930378102751
 30
0.0
 11
0.7931379312114955
 21
7.43806961948898
 31
0.0
  0
TEXT
  5
1E9
330
17
100
AcDbEntity
  8
TEXT_Top_X
100
AcDbText
 10
1.2289999998944998
 20
6.942499999800001
 30
0.0
 40
0.2
  1
10 шаг 200
 11
1.2289999998944998
 21
6.942499999800001
 31
0.0
100
AcDbText
  0
TEXT
  5
1EA
330
17
100
AcDbEntity
  8
TEXT_Top_X
100
AcDbText
 10
1.2289999998944998
 20
6.692499999800001
 30
0.0
 40
0.2
  1
(1440x600)
 11
1.2289999998944998
 21
6.692499999800001
 31
0.0
100
AcDbText
  0
LINE
  5
1EB
330
17
100
AcDbEntity
  8
Top_X
 62
9
100
AcDbLine
 10
7.012999998706
 20
17.487999999799
 30
0.0
 11
7.214
 21
17.488
 31
0.0
  0
LINE
  5
1EC
330
17
100
AcDbEntity
  8
Top_X
100
AcDbLine
 10
7.005435484467478
 20
19.52520893709527
 30
0.0
 11
7.22156451811694
 21
19.525208938539137
 31
0.0
  0
LINE
  5
1ED
330
17
100
AcDbEntity
  8
Top_X
 62
9
100
AcDbLine
 10
7.214
 20
17.488
 30
0.0
 11
7.214000001302001
 21
16.186
 31
0.0
  0
LINE
  5
1EE
330
17
100
AcDbEntity
  8
Top_X
100
AcDbLine
 10
7.22156451811694
 20
19.525208938539137
 30
0.0
 11
7.221564515540523
 21
14.148791062703737
 31
0.0
  0
LINE
  5
1EF
330
17
100
AcDbEntity
  8
Top_X
 62
9
100
AcDbLine
 10
7.214000001302001
 20
16.186
 30
0.0
 11
7.013000000008001
 21
16.185999999799
 31
0.0
  0
LINE
  5
1F0
330
17
100
AcDbEntity
  8
Top_X
100
AcDbLine
 10
7.221564515540523
 20
14.148791062703737
 30
0.0
 11
7.005435481891061
 21
14.148791061259871
 31
0.0
  0
LINE
  5
1F1
330
17
100
AcDbEntity
  8
Top_X
 62
9
100
AcDbLine
 10
7.013000000008001
 20
16.185999999799
 30
0.0
 11
7.012999998706
 21
17.487999999799
 31
0.0
  0
LINE
  5
1F2
330
17
100
AcDbEntity
  8
Top_X
100
AcDbLine
 10
7.005435481891061
 20
14.148791061259871
 30
0.0
 11
7.005435484467478
 21
19.52520893709527
 31
0.0
  0
TEXT
  5
1F3
330
17
100
AcDbEntity
  8
TEXT_Top_X
100
AcDbText
 10
7.1135000000040005
 20
16.8369999998995
 30
0.0
 40
0.2
  1
6 шаг 200
 11
7.1135000000040005
 21
16.8369999998995
 31
0.0
100
AcDbText
  0
TEXT
  5
1F4
330
17
100
AcDbEntity
  8
TEXT_Top_X
100
AcDbText
 10
7.1135000000040005
 20
16.5869999998995
 30
0.0
 40
0.2
  1
(830x1400)
 11
7.1135000000040005
 21
16.5869999998995
 31
0.0
100
AcDbText
  0
LINE
  5
1F5
330
17
100
AcDbEntity
  8
Top_X
 62
9
100
AcDbLine
 10
7.011999999993999
 20
17.921999999798
 30
0.0
 11
7.214
 21
17.922
 31
0.0
  0
LINE
  5
1F6
330
17
100
AcDbEntity
  8
Top_X
100
AcDbLine
 10
6.9293636363502165
 20
18.263980196948125
 30
0.0
 11
7.296636363967742
 21
18.26398019824086
 31
0.0
  0
LINE
  5
1F7
330
17
100
AcDbEntity
  8
Top_X
 62
9
100
AcDbLine
 10
7.214
 20
17.922
 30
0.0
 11
7.21400000022
 21
17.7020000002
 31
0.0
  0
LINE
  5
1F8
330
17
100
AcDbEntity
  8
Top_X
100
AcDbLine
 10
7.296636363967742
 20
18.26398019824086
 30
0.0
 11
7.29663636386378
 21
17.360019803049894
 31
0.0
  0
LINE
  5
1F9
330
17
100
AcDbEntity
  8
Top_X
 62
9
100
AcDbLine
 10
7.21400000022
 20
17.7020000002
 30
0.0
 11
7.012000000213999
 21
17.701999999998
 31
0.0
  0
LINE
  5
1FA
330
17
100
AcDbEntity
  8
Top_X
100
AcDbLine
 10
7.29663636386378
 20
17.360019803049894
 30
0.0
 11
6.929363636246255
 21
17.36001980175716
 31
0.0
  0
LINE
  5
1FB
330
17
100
AcDbEntity
  8
Top_X
 62
9
100
AcDbLine
 10
7.012000000213999
 20
17.701999999998
 30
0.0
 11
7.011999999993999
 21
17.921999999798
 31
0.0
  0
LINE
  5
1FC
330
17
100
AcDbEntity
  8
Top_X
100
AcDbLine
 10
6.929363636246255
 20
17.36001980175716
 30
0.0
 11
6.9293636363502165
 21
18.263980196948125
 31
0.0
  0
TEXT
  5
1FD
330
17
100
AcDbEntity
  8
TEXT_Top_X
100
AcDbText
 10
7.113000000106999
 20
17.811999999999003
 30
0.0
 40
0.2
  1
6 шаг 200
 11
7.113000000106999
 21
17.811999999999003
 31
0.0
100
AcDbText
  0
TEXT
  5
1FE
330
17
100
AcDbEntity
  8
TEXT_Top_X
100
AcDbText
 10
7.113000000106999
 20
17.561999999999003
 30
0.0
 40
0.2
  1
(830x400)
 11
7.113000000106999
 21
17.561999999999003
 31
0.0
100
AcDbText
  0
LINE
  5
1FF
330
17
100
AcDbEntity
  8
Top_X
 62
9
100
AcDbLine
 10
-7.937000001112
 20
25.948999999785002
 30
0.0
 11
-7.291000000663
 21
25.949000000431003
 31
0.0
  0
LINE
  5
200
330
17
100
AcDbEntity
  8
Top_X
100
AcDbLine
 10
-7.9625611517583765
 20
26.554919502825783
 30
0.0
 11
-7.265438848980786
 21
26.55491950482866
 31
0.0
  0
LINE
  5
201
330
17
100
AcDbEntity
  8
Top_X
 62
9
100
AcDbLine
 10
-7.291000000663
 20
25.949000000431003
 30
0.0
 11
-7.290999999551
 21
24.837000000646
 31
0.0
  0
LINE
  5
202
330
17
100
AcDbEntity
  8
Top_X
100
AcDbLine
 10
-7.265438848980786
 20
26.55491950482866
 30
0.0
 11
-7.265438848904625
 21
24.231080497605213
 31
0.0
  0
LINE
  5
203
330
17
100
AcDbEntity
  8
Top_X
 62
9
100
AcDbLine
 10
-7.290999999551
 20
24.837000000646
 30
0.0
 11
-7.937
 21
24.837
 31
0.0
  0
LINE
  5
204
330
17
100
AcDbEntity
  8
Top_X
100
AcDbLine
 10
-7.265438848904625
 20
24.231080497605213
 30
0.0
 11
-7.962561151682215
 21
24.231080495602335
 31
0.0
  0
LINE
  5
205
330
17
100
AcDbEntity
  8
Top_X
 62
9
100
AcDbLine
 10
-7.937
 20
24.837
 30
0.0
 11
-7.937000001112
 21
25.948999999785002
 31
0.0
  0
LINE
  5
206
330
17
100
AcDbEntity
  8
Top_X
100
AcDbLine
 10
-7.962561151682215
 20
24.231080495602335
 30
0.0
 11
-7.9625611517583765
 21
26.554919502825783
 31
0.0
  0
TEXT
  5
207
330
17
100
AcDbEntity
  8
TEXT_Top_X
100
AcDbText
 10
-7.6140000003315
 20
25.3930000002155
 30
0.0
 40
0.2
  1
8 шаг 200
 11
-7.6140000003315
 21
25.3930000002155
 31
0.0
100
AcDbText
  0
TEXT
  5
208
330
17
100
AcDbEntity
  8
TEXT_Top_X
100
AcDbText
 10
-7.6140000003315
 20
25.1430000002155
 30
0.0
 40
0.2
  1
(1350x1200)
 11
-7.6140000003315
 21
25.1430000002155
 31
0.0
100
AcDbText
  0
LINE
  5
209
330
17
100
AcDbEntity
  8
Top_X
 62
9
100
AcDbLine
 10
-6.86600000022
 20
25.948999999999003
 30
0.0
 11
-4.867000000220999
 21
25.949000001998
 31
0.0
  0
LINE
  5
20A
330
17
100
AcDbEntity
  8
Top_X
100
AcDbLine
 10
-7.2294545416616565
 20
26.017344172033454
 30
0.0
 11
-4.503545458962654
 21
26.017344174547546
 31
0.0
  0
LINE
  5
20B
330
17
100
AcDbEntity
  8
Top_X
 62
9
100
AcDbLine
 10
-4.867000000220999
 20
25.949000001998
 30
0.0
 11
-4.866999999780999
 21
25.509000000672998
 31
0.0
  0
LINE
  5
20C
330
17
100
AcDbEntity
  8
Top_X
100
AcDbLine
 10
-4.503545458962654
 20
26.017344174547546
 30
0.0
 11
-4.503545458339342
 21
25.440655828638548
 31
0.0
  0
LINE
  5
20D
330
17
100
AcDbEntity
  8
Top_X
 62
9
100
AcDbLine
 10
-4.866999999780999
 20
25.509000000672998
 30
0.0
 11
-6.86599999978
 21
25.508999998674
 31
0.0
  0
LINE
  5
20E
330
17
100
AcDbEntity
  8
Top_X
100
AcDbLine
 10
-4.503545458339342
 20
25.440655828638548
 30
0.0
 11
-7.229454541038345
 21
25.440655826124456
 31
0.0
  0
LINE
  5
20F
330
17
100
AcDbEntity
  8
Top_X
 62
9
100
AcDbLine
 10
-6.86599999978
 20
25.508999998674
 30
0.0
 11
-6.86600000022
 21
25.948999999999003
 31
0.0
  0
LINE
  5
210
330
17
100
AcDbEntity
  8
Top_X
100
AcDbLine
 10
-7.229454541038345
 20
25.440655826124456
 30
0.0
 11
-7.2294545416616565
 21
26.017344172033454
 31
0.0
  0
TEXT
  5
211
330
17
100
AcDbEntity
  8
TEXT_Top_X
100
AcDbText
 10
-5.866500000000499
 20
25.729000000336
 30
0.0
 40
0.2
  1
6 шаг 200
 11
-5.866500000000499
 21
25.729000000336
 31
0.0
100
AcDbText
  0
TEXT
  5
212
330
17
100
AcDbEntity
  8
TEXT_Top_X
100
AcDbText
 10
-5.866500000000499
 20
25.479000000336
 30
0.0
 40
0.2
  1
(2620x600)
 11
-5.866500000000499
 21
25.479000000336
 31
0.0
100
AcDbText
  0
LINE
  5
213
330
17
100
AcDbEntity
  8
Top_X
 62
9
100
AcDbLine
 10
3.6629999981170003
 20
3.2319999980000005
 30
0.0
 11
7.213999998905001
 21
3.2320000015510004
 31
0.0
  0
LINE
  5
214
330
17
100
AcDbEntity
  8
Top_X
100
AcDbLine
 10
3.646595237458894
 20
4.152235845362117
 30
0.0
 11
7.2304047612735785
 21
4.1522358507383075
 31
0.0
  0
LINE
  5
215
330
17
100
AcDbEntity
  8
Top_X
 62
9
100
AcDbLine
 10
7.213999998905001
 20
3.2320000015510004
 30
0.0
 11
7.21400000594
 21
-3.803
 31
0.0
  0
LINE
  5
216
330
17
100
AcDbEntity
  8
Top_X
100
AcDbLine
 10
7.2304047612735785
 20
4.1522358507383075
 30
0.0
 11
7.230404766598107
 21
-4.723235847362117
 31
0.0
  0
LINE
  5
217
330
17
100
AcDbEntity
  8
Top_X
 62
9
100
AcDbLine
 10
7.21400000594
 20
-3.803
 30
0.0
 11
3.6630000051519995
 21
-3.803000003551
 31
0.0
  0
LINE
  5
218
330
17
100
AcDbEntity
  8
Top_X
100
AcDbLine
 10
7.230404766598107
 20
-4.723235847362117
 30
0.0
 11
3.6465952427834214
 21
-4.723235852738307
 31
0.0
  0
LINE
  5
219
330
17
100
AcDbEntity
  8
Top_X
 62
9
100
AcDbLine
 10
3.6630000051519995
 20
-3.803000003551
 30
0.0
 11
3.6629999981170003
 21
3.2319999980000005
 31
0.0
  0
LINE
  5
21A
330
17
100
AcDbEntity
  8
Top_X
100
AcDbLine
 10
3.6465952427834214
 20
-4.723235852738307
 30
0.0
 11
3.646595237458894
 21
4.152235845362117
 31
0.0
  0
TEXT
  5
21B
330
17
100
AcDbEntity
  8
TEXT_Top_X
100
AcDbText
 10
5.4385000020285
 20
-0.2855000009999996
 30
0.0
 40
0.2
  1
12 шаг 100
 11
5.4385000020285
 21
-0.2855000009999996
 31
0.0
100
AcDbText
  0
TEXT
  5
21C
330
17
100
AcDbEntity
  8
TEXT_Top_X
100
AcDbText
 10
5.4385000020285
 20
-0.5355000009999996
 30
0.0
 40
0.2
  1
(4480x7100)
 11
5.4385000020285
 21
-0.5355000009999996
 31
0.0
100
AcDbText
  0
LINE
  5
21D
330
17
100
AcDbEntity
  8
Top_X
 62
9
100
AcDbLine
 10
-11.733383226192982
 20
-8.97678513369458
 30
0.0
 11
-4.5617826091139815
 21
3.4447857663428207
 31
0.0
  0
LINE
  5
21E
330
17
100
AcDbEntity
  8
Top_X
100
AcDbLine
 10
-12.569896536153173
 20
-9.424072136656903
 30
0.0
 11
-4.3893657564662725
 21
3.6866365354847646
 31
0.0
  0
LINE
  5
21F
330
17
100
AcDbEntity
  8
Top_X
 62
9
100
AcDbLine
 10
-4.5617826091139815
 20
3.4447857663428207
 30
0.0
 11
7.408436329593647
 21
-3.4662265539384958
 31
0.0
  0
LINE
  5
220
330
17
100
AcDbEntity
  8
Top_X
100
AcDbLine
 10
-4.3893657564662725
 20
3.6866365354847646
 30
0.0
 11
8.244949639553836
 21
-3.0189395509761745
 31
0.0
  0
LINE
  5
221
330
17
100
AcDbEntity
  8
Top_X
 62
9
100
AcDbLine
 10
7.408436329593647
 20
-3.4662265539384958
 30
0.0
 11
0.23683571251464583
 21
-15.887797453975898
 31
0.0
  0
LINE
  5
222
330
17
100
AcDbEntity
  8
Top_X
100
AcDbLine
 10
8.244949639553836
 20
-3.0189395509761745
 30
0.0
 11
0.06441885986693768
 21
-16.129648223117844
 31
0.0
  0
LINE
  5
223
330
17
100
AcDbEntity
  8
Top_X
 62
9
100
AcDbLine
 10
0.23683571251464583
 20
-15.887797453975898
 30
0.0
 11
-11.733383226192982
 21
-8.97678513369458
 31
0.0
  0
LINE
  5
224
330
17
100
AcDbEntity
  8
Top_X
100
AcDbLine
 10
0.06441885986693768
 20
-16.129648223117844
 30
0.0
 11
-12.569896536153173
 21
-9.424072136656903
 31
0.0
  0
TEXT
  5
225
330
17
100
AcDbEntity
  8
TEXT_Top_X
100
AcDbText
 10
-2.162473448299668
 20
-6.221505843816539
 30
0.0
 40
0.2
  1
18 шаг 200
 11
-2.162473448299668
 21
-6.221505843816539
 31
0.0
100
AcDbText
  0
TEXT
  5
226
330
17
100
AcDbEntity
  8
TEXT_Top_X
100
AcDbText
 10
-2.162473448299668
 20
-6.471505843816539
 30
0.0
 40
0.2
  1
(15750x14000)
 11
-2.162473448299668
 21
-6.471505843816539
 31
0.0
100
AcDbText
  0
ENDSEC
  0
SECTION
  2
OBJECTS
  0
DICTIONARY
  5
A
330
0
100
AcDbDictionary
281
1
  3
ACAD_COLOR
350
B
  3
ACAD_GROUP
350
C
  3
ACAD_LAYOUT
350
D
  3
ACAD_MATERIAL
350
E
  3
ACAD_MLEADERSTYLE
350
F
  3
ACAD_MLINESTYLE
350
10
  3
ACAD_PLOTSETTINGS
350
11
  3
ACAD_PLOTSTYLENAME
350
12
  3
ACAD_SCALELIST
350
14
  3
ACAD_TABLESTYLE
350
15
  3
ACAD_VISUALSTYLE
350
16
  3
EZDXF_META
350
2D
  0
DICTIONARY
  5
B
330
A
100
AcDbDictionary
281
1
  0
DICTIONARY
  5
C
330
A
100
AcDbDictionary
281
1
  0
DICTIONARY
  5
D
330
A
100
AcDbDictionary
281
1
  3
Model
350
1A
  3
Layout1
350
1E
  0
DICTIONARY
  5
E
330
A
100
AcDbDictionary
281
1
  3
ByBlock
350
1F
  3
ByLayer
350
20
  3
Global
350
21
  0
DICTIONARY
  5
F
330
A
100
AcDbDictionary
281
1
  3
Standard
350
2C
  0
DICTIONARY
  5
10
330
A
100
AcDbDictionary
281
1
  3
Standard
350
22
  0
DICTIONARY
  5
11
330
A
100
AcDbDictionary
281
1
  0
ACDBDICTIONARYWDFLT
  5
12
330
A
100
AcDbDictionary
281
1
  3
Normal
350
13
100
AcDbDictionaryWithDefault
340
13
  0
ACDBPLACEHOLDER
  5
13
330
12
  0
DICTIONARY
  5
14
330
A
100
AcDbDictionary
281
1
  0
DICTIONARY
  5
15
330
A
100
AcDbDictionary
281
1
  0
DICTIONARY
  5
16
330
A
100
AcDbDictionary
281
1
  0
LAYOUT
  5
1A
330
D
100
AcDbPlotSettings
  1

  2
Adobe PDF
  4
A3
  6

 40
7.5
 41
20.0
 42
7.5
 43
20.0
 44
420.0
 45
297.0
 46
0.0
 47
0.0
 48
0.0
 49
0.0
140
0.0
141
0.0
142
1.0
143
1.0
 70
1024
 72
1
 73
1
 74
5
  7

 75
16
 76
0
 77
2
 78
300
147
1.0
148
0.0
149
0.0
100
AcDbLayout
  1
Model
 70
1
 71
0
 10
0.0
 20
0.0
 11
420.0
 21
297.0
 12
0.0
 22
0.0
 32
0.0
 14
1e+20
 24
1e+20
 34
1e+20
 15
-1e+20
 25
-1e+20
 35
-1e+20
146
0.0
 13
0.0
 23
0.0
 33
0.0
 16
1.0
 26
0.0
 36
0.0
 17
0.0
 27
1.0
 37
0.0
 76
1
330
17
  0
LAYOUT
  5
1E
330
D
100
AcDbPlotSettings
  1

  2
Adobe PDF
  4
A3
  6

 40
7.5
 41
20.0
 42
7.5
 43
20.0
 44
420.0
 45
297.0
 46
0.0
 47
0.0
 48
0.0
 49
0.0
140
0.0
141
0.0
142
1.0
143
1.0
 70
0
 72
1
 73
1
 74
5
  7

 75
16
 76
0
 77
2
 78
300
147
1.0
148
0.0
149
0.0
100
AcDbLayout
  1
Layout1
 70
1
 71
1
 10
0.0
 20
0.0
 11
420.0
 21
297.0
 12
0.0
 22
0.0
 32
0.0
 14
1e+20
 24
1e+20
 34
1e+20
 15
-1e+20
 25
-1e+20
 35
-1e+20
146
0.0
 13
0.0
 23
0.0
 33
0.0
 16
1.0
 26
0.0
 36
0.0
 17
0.0
 27
1.0
 37
0.0
 76
1
330
1B
  0
MATERIAL
  5
1F
102
{ACAD_REACTORS
330
E
102
}
330
E
100
AcDbMaterial
  1
ByBlock
  2

 70
0
 40
1.0
 71
1
 41
1.0
 91
-1023410177
 42
1.0
 72
1
  3

 73
1
 74
1
 75
1
 44
0.5
 73
0
 45
1.0
 46
1.0
 77
1
  4

 78
1
 79
1
170
1
 48
1.0
171
1
  6

172
1
173
1
174
1
140
1.0
141
1.0
175
1
  7

176
1
177
1
178
1
143
1.0
179
1
  8

270
1
271
1
272
1
145
1.0
146
1.0
273
1
  9

274
1
275
1
276
1
 42
1.0
 72
1
  3

 73
1
 74
1
 75
1
 94
63
  0
MATERIAL
  5
20
102
{ACAD_REACTORS
330
E
102
}
330
E
100
AcDbMaterial
  1
ByLayer
  2

 70
0
 40
1.0
 71
1
 41
1.0
 91
-1023410177
 42
1.0
 72
1
  3

 73
1
 74
1
 75
1
 44
0.5
 73
0
 45
1.0
 46
1.0
 77
1
  4

 78
1
 79
1
170
1
 48
1.0
171
1
  6

172
1
173
1
174
1
140
1.0
141
1.0
175
1
  7

176
1
177
1
178
1
143
1.0
179
1
  8

270
1
271
1
272
1
145
1.0
146
1.0
273
1
  9

274
1
275
1
276
1
 42
1.0
 72
1
  3

 73
1
 74
1
 75
1
 94
63
  0
MATERIAL
  5
21
102
{ACAD_REACTORS
330
E
102
}
330
E
100
AcDbMaterial
  1
Global
  2

 70
0
 40
1.0
 71
1
 41
1.0
 91
-1023410177
 42
1.0
 72
1
  3

 73
1
 74
1
 75
1
 44
0.5
 73
0
 45
1.0
 46
1.0
 77
1
  4

 78
1
 79
1
170
1
 48
1.0
171
1
  6

172
1
173
1
174
1
140
1.0
141
1.0
175
1
  7

176
1
177
1
178
1
143
1.0
179
1
  8

270
1
271
1
272
1
145
1.0
146
1.0
273
1
  9

274
1
275
1
276
1
 42
1.0
 72
1
  3

 73
1
 74
1
 75
1
 94
63
  0
MLINESTYLE
  5
22
102
{ACAD_REACTORS
330
10
102
}
330
10
100
AcDbMlineStyle
  2
Standard
 70
0
  3

 62
256
 51
90.0
 52
90.0
 71
2
 49
0.5
 62
256
  6
BYLAYER
 49
-0.5
 62
256
  6
BYLAYER
  0
MLEADERSTYLE
  5
2C
102
{ACAD_REACTORS
330
F
102
}
330
F
100
AcDbMLeaderStyle
179
2
170
2
171
1
172
0
 90
2
 40
0.0
 41
0.0
173
1
 91
-1056964608
 92
-2
290
1
 42
2.0
291
1
 43
8.0
  3
Standard
 44
4.0
300

342
29
174
1
175
1
176
0
178
1
 93
-1056964608
 45
4.0
292
0
297
0
 46
4.0
 94
-1056964608
 47
1.0
 49
1.0
140
1.0
294
1
141
0.0
177
0
142
1.0
295
0
296
0
143
3.75
271
0
272
9
273
9
  0
DICTIONARY
  5
2D
330
A
100
AcDbDictionary
280
1
281
1
  3
CREATED_BY_EZDXF
350
2E
  3
WRITTEN_BY_EZDXF
350
233
  0
DICTIONARYVAR
  5
2E
330
2D
100
DictionaryVariables
280
0
  1
0.18.1 @ 2022-09-29T19:15:37.997537+00:00
  0
DICTIONARYVAR
  5
233
330
2D
100
DictionaryVariables
280
0
  1
0.18.1 @ 2022-09-29T19:15:38.054389+00:00
  0
ENDSEC
  0
EOF
