  0
SECTION
  2
HEADER
  9
$ACADVER
  1
AC1027
  9
$ACADMAINTVER
 70
105
  9
$DWGCODEPAGE
  3
ANSI_1252
  9
$LASTSAVEDBY
  1
ezdxf
  9
$REQUIREDVERSIONS
160
0
  9
$INSBASE
 10
0.0
 20
0.0
 30
0.0
  9
$EXTMIN
 10
1e+20
 20
1e+20
 30
1e+20
  9
$EXTMAX
 10
-1e+20
 20
-1e+20
 30
-1e+20
  9
$LIMMIN
 10
0.0
 20
0.0
  9
$LIMMAX
 10
420.0
 20
297.0
  9
$ORTHOMODE
 70
0
  9
$REGENMODE
 70
1
  9
$FILLMODE
 70
1
  9
$QTEXTMODE
 70
0
  9
$MIRRTEXT
 70
1
  9
$LTSCALE
 40
1.0
  9
$ATTMODE
 70
1
  9
$TEXTSIZE
 40
2.5
  9
$TRACEWID
 40
1.0
  9
$TEXTSTYLE
  7
Standard
  9
$CLAYER
  8
0
  9
$CELTYPE
  6
ByLayer
  9
$CECOLOR
 62
256
  9
$CELTSCALE
 40
1.0
  9
$DISPSILH
 70
0
  9
$DIMSCALE
 40
1.0
  9
$DIMASZ
 40
2.5
  9
$DIMEXO
 40
0.625
  9
$DIMDLI
 40
3.75
  9
$DIMRND
 40
0.0
  9
$DIMDLE
 40
0.0
  9
$DIMEXE
 40
1.25
  9
$DIMTP
 40
0.0
  9
$DIMTM
 40
0.0
  9
$DIMTXT
 40
2.5
  9
$DIMCEN
 40
2.5
  9
$DIMTSZ
 40
0.0
  9
$DIMTOL
 70
0
  9
$DIMLIM
 70
0
  9
$DIMTIH
 70
0
  9
$DIMTOH
 70
0
  9
$DIMSE1
 70
0
  9
$DIMSE2
 70
0
  9
$DIMTAD
 70
1
  9
$DIMZIN
 70
8
  9
$DIMBLK
  1

  9
$DIMASO
 70
1
  9
$DIMSHO
 70
1
  9
$DIMPOST
  1

  9
$DIMAPOST
  1

  9
$DIMALT
 70
0
  9
$DIMALTD
 70
3
  9
$DIMALTF
 40
0.03937007874
  9
$DIMLFAC
 40
1.0
  9
$DIMTOFL
 70
1
  9
$DIMTVP
 40
0.0
  9
$DIMTIX
 70
0
  9
$DIMSOXD
 70
0
  9
$DIMSAH
 70
0
  9
$DIMBLK1
  1

  9
$DIMBLK2
  1

  9
$DIMSTYLE
  2
ISO-25
  9
$DIMCLRD
 70
0
  9
$DIMCLRE
 70
0
  9
$DIMCLRT
 70
0
  9
$DIMTFAC
 40
1.0
  9
$DIMGAP
 40
0.625
  9
$DIMJUST
 70
0
  9
$DIMSD1
 70
0
  9
$DIMSD2
 70
0
  9
$DIMTOLJ
 70
0
  9
$DIMTZIN
 70
8
  9
$DIMALTZ
 70
0
  9
$DIMALTTZ
 70
0
  9
$DIMUPT
 70
0
  9
$DIMDEC
 70
2
  9
$DIMTDEC
 70
2
  9
$DIMALTU
 70
2
  9
$DIMALTTD
 70
3
  9
$DIMTXSTY
  7
Standard
  9
$DIMAUNIT
 70
0
  9
$DIMADEC
 70
0
  9
$DIMALTRND
 40
0.0
  9
$DIMAZIN
 70
0
  9
$DIMDSEP
 70
44
  9
$DIMATFIT
 70
3
  9
$DIMFRAC
 70
0
  9
$DIMLDRBLK
  1

  9
$DIMLUNIT
 70
2
  9
$DIMLWD
 70
-2
  9
$DIMLWE
 70
-2
  9
$DIMTMOVE
 70
0
  9
$DIMFXL
 40
1.0
  9
$DIMFXLON
 70
0
  9
$DIMJOGANG
 40
0.785398163397
  9
$DIMTFILL
 70
0
  9
$DIMTFILLCLR
 70
0
  9
$DIMARCSYM
 70
0
  9
$DIMLTYPE
  6

  9
$DIMLTEX1
  6

  9
$DIMLTEX2
  6

  9
$DIMTXTDIRECTION
 70
0
  9
$LUNITS
 70
2
  9
$LUPREC
 70
4
  9
$SKETCHINC
 40
1.0
  9
$FILLETRAD
 40
10.0
  9
$AUNITS
 70
0
  9
$AUPREC
 70
2
  9
$MENU
  1
.
  9
$ELEVATION
 40
0.0
  9
$PELEVATION
 40
0.0
  9
$THICKNESS
 40
0.0
  9
$LIMCHECK
 70
0
  9
$CHAMFERA
 40
0.0
  9
$CHAMFERB
 40
0.0
  9
$CHAMFERC
 40
0.0
  9
$CHAMFERD
 40
0.0
  9
$SKPOLY
 70
0
  9
$TDCREATE
 40
2459863.6330555556
  9
$TDUCREATE
 40
2458532.153996898
  9
$TDUPDATE
 40
2459863.6330555556
  9
$TDUUPDATE
 40
2458532.1544311
  9
$TDINDWG
 40
0.0
  9
$TDUSRTIMER
 40
0.0
  9
$USRTIMER
 70
1
  9
$ANGBASE
 50
0.0
  9
$ANGDIR
 70
0
  9
$PDMODE
 70
0
  9
$PDSIZE
 40
0.0
  9
$PLINEWID
 40
0.0
  9
$SPLFRAME
 70
0
  9
$SPLINETYPE
 70
6
  9
$SPLINESEGS
 70
8
  9
$HANDSEED
  5
FB
  9
$SURFTAB1
 70
6
  9
$SURFTAB2
 70
6
  9
$SURFTYPE
 70
6
  9
$SURFU
 70
6
  9
$SURFV
 70
6
  9
$UCSBASE
  2

  9
$UCSNAME
  2

  9
$UCSORG
 10
0.0
 20
0.0
 30
0.0
  9
$UCSXDIR
 10
1.0
 20
0.0
 30
0.0
  9
$UCSYDIR
 10
0.0
 20
1.0
 30
0.0
  9
$UCSORTHOREF
  2

  9
$UCSORTHOVIEW
 70
0
  9
$UCSORGTOP
 10
0.0
 20
0.0
 30
0.0
  9
$UCSORGBOTTOM
 10
0.0
 20
0.0
 30
0.0
  9
$UCSORGLEFT
 10
0.0
 20
0.0
 30
0.0
  9
$UCSORGRIGHT
 10
0.0
 20
0.0
 30
0.0
  9
$UCSORGFRONT
 10
0.0
 20
0.0
 30
0.0
  9
$UCSORGBACK
 10
0.0
 20
0.0
 30
0.0
  9
$PUCSBASE
  2

  9
$PUCSNAME
  2

  9
$PUCSORG
 10
0.0
 20
0.0
 30
0.0
  9
$PUCSXDIR
 10
1.0
 20
0.0
 30
0.0
  9
$PUCSYDIR
 10
0.0
 20
1.0
 30
0.0
  9
$PUCSORTHOREF
  2

  9
$PUCSORTHOVIEW
 70
0
  9
$PUCSORGTOP
 10
0.0
 20
0.0
 30
0.0
  9
$PUCSORGBOTTOM
 10
0.0
 20
0.0
 30
0.0
  9
$PUCSORGLEFT
 10
0.0
 20
0.0
 30
0.0
  9
$PUCSORGRIGHT
 10
0.0
 20
0.0
 30
0.0
  9
$PUCSORGFRONT
 10
0.0
 20
0.0
 30
0.0
  9
$PUCSORGBACK
 10
0.0
 20
0.0
 30
0.0
  9
$USERI1
 70
0
  9
$USERI2
 70
0
  9
$USERI3
 70
0
  9
$USERI4
 70
0
  9
$USERI5
 70
0
  9
$USERR1
 40
0.0
  9
$USERR2
 40
0.0
  9
$USERR3
 40
0.0
  9
$USERR4
 40
0.0
  9
$USERR5
 40
0.0
  9
$WORLDVIEW
 70
1
  9
$SHADEDGE
 70
3
  9
$SHADEDIF
 70
70
  9
$TILEMODE
 70
1
  9
$MAXACTVP
 70
64
  9
$PINSBASE
 10
0.0
 20
0.0
 30
0.0
  9
$PLIMCHECK
 70
0
  9
$PEXTMIN
 10
1e+20
 20
1e+20
 30
1e+20
  9
$PEXTMAX
 10
-1e+20
 20
-1e+20
 30
-1e+20
  9
$PLIMMIN
 10
0.0
 20
0.0
  9
$PLIMMAX
 10
420.0
 20
297.0
  9
$UNITMODE
 70
0
  9
$VISRETAIN
 70
1
  9
$PLINEGEN
 70
0
  9
$PSLTSCALE
 70
1
  9
$TREEDEPTH
 70
3020
  9
$CMLSTYLE
  2
Standard
  9
$CMLJUST
 70
0
  9
$CMLSCALE
 40
20.0
  9
$PROXYGRAPHICS
 70
1
  9
$MEASUREMENT
 70
1
  9
$CELWEIGHT
370
-1
  9
$ENDCAPS
280
0
  9
$JOINSTYLE
280
0
  9
$LWDISPLAY
290
0
  9
$INSUNITS
 70
6
  9
$HYPERLINKBASE
  1

  9
$STYLESHEET
  1

  9
$XEDIT
290
1
  9
$CEPSNTYPE
380
0
  9
$PSTYLEMODE
290
1
  9
$FINGERPRINTGUID
  2
{87956055-BBA5-4D1C-94F6-E2A696BB2325}
  9
$VERSIONGUID
  2
{C8A74C57-7CCC-4302-AC1B-E7B632051915}
  9
$EXTNAMES
290
1
  9
$PSVPSCALE
 40
0.0
  9
$OLESTARTUP
290
0
  9
$SORTENTS
280
127
  9
$INDEXCTL
280
0
  9
$HIDETEXT
280
1
  9
$XCLIPFRAME
280
0
  9
$HALOGAP
280
0
  9
$OBSCOLOR
 70
257
  9
$OBSLTYPE
280
0
  9
$INTERSECTIONDISPLAY
280
0
  9
$INTERSECTIONCOLOR
 70
257
  9
$DIMASSOC
280
2
  9
$PROJECTNAME
  1

  9
$CAMERADISPLAY
290
0
  9
$LENSLENGTH
 40
50.0
  9
$CAMERAHEIGHT
 40
0.0
  9
$STEPSPERSEC
 40
24.0
  9
$STEPSIZE
 40
100.0
  9
$3DDWFPREC
 40
2.0
  9
$PSOLWIDTH
 40
0.005
  9
$PSOLHEIGHT
 40
0.08
  9
$LOFTANG1
 40
1.570796326795
  9
$LOFTANG2
 40
1.570796326795
  9
$LOFTMAG1
 40
0.0
  9
$LOFTMAG2
 40
0.0
  9
$LOFTPARAM
 70
7
  9
$LOFTNORMALS
280
1
  9
$LATITUDE
 40
37.795
  9
$LONGITUDE
 40
-122.394
  9
$NORTHDIRECTION
 40
0.0
  9
$TIMEZONE
 70
-8000
  9
$LIGHTGLYPHDISPLAY
280
1
  9
$TILEMODELIGHTSYNCH
280
1
  9
$CMATERIAL
347
20
  9
$SOLIDHIST
280
0
  9
$SHOWHIST
280
1
  9
$DWFFRAME
280
2
  9
$DGNFRAME
280
2
  9
$REALWORLDSCALE
290
1
  9
$INTERFERECOLOR
 62
256
  9
$CSHADOW
280
0
  9
$SHADOWPLANELOCATION
 40
0.0
  0
ENDSEC
  0
SECTION
  2
CLASSES
  0
CLASS
  1
ACDBDICTIONARYWDFLT
  2
AcDbDictionaryWithDefault
  3
ObjectDBX Classes
 90
0
 91
0
280
0
281
0
  0
CLASS
  1
SUN
  2
AcDbSun
  3
SCENEOE
 90
1153
 91
0
280
0
281
0
  0
CLASS
  1
VISUALSTYLE
  2
AcDbVisualStyle
  3
ObjectDBX Classes
 90
4095
 91
0
280
0
281
0
  0
CLASS
  1
MATERIAL
  2
AcDbMaterial
  3
ObjectDBX Classes
 90
1153
 91
0
280
0
281
0
  0
CLASS
  1
SCALE
  2
AcDbScale
  3
ObjectDBX Classes
 90
1153
 91
0
280
0
281
0
  0
CLASS
  1
TABLESTYLE
  2
AcDbTableStyle
  3
ObjectDBX Classes
 90
4095
 91
0
280
0
281
0
  0
CLASS
  1
MLEADERSTYLE
  2
AcDbMLeaderStyle
  3
ACDB_MLEADERSTYLE_CLASS
 90
4095
 91
0
280
0
281
0
  0
CLASS
  1
DICTIONARYVAR
  2
AcDbDictionaryVar
  3
ObjectDBX Classes
 90
0
 91
0
280
0
281
0
  0
CLASS
  1
CELLSTYLEMAP
  2
AcDbCellStyleMap
  3
ObjectDBX Classes
 90
1152
 91
0
280
0
281
0
  0
CLASS
  1
MENTALRAYRENDERSETTINGS
  2
AcDbMentalRayRenderSettings
  3
SCENEOE
 90
1024
 91
0
280
0
281
0
  0
CLASS
  1
ACDBDETAILVIEWSTYLE
  2
AcDbDetailViewStyle
  3
ObjectDBX Classes
 90
1025
 91
0
280
0
281
0
  0
CLASS
  1
ACDBSECTIONVIEWSTYLE
  2
AcDbSectionViewStyle
  3
ObjectDBX Classes
 90
1025
 91
0
280
0
281
0
  0
CLASS
  1
RASTERVARIABLES
  2
AcDbRasterVariables
  3
ISM
 90
0
 91
0
280
0
281
0
  0
CLASS
  1
ACDBPLACEHOLDER
  2
AcDbPlaceHolder
  3
ObjectDBX Classes
 90
0
 91
0
280
0
281
0
  0
CLASS
  1
LAYOUT
  2
AcDbLayout
  3
ObjectDBX Classes
 90
0
 91
0
280
0
281
0
  0
ENDSEC
  0
SECTION
  2
TABLES
  0
TABLE
  2
VPORT
  5
8
330
0
100
AcDbSymbolTable
 70
1
  0
VPORT
  5
23
330
8
100
AcDbSymbolTableRecord
100
AcDbViewportTableRecord
  2
*Active
 70
0
 10
0.0
 20
0.0
 11
1.0
 21
1.0
 12
0.0
 22
0.0
 13
0.0
 23
0.0
 14
0.5
 24
0.5
 15
0.5
 25
0.5
 16
0.0
 26
0.0
 36
1.0
 17
0.0
 27
0.0
 37
0.0
 40
1000.0
 41
1.34
 42
50.0
 43
0.0
 44
0.0
 50
0.0
 51
0.0
 71
0
 72
1000
 73
1
 74
3
 75
0
 76
0
 77
0
 78
0
281
0
 65
0
146
0.0
  0
ENDTAB
  0
TABLE
  2
LTYPE
  5
2
330
0
100
AcDbSymbolTable
 70
3
  0
LTYPE
  5
24
330
2
100
AcDbSymbolTableRecord
100
AcDbLinetypeTableRecord
  2
ByBlock
 70
0
  3

 72
65
 73
0
 40
0.0
  0
LTYPE
  5
25
330
2
100
AcDbSymbolTableRecord
100
AcDbLinetypeTableRecord
  2
ByLayer
 70
0
  3

 72
65
 73
0
 40
0.0
  0
LTYPE
  5
26
330
2
100
AcDbSymbolTableRecord
100
AcDbLinetypeTableRecord
  2
Continuous
 70
0
  3

 72
65
 73
0
 40
0.0
  0
ENDTAB
  0
TABLE
  2
LAYER
  5
1
330
0
100
AcDbSymbolTable
 70
16
  0
LAYER
  5
27
330
1
100
AcDbSymbolTableRecord
100
AcDbLayerTableRecord
  2
0
 70
0
 62
7
  6
Continuous
370
-3
390
13
347
21
  0
LAYER
  5
28
330
1
100
AcDbSymbolTableRecord
100
AcDbLayerTableRecord
  2
Defpoints
 70
0
 62
7
  6
Continuous
290
0
370
-3
390
13
347
21
  0
LAYER
  5
2F
330
1
100
AcDbSymbolTableRecord
100
AcDbLayerTableRecord
  2
TEXT
 70
0
 62
229
  6
Continuous
370
-3
390
13
347
21
  0
LAYER
  5
31
330
1
100
AcDbSymbolTableRecord
100
AcDbLayerTableRecord
  2
POLYGONS
 70
0
 62
56
  6
Continuous
370
-3
390
13
347
21
  0
LAYER
  5
38
330
1
100
AcDbSymbolTableRecord
100
AcDbLayerTableRecord
  2
Top_X
 70
0
 62
163
  6
Continuous
370
-3
390
13
347
21
  0
LAYER
  5
39
330
1
100
AcDbSymbolTableRecord
100
AcDbLayerTableRecord
  2
TEXT_Top_X
 70
0
 62
137
  6
Continuous
370
-3
390
13
347
21
  0
LAYER
  5
44
330
1
100
AcDbSymbolTableRecord
100
AcDbLayerTableRecord
  2
Top_Y
 70
0
 62
173
  6
Continuous
370
-3
390
13
347
21
  0
LAYER
  5
45
330
1
100
AcDbSymbolTableRecord
100
AcDbLayerTableRecord
  2
TEXT_Top_Y
 70
0
 62
72
  6
Continuous
370
-3
390
13
347
21
  0
LAYER
  5
B4
330
1
100
AcDbSymbolTableRecord
100
AcDbLayerTableRecord
  2
Bot_X
 70
0
 62
212
  6
Continuous
370
-3
390
13
347
21
  0
LAYER
  5
B5
330
1
100
AcDbSymbolTableRecord
100
AcDbLayerTableRecord
  2
TEXT_Bot_X
 70
0
 62
163
  6
Continuous
370
-3
390
13
347
21
  0
LAYER
  5
CA
330
1
100
AcDbSymbolTableRecord
100
AcDbLayerTableRecord
  2
Bot_Y
 70
0
 62
226
  6
Continuous
370
-3
390
13
347
21
  0
LAYER
  5
CB
330
1
100
AcDbSymbolTableRecord
100
AcDbLayerTableRecord
  2
TEXT_Bot_Y
 70
0
 62
99
  6
Continuous
370
-3
390
13
347
21
  0
LAYER
  5
F4
330
1
100
AcDbSymbolTableRecord
100
AcDbLayerTableRecord
  2
Lat_X
 70
0
 62
131
  6
Continuous
370
-3
390
13
347
21
  0
LAYER
  5
F5
330
1
100
AcDbSymbolTableRecord
100
AcDbLayerTableRecord
  2
TEXT_Lat_X
 70
0
 62
228
  6
Continuous
370
-3
390
13
347
21
  0
LAYER
  5
F6
330
1
100
AcDbSymbolTableRecord
100
AcDbLayerTableRecord
  2
Lat_Y
 70
0
 62
74
  6
Continuous
370
-3
390
13
347
21
  0
LAYER
  5
F7
330
1
100
AcDbSymbolTableRecord
100
AcDbLayerTableRecord
  2
TEXT_Lat_Y
 70
0
 62
63
  6
Continuous
370
-3
390
13
347
21
  0
ENDTAB
  0
TABLE
  2
STYLE
  5
5
330
0
100
AcDbSymbolTable
 70
1
  0
STYLE
  5
29
330
5
100
AcDbSymbolTableRecord
100
AcDbTextStyleTableRecord
  2
Standard
 70
0
 40
0.0
 41
1.0
 50
0.0
 71
0
 42
2.5
  3
txt
  4

  0
ENDTAB
  0
TABLE
  2
VIEW
  5
7
330
0
100
AcDbSymbolTable
 70
0
  0
ENDTAB
  0
TABLE
  2
UCS
  5
6
330
0
100
AcDbSymbolTable
 70
0
  0
ENDTAB
  0
TABLE
  2
APPID
  5
3
330
0
100
AcDbSymbolTable
 70
3
  0
APPID
  5
2A
330
3
100
AcDbSymbolTableRecord
100
AcDbRegAppTableRecord
  2
ACAD
 70
0
  0
APPID
  5
F8
330
3
100
AcDbSymbolTableRecord
100
AcDbRegAppTableRecord
  2
HATCHBACKGROUNDCOLOR
 70
0
  0
APPID
  5
F9
330
3
100
AcDbSymbolTableRecord
100
AcDbRegAppTableRecord
  2
EZDXF
 70
0
  0
ENDTAB
  0
TABLE
  2
DIMSTYLE
  5
4
330
0
100
AcDbSymbolTable
 70
1
100
AcDbDimStyleTable
  0
DIMSTYLE
105
2B
330
4
100
AcDbSymbolTableRecord
100
AcDbDimStyleTableRecord
  2
Standard
 70
0
 40
1.0
 41
2.5
 42
0.625
 43
3.75
 44
1.25
 45
0.0
 46
0.0
 47
0.0
 48
0.0
 49
2.5
140
2.5
141
2.5
142
0.0
143
0.03937007874
144
1.0
145
0.0
146
1.0
147
0.625
148
0.0
 69
0
 70
0
 71
0
 72
0
 73
0
 74
0
 75
0
 76
0
 77
1
 78
8
 79
3
170
0
171
3
172
1
173
0
174
0
175
0
176
0
177
0
178
0
179
2
271
2
272
2
273
2
274
3
275
0
276
0
277
2
278
44
279
0
280
0
281
0
282
0
283
0
284
8
285
0
286
0
288
0
289
3
290
0
371
-2
372
-2
  0
ENDTAB
  0
TABLE
  2
BLOCK_RECORD
  5
9
330
0
100
AcDbSymbolTable
 70
2
  0
BLOCK_RECORD
  5
17
330
9
100
AcDbSymbolTableRecord
100
AcDbBlockTableRecord
  2
*Model_Space
340
1A
 70
0
280
1
281
0
  0
BLOCK_RECORD
  5
1B
330
9
100
AcDbSymbolTableRecord
100
AcDbBlockTableRecord
  2
*Paper_Space
340
1E
 70
0
280
1
281
0
  0
ENDTAB
  0
ENDSEC
  0
SECTION
  2
BLOCKS
  0
BLOCK
  5
18
330
17
100
AcDbEntity
  8
0
100
AcDbBlockBegin
  2
*Model_Space
 70
0
 10
0.0
 20
0.0
 30
0.0
  3
*Model_Space
  1

  0
ENDBLK
  5
19
330
17
100
AcDbEntity
  8
0
100
AcDbBlockEnd
  0
BLOCK
  5
1C
330
1B
100
AcDbEntity
  8
0
100
AcDbBlockBegin
  2
*Paper_Space
 70
0
 10
0.0
 20
0.0
 30
0.0
  3
*Paper_Space
  1

  0
ENDBLK
  5
1D
330
1B
100
AcDbEntity
  8
0
100
AcDbBlockEnd
  0
ENDSEC
  0
SECTION
  2
ENTITIES
  0
TEXT
  5
30
330
17
100
AcDbEntity
  8
TEXT
100
AcDbText
 10
0.0
 20
0.0
 30
0.0
 40
0.2
  1
Фон 10 шаг 200
 11
0.0
 21
0.0
 31
0.0
100
AcDbText
  0
LINE
  5
32
330
17
100
AcDbEntity
  8
POLYGONS
100
AcDbLine
 10
12.0
 20
6.0
 30
0.0
 11
6.0
 21
0.0
 31
0.0
  0
LINE
  5
33
330
17
100
AcDbEntity
  8
POLYGONS
100
AcDbLine
 10
6.0
 20
0.0
 30
0.0
 11
0.0
 21
0.0
 31
0.0
  0
LINE
  5
34
330
17
100
AcDbEntity
  8
POLYGONS
100
AcDbLine
 10
0.0
 20
0.0
 30
0.0
 11
0.0
 21
30.0
 31
0.0
  0
LINE
  5
35
330
17
100
AcDbEntity
  8
POLYGONS
100
AcDbLine
 10
0.0
 20
30.0
 30
0.0
 11
6.0
 21
30.0
 31
0.0
  0
LINE
  5
36
330
17
100
AcDbEntity
  8
POLYGONS
100
AcDbLine
 10
6.0
 20
30.0
 30
0.0
 11
12.0
 21
36.0
 31
0.0
  0
LINE
  5
37
330
17
100
AcDbEntity
  8
POLYGONS
100
AcDbLine
 10
12.0
 20
36.0
 30
0.0
 11
12.0
 21
6.0
 31
0.0
  0
LINE
  5
3A
330
17
100
AcDbEntity
  8
Top_X
 62
9
100
AcDbLine
 10
11.250000000000002
 20
28.5
 30
0.0
 11
10.874999999000002
 21
28.875000002
 31
0.0
  0
LINE
  5
3B
330
17
100
AcDbEntity
  8
Top_X
100
AcDbLine
 10
10.98860389551789
 20
28.189339829068707
 30
0.0
 11
10.56433982737165
 21
28.61360389834632
 31
0.0
  0
LINE
  5
3C
330
17
100
AcDbEntity
  8
Top_X
 62
9
100
AcDbLine
 10
10.874999999000002
 20
28.875000002
 30
0.0
 11
11.999999999999998
 21
30.0
 31
0.0
  0
LINE
  5
3D
330
17
100
AcDbEntity
  8
Top_X
100
AcDbLine
 10
10.56433982737165
 20
28.61360389834632
 30
0.0
 11
12.261396104482106
 21
30.310660170931293
 31
0.0
  0
LINE
  5
3E
330
17
100
AcDbEntity
  8
Top_X
 62
9
100
AcDbLine
 10
11.999999999999998
 20
30.0
 30
0.0
 11
12.375000000999998
 21
29.624999998
 31
0.0
  0
LINE
  5
3F
330
17
100
AcDbEntity
  8
Top_X
100
AcDbLine
 10
12.261396104482106
 20
30.310660170931293
 30
0.0
 11
12.685660172628346
 21
29.88639610165368
 31
0.0
  0
LINE
  5
40
330
17
100
AcDbEntity
  8
Top_X
 62
9
100
AcDbLine
 10
12.375000000999998
 20
29.624999998
 30
0.0
 11
11.250000000000002
 21
28.5
 31
0.0
  0
LINE
  5
41
330
17
100
AcDbEntity
  8
Top_X
100
AcDbLine
 10
12.685660172628346
 20
29.88639610165368
 30
0.0
 11
10.98860389551789
 21
28.189339829068707
 31
0.0
  0
TEXT
  5
42
330
17
100
AcDbEntity
  8
TEXT_Top_X
100
AcDbText
 10
11.625
 20
29.25
 30
0.0
 40
0.2
  1
10 шаг 200
 11
11.625
 21
29.25
 31
0.0
100
AcDbText
  0
TEXT
  5
43
330
17
100
AcDbEntity
  8
TEXT_Top_X
100
AcDbText
 10
11.625
 20
29.0
 30
0.0
 40
0.2
  1
(2400x600)
 11
11.625
 21
29.0
 31
0.0
100
AcDbText
  0
LINE
  5
46
330
17
100
AcDbEntity
  8
Top_Y
 62
9
100
AcDbLine
 10
11.625000000000002
 20
16.875
 30
0.0
 11
11.249999999500002
 21
17.2500000015
 31
0.0
  0
LINE
  5
47
330
17
100
AcDbEntity
  8
Top_Y
100
AcDbLine
 10
11.861997473485696
 20
16.539474387827088
 30
0.0
 11
10.914474387959084
 21
17.486997475880422
 31
0.0
  0
LINE
  5
48
330
17
100
AcDbEntity
  8
Top_Y
 62
9
100
AcDbLine
 10
11.249999999500002
 20
17.2500000015
 30
0.0
 11
12.000000000000002
 21
18.0
 31
0.0
  0
LINE
  5
49
330
17
100
AcDbEntity
  8
Top_Y
100
AcDbLine
 10
10.914474387959084
 20
17.486997475880422
 30
0.0
 11
11.76300252651431
 21
18.335525612172912
 31
0.0
  0
LINE
  5
4A
330
17
100
AcDbEntity
  8
Top_Y
 62
9
100
AcDbLine
 10
12.000000000000002
 20
18.0
 30
0.0
 11
12.375000000500002
 21
17.6249999985
 31
0.0
  0
LINE
  5
4B
330
17
100
AcDbEntity
  8
Top_Y
100
AcDbLine
 10
11.76300252651431
 20
18.335525612172912
 30
0.0
 11
12.710525612040922
 21
17.388002524119575
 31
0.0
  0
LINE
  5
4C
330
17
100
AcDbEntity
  8
Top_Y
 62
9
100
AcDbLine
 10
12.375000000500002
 20
17.6249999985
 30
0.0
 11
11.625000000000002
 21
16.875
 31
0.0
  0
LINE
  5
4D
330
17
100
AcDbEntity
  8
Top_Y
100
AcDbLine
 10
12.710525612040922
 20
17.388002524119575
 30
0.0
 11
11.861997473485696
 21
16.539474387827088
 31
0.0
  0
TEXT
  5
4E
330
17
100
AcDbEntity
  8
TEXT_Top_Y
100
AcDbText
 10
11.812500000000002
 20
17.4375
 30
0.0
 40
0.2
  1
10 шаг 200
 11
11.812500000000002
 21
17.4375
 31
0.0
100
AcDbText
  0
TEXT
  5
4F
330
17
100
AcDbEntity
  8
TEXT_Top_Y
100
AcDbText
 10
11.812500000000002
 20
17.1875
 30
0.0
 40
0.2
  1
(1200x1340)
 11
11.812500000000002
 21
17.1875
 31
0.0
100
AcDbText
  0
LINE
  5
50
330
17
100
AcDbEntity
  8
Top_Y
 62
9
100
AcDbLine
 10
11.249999999999996
 20
22.499999999999996
 30
0.0
 11
10.874999998999998
 21
22.875000001999997
 31
0.0
  0
LINE
  5
51
330
17
100
AcDbEntity
  8
Top_Y
100
AcDbLine
 10
11.533076117059817
 20
22.21055303177834
 30
0.0
 11
10.585553031533212
 21
23.158076119831676
 31
0.0
  0
LINE
  5
52
330
17
100
AcDbEntity
  8
Top_Y
 62
9
100
AcDbLine
 10
10.874999998999998
 20
22.875000001999997
 30
0.0
 11
12.000000000000002
 21
24.0
 31
0.0
  0
LINE
  5
53
330
17
100
AcDbEntity
  8
Top_Y
100
AcDbLine
 10
10.585553031533212
 20
23.158076119831676
 30
0.0
 11
11.716923882940183
 21
24.289446968221654
 31
0.0
  0
LINE
  5
54
330
17
100
AcDbEntity
  8
Top_Y
 62
9
100
AcDbLine
 10
12.000000000000002
 20
24.0
 30
0.0
 11
12.375000001
 21
23.624999998
 31
0.0
  0
LINE
  5
55
330
17
100
AcDbEntity
  8
Top_Y
100
AcDbLine
 10
11.716923882940183
 20
24.289446968221654
 30
0.0
 11
12.66444696846679
 21
23.341923880168324
 31
0.0
  0
LINE
  5
56
330
17
100
AcDbEntity
  8
Top_Y
 62
9
100
AcDbLine
 10
12.375000001
 20
23.624999998
 30
0.0
 11
11.249999999999996
 21
22.499999999999996
 31
0.0
  0
LINE
  5
57
330
17
100
AcDbEntity
  8
Top_Y
100
AcDbLine
 10
12.66444696846679
 20
23.341923880168324
 30
0.0
 11
11.533076117059817
 21
22.21055303177834
 31
0.0
  0
TEXT
  5
58
330
17
100
AcDbEntity
  8
TEXT_Top_Y
100
AcDbText
 10
11.625
 20
23.25
 30
0.0
 40
0.2
  1
10 шаг 200
 11
11.625
 21
23.25
 31
0.0
100
AcDbText
  0
TEXT
  5
59
330
17
100
AcDbEntity
  8
TEXT_Top_Y
100
AcDbText
 10
11.625
 20
23.0
 30
0.0
 40
0.2
  1
(1600x1340)
 11
11.625
 21
23.0
 31
0.0
100
AcDbText
  0
LINE
  5
5A
330
17
100
AcDbEntity
  8
Top_Y
 62
9
100
AcDbLine
 10
11.250000000000002
 20
28.5
 30
0.0
 11
10.874999999000002
 21
28.875000002
 31
0.0
  0
LINE
  5
5B
330
17
100
AcDbEntity
  8
Top_Y
100
AcDbLine
 10
11.533076117059819
 20
28.21055303177834
 30
0.0
 11
10.585553031533216
 21
29.15807611983167
 31
0.0
  0
LINE
  5
5C
330
17
100
AcDbEntity
  8
Top_Y
 62
9
100
AcDbLine
 10
10.874999999000002
 20
28.875000002
 30
0.0
 11
11.999999999999998
 21
30.0
 31
0.0
  0
LINE
  5
5D
330
17
100
AcDbEntity
  8
Top_Y
100
AcDbLine
 10
10.585553031533216
 20
29.15807611983167
 30
0.0
 11
11.716923882940181
 21
30.289446968221654
 31
0.0
  0
LINE
  5
5E
330
17
100
AcDbEntity
  8
Top_Y
 62
9
100
AcDbLine
 10
11.999999999999998
 20
30.0
 30
0.0
 11
12.375000000999998
 21
29.624999998
 31
0.0
  0
LINE
  5
5F
330
17
100
AcDbEntity
  8
Top_Y
100
AcDbLine
 10
11.716923882940181
 20
30.289446968221654
 30
0.0
 11
12.664446968466784
 21
29.341923880168324
 31
0.0
  0
LINE
  5
60
330
17
100
AcDbEntity
  8
Top_Y
 62
9
100
AcDbLine
 10
12.375000000999998
 20
29.624999998
 30
0.0
 11
11.250000000000002
 21
28.5
 31
0.0
  0
LINE
  5
61
330
17
100
AcDbEntity
  8
Top_Y
100
AcDbLine
 10
12.664446968466784
 20
29.341923880168324
 30
0.0
 11
11.533076117059819
 21
28.21055303177834
 31
0.0
  0
TEXT
  5
62
330
17
100
AcDbEntity
  8
TEXT_Top_Y
100
AcDbText
 10
11.625
 20
29.25
 30
0.0
 40
0.2
  1
10 шаг 200
 11
11.625
 21
29.25
 31
0.0
100
AcDbText
  0
TEXT
  5
63
330
17
100
AcDbEntity
  8
TEXT_Top_Y
100
AcDbText
 10
11.625
 20
29.0
 30
0.0
 40
0.2
  1
(1600x1340)
 11
11.625
 21
29.0
 31
0.0
100
AcDbText
  0
LINE
  5
64
330
17
100
AcDbEntity
  8
Top_Y
 62
9
100
AcDbLine
 10
6.000000000000001
 20
6.0
 30
0.0
 11
5.624999999500001
 21
6.3750000015
 31
0.0
  0
LINE
  5
65
330
17
100
AcDbEntity
  8
Top_Y
100
AcDbLine
 10
6.23699747348569
 20
5.664474387827089
 30
0.0
 11
5.289474387959081
 21
6.6119974758804245
 31
0.0
  0
LINE
  5
66
330
17
100
AcDbEntity
  8
Top_Y
 62
9
100
AcDbLine
 10
5.624999999500001
 20
6.3750000015
 30
0.0
 11
6.375
 21
7.124999999999999
 31
0.0
  0
LINE
  5
67
330
17
100
AcDbEntity
  8
Top_Y
100
AcDbLine
 10
5.289474387959081
 20
6.6119974758804245
 30
0.0
 11
6.13800252651431
 21
7.460525612172911
 31
0.0
  0
LINE
  5
68
330
17
100
AcDbEntity
  8
Top_Y
 62
9
100
AcDbLine
 10
6.375
 20
7.124999999999999
 30
0.0
 11
6.7500000005
 21
6.749999998499999
 31
0.0
  0
LINE
  5
69
330
17
100
AcDbEntity
  8
Top_Y
100
AcDbLine
 10
6.13800252651431
 20
7.460525612172911
 30
0.0
 11
7.085525612040919
 21
6.513002524119574
 31
0.0
  0
LINE
  5
6A
330
17
100
AcDbEntity
  8
Top_Y
 62
9
100
AcDbLine
 10
6.7500000005
 20
6.749999998499999
 30
0.0
 11
6.000000000000001
 21
6.0
 31
0.0
  0
LINE
  5
6B
330
17
100
AcDbEntity
  8
Top_Y
100
AcDbLine
 10
7.085525612040919
 20
6.513002524119574
 30
0.0
 11
6.23699747348569
 21
5.664474387827089
 31
0.0
  0
TEXT
  5
6C
330
17
100
AcDbEntity
  8
TEXT_Top_Y
100
AcDbText
 10
6.1875
 20
6.562499999999999
 30
0.0
 40
0.2
  1
10 шаг 200
 11
6.1875
 21
6.562499999999999
 31
0.0
100
AcDbText
  0
TEXT
  5
6D
330
17
100
AcDbEntity
  8
TEXT_Top_Y
100
AcDbText
 10
6.1875
 20
6.312499999999999
 30
0.0
 40
0.2
  1
(1200x1340)
 11
6.1875
 21
6.312499999999999
 31
0.0
100
AcDbText
  0
LINE
  5
6E
330
17
100
AcDbEntity
  8
Top_Y
 62
9
100
AcDbLine
 10
0.0
 20
5.25
 30
0.0
 11
0.0
 21
6.75
 31
0.0
  0
LINE
  5
6F
330
17
100
AcDbEntity
  8
Top_Y
100
AcDbLine
 10
-0.10000000000000053
 20
4.85
 30
0.0
 11
-0.10000000000000053
 21
7.15
 31
0.0
  0
LINE
  5
70
330
17
100
AcDbEntity
  8
Top_Y
 62
9
100
AcDbLine
 10
0.0
 20
6.75
 30
0.0
 11
6.0
 21
6.75
 31
0.0
  0
LINE
  5
71
330
17
100
AcDbEntity
  8
Top_Y
100
AcDbLine
 10
-0.10000000000000053
 20
7.15
 30
0.0
 11
6.1000000000000005
 21
7.15
 31
0.0
  0
LINE
  5
72
330
17
100
AcDbEntity
  8
Top_Y
 62
9
100
AcDbLine
 10
6.0
 20
6.75
 30
0.0
 11
6.0
 21
5.25
 31
0.0
  0
LINE
  5
73
330
17
100
AcDbEntity
  8
Top_Y
100
AcDbLine
 10
6.1000000000000005
 20
7.15
 30
0.0
 11
6.1000000000000005
 21
4.85
 31
0.0
  0
LINE
  5
74
330
17
100
AcDbEntity
  8
Top_Y
 62
9
100
AcDbLine
 10
6.0
 20
5.25
 30
0.0
 11
0.0
 21
5.25
 31
0.0
  0
LINE
  5
75
330
17
100
AcDbEntity
  8
Top_Y
100
AcDbLine
 10
6.1000000000000005
 20
4.85
 30
0.0
 11
-0.10000000000000053
 21
4.85
 31
0.0
  0
TEXT
  5
76
330
17
100
AcDbEntity
  8
TEXT_Top_Y
100
AcDbText
 10
3.0
 20
6.0
 30
0.0
 40
0.2
  1
10 шаг 200
 11
3.0
 21
6.0
 31
0.0
100
AcDbText
  0
TEXT
  5
77
330
17
100
AcDbEntity
  8
TEXT_Top_Y
100
AcDbText
 10
3.0
 20
5.75
 30
0.0
 40
0.2
  1
(6200x2300)
 11
3.0
 21
5.75
 31
0.0
100
AcDbText
  0
LINE
  5
78
330
17
100
AcDbEntity
  8
Top_Y
 62
9
100
AcDbLine
 10
6.000000000000001
 20
12.0
 30
0.0
 11
5.624999999000001
 21
12.375000002
 31
0.0
  0
LINE
  5
79
330
17
100
AcDbEntity
  8
Top_Y
100
AcDbLine
 10
6.28307611705982
 20
11.710553031778339
 30
0.0
 11
5.335553031533212
 21
12.658076119831676
 31
0.0
  0
LINE
  5
7A
330
17
100
AcDbEntity
  8
Top_Y
 62
9
100
AcDbLine
 10
5.624999999000001
 20
12.375000002
 30
0.0
 11
6.750000000000001
 21
13.5
 31
0.0
  0
LINE
  5
7B
330
17
100
AcDbEntity
  8
Top_Y
100
AcDbLine
 10
5.335553031533212
 20
12.658076119831676
 30
0.0
 11
6.466923882940181
 21
13.789446968221661
 31
0.0
  0
LINE
  5
7C
330
17
100
AcDbEntity
  8
Top_Y
 62
9
100
AcDbLine
 10
6.750000000000001
 20
13.5
 30
0.0
 11
7.125000001000001
 21
13.124999998
 31
0.0
  0
LINE
  5
7D
330
17
100
AcDbEntity
  8
Top_Y
100
AcDbLine
 10
6.466923882940181
 20
13.789446968221661
 30
0.0
 11
7.414446968466791
 21
12.841923880168324
 31
0.0
  0
LINE
  5
7E
330
17
100
AcDbEntity
  8
Top_Y
 62
9
100
AcDbLine
 10
7.125000001000001
 20
13.124999998
 30
0.0
 11
6.000000000000001
 21
12.0
 31
0.0
  0
LINE
  5
7F
330
17
100
AcDbEntity
  8
Top_Y
100
AcDbLine
 10
7.414446968466791
 20
12.841923880168324
 30
0.0
 11
6.28307611705982
 21
11.710553031778339
 31
0.0
  0
TEXT
  5
80
330
17
100
AcDbEntity
  8
TEXT_Top_Y
100
AcDbText
 10
6.375000000000001
 20
12.75
 30
0.0
 40
0.2
  1
10 шаг 200
 11
6.375000000000001
 21
12.75
 31
0.0
100
AcDbText
  0
TEXT
  5
81
330
17
100
AcDbEntity
  8
TEXT_Top_Y
100
AcDbText
 10
6.375000000000001
 20
12.5
 30
0.0
 40
0.2
  1
(1600x1340)
 11
6.375000000000001
 21
12.5
 31
0.0
100
AcDbText
  0
LINE
  5
82
330
17
100
AcDbEntity
  8
Top_Y
 62
9
100
AcDbLine
 10
0.0
 20
11.25
 30
0.0
 11
0.0
 21
12.75
 31
0.0
  0
LINE
  5
83
330
17
100
AcDbEntity
  8
Top_Y
100
AcDbLine
 10
-0.10000000000000053
 20
10.850000000000001
 30
0.0
 11
-0.10000000000000053
 21
13.149999999999999
 31
0.0
  0
LINE
  5
84
330
17
100
AcDbEntity
  8
Top_Y
 62
9
100
AcDbLine
 10
0.0
 20
12.75
 30
0.0
 11
6.0
 21
12.75
 31
0.0
  0
LINE
  5
85
330
17
100
AcDbEntity
  8
Top_Y
100
AcDbLine
 10
-0.10000000000000053
 20
13.149999999999999
 30
0.0
 11
6.1000000000000005
 21
13.149999999999999
 31
0.0
  0
LINE
  5
86
330
17
100
AcDbEntity
  8
Top_Y
 62
9
100
AcDbLine
 10
6.0
 20
12.75
 30
0.0
 11
6.0
 21
11.25
 31
0.0
  0
LINE
  5
87
330
17
100
AcDbEntity
  8
Top_Y
100
AcDbLine
 10
6.1000000000000005
 20
13.149999999999999
 30
0.0
 11
6.1000000000000005
 21
10.850000000000001
 31
0.0
  0
LINE
  5
88
330
17
100
AcDbEntity
  8
Top_Y
 62
9
100
AcDbLine
 10
6.0
 20
11.25
 30
0.0
 11
0.0
 21
11.25
 31
0.0
  0
LINE
  5
89
330
17
100
AcDbEntity
  8
Top_Y
100
AcDbLine
 10
6.1000000000000005
 20
10.850000000000001
 30
0.0
 11
-0.10000000000000053
 21
10.850000000000001
 31
0.0
  0
TEXT
  5
8A
330
17
100
AcDbEntity
  8
TEXT_Top_Y
100
AcDbText
 10
3.0
 20
12.0
 30
0.0
 40
0.2
  1
10 шаг 200
 11
3.0
 21
12.0
 31
0.0
100
AcDbText
  0
TEXT
  5
8B
330
17
100
AcDbEntity
  8
TEXT_Top_Y
100
AcDbText
 10
3.0
 20
11.75
 30
0.0
 40
0.2
  1
(6200x2300)
 11
3.0
 21
11.75
 31
0.0
100
AcDbText
  0
LINE
  5
8C
330
17
100
AcDbEntity
  8
Top_Y
 62
9
100
AcDbLine
 10
6.000000000000001
 20
18.0
 30
0.0
 11
5.624999999000001
 21
18.375000002
 31
0.0
  0
LINE
  5
8D
330
17
100
AcDbEntity
  8
Top_Y
100
AcDbLine
 10
6.283076117059816
 20
17.71055303177834
 30
0.0
 11
5.33555303153321
 21
18.658076119831673
 31
0.0
  0
LINE
  5
8E
330
17
100
AcDbEntity
  8
Top_Y
 62
9
100
AcDbLine
 10
5.624999999000001
 20
18.375000002
 30
0.0
 11
6.749999999999999
 21
19.499999999999996
 31
0.0
  0
LINE
  5
8F
330
17
100
AcDbEntity
  8
Top_Y
100
AcDbLine
 10
5.33555303153321
 20
18.658076119831673
 30
0.0
 11
6.466923882940185
 21
19.789446968221654
 31
0.0
  0
LINE
  5
90
330
17
100
AcDbEntity
  8
Top_Y
 62
9
100
AcDbLine
 10
6.749999999999999
 20
19.499999999999996
 30
0.0
 11
7.125000000999999
 21
19.124999997999996
 31
0.0
  0
LINE
  5
91
330
17
100
AcDbEntity
  8
Top_Y
100
AcDbLine
 10
6.466923882940185
 20
19.789446968221654
 30
0.0
 11
7.414446968466789
 21
18.84192388016832
 31
0.0
  0
LINE
  5
92
330
17
100
AcDbEntity
  8
Top_Y
 62
9
100
AcDbLine
 10
7.125000000999999
 20
19.124999997999996
 30
0.0
 11
6.000000000000001
 21
18.0
 31
0.0
  0
LINE
  5
93
330
17
100
AcDbEntity
  8
Top_Y
100
AcDbLine
 10
7.414446968466789
 20
18.84192388016832
 30
0.0
 11
6.283076117059816
 21
17.71055303177834
 31
0.0
  0
TEXT
  5
94
330
17
100
AcDbEntity
  8
TEXT_Top_Y
100
AcDbText
 10
6.375
 20
18.749999999999996
 30
0.0
 40
0.2
  1
10 шаг 200
 11
6.375
 21
18.749999999999996
 31
0.0
100
AcDbText
  0
TEXT
  5
95
330
17
100
AcDbEntity
  8
TEXT_Top_Y
100
AcDbText
 10
6.375
 20
18.499999999999996
 30
0.0
 40
0.2
  1
(1600x1340)
 11
6.375
 21
18.499999999999996
 31
0.0
100
AcDbText
  0
LINE
  5
96
330
17
100
AcDbEntity
  8
Top_Y
 62
9
100
AcDbLine
 10
0.0
 20
17.25
 30
0.0
 11
0.0
 21
18.75
 31
0.0
  0
LINE
  5
97
330
17
100
AcDbEntity
  8
Top_Y
100
AcDbLine
 10
-0.10000000000000053
 20
16.85
 30
0.0
 11
-0.10000000000000053
 21
19.15
 31
0.0
  0
LINE
  5
98
330
17
100
AcDbEntity
  8
Top_Y
 62
9
100
AcDbLine
 10
0.0
 20
18.75
 30
0.0
 11
6.0
 21
18.75
 31
0.0
  0
LINE
  5
99
330
17
100
AcDbEntity
  8
Top_Y
100
AcDbLine
 10
-0.10000000000000053
 20
19.15
 30
0.0
 11
6.1000000000000005
 21
19.15
 31
0.0
  0
LINE
  5
9A
330
17
100
AcDbEntity
  8
Top_Y
 62
9
100
AcDbLine
 10
6.0
 20
18.75
 30
0.0
 11
6.0
 21
17.25
 31
0.0
  0
LINE
  5
9B
330
17
100
AcDbEntity
  8
Top_Y
100
AcDbLine
 10
6.1000000000000005
 20
19.15
 30
0.0
 11
6.1000000000000005
 21
16.85
 31
0.0
  0
LINE
  5
9C
330
17
100
AcDbEntity
  8
Top_Y
 62
9
100
AcDbLine
 10
6.0
 20
17.25
 30
0.0
 11
0.0
 21
17.25
 31
0.0
  0
LINE
  5
9D
330
17
100
AcDbEntity
  8
Top_Y
100
AcDbLine
 10
6.1000000000000005
 20
16.85
 30
0.0
 11
-0.10000000000000053
 21
16.85
 31
0.0
  0
TEXT
  5
9E
330
17
100
AcDbEntity
  8
TEXT_Top_Y
100
AcDbText
 10
3.0
 20
18.0
 30
0.0
 40
0.2
  1
10 шаг 200
 11
3.0
 21
18.0
 31
0.0
100
AcDbText
  0
TEXT
  5
9F
330
17
100
AcDbEntity
  8
TEXT_Top_Y
100
AcDbText
 10
3.0
 20
17.75
 30
0.0
 40
0.2
  1
(6200x2300)
 11
3.0
 21
17.75
 31
0.0
100
AcDbText
  0
LINE
  5
A0
330
17
100
AcDbEntity
  8
Top_Y
 62
9
100
AcDbLine
 10
6.000000000000001
 20
24.0
 30
0.0
 11
5.624999999500001
 21
24.375000001500002
 31
0.0
  0
LINE
  5
A1
330
17
100
AcDbEntity
  8
Top_Y
100
AcDbLine
 10
6.236997473485689
 20
23.66447438782709
 30
0.0
 11
5.289474387959085
 21
24.611997475880422
 31
0.0
  0
LINE
  5
A2
330
17
100
AcDbEntity
  8
Top_Y
 62
9
100
AcDbLine
 10
5.624999999500001
 20
24.375000001500002
 30
0.0
 11
6.374999999999999
 21
25.125
 31
0.0
  0
LINE
  5
A3
330
17
100
AcDbEntity
  8
Top_Y
100
AcDbLine
 10
5.289474387959085
 20
24.611997475880422
 30
0.0
 11
6.138002526514312
 21
25.46052561217291
 31
0.0
  0
LINE
  5
A4
330
17
100
AcDbEntity
  8
Top_Y
 62
9
100
AcDbLine
 10
6.374999999999999
 20
25.125
 30
0.0
 11
6.750000000499999
 21
24.749999998499998
 31
0.0
  0
LINE
  5
A5
330
17
100
AcDbEntity
  8
Top_Y
100
AcDbLine
 10
6.138002526514312
 20
25.46052561217291
 30
0.0
 11
7.085525612040916
 21
24.513002524119578
 31
0.0
  0
LINE
  5
A6
330
17
100
AcDbEntity
  8
Top_Y
 62
9
100
AcDbLine
 10
6.750000000499999
 20
24.749999998499998
 30
0.0
 11
6.000000000000001
 21
24.0
 31
0.0
  0
LINE
  5
A7
330
17
100
AcDbEntity
  8
Top_Y
100
AcDbLine
 10
7.085525612040916
 20
24.513002524119578
 30
0.0
 11
6.236997473485689
 21
23.66447438782709
 31
0.0
  0
TEXT
  5
A8
330
17
100
AcDbEntity
  8
TEXT_Top_Y
100
AcDbText
 10
6.1875
 20
24.5625
 30
0.0
 40
0.2
  1
10 шаг 200
 11
6.1875
 21
24.5625
 31
0.0
100
AcDbText
  0
TEXT
  5
A9
330
17
100
AcDbEntity
  8
TEXT_Top_Y
100
AcDbText
 10
6.1875
 20
24.3125
 30
0.0
 40
0.2
  1
(1200x1340)
 11
6.1875
 21
24.3125
 31
0.0
100
AcDbText
  0
LINE
  5
AA
330
17
100
AcDbEntity
  8
Top_Y
 62
9
100
AcDbLine
 10
0.0
 20
23.25
 30
0.0
 11
0.0
 21
24.75
 31
0.0
  0
LINE
  5
AB
330
17
100
AcDbEntity
  8
Top_Y
100
AcDbLine
 10
-0.10000000000000053
 20
22.85
 30
0.0
 11
-0.10000000000000053
 21
25.15
 31
0.0
  0
LINE
  5
AC
330
17
100
AcDbEntity
  8
Top_Y
 62
9
100
AcDbLine
 10
0.0
 20
24.75
 30
0.0
 11
6.0
 21
24.75
 31
0.0
  0
LINE
  5
AD
330
17
100
AcDbEntity
  8
Top_Y
100
AcDbLine
 10
-0.10000000000000053
 20
25.15
 30
0.0
 11
6.1000000000000005
 21
25.15
 31
0.0
  0
LINE
  5
AE
330
17
100
AcDbEntity
  8
Top_Y
 62
9
100
AcDbLine
 10
6.0
 20
24.75
 30
0.0
 11
6.0
 21
23.25
 31
0.0
  0
LINE
  5
AF
330
17
100
AcDbEntity
  8
Top_Y
100
AcDbLine
 10
6.1000000000000005
 20
25.15
 30
0.0
 11
6.1000000000000005
 21
22.85
 31
0.0
  0
LINE
  5
B0
330
17
100
AcDbEntity
  8
Top_Y
 62
9
100
AcDbLine
 10
6.0
 20
23.25
 30
0.0
 11
0.0
 21
23.25
 31
0.0
  0
LINE
  5
B1
330
17
100
AcDbEntity
  8
Top_Y
100
AcDbLine
 10
6.1000000000000005
 20
22.85
 30
0.0
 11
-0.10000000000000053
 21
22.85
 31
0.0
  0
TEXT
  5
B2
330
17
100
AcDbEntity
  8
TEXT_Top_Y
100
AcDbText
 10
3.0
 20
24.0
 30
0.0
 40
0.2
  1
10 шаг 200
 11
3.0
 21
24.0
 31
0.0
100
AcDbText
  0
TEXT
  5
B3
330
17
100
AcDbEntity
  8
TEXT_Top_Y
100
AcDbText
 10
3.0
 20
23.75
 30
0.0
 40
0.2
  1
(6200x2300)
 11
3.0
 21
23.75
 31
0.0
100
AcDbText
  0
LINE
  5
B6
330
17
100
AcDbEntity
  8
Bot_X
 62
9
100
AcDbLine
 10
6.0
 20
2.25
 30
0.0
 11
5.6249999995
 21
2.6250000014999997
 31
0.0
  0
LINE
  5
B7
330
17
100
AcDbEntity
  8
Bot_X
100
AcDbLine
 10
5.7384871927821735
 20
1.9392231258332986
 30
0.0
 11
5.31422312463593
 21
2.3634871951109115
 31
0.0
  0
LINE
  5
B8
330
17
100
AcDbEntity
  8
Bot_X
 62
9
100
AcDbLine
 10
5.6249999995
 20
2.6250000014999997
 30
0.0
 11
6.375
 21
3.3749999999999996
 31
0.0
  0
LINE
  5
B9
330
17
100
AcDbEntity
  8
Bot_X
100
AcDbLine
 10
5.31422312463593
 20
2.3634871951109115
 30
0.0
 11
6.6365128072178265
 21
3.6857768741667014
 31
0.0
  0
LINE
  5
BA
330
17
100
AcDbEntity
  8
Bot_X
 62
9
100
AcDbLine
 10
6.375
 20
3.3749999999999996
 30
0.0
 11
6.7500000005
 21
2.9999999985
 31
0.0
  0
LINE
  5
BB
330
17
100
AcDbEntity
  8
Bot_X
100
AcDbLine
 10
6.6365128072178265
 20
3.6857768741667014
 30
0.0
 11
7.060776875364068
 21
3.2615128048890893
 31
0.0
  0
LINE
  5
BC
330
17
100
AcDbEntity
  8
Bot_X
 62
9
100
AcDbLine
 10
6.7500000005
 20
2.9999999985
 30
0.0
 11
6.0
 21
2.25
 31
0.0
  0
LINE
  5
BD
330
17
100
AcDbEntity
  8
Bot_X
100
AcDbLine
 10
7.060776875364068
 20
3.2615128048890893
 30
0.0
 11
5.7384871927821735
 21
1.9392231258332986
 31
0.0
  0
TEXT
  5
BE
330
17
100
AcDbEntity
  8
TEXT_Bot_X
100
AcDbText
 10
6.1875
 20
2.8125
 30
0.0
 40
0.2
  1
10 шаг 200
 11
6.1875
 21
2.8125
 31
0.0
100
AcDbText
  0
TEXT
  5
BF
330
17
100
AcDbEntity
  8
TEXT_Bot_X
100
AcDbText
 10
6.1875
 20
2.5625
 30
0.0
 40
0.2
  1
(1870x600)
 11
6.1875
 21
2.5625
 31
0.0
100
AcDbText
  0
LINE
  5
C0
330
17
100
AcDbEntity
  8
Bot_X
 62
9
100
AcDbLine
 10
5.25
 20
2.25
 30
0.0
 11
5.25
 21
3.75
 31
0.0
  0
LINE
  5
C1
330
17
100
AcDbEntity
  8
Bot_X
100
AcDbLine
 10
4.849999999999998
 20
2.1999999999999997
 30
0.0
 11
4.849999999999998
 21
3.8
 31
0.0
  0
LINE
  5
C2
330
17
100
AcDbEntity
  8
Bot_X
 62
9
100
AcDbLine
 10
5.25
 20
3.75
 30
0.0
 11
6.0
 21
3.75
 31
0.0
  0
LINE
  5
C3
330
17
100
AcDbEntity
  8
Bot_X
100
AcDbLine
 10
4.849999999999998
 20
3.8
 30
0.0
 11
6.399999999999999
 21
3.8
 31
0.0
  0
LINE
  5
C4
330
17
100
AcDbEntity
  8
Bot_X
 62
9
100
AcDbLine
 10
6.0
 20
3.75
 30
0.0
 11
6.0
 21
2.25
 31
0.0
  0
LINE
  5
C5
330
17
100
AcDbEntity
  8
Bot_X
100
AcDbLine
 10
6.399999999999999
 20
3.8
 30
0.0
 11
6.399999999999999
 21
2.1999999999999997
 31
0.0
  0
LINE
  5
C6
330
17
100
AcDbEntity
  8
Bot_X
 62
9
100
AcDbLine
 10
6.0
 20
2.25
 30
0.0
 11
5.25
 21
2.25
 31
0.0
  0
LINE
  5
C7
330
17
100
AcDbEntity
  8
Bot_X
100
AcDbLine
 10
6.399999999999999
 20
2.1999999999999997
 30
0.0
 11
4.849999999999998
 21
2.1999999999999997
 31
0.0
  0
TEXT
  5
C8
330
17
100
AcDbEntity
  8
TEXT_Bot_X
100
AcDbText
 10
5.625
 20
3.0
 30
0.0
 40
0.2
  1
10 шаг 200
 11
5.625
 21
3.0
 31
0.0
100
AcDbText
  0
TEXT
  5
C9
330
17
100
AcDbEntity
  8
TEXT_Bot_X
100
AcDbText
 10
5.625
 20
2.75
 30
0.0
 40
0.2
  1
(1550x1600)
 11
5.625
 21
2.75
 31
0.0
100
AcDbText
  0
LINE
  5
CC
330
17
100
AcDbEntity
  8
Bot_Y
 62
9
100
AcDbLine
 10
6.000000000000001
 20
1.5000000000000009
 30
0.0
 11
4.499999999000001
 21
3.000000005000001
 31
0.0
  0
LINE
  5
CD
330
17
100
AcDbEntity
  8
Bot_Y
100
AcDbLine
 10
6.220720238762038
 20
1.1488973730592982
 30
0.0
 11
4.148897372647885
 21
3.220720244698312
 31
0.0
  0
LINE
  5
CE
330
17
100
AcDbEntity
  8
Bot_Y
 62
9
100
AcDbLine
 10
4.499999999000001
 20
3.000000005000001
 30
0.0
 11
10.875000007
 21
9.374999996000001
 31
0.0
  0
LINE
  5
CF
330
17
100
AcDbEntity
  8
Bot_Y
100
AcDbLine
 10
4.148897372647885
 20
3.220720244698312
 30
0.0
 11
10.654279768237963
 21
9.726102622940704
 31
0.0
  0
LINE
  5
D0
330
17
100
AcDbEntity
  8
Bot_Y
 62
9
100
AcDbLine
 10
10.875000007
 20
9.374999996000001
 30
0.0
 11
12.375000008
 21
7.874999991000001
 31
0.0
  0
LINE
  5
D1
330
17
100
AcDbEntity
  8
Bot_Y
100
AcDbLine
 10
10.654279768237963
 20
9.726102622940704
 30
0.0
 11
12.726102634352117
 21
7.654279751301691
 31
0.0
  0
LINE
  5
D2
330
17
100
AcDbEntity
  8
Bot_Y
 62
9
100
AcDbLine
 10
12.375000008
 20
7.874999991000001
 30
0.0
 11
6.000000000000001
 21
1.5000000000000009
 31
0.0
  0
LINE
  5
D3
330
17
100
AcDbEntity
  8
Bot_Y
100
AcDbLine
 10
12.726102634352117
 20
7.654279751301691
 30
0.0
 11
6.220720238762038
 21
1.1488973730592982
 31
0.0
  0
TEXT
  5
D4
330
17
100
AcDbEntity
  8
TEXT_Bot_Y
100
AcDbText
 10
8.4375000035
 20
5.437499998000002
 30
0.0
 40
0.2
  1
10 шаг 200
 11
8.4375000035
 21
5.437499998000002
 31
0.0
100
AcDbText
  0
TEXT
  5
D5
330
17
100
AcDbEntity
  8
TEXT_Bot_Y
100
AcDbText
 10
8.4375000035
 20
5.187499998000002
 30
0.0
 40
0.2
  1
(9200x2930)
 11
8.4375000035
 21
5.187499998000002
 31
0.0
100
AcDbText
  0
LINE
  5
D6
330
17
100
AcDbEntity
  8
Bot_Y
 62
9
100
AcDbLine
 10
0.0
 20
0.75
 30
0.0
 11
0.0
 21
4.5
 31
0.0
  0
LINE
  5
D7
330
17
100
AcDbEntity
  8
Bot_Y
100
AcDbLine
 10
-0.10000000000000053
 20
0.35
 30
0.0
 11
-0.10000000000000053
 21
4.9
 31
0.0
  0
LINE
  5
D8
330
17
100
AcDbEntity
  8
Bot_Y
 62
9
100
AcDbLine
 10
0.0
 20
4.5
 30
0.0
 11
6.0
 21
4.5
 31
0.0
  0
LINE
  5
D9
330
17
100
AcDbEntity
  8
Bot_Y
100
AcDbLine
 10
-0.10000000000000053
 20
4.9
 30
0.0
 11
6.1000000000000005
 21
4.9
 31
0.0
  0
LINE
  5
DA
330
17
100
AcDbEntity
  8
Bot_Y
 62
9
100
AcDbLine
 10
6.0
 20
4.5
 30
0.0
 11
6.0
 21
0.75
 31
0.0
  0
LINE
  5
DB
330
17
100
AcDbEntity
  8
Bot_Y
100
AcDbLine
 10
6.1000000000000005
 20
4.9
 30
0.0
 11
6.1000000000000005
 21
0.35
 31
0.0
  0
LINE
  5
DC
330
17
100
AcDbEntity
  8
Bot_Y
 62
9
100
AcDbLine
 10
6.0
 20
0.75
 30
0.0
 11
0.0
 21
0.75
 31
0.0
  0
LINE
  5
DD
330
17
100
AcDbEntity
  8
Bot_Y
100
AcDbLine
 10
6.1000000000000005
 20
0.35
 30
0.0
 11
-0.10000000000000053
 21
0.35
 31
0.0
  0
TEXT
  5
DE
330
17
100
AcDbEntity
  8
TEXT_Bot_Y
100
AcDbText
 10
3.0
 20
2.625
 30
0.0
 40
0.2
  1
10 шаг 200
 11
3.0
 21
2.625
 31
0.0
100
AcDbText
  0
TEXT
  5
DF
330
17
100
AcDbEntity
  8
TEXT_Bot_Y
100
AcDbText
 10
3.0
 20
2.375
 30
0.0
 40
0.2
  1
(6200x4550)
 11
3.0
 21
2.375
 31
0.0
100
AcDbText
  0
LINE
  5
E0
330
17
100
AcDbEntity
  8
Bot_Y
 62
9
100
AcDbLine
 10
7.124999992500001
 20
25.875000004500002
 30
0.0
 11
4.8749999995
 21
28.125000003500002
 31
0.0
  0
LINE
  5
E1
330
17
100
AcDbEntity
  8
Bot_Y
100
AcDbLine
 10
7.345486828791217
 20
25.524130780030735
 30
0.0
 11
4.524130775618703
 21
28.345486840726867
 31
0.0
  0
LINE
  5
E2
330
17
100
AcDbEntity
  8
Bot_Y
 62
9
100
AcDbLine
 10
4.8749999995
 20
28.125000003500002
 30
0.0
 11
11.2500000075
 21
34.4999999945
 31
0.0
  0
LINE
  5
E3
330
17
100
AcDbEntity
  8
Bot_Y
100
AcDbLine
 10
4.524130775618703
 20
28.345486840726867
 30
0.0
 11
11.029513171208782
 21
34.85086921896926
 31
0.0
  0
LINE
  5
E4
330
17
100
AcDbEntity
  8
Bot_Y
 62
9
100
AcDbLine
 10
11.2500000075
 20
34.4999999945
 30
0.0
 11
13.500000000500002
 21
32.2499999955
 31
0.0
  0
LINE
  5
E5
330
17
100
AcDbEntity
  8
Bot_Y
100
AcDbLine
 10
11.029513171208782
 20
34.85086921896926
 30
0.0
 11
13.850869224381299
 21
32.029513158273126
 31
0.0
  0
LINE
  5
E6
330
17
100
AcDbEntity
  8
Bot_Y
 62
9
100
AcDbLine
 10
13.500000000500002
 20
32.2499999955
 30
0.0
 11
7.124999992500001
 21
25.875000004500002
 31
0.0
  0
LINE
  5
E7
330
17
100
AcDbEntity
  8
Bot_Y
100
AcDbLine
 10
13.850869224381299
 20
32.029513158273126
 30
0.0
 11
7.345486828791217
 21
25.524130780030735
 31
0.0
  0
TEXT
  5
E8
330
17
100
AcDbEntity
  8
TEXT_Bot_Y
100
AcDbText
 10
9.1875
 20
30.187499999499998
 30
0.0
 40
0.2
  1
10 шаг 200
 11
9.1875
 21
30.187499999499998
 31
0.0
100
AcDbText
  0
TEXT
  5
E9
330
17
100
AcDbEntity
  8
TEXT_Bot_Y
100
AcDbText
 10
9.1875
 20
29.937499999499998
 30
0.0
 40
0.2
  1
(9200x3990)
 11
9.1875
 21
29.937499999499998
 31
0.0
100
AcDbText
  0
LINE
  5
EA
330
17
100
AcDbEntity
  8
Bot_Y
 62
9
100
AcDbLine
 10
0.0
 20
26.25
 30
0.0
 11
0.0
 21
29.25
 31
0.0
  0
LINE
  5
EB
330
17
100
AcDbEntity
  8
Bot_Y
100
AcDbLine
 10
-0.10000000000000053
 20
25.85
 30
0.0
 11
-0.10000000000000053
 21
29.65
 31
0.0
  0
LINE
  5
EC
330
17
100
AcDbEntity
  8
Bot_Y
 62
9
100
AcDbLine
 10
0.0
 20
29.25
 30
0.0
 11
6.0
 21
29.25
 31
0.0
  0
LINE
  5
ED
330
17
100
AcDbEntity
  8
Bot_Y
100
AcDbLine
 10
-0.10000000000000053
 20
29.65
 30
0.0
 11
6.1000000000000005
 21
29.65
 31
0.0
  0
LINE
  5
EE
330
17
100
AcDbEntity
  8
Bot_Y
 62
9
100
AcDbLine
 10
6.0
 20
29.25
 30
0.0
 11
6.0
 21
26.25
 31
0.0
  0
LINE
  5
EF
330
17
100
AcDbEntity
  8
Bot_Y
100
AcDbLine
 10
6.1000000000000005
 20
29.65
 30
0.0
 11
6.1000000000000005
 21
25.85
 31
0.0
  0
LINE
  5
F0
330
17
100
AcDbEntity
  8
Bot_Y
 62
9
100
AcDbLine
 10
6.0
 20
26.25
 30
0.0
 11
0.0
 21
26.25
 31
0.0
  0
LINE
  5
F1
330
17
100
AcDbEntity
  8
Bot_Y
100
AcDbLine
 10
6.1000000000000005
 20
25.85
 30
0.0
 11
-0.10000000000000053
 21
25.85
 31
0.0
  0
TEXT
  5
F2
330
17
100
AcDbEntity
  8
TEXT_Bot_Y
100
AcDbText
 10
3.0
 20
27.75
 30
0.0
 40
0.2
  1
10 шаг 200
 11
3.0
 21
27.75
 31
0.0
100
AcDbText
  0
TEXT
  5
F3
330
17
100
AcDbEntity
  8
TEXT_Bot_Y
100
AcDbText
 10
3.0
 20
27.5
 30
0.0
 40
0.2
  1
(6200x3800)
 11
3.0
 21
27.5
 31
0.0
100
AcDbText
  0
ENDSEC
  0
SECTION
  2
OBJECTS
  0
DICTIONARY
  5
A
330
0
100
AcDbDictionary
281
1
  3
ACAD_COLOR
350
B
  3
ACAD_GROUP
350
C
  3
ACAD_LAYOUT
350
D
  3
ACAD_MATERIAL
350
E
  3
ACAD_MLEADERSTYLE
350
F
  3
ACAD_MLINESTYLE
350
10
  3
ACAD_PLOTSETTINGS
350
11
  3
ACAD_PLOTSTYLENAME
350
12
  3
ACAD_SCALELIST
350
14
  3
ACAD_TABLESTYLE
350
15
  3
ACAD_VISUALSTYLE
350
16
  3
EZDXF_META
350
2D
  0
DICTIONARY
  5
B
330
A
100
AcDbDictionary
281
1
  0
DICTIONARY
  5
C
330
A
100
AcDbDictionary
281
1
  0
DICTIONARY
  5
D
330
A
100
AcDbDictionary
281
1
  3
Model
350
1A
  3
Layout1
350
1E
  0
DICTIONARY
  5
E
330
A
100
AcDbDictionary
281
1
  3
ByBlock
350
1F
  3
ByLayer
350
20
  3
Global
350
21
  0
DICTIONARY
  5
F
330
A
100
AcDbDictionary
281
1
  3
Standard
350
2C
  0
DICTIONARY
  5
10
330
A
100
AcDbDictionary
281
1
  3
Standard
350
22
  0
DICTIONARY
  5
11
330
A
100
AcDbDictionary
281
1
  0
ACDBDICTIONARYWDFLT
  5
12
330
A
100
AcDbDictionary
281
1
  3
Normal
350
13
100
AcDbDictionaryWithDefault
340
13
  0
ACDBPLACEHOLDER
  5
13
330
12
  0
DICTIONARY
  5
14
330
A
100
AcDbDictionary
281
1
  0
DICTIONARY
  5
15
330
A
100
AcDbDictionary
281
1
  0
DICTIONARY
  5
16
330
A
100
AcDbDictionary
281
1
  0
LAYOUT
  5
1A
330
D
100
AcDbPlotSettings
  1

  2
Adobe PDF
  4
A3
  6

 40
7.5
 41
20.0
 42
7.5
 43
20.0
 44
420.0
 45
297.0
 46
0.0
 47
0.0
 48
0.0
 49
0.0
140
0.0
141
0.0
142
1.0
143
1.0
 70
1024
 72
1
 73
1
 74
5
  7

 75
16
 76
0
 77
2
 78
300
147
1.0
148
0.0
149
0.0
100
AcDbLayout
  1
Model
 70
1
 71
0
 10
0.0
 20
0.0
 11
420.0
 21
297.0
 12
0.0
 22
0.0
 32
0.0
 14
1e+20
 24
1e+20
 34
1e+20
 15
-1e+20
 25
-1e+20
 35
-1e+20
146
0.0
 13
0.0
 23
0.0
 33
0.0
 16
1.0
 26
0.0
 36
0.0
 17
0.0
 27
1.0
 37
0.0
 76
1
330
17
  0
LAYOUT
  5
1E
330
D
100
AcDbPlotSettings
  1

  2
Adobe PDF
  4
A3
  6

 40
7.5
 41
20.0
 42
7.5
 43
20.0
 44
420.0
 45
297.0
 46
0.0
 47
0.0
 48
0.0
 49
0.0
140
0.0
141
0.0
142
1.0
143
1.0
 70
0
 72
1
 73
1
 74
5
  7

 75
16
 76
0
 77
2
 78
300
147
1.0
148
0.0
149
0.0
100
AcDbLayout
  1
Layout1
 70
1
 71
1
 10
0.0
 20
0.0
 11
420.0
 21
297.0
 12
0.0
 22
0.0
 32
0.0
 14
1e+20
 24
1e+20
 34
1e+20
 15
-1e+20
 25
-1e+20
 35
-1e+20
146
0.0
 13
0.0
 23
0.0
 33
0.0
 16
1.0
 26
0.0
 36
0.0
 17
0.0
 27
1.0
 37
0.0
 76
1
330
1B
  0
MATERIAL
  5
1F
102
{ACAD_REACTORS
330
E
102
}
330
E
100
AcDbMaterial
  1
ByBlock
  2

 70
0
 40
1.0
 71
1
 41
1.0
 91
-1023410177
 42
1.0
 72
1
  3

 73
1
 74
1
 75
1
 44
0.5
 73
0
 45
1.0
 46
1.0
 77
1
  4

 78
1
 79
1
170
1
 48
1.0
171
1
  6

172
1
173
1
174
1
140
1.0
141
1.0
175
1
  7

176
1
177
1
178
1
143
1.0
179
1
  8

270
1
271
1
272
1
145
1.0
146
1.0
273
1
  9

274
1
275
1
276
1
 42
1.0
 72
1
  3

 73
1
 74
1
 75
1
 94
63
  0
MATERIAL
  5
20
102
{ACAD_REACTORS
330
E
102
}
330
E
100
AcDbMaterial
  1
ByLayer
  2

 70
0
 40
1.0
 71
1
 41
1.0
 91
-1023410177
 42
1.0
 72
1
  3

 73
1
 74
1
 75
1
 44
0.5
 73
0
 45
1.0
 46
1.0
 77
1
  4

 78
1
 79
1
170
1
 48
1.0
171
1
  6

172
1
173
1
174
1
140
1.0
141
1.0
175
1
  7

176
1
177
1
178
1
143
1.0
179
1
  8

270
1
271
1
272
1
145
1.0
146
1.0
273
1
  9

274
1
275
1
276
1
 42
1.0
 72
1
  3

 73
1
 74
1
 75
1
 94
63
  0
MATERIAL
  5
21
102
{ACAD_REACTORS
330
E
102
}
330
E
100
AcDbMaterial
  1
Global
  2

 70
0
 40
1.0
 71
1
 41
1.0
 91
-1023410177
 42
1.0
 72
1
  3

 73
1
 74
1
 75
1
 44
0.5
 73
0
 45
1.0
 46
1.0
 77
1
  4

 78
1
 79
1
170
1
 48
1.0
171
1
  6

172
1
173
1
174
1
140
1.0
141
1.0
175
1
  7

176
1
177
1
178
1
143
1.0
179
1
  8

270
1
271
1
272
1
145
1.0
146
1.0
273
1
  9

274
1
275
1
276
1
 42
1.0
 72
1
  3

 73
1
 74
1
 75
1
 94
63
  0
MLINESTYLE
  5
22
102
{ACAD_REACTORS
330
10
102
}
330
10
100
AcDbMlineStyle
  2
Standard
 70
0
  3

 62
256
 51
90.0
 52
90.0
 71
2
 49
0.5
 62
256
  6
BYLAYER
 49
-0.5
 62
256
  6
BYLAYER
  0
MLEADERSTYLE
  5
2C
102
{ACAD_REACTORS
330
F
102
}
330
F
100
AcDbMLeaderStyle
179
2
170
2
171
1
172
0
 90
2
 40
0.0
 41
0.0
173
1
 91
-1056964608
 92
-2
290
1
 42
2.0
291
1
 43
8.0
  3
Standard
 44
4.0
300

342
29
174
1
175
1
176
0
178
1
 93
-1056964608
 45
4.0
292
0
297
0
 46
4.0
 94
-1056964608
 47
1.0
 49
1.0
140
1.0
294
1
141
0.0
177
0
142
1.0
295
0
296
0
143
3.75
271
0
272
9
273
9
  0
DICTIONARY
  5
2D
330
A
100
AcDbDictionary
280
1
281
1
  3
CREATED_BY_EZDXF
350
2E
  3
WRITTEN_BY_EZDXF
350
FA
  0
DICTIONARYVAR
  5
2E
330
2D
100
DictionaryVariables
280
0
  1
0.18.1 @ 2022-10-10T12:11:36.642112+00:00
  0
DICTIONARYVAR
  5
FA
330
2D
100
DictionaryVariables
280
0
  1
0.18.1 @ 2022-10-10T12:11:36.674027+00:00
  0
ENDSEC
  0
EOF
