  0
SECTION
  2
HEADER
  9
$ACADVER
  1
AC1027
  9
$ACADMAINTVER
 70
105
  9
$DWGCODEPAGE
  3
ANSI_1252
  9
$LASTSAVEDBY
  1
ezdxf
  9
$REQUIREDVERSIONS
160
0
  9
$INSBASE
 10
0.0
 20
0.0
 30
0.0
  9
$EXTMIN
 10
1e+20
 20
1e+20
 30
1e+20
  9
$EXTMAX
 10
-1e+20
 20
-1e+20
 30
-1e+20
  9
$LIMMIN
 10
0.0
 20
0.0
  9
$LIMMAX
 10
420.0
 20
297.0
  9
$ORTHOMODE
 70
0
  9
$REGENMODE
 70
1
  9
$FILLMODE
 70
1
  9
$QTEXTMODE
 70
0
  9
$MIRRTEXT
 70
1
  9
$LTSCALE
 40
1.0
  9
$ATTMODE
 70
1
  9
$TEXTSIZE
 40
2.5
  9
$TRACEWID
 40
1.0
  9
$TEXTSTYLE
  7
Standard
  9
$CLAYER
  8
0
  9
$CELTYPE
  6
ByLayer
  9
$CECOLOR
 62
256
  9
$CELTSCALE
 40
1.0
  9
$DISPSILH
 70
0
  9
$DIMSCALE
 40
1.0
  9
$DIMASZ
 40
2.5
  9
$DIMEXO
 40
0.625
  9
$DIMDLI
 40
3.75
  9
$DIMRND
 40
0.0
  9
$DIMDLE
 40
0.0
  9
$DIMEXE
 40
1.25
  9
$DIMTP
 40
0.0
  9
$DIMTM
 40
0.0
  9
$DIMTXT
 40
2.5
  9
$DIMCEN
 40
2.5
  9
$DIMTSZ
 40
0.0
  9
$DIMTOL
 70
0
  9
$DIMLIM
 70
0
  9
$DIMTIH
 70
0
  9
$DIMTOH
 70
0
  9
$DIMSE1
 70
0
  9
$DIMSE2
 70
0
  9
$DIMTAD
 70
1
  9
$DIMZIN
 70
8
  9
$DIMBLK
  1

  9
$DIMASO
 70
1
  9
$DIMSHO
 70
1
  9
$DIMPOST
  1

  9
$DIMAPOST
  1

  9
$DIMALT
 70
0
  9
$DIMALTD
 70
3
  9
$DIMALTF
 40
0.03937007874
  9
$DIMLFAC
 40
1.0
  9
$DIMTOFL
 70
1
  9
$DIMTVP
 40
0.0
  9
$DIMTIX
 70
0
  9
$DIMSOXD
 70
0
  9
$DIMSAH
 70
0
  9
$DIMBLK1
  1

  9
$DIMBLK2
  1

  9
$DIMSTYLE
  2
ISO-25
  9
$DIMCLRD
 70
0
  9
$DIMCLRE
 70
0
  9
$DIMCLRT
 70
0
  9
$DIMTFAC
 40
1.0
  9
$DIMGAP
 40
0.625
  9
$DIMJUST
 70
0
  9
$DIMSD1
 70
0
  9
$DIMSD2
 70
0
  9
$DIMTOLJ
 70
0
  9
$DIMTZIN
 70
8
  9
$DIMALTZ
 70
0
  9
$DIMALTTZ
 70
0
  9
$DIMUPT
 70
0
  9
$DIMDEC
 70
2
  9
$DIMTDEC
 70
2
  9
$DIMALTU
 70
2
  9
$DIMALTTD
 70
3
  9
$DIMTXSTY
  7
Standard
  9
$DIMAUNIT
 70
0
  9
$DIMADEC
 70
0
  9
$DIMALTRND
 40
0.0
  9
$DIMAZIN
 70
0
  9
$DIMDSEP
 70
44
  9
$DIMATFIT
 70
3
  9
$DIMFRAC
 70
0
  9
$DIMLDRBLK
  1

  9
$DIMLUNIT
 70
2
  9
$DIMLWD
 70
-2
  9
$DIMLWE
 70
-2
  9
$DIMTMOVE
 70
0
  9
$DIMFXL
 40
1.0
  9
$DIMFXLON
 70
0
  9
$DIMJOGANG
 40
0.785398163397
  9
$DIMTFILL
 70
0
  9
$DIMTFILLCLR
 70
0
  9
$DIMARCSYM
 70
0
  9
$DIMLTYPE
  6

  9
$DIMLTEX1
  6

  9
$DIMLTEX2
  6

  9
$DIMTXTDIRECTION
 70
0
  9
$LUNITS
 70
2
  9
$LUPREC
 70
4
  9
$SKETCHINC
 40
1.0
  9
$FILLETRAD
 40
10.0
  9
$AUNITS
 70
0
  9
$AUPREC
 70
2
  9
$MENU
  1
.
  9
$ELEVATION
 40
0.0
  9
$PELEVATION
 40
0.0
  9
$THICKNESS
 40
0.0
  9
$LIMCHECK
 70
0
  9
$CHAMFERA
 40
0.0
  9
$CHAMFERB
 40
0.0
  9
$CHAMFERC
 40
0.0
  9
$CHAMFERD
 40
0.0
  9
$SKPOLY
 70
0
  9
$TDCREATE
 40
2459853.567453704
  9
$TDUCREATE
 40
2458532.153996898
  9
$TDUPDATE
 40
2459853.567453704
  9
$TDUUPDATE
 40
2458532.1544311
  9
$TDINDWG
 40
0.0
  9
$TDUSRTIMER
 40
0.0
  9
$USRTIMER
 70
1
  9
$ANGBASE
 50
0.0
  9
$ANGDIR
 70
0
  9
$PDMODE
 70
0
  9
$PDSIZE
 40
0.0
  9
$PLINEWID
 40
0.0
  9
$SPLFRAME
 70
0
  9
$SPLINETYPE
 70
6
  9
$SPLINESEGS
 70
8
  9
$HANDSEED
  5
1E4
  9
$SURFTAB1
 70
6
  9
$SURFTAB2
 70
6
  9
$SURFTYPE
 70
6
  9
$SURFU
 70
6
  9
$SURFV
 70
6
  9
$UCSBASE
  2

  9
$UCSNAME
  2

  9
$UCSORG
 10
0.0
 20
0.0
 30
0.0
  9
$UCSXDIR
 10
1.0
 20
0.0
 30
0.0
  9
$UCSYDIR
 10
0.0
 20
1.0
 30
0.0
  9
$UCSORTHOREF
  2

  9
$UCSORTHOVIEW
 70
0
  9
$UCSORGTOP
 10
0.0
 20
0.0
 30
0.0
  9
$UCSORGBOTTOM
 10
0.0
 20
0.0
 30
0.0
  9
$UCSORGLEFT
 10
0.0
 20
0.0
 30
0.0
  9
$UCSORGRIGHT
 10
0.0
 20
0.0
 30
0.0
  9
$UCSORGFRONT
 10
0.0
 20
0.0
 30
0.0
  9
$UCSORGBACK
 10
0.0
 20
0.0
 30
0.0
  9
$PUCSBASE
  2

  9
$PUCSNAME
  2

  9
$PUCSORG
 10
0.0
 20
0.0
 30
0.0
  9
$PUCSXDIR
 10
1.0
 20
0.0
 30
0.0
  9
$PUCSYDIR
 10
0.0
 20
1.0
 30
0.0
  9
$PUCSORTHOREF
  2

  9
$PUCSORTHOVIEW
 70
0
  9
$PUCSORGTOP
 10
0.0
 20
0.0
 30
0.0
  9
$PUCSORGBOTTOM
 10
0.0
 20
0.0
 30
0.0
  9
$PUCSORGLEFT
 10
0.0
 20
0.0
 30
0.0
  9
$PUCSORGRIGHT
 10
0.0
 20
0.0
 30
0.0
  9
$PUCSORGFRONT
 10
0.0
 20
0.0
 30
0.0
  9
$PUCSORGBACK
 10
0.0
 20
0.0
 30
0.0
  9
$USERI1
 70
0
  9
$USERI2
 70
0
  9
$USERI3
 70
0
  9
$USERI4
 70
0
  9
$USERI5
 70
0
  9
$USERR1
 40
0.0
  9
$USERR2
 40
0.0
  9
$USERR3
 40
0.0
  9
$USERR4
 40
0.0
  9
$USERR5
 40
0.0
  9
$WORLDVIEW
 70
1
  9
$SHADEDGE
 70
3
  9
$SHADEDIF
 70
70
  9
$TILEMODE
 70
1
  9
$MAXACTVP
 70
64
  9
$PINSBASE
 10
0.0
 20
0.0
 30
0.0
  9
$PLIMCHECK
 70
0
  9
$PEXTMIN
 10
1e+20
 20
1e+20
 30
1e+20
  9
$PEXTMAX
 10
-1e+20
 20
-1e+20
 30
-1e+20
  9
$PLIMMIN
 10
0.0
 20
0.0
  9
$PLIMMAX
 10
420.0
 20
297.0
  9
$UNITMODE
 70
0
  9
$VISRETAIN
 70
1
  9
$PLINEGEN
 70
0
  9
$PSLTSCALE
 70
1
  9
$TREEDEPTH
 70
3020
  9
$CMLSTYLE
  2
Standard
  9
$CMLJUST
 70
0
  9
$CMLSCALE
 40
20.0
  9
$PROXYGRAPHICS
 70
1
  9
$MEASUREMENT
 70
1
  9
$CELWEIGHT
370
-1
  9
$ENDCAPS
280
0
  9
$JOINSTYLE
280
0
  9
$LWDISPLAY
290
0
  9
$INSUNITS
 70
6
  9
$HYPERLINKBASE
  1

  9
$STYLESHEET
  1

  9
$XEDIT
290
1
  9
$CEPSNTYPE
380
0
  9
$PSTYLEMODE
290
1
  9
$FINGERPRINTGUID
  2
{086F348A-3E5A-4FE5-9988-BB3777E76CC7}
  9
$VERSIONGUID
  2
{37AF348A-3B6F-43DD-A678-6FB2E9D2ADF9}
  9
$EXTNAMES
290
1
  9
$PSVPSCALE
 40
0.0
  9
$OLESTARTUP
290
0
  9
$SORTENTS
280
127
  9
$INDEXCTL
280
0
  9
$HIDETEXT
280
1
  9
$XCLIPFRAME
280
0
  9
$HALOGAP
280
0
  9
$OBSCOLOR
 70
257
  9
$OBSLTYPE
280
0
  9
$INTERSECTIONDISPLAY
280
0
  9
$INTERSECTIONCOLOR
 70
257
  9
$DIMASSOC
280
2
  9
$PROJECTNAME
  1

  9
$CAMERADISPLAY
290
0
  9
$LENSLENGTH
 40
50.0
  9
$CAMERAHEIGHT
 40
0.0
  9
$STEPSPERSEC
 40
24.0
  9
$STEPSIZE
 40
100.0
  9
$3DDWFPREC
 40
2.0
  9
$PSOLWIDTH
 40
0.005
  9
$PSOLHEIGHT
 40
0.08
  9
$LOFTANG1
 40
1.570796326795
  9
$LOFTANG2
 40
1.570796326795
  9
$LOFTMAG1
 40
0.0
  9
$LOFTMAG2
 40
0.0
  9
$LOFTPARAM
 70
7
  9
$LOFTNORMALS
280
1
  9
$LATITUDE
 40
37.795
  9
$LONGITUDE
 40
-122.394
  9
$NORTHDIRECTION
 40
0.0
  9
$TIMEZONE
 70
-8000
  9
$LIGHTGLYPHDISPLAY
280
1
  9
$TILEMODELIGHTSYNCH
280
1
  9
$CMATERIAL
347
20
  9
$SOLIDHIST
280
0
  9
$SHOWHIST
280
1
  9
$DWFFRAME
280
2
  9
$DGNFRAME
280
2
  9
$REALWORLDSCALE
290
1
  9
$INTERFERECOLOR
 62
256
  9
$CSHADOW
280
0
  9
$SHADOWPLANELOCATION
 40
0.0
  0
ENDSEC
  0
SECTION
  2
CLASSES
  0
CLASS
  1
ACDBDICTIONARYWDFLT
  2
AcDbDictionaryWithDefault
  3
ObjectDBX Classes
 90
0
 91
0
280
0
281
0
  0
CLASS
  1
SUN
  2
AcDbSun
  3
SCENEOE
 90
1153
 91
0
280
0
281
0
  0
CLASS
  1
VISUALSTYLE
  2
AcDbVisualStyle
  3
ObjectDBX Classes
 90
4095
 91
0
280
0
281
0
  0
CLASS
  1
MATERIAL
  2
AcDbMaterial
  3
ObjectDBX Classes
 90
1153
 91
0
280
0
281
0
  0
CLASS
  1
SCALE
  2
AcDbScale
  3
ObjectDBX Classes
 90
1153
 91
0
280
0
281
0
  0
CLASS
  1
TABLESTYLE
  2
AcDbTableStyle
  3
ObjectDBX Classes
 90
4095
 91
0
280
0
281
0
  0
CLASS
  1
MLEADERSTYLE
  2
AcDbMLeaderStyle
  3
ACDB_MLEADERSTYLE_CLASS
 90
4095
 91
0
280
0
281
0
  0
CLASS
  1
DICTIONARYVAR
  2
AcDbDictionaryVar
  3
ObjectDBX Classes
 90
0
 91
0
280
0
281
0
  0
CLASS
  1
CELLSTYLEMAP
  2
AcDbCellStyleMap
  3
ObjectDBX Classes
 90
1152
 91
0
280
0
281
0
  0
CLASS
  1
MENTALRAYRENDERSETTINGS
  2
AcDbMentalRayRenderSettings
  3
SCENEOE
 90
1024
 91
0
280
0
281
0
  0
CLASS
  1
ACDBDETAILVIEWSTYLE
  2
AcDbDetailViewStyle
  3
ObjectDBX Classes
 90
1025
 91
0
280
0
281
0
  0
CLASS
  1
ACDBSECTIONVIEWSTYLE
  2
AcDbSectionViewStyle
  3
ObjectDBX Classes
 90
1025
 91
0
280
0
281
0
  0
CLASS
  1
RASTERVARIABLES
  2
AcDbRasterVariables
  3
ISM
 90
0
 91
0
280
0
281
0
  0
CLASS
  1
ACDBPLACEHOLDER
  2
AcDbPlaceHolder
  3
ObjectDBX Classes
 90
0
 91
0
280
0
281
0
  0
CLASS
  1
LAYOUT
  2
AcDbLayout
  3
ObjectDBX Classes
 90
0
 91
0
280
0
281
0
  0
ENDSEC
  0
SECTION
  2
TABLES
  0
TABLE
  2
VPORT
  5
8
330
0
100
AcDbSymbolTable
 70
1
  0
VPORT
  5
23
330
8
100
AcDbSymbolTableRecord
100
AcDbViewportTableRecord
  2
*Active
 70
0
 10
0.0
 20
0.0
 11
1.0
 21
1.0
 12
0.0
 22
0.0
 13
0.0
 23
0.0
 14
0.5
 24
0.5
 15
0.5
 25
0.5
 16
0.0
 26
0.0
 36
1.0
 17
0.0
 27
0.0
 37
0.0
 40
1000.0
 41
1.34
 42
50.0
 43
0.0
 44
0.0
 50
0.0
 51
0.0
 71
0
 72
1000
 73
1
 74
3
 75
0
 76
0
 77
0
 78
0
281
0
 65
0
146
0.0
  0
ENDTAB
  0
TABLE
  2
LTYPE
  5
2
330
0
100
AcDbSymbolTable
 70
3
  0
LTYPE
  5
24
330
2
100
AcDbSymbolTableRecord
100
AcDbLinetypeTableRecord
  2
ByBlock
 70
0
  3

 72
65
 73
0
 40
0.0
  0
LTYPE
  5
25
330
2
100
AcDbSymbolTableRecord
100
AcDbLinetypeTableRecord
  2
ByLayer
 70
0
  3

 72
65
 73
0
 40
0.0
  0
LTYPE
  5
26
330
2
100
AcDbSymbolTableRecord
100
AcDbLinetypeTableRecord
  2
Continuous
 70
0
  3

 72
65
 73
0
 40
0.0
  0
ENDTAB
  0
TABLE
  2
LAYER
  5
1
330
0
100
AcDbSymbolTable
 70
15
  0
LAYER
  5
27
330
1
100
AcDbSymbolTableRecord
100
AcDbLayerTableRecord
  2
0
 70
0
 62
7
  6
Continuous
370
-3
390
13
347
21
  0
LAYER
  5
28
330
1
100
AcDbSymbolTableRecord
100
AcDbLayerTableRecord
  2
Defpoints
 70
0
 62
7
  6
Continuous
290
0
370
-3
390
13
347
21
  0
LAYER
  5
2F
330
1
100
AcDbSymbolTableRecord
100
AcDbLayerTableRecord
  2
TEXT
 70
0
 62
130
  6
Continuous
370
-3
390
13
347
21
  0
LAYER
  5
31
330
1
100
AcDbSymbolTableRecord
100
AcDbLayerTableRecord
  2
Top_X
 70
0
 62
175
  6
Continuous
370
-3
390
13
347
21
  0
LAYER
  5
32
330
1
100
AcDbSymbolTableRecord
100
AcDbLayerTableRecord
  2
TEXT_Top_X
 70
0
 62
80
  6
Continuous
370
-3
390
13
347
21
  0
LAYER
  5
B5
330
1
100
AcDbSymbolTableRecord
100
AcDbLayerTableRecord
  2
Top_Y
 70
0
 62
75
  6
Continuous
370
-3
390
13
347
21
  0
LAYER
  5
B6
330
1
100
AcDbSymbolTableRecord
100
AcDbLayerTableRecord
  2
TEXT_Top_Y
 70
0
 62
177
  6
Continuous
370
-3
390
13
347
21
  0
LAYER
  5
11B
330
1
100
AcDbSymbolTableRecord
100
AcDbLayerTableRecord
  2
Bot_X
 70
0
 62
183
  6
Continuous
370
-3
390
13
347
21
  0
LAYER
  5
11C
330
1
100
AcDbSymbolTableRecord
100
AcDbLayerTableRecord
  2
TEXT_Bot_X
 70
0
 62
17
  6
Continuous
370
-3
390
13
347
21
  0
LAYER
  5
159
330
1
100
AcDbSymbolTableRecord
100
AcDbLayerTableRecord
  2
Bot_Y
 70
0
 62
38
  6
Continuous
370
-3
390
13
347
21
  0
LAYER
  5
15A
330
1
100
AcDbSymbolTableRecord
100
AcDbLayerTableRecord
  2
TEXT_Bot_Y
 70
0
 62
59
  6
Continuous
370
-3
390
13
347
21
  0
LAYER
  5
1DD
330
1
100
AcDbSymbolTableRecord
100
AcDbLayerTableRecord
  2
Lat_X
 70
0
 62
12
  6
Continuous
370
-3
390
13
347
21
  0
LAYER
  5
1DE
330
1
100
AcDbSymbolTableRecord
100
AcDbLayerTableRecord
  2
TEXT_Lat_X
 70
0
 62
120
  6
Continuous
370
-3
390
13
347
21
  0
LAYER
  5
1DF
330
1
100
AcDbSymbolTableRecord
100
AcDbLayerTableRecord
  2
Lat_Y
 70
0
 62
182
  6
Continuous
370
-3
390
13
347
21
  0
LAYER
  5
1E0
330
1
100
AcDbSymbolTableRecord
100
AcDbLayerTableRecord
  2
TEXT_Lat_Y
 70
0
 62
185
  6
Continuous
370
-3
390
13
347
21
  0
ENDTAB
  0
TABLE
  2
STYLE
  5
5
330
0
100
AcDbSymbolTable
 70
1
  0
STYLE
  5
29
330
5
100
AcDbSymbolTableRecord
100
AcDbTextStyleTableRecord
  2
Standard
 70
0
 40
0.0
 41
1.0
 50
0.0
 71
0
 42
2.5
  3
txt
  4

  0
ENDTAB
  0
TABLE
  2
VIEW
  5
7
330
0
100
AcDbSymbolTable
 70
0
  0
ENDTAB
  0
TABLE
  2
UCS
  5
6
330
0
100
AcDbSymbolTable
 70
0
  0
ENDTAB
  0
TABLE
  2
APPID
  5
3
330
0
100
AcDbSymbolTable
 70
3
  0
APPID
  5
2A
330
3
100
AcDbSymbolTableRecord
100
AcDbRegAppTableRecord
  2
ACAD
 70
0
  0
APPID
  5
1E1
330
3
100
AcDbSymbolTableRecord
100
AcDbRegAppTableRecord
  2
HATCHBACKGROUNDCOLOR
 70
0
  0
APPID
  5
1E2
330
3
100
AcDbSymbolTableRecord
100
AcDbRegAppTableRecord
  2
EZDXF
 70
0
  0
ENDTAB
  0
TABLE
  2
DIMSTYLE
  5
4
330
0
100
AcDbSymbolTable
 70
1
100
AcDbDimStyleTable
  0
DIMSTYLE
105
2B
330
4
100
AcDbSymbolTableRecord
100
AcDbDimStyleTableRecord
  2
Standard
 70
0
 40
1.0
 41
2.5
 42
0.625
 43
3.75
 44
1.25
 45
0.0
 46
0.0
 47
0.0
 48
0.0
 49
2.5
140
2.5
141
2.5
142
0.0
143
0.03937007874
144
1.0
145
0.0
146
1.0
147
0.625
148
0.0
 69
0
 70
0
 71
0
 72
0
 73
0
 74
0
 75
0
 76
0
 77
1
 78
8
 79
3
170
0
171
3
172
1
173
0
174
0
175
0
176
0
177
0
178
0
179
2
271
2
272
2
273
2
274
3
275
0
276
0
277
2
278
44
279
0
280
0
281
0
282
0
283
0
284
8
285
0
286
0
288
0
289
3
290
0
371
-2
372
-2
  0
ENDTAB
  0
TABLE
  2
BLOCK_RECORD
  5
9
330
0
100
AcDbSymbolTable
 70
2
  0
BLOCK_RECORD
  5
17
330
9
100
AcDbSymbolTableRecord
100
AcDbBlockTableRecord
  2
*Model_Space
340
1A
 70
0
280
1
281
0
  0
BLOCK_RECORD
  5
1B
330
9
100
AcDbSymbolTableRecord
100
AcDbBlockTableRecord
  2
*Paper_Space
340
1E
 70
0
280
1
281
0
  0
ENDTAB
  0
ENDSEC
  0
SECTION
  2
BLOCKS
  0
BLOCK
  5
18
330
17
100
AcDbEntity
  8
0
100
AcDbBlockBegin
  2
*Model_Space
 70
0
 10
0.0
 20
0.0
 30
0.0
  3
*Model_Space
  1

  0
ENDBLK
  5
19
330
17
100
AcDbEntity
  8
0
100
AcDbBlockEnd
  0
BLOCK
  5
1C
330
1B
100
AcDbEntity
  8
0
100
AcDbBlockBegin
  2
*Paper_Space
 70
0
 10
0.0
 20
0.0
 30
0.0
  3
*Paper_Space
  1

  0
ENDBLK
  5
1D
330
1B
100
AcDbEntity
  8
0
100
AcDbBlockEnd
  0
ENDSEC
  0
SECTION
  2
ENTITIES
  0
TEXT
  5
30
330
17
100
AcDbEntity
  8
TEXT
100
AcDbText
 10
0.0
 20
0.0
 30
0.0
 40
0.2
  1
Фон 8 шаг 200
 11
0.0
 21
0.0
 31
0.0
100
AcDbText
  0
LINE
  5
33
330
17
100
AcDbEntity
  8
Top_X
 62
9
100
AcDbLine
 10
5.25
 20
5.999999998
 30
0.0
 11
6.3749999995
 21
7.1250000005
 31
0.0
  0
LINE
  5
34
330
17
100
AcDbEntity
  8
Top_X
100
AcDbLine
 10
4.978347407084283
 20
5.826875539812953
 30
0.0
 11
6.548124457226628
 21
7.39665259255745
 31
0.0
  0
LINE
  5
35
330
17
100
AcDbEntity
  8
Top_X
 62
9
100
AcDbLine
 10
6.3749999995
 20
7.1250000005
 30
0.0
 11
7.125
 21
6.375000002
 31
0.0
  0
LINE
  5
36
330
17
100
AcDbEntity
  8
Top_X
100
AcDbLine
 10
6.548124457226628
 20
7.39665259255745
 30
0.0
 11
7.396652592915716
 21
6.548124460187049
 31
0.0
  0
LINE
  5
37
330
17
100
AcDbEntity
  8
Top_X
 62
9
100
AcDbLine
 10
7.125
 20
6.375000002
 30
0.0
 11
6.0000000005
 21
5.2499999995
 31
0.0
  0
LINE
  5
38
330
17
100
AcDbEntity
  8
Top_X
100
AcDbLine
 10
7.396652592915716
 20
6.548124460187049
 30
0.0
 11
5.826875542773372
 21
4.978347407442552
 31
0.0
  0
LINE
  5
39
330
17
100
AcDbEntity
  8
Top_X
 62
9
100
AcDbLine
 10
6.0000000005
 20
5.2499999995
 30
0.0
 11
5.25
 21
5.999999998
 31
0.0
  0
LINE
  5
3A
330
17
100
AcDbEntity
  8
Top_X
100
AcDbLine
 10
5.826875542773372
 20
4.978347407442552
 30
0.0
 11
4.978347407084283
 21
5.826875539812953
 31
0.0
  0
TEXT
  5
3B
330
17
100
AcDbEntity
  8
TEXT_Top_X
100
AcDbText
 10
6.1875
 20
6.1875
 30
0.0
 40
0.2
  1
6 шаг 200
 11
6.1875
 21
6.1875
 31
0.0
100
AcDbText
  0
TEXT
  5
3C
330
17
100
AcDbEntity
  8
TEXT_Top_X
100
AcDbText
 10
6.1875
 20
5.9375
 30
0.0
 40
0.2
  1
(2220x1200)
 11
6.1875
 21
5.9375
 31
0.0
100
AcDbText
  0
LINE
  5
3D
330
17
100
AcDbEntity
  8
Top_X
 62
9
100
AcDbLine
 10
11.25
 20
11.249999999
 30
0.0
 11
11.9999999995
 21
12.0000000005
 31
0.0
  0
LINE
  5
3E
330
17
100
AcDbEntity
  8
Top_X
100
AcDbLine
 10
11.002862737290314
 20
11.052126803070104
 30
0.0
 11
12.197873195232837
 21
12.247137262351417
 31
0.0
  0
LINE
  5
3F
330
17
100
AcDbEntity
  8
Top_X
 62
9
100
AcDbLine
 10
11.9999999995
 20
12.0000000005
 30
0.0
 11
12.375
 21
11.625000001
 31
0.0
  0
LINE
  5
40
330
17
100
AcDbEntity
  8
Top_X
100
AcDbLine
 10
12.197873195232837
 20
12.247137262351417
 30
0.0
 11
12.622137262709689
 21
11.822873196929892
 31
0.0
  0
LINE
  5
41
330
17
100
AcDbEntity
  8
Top_X
 62
9
100
AcDbLine
 10
12.375
 20
11.625000001
 30
0.0
 11
11.6250000005
 21
10.8749999995
 31
0.0
  0
LINE
  5
42
330
17
100
AcDbEntity
  8
Top_X
100
AcDbLine
 10
12.622137262709689
 20
11.822873196929892
 30
0.0
 11
11.427126804767163
 21
10.627862737648579
 31
0.0
  0
LINE
  5
43
330
17
100
AcDbEntity
  8
Top_X
 62
9
100
AcDbLine
 10
11.6250000005
 20
10.8749999995
 30
0.0
 11
11.25
 21
11.249999999
 31
0.0
  0
LINE
  5
44
330
17
100
AcDbEntity
  8
Top_X
100
AcDbLine
 10
11.427126804767163
 20
10.627862737648579
 30
0.0
 11
11.002862737290314
 21
11.052126803070104
 31
0.0
  0
TEXT
  5
45
330
17
100
AcDbEntity
  8
TEXT_Top_X
100
AcDbText
 10
11.8125
 20
11.437499999999998
 30
0.0
 40
0.2
  1
6 шаг 200
 11
11.8125
 21
11.437499999999998
 31
0.0
100
AcDbText
  0
TEXT
  5
46
330
17
100
AcDbEntity
  8
TEXT_Top_X
100
AcDbText
 10
11.8125
 20
11.187499999999998
 30
0.0
 40
0.2
  1
(1690x600)
 11
11.8125
 21
11.187499999999998
 31
0.0
100
AcDbText
  0
LINE
  5
47
330
17
100
AcDbEntity
  8
Top_X
 62
9
100
AcDbLine
 10
11.25
 20
17.249999999
 30
0.0
 11
11.999999999499998
 21
18.0000000005
 31
0.0
  0
LINE
  5
48
330
17
100
AcDbEntity
  8
Top_X
100
AcDbLine
 10
11.002862737290311
 20
17.052126803070106
 30
0.0
 11
12.197873195232834
 21
18.247137262351416
 31
0.0
  0
LINE
  5
49
330
17
100
AcDbEntity
  8
Top_X
 62
9
100
AcDbLine
 10
11.999999999499998
 20
18.0000000005
 30
0.0
 11
12.375
 21
17.625000001
 31
0.0
  0
LINE
  5
4A
330
17
100
AcDbEntity
  8
Top_X
100
AcDbLine
 10
12.197873195232834
 20
18.247137262351416
 30
0.0
 11
12.622137262709686
 21
17.822873196929894
 31
0.0
  0
LINE
  5
4B
330
17
100
AcDbEntity
  8
Top_X
 62
9
100
AcDbLine
 10
12.375
 20
17.625000001
 30
0.0
 11
11.6250000005
 21
16.8749999995
 31
0.0
  0
LINE
  5
4C
330
17
100
AcDbEntity
  8
Top_X
100
AcDbLine
 10
12.622137262709686
 20
17.822873196929894
 30
0.0
 11
11.427126804767163
 21
16.627862737648584
 31
0.0
  0
LINE
  5
4D
330
17
100
AcDbEntity
  8
Top_X
 62
9
100
AcDbLine
 10
11.6250000005
 20
16.8749999995
 30
0.0
 11
11.25
 21
17.249999999
 31
0.0
  0
LINE
  5
4E
330
17
100
AcDbEntity
  8
Top_X
100
AcDbLine
 10
11.427126804767163
 20
16.627862737648584
 30
0.0
 11
11.002862737290311
 21
17.052126803070106
 31
0.0
  0
TEXT
  5
4F
330
17
100
AcDbEntity
  8
TEXT_Top_X
100
AcDbText
 10
11.8125
 20
17.4375
 30
0.0
 40
0.2
  1
6 шаг 200
 11
11.8125
 21
17.4375
 31
0.0
100
AcDbText
  0
TEXT
  5
50
330
17
100
AcDbEntity
  8
TEXT_Top_X
100
AcDbText
 10
11.8125
 20
17.1875
 30
0.0
 40
0.2
  1
(1690x600)
 11
11.8125
 21
17.1875
 31
0.0
100
AcDbText
  0
LINE
  5
51
330
17
100
AcDbEntity
  8
Top_X
 62
9
100
AcDbLine
 10
5.25
 20
17.999999998
 30
0.0
 11
6.3749999995
 21
19.1250000005
 31
0.0
  0
LINE
  5
52
330
17
100
AcDbEntity
  8
Top_X
100
AcDbLine
 10
4.978347407084285
 20
17.826875539812953
 30
0.0
 11
6.548124457226627
 21
19.396652592557448
 31
0.0
  0
LINE
  5
53
330
17
100
AcDbEntity
  8
Top_X
 62
9
100
AcDbLine
 10
6.3749999995
 20
19.1250000005
 30
0.0
 11
7.124999999999999
 21
18.375000002
 31
0.0
  0
LINE
  5
54
330
17
100
AcDbEntity
  8
Top_X
100
AcDbLine
 10
6.548124457226627
 20
19.396652592557448
 30
0.0
 11
7.396652592915715
 21
18.548124460187047
 31
0.0
  0
LINE
  5
55
330
17
100
AcDbEntity
  8
Top_X
 62
9
100
AcDbLine
 10
7.124999999999999
 20
18.375000002
 30
0.0
 11
6.000000000499999
 21
17.249999999499998
 31
0.0
  0
LINE
  5
56
330
17
100
AcDbEntity
  8
Top_X
100
AcDbLine
 10
7.396652592915715
 20
18.548124460187047
 30
0.0
 11
5.826875542773373
 21
16.97834740744255
 31
0.0
  0
LINE
  5
57
330
17
100
AcDbEntity
  8
Top_X
 62
9
100
AcDbLine
 10
6.000000000499999
 20
17.249999999499998
 30
0.0
 11
5.25
 21
17.999999998
 31
0.0
  0
LINE
  5
58
330
17
100
AcDbEntity
  8
Top_X
100
AcDbLine
 10
5.826875542773373
 20
16.97834740744255
 30
0.0
 11
4.978347407084285
 21
17.826875539812953
 31
0.0
  0
TEXT
  5
59
330
17
100
AcDbEntity
  8
TEXT_Top_X
100
AcDbText
 10
6.187499999999999
 20
18.1875
 30
0.0
 40
0.2
  1
6 шаг 200
 11
6.187499999999999
 21
18.1875
 31
0.0
100
AcDbText
  0
TEXT
  5
5A
330
17
100
AcDbEntity
  8
TEXT_Top_X
100
AcDbText
 10
6.187499999999999
 20
17.9375
 30
0.0
 40
0.2
  1
(2220x1200)
 11
6.187499999999999
 21
17.9375
 31
0.0
100
AcDbText
  0
LINE
  5
5B
330
17
100
AcDbEntity
  8
Top_X
 62
9
100
AcDbLine
 10
10.875
 20
22.874999999
 30
0.0
 11
11.999999998999998
 21
24.000000000999997
 31
0.0
  0
LINE
  5
5C
330
17
100
AcDbEntity
  8
Top_X
100
AcDbLine
 10
10.627979441157404
 20
22.677243505174143
 30
0.0
 11
12.197756492695106
 21
24.247020559313995
 31
0.0
  0
LINE
  5
5D
330
17
100
AcDbEntity
  8
Top_X
 62
9
100
AcDbLine
 10
11.999999998999998
 20
24.000000000999997
 30
0.0
 11
12.374999999999998
 21
23.625000000999997
 31
0.0
  0
LINE
  5
5E
330
17
100
AcDbEntity
  8
Top_X
100
AcDbLine
 10
12.197756492695106
 20
24.247020559313995
 30
0.0
 11
12.622020558842596
 21
23.82275649482585
 31
0.0
  0
LINE
  5
5F
330
17
100
AcDbEntity
  8
Top_X
 62
9
100
AcDbLine
 10
12.374999999999998
 20
23.625000000999997
 30
0.0
 11
11.250000001
 21
22.499999999
 31
0.0
  0
LINE
  5
60
330
17
100
AcDbEntity
  8
Top_X
100
AcDbLine
 10
12.622020558842596
 20
23.82275649482585
 30
0.0
 11
11.052243507304894
 21
22.252979440685998
 31
0.0
  0
LINE
  5
61
330
17
100
AcDbEntity
  8
Top_X
 62
9
100
AcDbLine
 10
11.250000001
 20
22.499999999
 30
0.0
 11
10.875
 21
22.874999999
 31
0.0
  0
LINE
  5
62
330
17
100
AcDbEntity
  8
Top_X
100
AcDbLine
 10
11.052243507304894
 20
22.252979440685998
 30
0.0
 11
10.627979441157404
 21
22.677243505174143
 31
0.0
  0
TEXT
  5
63
330
17
100
AcDbEntity
  8
TEXT_Top_X
100
AcDbText
 10
11.625
 20
23.249999999999996
 30
0.0
 40
0.2
  1
6 шаг 200
 11
11.625
 21
23.249999999999996
 31
0.0
100
AcDbText
  0
TEXT
  5
64
330
17
100
AcDbEntity
  8
TEXT_Top_X
100
AcDbText
 10
11.625
 20
22.999999999999996
 30
0.0
 40
0.2
  1
(2220x600)
 11
11.625
 21
22.999999999999996
 31
0.0
100
AcDbText
  0
LINE
  5
65
330
17
100
AcDbEntity
  8
Top_X
 62
9
100
AcDbLine
 10
6.750000000500002
 20
25.4999999975
 30
0.0
 11
8.624999999
 21
27.375000001
 31
0.0
  0
LINE
  5
66
330
17
100
AcDbEntity
  8
Top_X
100
AcDbLine
 10
6.478580815068469
 20
25.327108943771027
 30
0.0
 11
8.79789105232197
 21
27.646419186153413
 31
0.0
  0
LINE
  5
67
330
17
100
AcDbEntity
  8
Top_X
 62
9
100
AcDbLine
 10
8.624999999
 20
27.375000001
 30
0.0
 11
9.375
 21
26.625000002
 31
0.0
  0
LINE
  5
68
330
17
100
AcDbEntity
  8
Top_X
100
AcDbLine
 10
8.79789105232197
 20
27.646419186153413
 30
0.0
 11
9.646419185431533
 21
26.79789105572897
 31
0.0
  0
LINE
  5
69
330
17
100
AcDbEntity
  8
Top_X
 62
9
100
AcDbLine
 10
9.375
 20
26.625000002
 30
0.0
 11
7.500000001500002
 21
24.7499999985
 31
0.0
  0
LINE
  5
6A
330
17
100
AcDbEntity
  8
Top_X
100
AcDbLine
 10
9.646419185431533
 20
26.79789105572897
 30
0.0
 11
7.327108948178031
 21
24.478580813346586
 31
0.0
  0
LINE
  5
6B
330
17
100
AcDbEntity
  8
Top_X
 62
9
100
AcDbLine
 10
7.500000001500002
 20
24.7499999985
 30
0.0
 11
6.750000000500002
 21
25.4999999975
 31
0.0
  0
LINE
  5
6C
330
17
100
AcDbEntity
  8
Top_X
100
AcDbLine
 10
7.327108948178031
 20
24.478580813346586
 30
0.0
 11
6.478580815068469
 21
25.327108943771027
 31
0.0
  0
TEXT
  5
6D
330
17
100
AcDbEntity
  8
TEXT_Top_X
100
AcDbText
 10
8.062500000250001
 20
26.06249999975
 30
0.0
 40
0.2
  1
6 шаг 200
 11
8.062500000250001
 21
26.06249999975
 31
0.0
100
AcDbText
  0
TEXT
  5
6E
330
17
100
AcDbEntity
  8
TEXT_Top_X
100
AcDbText
 10
8.062500000250001
 20
25.81249999975
 30
0.0
 40
0.2
  1
(3280x1200)
 11
8.062500000250001
 21
25.81249999975
 31
0.0
100
AcDbText
  0
LINE
  5
6F
330
17
100
AcDbEntity
  8
Top_X
 62
9
100
AcDbLine
 10
10.125000000000002
 20
28.874999998
 30
0.0
 11
11.9999999985
 21
30.7500000015
 31
0.0
  0
LINE
  5
70
330
17
100
AcDbEntity
  8
Top_X
100
AcDbLine
 10
9.89965945814118
 20
28.65603030157544
 30
0.0
 11
12.21896969478626
 21
30.975340542092326
 31
0.0
  0
LINE
  5
71
330
17
100
AcDbEntity
  8
Top_X
 62
9
100
AcDbLine
 10
11.9999999985
 20
30.7500000015
 30
0.0
 11
13.125
 21
29.625000002999997
 31
0.0
  0
LINE
  5
72
330
17
100
AcDbEntity
  8
Top_X
100
AcDbLine
 10
12.21896969478626
 20
30.975340542092326
 30
0.0
 11
13.35034054185882
 21
29.843969699424562
 31
0.0
  0
LINE
  5
73
330
17
100
AcDbEntity
  8
Top_X
 62
9
100
AcDbLine
 10
13.125
 20
29.625000002999997
 30
0.0
 11
11.250000001500002
 21
27.749999999499998
 31
0.0
  0
LINE
  5
74
330
17
100
AcDbEntity
  8
Top_X
100
AcDbLine
 10
13.35034054185882
 20
29.843969699424562
 30
0.0
 11
11.031030305213742
 21
27.524659458907678
 31
0.0
  0
LINE
  5
75
330
17
100
AcDbEntity
  8
Top_X
 62
9
100
AcDbLine
 10
11.250000001500002
 20
27.749999999499998
 30
0.0
 11
10.125000000000002
 21
28.874999998
 31
0.0
  0
LINE
  5
76
330
17
100
AcDbEntity
  8
Top_X
100
AcDbLine
 10
11.031030305213742
 20
27.524659458907678
 30
0.0
 11
9.89965945814118
 21
28.65603030157544
 31
0.0
  0
TEXT
  5
77
330
17
100
AcDbEntity
  8
TEXT_Top_X
100
AcDbText
 10
11.625
 20
29.250000000500002
 30
0.0
 40
0.2
  1
6 шаг 100
 11
11.625
 21
29.250000000500002
 31
0.0
100
AcDbText
  0
TEXT
  5
78
330
17
100
AcDbEntity
  8
TEXT_Top_X
100
AcDbText
 10
11.625
 20
29.000000000500002
 30
0.0
 40
0.2
  1
(3280x1600)
 11
11.625
 21
29.000000000500002
 31
0.0
100
AcDbText
  0
LINE
  5
79
330
17
100
AcDbEntity
  8
Top_X
 62
9
100
AcDbLine
 10
5.25
 20
11.999999998
 30
0.0
 11
6.3749999995
 21
13.1250000005
 31
0.0
  0
LINE
  5
7A
330
17
100
AcDbEntity
  8
Top_X
100
AcDbLine
 10
4.978347407084284
 20
11.82687553981295
 30
0.0
 11
6.5481244572266295
 21
13.396652592557448
 31
0.0
  0
LINE
  5
7B
330
17
100
AcDbEntity
  8
Top_X
 62
9
100
AcDbLine
 10
6.3749999995
 20
13.1250000005
 30
0.0
 11
7.125
 21
12.375000002
 31
0.0
  0
LINE
  5
7C
330
17
100
AcDbEntity
  8
Top_X
100
AcDbLine
 10
6.5481244572266295
 20
13.396652592557448
 30
0.0
 11
7.396652592915716
 21
12.548124460187047
 31
0.0
  0
LINE
  5
7D
330
17
100
AcDbEntity
  8
Top_X
 62
9
100
AcDbLine
 10
7.125
 20
12.375000002
 30
0.0
 11
6.0000000005
 21
11.2499999995
 31
0.0
  0
LINE
  5
7E
330
17
100
AcDbEntity
  8
Top_X
100
AcDbLine
 10
7.396652592915716
 20
12.548124460187047
 30
0.0
 11
5.826875542773372
 21
10.97834740744255
 31
0.0
  0
LINE
  5
7F
330
17
100
AcDbEntity
  8
Top_X
 62
9
100
AcDbLine
 10
6.0000000005
 20
11.2499999995
 30
0.0
 11
5.25
 21
11.999999998
 31
0.0
  0
LINE
  5
80
330
17
100
AcDbEntity
  8
Top_X
100
AcDbLine
 10
5.826875542773372
 20
10.97834740744255
 30
0.0
 11
4.978347407084284
 21
11.82687553981295
 31
0.0
  0
TEXT
  5
81
330
17
100
AcDbEntity
  8
TEXT_Top_X
100
AcDbText
 10
6.1875
 20
12.1875
 30
0.0
 40
0.2
  1
6 шаг 200
 11
6.1875
 21
12.1875
 31
0.0
100
AcDbText
  0
TEXT
  5
82
330
17
100
AcDbEntity
  8
TEXT_Top_X
100
AcDbText
 10
6.1875
 20
11.9375
 30
0.0
 40
0.2
  1
(2220x1200)
 11
6.1875
 21
11.9375
 31
0.0
100
AcDbText
  0
LINE
  5
83
330
17
100
AcDbEntity
  8
Top_X
 62
9
100
AcDbLine
 10
5.25
 20
12.0
 30
0.0
 11
5.25
 21
12.75
 31
0.0
  0
LINE
  5
84
330
17
100
AcDbEntity
  8
Top_X
100
AcDbLine
 10
4.9399999999999995
 20
11.975000000000001
 30
0.0
 11
4.9399999999999995
 21
12.775
 31
0.0
  0
LINE
  5
85
330
17
100
AcDbEntity
  8
Top_X
 62
9
100
AcDbLine
 10
5.25
 20
12.75
 30
0.0
 11
6.0
 21
12.75
 31
0.0
  0
LINE
  5
86
330
17
100
AcDbEntity
  8
Top_X
100
AcDbLine
 10
4.9399999999999995
 20
12.775
 30
0.0
 11
6.309999999999999
 21
12.775
 31
0.0
  0
LINE
  5
87
330
17
100
AcDbEntity
  8
Top_X
 62
9
100
AcDbLine
 10
6.0
 20
12.75
 30
0.0
 11
6.0
 21
12.0
 31
0.0
  0
LINE
  5
88
330
17
100
AcDbEntity
  8
Top_X
100
AcDbLine
 10
6.309999999999999
 20
12.775
 30
0.0
 11
6.309999999999999
 21
11.975000000000001
 31
0.0
  0
LINE
  5
89
330
17
100
AcDbEntity
  8
Top_X
 62
9
100
AcDbLine
 10
6.0
 20
12.0
 30
0.0
 11
5.25
 21
12.0
 31
0.0
  0
LINE
  5
8A
330
17
100
AcDbEntity
  8
Top_X
100
AcDbLine
 10
6.309999999999999
 20
11.975000000000001
 30
0.0
 11
4.9399999999999995
 21
11.975000000000001
 31
0.0
  0
TEXT
  5
8B
330
17
100
AcDbEntity
  8
TEXT_Top_X
100
AcDbText
 10
5.625
 20
12.375
 30
0.0
 40
0.2
  1
6 шаг 200
 11
5.625
 21
12.375
 31
0.0
100
AcDbText
  0
TEXT
  5
8C
330
17
100
AcDbEntity
  8
TEXT_Top_X
100
AcDbText
 10
5.625
 20
12.125
 30
0.0
 40
0.2
  1
(1370x800)
 11
5.625
 21
12.125
 31
0.0
100
AcDbText
  0
LINE
  5
8D
330
17
100
AcDbEntity
  8
Top_X
 62
9
100
AcDbLine
 10
5.249999999999999
 20
23.999999998
 30
0.0
 11
6.374999999499999
 21
25.1250000005
 31
0.0
  0
LINE
  5
8E
330
17
100
AcDbEntity
  8
Top_X
100
AcDbLine
 10
4.97834740708428
 20
23.826875539812953
 30
0.0
 11
6.5481244572266295
 21
25.39665259255745
 31
0.0
  0
LINE
  5
8F
330
17
100
AcDbEntity
  8
Top_X
 62
9
100
AcDbLine
 10
6.374999999499999
 20
25.1250000005
 30
0.0
 11
7.124999999999997
 21
24.375000001999997
 31
0.0
  0
LINE
  5
90
330
17
100
AcDbEntity
  8
Top_X
100
AcDbLine
 10
6.5481244572266295
 20
25.39665259255745
 30
0.0
 11
7.396652592915716
 21
24.54812446018705
 31
0.0
  0
LINE
  5
91
330
17
100
AcDbEntity
  8
Top_X
 62
9
100
AcDbLine
 10
7.124999999999997
 20
24.375000001999997
 30
0.0
 11
6.000000000499997
 21
23.249999999499998
 31
0.0
  0
LINE
  5
92
330
17
100
AcDbEntity
  8
Top_X
100
AcDbLine
 10
7.396652592915716
 20
24.54812446018705
 30
0.0
 11
5.826875542773365
 21
22.97834740744255
 31
0.0
  0
LINE
  5
93
330
17
100
AcDbEntity
  8
Top_X
 62
9
100
AcDbLine
 10
6.000000000499997
 20
23.249999999499998
 30
0.0
 11
5.249999999999999
 21
23.999999998
 31
0.0
  0
LINE
  5
94
330
17
100
AcDbEntity
  8
Top_X
100
AcDbLine
 10
5.826875542773365
 20
22.97834740744255
 30
0.0
 11
4.97834740708428
 21
23.826875539812953
 31
0.0
  0
TEXT
  5
95
330
17
100
AcDbEntity
  8
TEXT_Top_X
100
AcDbText
 10
6.187499999999998
 20
24.1875
 30
0.0
 40
0.2
  1
6 шаг 200
 11
6.187499999999998
 21
24.1875
 31
0.0
100
AcDbText
  0
TEXT
  5
96
330
17
100
AcDbEntity
  8
TEXT_Top_X
100
AcDbText
 10
6.187499999999998
 20
23.9375
 30
0.0
 40
0.2
  1
(2220x1200)
 11
6.187499999999998
 21
23.9375
 31
0.0
100
AcDbText
  0
LINE
  5
97
330
17
100
AcDbEntity
  8
Top_X
 62
9
100
AcDbLine
 10
5.25
 20
24.0
 30
0.0
 11
5.25
 21
24.75
 31
0.0
  0
LINE
  5
98
330
17
100
AcDbEntity
  8
Top_X
100
AcDbLine
 10
4.9399999999999995
 20
23.975
 30
0.0
 11
4.9399999999999995
 21
24.775
 31
0.0
  0
LINE
  5
99
330
17
100
AcDbEntity
  8
Top_X
 62
9
100
AcDbLine
 10
5.25
 20
24.75
 30
0.0
 11
6.0
 21
24.75
 31
0.0
  0
LINE
  5
9A
330
17
100
AcDbEntity
  8
Top_X
100
AcDbLine
 10
4.9399999999999995
 20
24.775
 30
0.0
 11
6.309999999999999
 21
24.775
 31
0.0
  0
LINE
  5
9B
330
17
100
AcDbEntity
  8
Top_X
 62
9
100
AcDbLine
 10
6.0
 20
24.75
 30
0.0
 11
6.0
 21
24.0
 31
0.0
  0
LINE
  5
9C
330
17
100
AcDbEntity
  8
Top_X
100
AcDbLine
 10
6.309999999999999
 20
24.775
 30
0.0
 11
6.309999999999999
 21
23.975
 31
0.0
  0
LINE
  5
9D
330
17
100
AcDbEntity
  8
Top_X
 62
9
100
AcDbLine
 10
6.0
 20
24.0
 30
0.0
 11
5.25
 21
24.0
 31
0.0
  0
LINE
  5
9E
330
17
100
AcDbEntity
  8
Top_X
100
AcDbLine
 10
6.309999999999999
 20
23.975
 30
0.0
 11
4.9399999999999995
 21
23.975
 31
0.0
  0
TEXT
  5
9F
330
17
100
AcDbEntity
  8
TEXT_Top_X
100
AcDbText
 10
5.625
 20
24.375
 30
0.0
 40
0.2
  1
6 шаг 200
 11
5.625
 21
24.375
 31
0.0
100
AcDbText
  0
TEXT
  5
A0
330
17
100
AcDbEntity
  8
TEXT_Top_X
100
AcDbText
 10
5.625
 20
24.125
 30
0.0
 40
0.2
  1
(1370x800)
 11
5.625
 21
24.125
 31
0.0
100
AcDbText
  0
LINE
  5
A1
330
17
100
AcDbEntity
  8
Top_X
 62
9
100
AcDbLine
 10
5.25
 20
29.249999998
 30
0.0
 11
6.749999999000001
 21
30.750000001
 31
0.0
  0
LINE
  5
A2
330
17
100
AcDbEntity
  8
Top_X
100
AcDbLine
 10
4.978464110951377
 20
29.076992241916987
 30
0.0
 11
6.9230077546889
 21
31.021535889520027
 31
0.0
  0
LINE
  5
A3
330
17
100
AcDbEntity
  8
Top_X
 62
9
100
AcDbLine
 10
6.749999999000001
 20
30.750000001
 30
0.0
 11
7.500000000000001
 21
30.000000002
 31
0.0
  0
LINE
  5
A4
330
17
100
AcDbEntity
  8
Top_X
100
AcDbLine
 10
6.9230077546889
 20
31.021535889520027
 30
0.0
 11
7.771535889048627
 21
30.173007758083006
 31
0.0
  0
LINE
  5
A5
330
17
100
AcDbEntity
  8
Top_X
 62
9
100
AcDbLine
 10
7.500000000000001
 20
30.000000002
 30
0.0
 11
6.000000001
 21
28.499999999
 31
0.0
  0
LINE
  5
A6
330
17
100
AcDbEntity
  8
Top_X
100
AcDbLine
 10
7.771535889048627
 20
30.173007758083006
 30
0.0
 11
5.826992245311102
 21
28.228464110479965
 31
0.0
  0
LINE
  5
A7
330
17
100
AcDbEntity
  8
Top_X
 62
9
100
AcDbLine
 10
6.000000001
 20
28.499999999
 30
0.0
 11
5.25
 21
29.249999998
 31
0.0
  0
LINE
  5
A8
330
17
100
AcDbEntity
  8
Top_X
100
AcDbLine
 10
5.826992245311102
 20
28.228464110479965
 30
0.0
 11
4.978464110951377
 21
29.076992241916987
 31
0.0
  0
TEXT
  5
A9
330
17
100
AcDbEntity
  8
TEXT_Top_X
100
AcDbText
 10
6.375
 20
29.624999999999996
 30
0.0
 40
0.2
  1
6 шаг 200
 11
6.375
 21
29.624999999999996
 31
0.0
100
AcDbText
  0
TEXT
  5
AA
330
17
100
AcDbEntity
  8
TEXT_Top_X
100
AcDbText
 10
6.375
 20
29.374999999999996
 30
0.0
 40
0.2
  1
(2750x1200)
 11
6.375
 21
29.374999999999996
 31
0.0
100
AcDbText
  0
LINE
  5
AB
330
17
100
AcDbEntity
  8
Top_X
 62
9
100
AcDbLine
 10
5.25
 20
29.25
 30
0.0
 11
5.25
 21
30.0
 31
0.0
  0
LINE
  5
AC
330
17
100
AcDbEntity
  8
Top_X
100
AcDbLine
 10
4.9399999999999995
 20
29.224999999999998
 30
0.0
 11
4.9399999999999995
 21
30.025
 31
0.0
  0
LINE
  5
AD
330
17
100
AcDbEntity
  8
Top_X
 62
9
100
AcDbLine
 10
5.25
 20
30.0
 30
0.0
 11
6.0
 21
30.0
 31
0.0
  0
LINE
  5
AE
330
17
100
AcDbEntity
  8
Top_X
100
AcDbLine
 10
4.9399999999999995
 20
30.025
 30
0.0
 11
6.309999999999999
 21
30.025
 31
0.0
  0
LINE
  5
AF
330
17
100
AcDbEntity
  8
Top_X
 62
9
100
AcDbLine
 10
6.0
 20
30.0
 30
0.0
 11
6.0
 21
29.25
 31
0.0
  0
LINE
  5
B0
330
17
100
AcDbEntity
  8
Top_X
100
AcDbLine
 10
6.309999999999999
 20
30.025
 30
0.0
 11
6.309999999999999
 21
29.224999999999998
 31
0.0
  0
LINE
  5
B1
330
17
100
AcDbEntity
  8
Top_X
 62
9
100
AcDbLine
 10
6.0
 20
29.25
 30
0.0
 11
5.25
 21
29.25
 31
0.0
  0
LINE
  5
B2
330
17
100
AcDbEntity
  8
Top_X
100
AcDbLine
 10
6.309999999999999
 20
29.224999999999998
 30
0.0
 11
4.9399999999999995
 21
29.224999999999998
 31
0.0
  0
TEXT
  5
B3
330
17
100
AcDbEntity
  8
TEXT_Top_X
100
AcDbText
 10
5.625
 20
29.625
 30
0.0
 40
0.2
  1
6 шаг 200
 11
5.625
 21
29.625
 31
0.0
100
AcDbText
  0
TEXT
  5
B4
330
17
100
AcDbEntity
  8
TEXT_Top_X
100
AcDbText
 10
5.625
 20
29.375
 30
0.0
 40
0.2
  1
(1370x800)
 11
5.625
 21
29.375
 31
0.0
100
AcDbText
  0
LINE
  5
B7
330
17
100
AcDbEntity
  8
Top_Y
 62
9
100
AcDbLine
 10
10.5
 20
10.499999999
 30
0.0
 11
11.9999999985
 21
12.0000000015
 31
0.0
  0
LINE
  5
B8
330
17
100
AcDbEntity
  8
Top_Y
100
AcDbLine
 10
10.228464110951375
 20
10.32699224241699
 30
0.0
 11
12.173007754688896
 21
12.27153589002003
 31
0.0
  0
LINE
  5
B9
330
17
100
AcDbEntity
  8
Top_Y
 62
9
100
AcDbLine
 10
11.9999999985
 20
12.0000000015
 30
0.0
 11
12.75
 21
11.250000002
 31
0.0
  0
LINE
  5
BA
330
17
100
AcDbEntity
  8
Top_Y
100
AcDbLine
 10
12.173007754688896
 20
12.27153589002003
 30
0.0
 11
13.021535889048623
 21
11.423007758583012
 31
0.0
  0
LINE
  5
BB
330
17
100
AcDbEntity
  8
Top_Y
 62
9
100
AcDbLine
 10
12.75
 20
11.250000002
 30
0.0
 11
11.2500000015
 21
9.7499999995
 31
0.0
  0
LINE
  5
BC
330
17
100
AcDbEntity
  8
Top_Y
100
AcDbLine
 10
13.021535889048623
 20
11.423007758583012
 30
0.0
 11
11.0769922453111
 21
9.478464110979973
 31
0.0
  0
LINE
  5
BD
330
17
100
AcDbEntity
  8
Top_Y
 62
9
100
AcDbLine
 10
11.2500000015
 20
9.7499999995
 30
0.0
 11
10.5
 21
10.499999999
 31
0.0
  0
LINE
  5
BE
330
17
100
AcDbEntity
  8
Top_Y
100
AcDbLine
 10
11.0769922453111
 20
9.478464110979973
 30
0.0
 11
10.228464110951375
 21
10.32699224241699
 31
0.0
  0
TEXT
  5
BF
330
17
100
AcDbEntity
  8
TEXT_Top_Y
100
AcDbText
 10
11.625
 20
10.8750000005
 30
0.0
 40
0.2
  1
6 шаг 200
 11
11.625
 21
10.8750000005
 31
0.0
100
AcDbText
  0
TEXT
  5
C0
330
17
100
AcDbEntity
  8
TEXT_Top_Y
100
AcDbText
 10
11.625
 20
10.6250000005
 30
0.0
 40
0.2
  1
(2750x1200)
 11
11.625
 21
10.6250000005
 31
0.0
100
AcDbText
  0
LINE
  5
C1
330
17
100
AcDbEntity
  8
Top_Y
 62
9
100
AcDbLine
 10
10.125000000000002
 20
28.124999999
 30
0.0
 11
11.999999998
 21
30.000000001999997
 31
0.0
  0
LINE
  5
C2
330
17
100
AcDbEntity
  8
Top_Y
100
AcDbLine
 10
9.825296543533291
 20
27.923824673311277
 30
0.0
 11
12.201175323296805
 21
30.29970345805282
 31
0.0
  0
LINE
  5
C3
330
17
100
AcDbEntity
  8
Top_Y
 62
9
100
AcDbLine
 10
11.999999998
 20
30.000000001999997
 30
0.0
 11
12.75
 21
29.250000001999997
 31
0.0
  0
LINE
  5
C4
330
17
100
AcDbEntity
  8
Top_Y
100
AcDbLine
 10
12.201175323296805
 20
30.29970345805282
 30
0.0
 11
13.049703456466709
 21
29.45117532768872
 31
0.0
  0
LINE
  5
C5
330
17
100
AcDbEntity
  8
Top_Y
 62
9
100
AcDbLine
 10
12.75
 20
29.250000001999997
 30
0.0
 11
10.875000002000002
 21
27.374999999
 31
0.0
  0
LINE
  5
C6
330
17
100
AcDbEntity
  8
Top_Y
100
AcDbLine
 10
13.049703456466709
 20
29.45117532768872
 30
0.0
 11
10.673824676703195
 21
27.075296542947175
 31
0.0
  0
LINE
  5
C7
330
17
100
AcDbEntity
  8
Top_Y
 62
9
100
AcDbLine
 10
10.875000002000002
 20
27.374999999
 30
0.0
 11
10.125000000000002
 21
28.124999999
 31
0.0
  0
LINE
  5
C8
330
17
100
AcDbEntity
  8
Top_Y
100
AcDbLine
 10
10.673824676703195
 20
27.075296542947175
 30
0.0
 11
9.825296543533291
 21
27.923824673311277
 31
0.0
  0
TEXT
  5
C9
330
17
100
AcDbEntity
  8
TEXT_Top_Y
100
AcDbText
 10
11.4375
 20
28.6875000005
 30
0.0
 40
0.2
  1
8 шаг 200
 11
11.4375
 21
28.6875000005
 31
0.0
100
AcDbText
  0
TEXT
  5
CA
330
17
100
AcDbEntity
  8
TEXT_Top_Y
100
AcDbText
 10
11.4375
 20
28.4375000005
 30
0.0
 40
0.2
  1
(3360x1200)
 11
11.4375
 21
28.4375000005
 31
0.0
100
AcDbText
  0
LINE
  5
CB
330
17
100
AcDbEntity
  8
Top_Y
 62
9
100
AcDbLine
 10
5.6249999995
 20
6.374999998499999
 30
0.0
 11
9.374999995500001
 21
10.1250000045
 31
0.0
  0
LINE
  5
CC
330
17
100
AcDbEntity
  8
Top_Y
100
AcDbLine
 10
5.32588006261875
 20
6.174408183581471
 30
0.0
 11
9.575591809635963
 21
10.424119941893537
 31
0.0
  0
LINE
  5
CD
330
17
100
AcDbEntity
  8
Top_Y
 62
9
100
AcDbLine
 10
9.374999995500001
 20
10.1250000045
 30
0.0
 11
10.125
 21
9.375000002
 31
0.0
  0
LINE
  5
CE
330
17
100
AcDbEntity
  8
Top_Y
100
AcDbLine
 10
9.575591809635963
 20
10.424119941893537
 30
0.0
 11
10.424119936881253
 21
9.575591816918529
 31
0.0
  0
LINE
  5
CF
330
17
100
AcDbEntity
  8
Top_Y
 62
9
100
AcDbLine
 10
10.125
 20
9.375000002
 30
0.0
 11
6.375000003999999
 21
5.624999996
 31
0.0
  0
LINE
  5
D0
330
17
100
AcDbEntity
  8
Top_Y
100
AcDbLine
 10
10.424119936881253
 20
9.575591816918529
 30
0.0
 11
6.174408189864041
 21
5.325880058606464
 31
0.0
  0
LINE
  5
D1
330
17
100
AcDbEntity
  8
Top_Y
 62
9
100
AcDbLine
 10
6.375000003999999
 20
5.624999996
 30
0.0
 11
5.6249999995
 21
6.374999998499999
 31
0.0
  0
LINE
  5
D2
330
17
100
AcDbEntity
  8
Top_Y
100
AcDbLine
 10
6.174408189864041
 20
5.325880058606464
 30
0.0
 11
5.32588006261875
 21
6.174408183581471
 31
0.0
  0
TEXT
  5
D3
330
17
100
AcDbEntity
  8
TEXT_Top_Y
100
AcDbText
 10
7.874999999750001
 20
7.87500000025
 30
0.0
 40
0.2
  1
8 шаг 200
 11
7.874999999750001
 21
7.87500000025
 31
0.0
100
AcDbText
  0
TEXT
  5
D4
330
17
100
AcDbEntity
  8
TEXT_Top_Y
100
AcDbText
 10
7.874999999750001
 20
7.62500000025
 30
0.0
 40
0.2
  1
(6010x1200)
 11
7.874999999750001
 21
7.62500000025
 31
0.0
100
AcDbText
  0
LINE
  5
D5
330
17
100
AcDbEntity
  8
Top_Y
 62
9
100
AcDbLine
 10
0.0
 20
5.25
 30
0.0
 11
0.0
 21
6.75
 31
0.0
  0
LINE
  5
D6
330
17
100
AcDbEntity
  8
Top_Y
100
AcDbLine
 10
-0.3999999999999999
 20
5.199999999999999
 30
0.0
 11
-0.3999999999999999
 21
6.8
 31
0.0
  0
LINE
  5
D7
330
17
100
AcDbEntity
  8
Top_Y
 62
9
100
AcDbLine
 10
0.0
 20
6.75
 30
0.0
 11
6.0
 21
6.75
 31
0.0
  0
LINE
  5
D8
330
17
100
AcDbEntity
  8
Top_Y
100
AcDbLine
 10
-0.3999999999999999
 20
6.8
 30
0.0
 11
6.4
 21
6.8
 31
0.0
  0
LINE
  5
D9
330
17
100
AcDbEntity
  8
Top_Y
 62
9
100
AcDbLine
 10
6.0
 20
6.75
 30
0.0
 11
6.0
 21
5.25
 31
0.0
  0
LINE
  5
DA
330
17
100
AcDbEntity
  8
Top_Y
100
AcDbLine
 10
6.4
 20
6.8
 30
0.0
 11
6.4
 21
5.199999999999999
 31
0.0
  0
LINE
  5
DB
330
17
100
AcDbEntity
  8
Top_Y
 62
9
100
AcDbLine
 10
6.0
 20
5.25
 30
0.0
 11
0.0
 21
5.25
 31
0.0
  0
LINE
  5
DC
330
17
100
AcDbEntity
  8
Top_Y
100
AcDbLine
 10
6.4
 20
5.199999999999999
 30
0.0
 11
-0.3999999999999999
 21
5.199999999999999
 31
0.0
  0
TEXT
  5
DD
330
17
100
AcDbEntity
  8
TEXT_Top_Y
100
AcDbText
 10
3.0
 20
6.0
 30
0.0
 40
0.2
  1
10 шаг 200
 11
3.0
 21
6.0
 31
0.0
100
AcDbText
  0
TEXT
  5
DE
330
17
100
AcDbEntity
  8
TEXT_Top_Y
100
AcDbText
 10
3.0
 20
5.75
 30
0.0
 40
0.2
  1
(6800x1600)
 11
3.0
 21
5.75
 31
0.0
100
AcDbText
  0
LINE
  5
DF
330
17
100
AcDbEntity
  8
Top_Y
 62
9
100
AcDbLine
 10
5.6249999995
 20
12.3749999985
 30
0.0
 11
11.624999992
 21
18.375000007
 31
0.0
  0
LINE
  5
E0
330
17
100
AcDbEntity
  8
Top_Y
100
AcDbLine
 10
5.372658927761223
 20
12.129029754642898
 30
0.0
 11
11.870970236190246
 21
18.627341077924306
 31
0.0
  0
LINE
  5
E1
330
17
100
AcDbEntity
  8
Top_Y
 62
9
100
AcDbLine
 10
11.624999992
 20
18.375000007
 30
0.0
 11
12.75
 21
17.250000002
 31
0.0
  0
LINE
  5
E2
330
17
100
AcDbEntity
  8
Top_Y
100
AcDbLine
 10
11.870970236190246
 20
18.627341077924306
 30
0.0
 11
13.002341071738776
 21
17.495970245857098
 31
0.0
  0
LINE
  5
E3
330
17
100
AcDbEntity
  8
Top_Y
 62
9
100
AcDbLine
 10
12.75
 20
17.250000002
 30
0.0
 11
6.750000007500001
 21
11.2499999935
 31
0.0
  0
LINE
  5
E4
330
17
100
AcDbEntity
  8
Top_Y
100
AcDbLine
 10
13.002341071738776
 20
17.495970245857098
 30
0.0
 11
6.504029763309752
 21
10.997658922575692
 31
0.0
  0
LINE
  5
E5
330
17
100
AcDbEntity
  8
Top_Y
 62
9
100
AcDbLine
 10
6.750000007500001
 20
11.2499999935
 30
0.0
 11
5.6249999995
 21
12.3749999985
 31
0.0
  0
LINE
  5
E6
330
17
100
AcDbEntity
  8
Top_Y
100
AcDbLine
 10
6.504029763309752
 20
10.997658922575692
 30
0.0
 11
5.372658927761223
 21
12.129029754642898
 31
0.0
  0
TEXT
  5
E7
330
17
100
AcDbEntity
  8
TEXT_Top_Y
100
AcDbText
 10
9.187499999749999
 20
14.81250000025
 30
0.0
 40
0.2
  1
8 шаг 200
 11
9.187499999749999
 21
14.81250000025
 31
0.0
100
AcDbText
  0
TEXT
  5
E8
330
17
100
AcDbEntity
  8
TEXT_Top_Y
100
AcDbText
 10
9.187499999749999
 20
14.56250000025
 30
0.0
 40
0.2
  1
(9190x1600)
 11
9.187499999749999
 21
14.56250000025
 31
0.0
100
AcDbText
  0
LINE
  5
E9
330
17
100
AcDbEntity
  8
Top_Y
 62
9
100
AcDbLine
 10
0.0
 20
11.25
 30
0.0
 11
0.0
 21
12.75
 31
0.0
  0
LINE
  5
EA
330
17
100
AcDbEntity
  8
Top_Y
100
AcDbLine
 10
-0.3099999999999996
 20
11.2
 30
0.0
 11
-0.3099999999999996
 21
12.799999999999999
 31
0.0
  0
LINE
  5
EB
330
17
100
AcDbEntity
  8
Top_Y
 62
9
100
AcDbLine
 10
0.0
 20
12.75
 30
0.0
 11
6.0
 21
12.75
 31
0.0
  0
LINE
  5
EC
330
17
100
AcDbEntity
  8
Top_Y
100
AcDbLine
 10
-0.3099999999999996
 20
12.799999999999999
 30
0.0
 11
6.31
 21
12.799999999999999
 31
0.0
  0
LINE
  5
ED
330
17
100
AcDbEntity
  8
Top_Y
 62
9
100
AcDbLine
 10
6.0
 20
12.75
 30
0.0
 11
6.0
 21
11.25
 31
0.0
  0
LINE
  5
EE
330
17
100
AcDbEntity
  8
Top_Y
100
AcDbLine
 10
6.31
 20
12.799999999999999
 30
0.0
 11
6.31
 21
11.2
 31
0.0
  0
LINE
  5
EF
330
17
100
AcDbEntity
  8
Top_Y
 62
9
100
AcDbLine
 10
6.0
 20
11.25
 30
0.0
 11
0.0
 21
11.25
 31
0.0
  0
LINE
  5
F0
330
17
100
AcDbEntity
  8
Top_Y
100
AcDbLine
 10
6.31
 20
11.2
 30
0.0
 11
-0.3099999999999996
 21
11.2
 31
0.0
  0
TEXT
  5
F1
330
17
100
AcDbEntity
  8
TEXT_Top_Y
100
AcDbText
 10
3.0
 20
12.0
 30
0.0
 40
0.2
  1
6 шаг 100
 11
3.0
 21
12.0
 31
0.0
100
AcDbText
  0
TEXT
  5
F2
330
17
100
AcDbEntity
  8
TEXT_Top_Y
100
AcDbText
 10
3.0
 20
11.75
 30
0.0
 40
0.2
  1
(6620x1600)
 11
3.0
 21
11.75
 31
0.0
100
AcDbText
  0
LINE
  5
F3
330
17
100
AcDbEntity
  8
Top_Y
 62
9
100
AcDbLine
 10
5.6249999995
 20
18.374999998499998
 30
0.0
 11
11.624999992
 21
24.375000006999997
 31
0.0
  0
LINE
  5
F4
330
17
100
AcDbEntity
  8
Top_Y
100
AcDbLine
 10
5.372658927761222
 20
18.129029754642897
 30
0.0
 11
11.870970236190248
 21
24.627341077924306
 31
0.0
  0
LINE
  5
F5
330
17
100
AcDbEntity
  8
Top_Y
 62
9
100
AcDbLine
 10
11.624999992
 20
24.375000006999997
 30
0.0
 11
12.749999999999998
 21
23.250000001999997
 31
0.0
  0
LINE
  5
F6
330
17
100
AcDbEntity
  8
Top_Y
100
AcDbLine
 10
11.870970236190248
 20
24.627341077924306
 30
0.0
 11
13.002341071738774
 21
23.495970245857098
 31
0.0
  0
LINE
  5
F7
330
17
100
AcDbEntity
  8
Top_Y
 62
9
100
AcDbLine
 10
12.749999999999998
 20
23.250000001999997
 30
0.0
 11
6.7500000075
 21
17.249999993499998
 31
0.0
  0
LINE
  5
F8
330
17
100
AcDbEntity
  8
Top_Y
100
AcDbLine
 10
13.002341071738774
 20
23.495970245857098
 30
0.0
 11
6.5040297633097515
 21
16.997658922575688
 31
0.0
  0
LINE
  5
F9
330
17
100
AcDbEntity
  8
Top_Y
 62
9
100
AcDbLine
 10
6.7500000075
 20
17.249999993499998
 30
0.0
 11
5.6249999995
 21
18.374999998499998
 31
0.0
  0
LINE
  5
FA
330
17
100
AcDbEntity
  8
Top_Y
100
AcDbLine
 10
6.5040297633097515
 20
16.997658922575688
 30
0.0
 11
5.372658927761222
 21
18.129029754642897
 31
0.0
  0
TEXT
  5
FB
330
17
100
AcDbEntity
  8
TEXT_Top_Y
100
AcDbText
 10
9.187499999749999
 20
20.812500000249997
 30
0.0
 40
0.2
  1
8 шаг 200
 11
9.187499999749999
 21
20.812500000249997
 31
0.0
100
AcDbText
  0
TEXT
  5
FC
330
17
100
AcDbEntity
  8
TEXT_Top_Y
100
AcDbText
 10
9.187499999749999
 20
20.562500000249997
 30
0.0
 40
0.2
  1
(9190x1600)
 11
9.187499999749999
 21
20.562500000249997
 31
0.0
100
AcDbText
  0
LINE
  5
FD
330
17
100
AcDbEntity
  8
Top_Y
 62
9
100
AcDbLine
 10
0.0
 20
17.25
 30
0.0
 11
0.0
 21
18.75
 31
0.0
  0
LINE
  5
FE
330
17
100
AcDbEntity
  8
Top_Y
100
AcDbLine
 10
-0.3099999999999996
 20
17.2
 30
0.0
 11
-0.3099999999999996
 21
18.8
 31
0.0
  0
LINE
  5
FF
330
17
100
AcDbEntity
  8
Top_Y
 62
9
100
AcDbLine
 10
0.0
 20
18.75
 30
0.0
 11
6.0
 21
18.75
 31
0.0
  0
LINE
  5
100
330
17
100
AcDbEntity
  8
Top_Y
100
AcDbLine
 10
-0.3099999999999996
 20
18.8
 30
0.0
 11
6.31
 21
18.8
 31
0.0
  0
LINE
  5
101
330
17
100
AcDbEntity
  8
Top_Y
 62
9
100
AcDbLine
 10
6.0
 20
18.75
 30
0.0
 11
6.0
 21
17.25
 31
0.0
  0
LINE
  5
102
330
17
100
AcDbEntity
  8
Top_Y
100
AcDbLine
 10
6.31
 20
18.8
 30
0.0
 11
6.31
 21
17.2
 31
0.0
  0
LINE
  5
103
330
17
100
AcDbEntity
  8
Top_Y
 62
9
100
AcDbLine
 10
6.0
 20
17.25
 30
0.0
 11
0.0
 21
17.25
 31
0.0
  0
LINE
  5
104
330
17
100
AcDbEntity
  8
Top_Y
100
AcDbLine
 10
6.31
 20
17.2
 30
0.0
 11
-0.3099999999999996
 21
17.2
 31
0.0
  0
TEXT
  5
105
330
17
100
AcDbEntity
  8
TEXT_Top_Y
100
AcDbText
 10
3.0
 20
18.0
 30
0.0
 40
0.2
  1
6 шаг 100
 11
3.0
 21
18.0
 31
0.0
100
AcDbText
  0
TEXT
  5
106
330
17
100
AcDbEntity
  8
TEXT_Top_Y
100
AcDbText
 10
3.0
 20
17.75
 30
0.0
 40
0.2
  1
(6620x1600)
 11
3.0
 21
17.75
 31
0.0
100
AcDbText
  0
LINE
  5
107
330
17
100
AcDbEntity
  8
Top_Y
 62
9
100
AcDbLine
 10
5.6249999995
 20
24.374999998499998
 30
0.0
 11
8.999999996
 21
27.750000004
 31
0.0
  0
LINE
  5
108
330
17
100
AcDbEntity
  8
Top_Y
100
AcDbLine
 10
5.325763359001661
 20
24.17429148122743
 30
0.0
 11
9.20070851259193
 21
28.04923664484919
 31
0.0
  0
LINE
  5
109
330
17
100
AcDbEntity
  8
Top_Y
 62
9
100
AcDbLine
 10
8.999999996
 20
27.750000004
 30
0.0
 11
9.750000000499998
 21
27.000000001500002
 31
0.0
  0
LINE
  5
10A
330
17
100
AcDbEntity
  8
Top_Y
100
AcDbLine
 10
9.20070851259193
 20
28.04923664484919
 30
0.0
 11
10.049236640998341
 21
27.20070851877257
 31
0.0
  0
LINE
  5
10B
330
17
100
AcDbEntity
  8
Top_Y
 62
9
100
AcDbLine
 10
9.750000000499998
 20
27.000000001500002
 30
0.0
 11
6.3750000039999986
 21
23.624999996
 31
0.0
  0
LINE
  5
10C
330
17
100
AcDbEntity
  8
Top_Y
100
AcDbLine
 10
10.049236640998341
 20
27.20070851877257
 30
0.0
 11
6.174291487408072
 21
23.325763355150805
 31
0.0
  0
LINE
  5
10D
330
17
100
AcDbEntity
  8
Top_Y
 62
9
100
AcDbLine
 10
6.3750000039999986
 20
23.624999996
 30
0.0
 11
5.6249999995
 21
24.374999998499998
 31
0.0
  0
LINE
  5
10E
330
17
100
AcDbEntity
  8
Top_Y
100
AcDbLine
 10
6.174291487408072
 20
23.325763355150805
 30
0.0
 11
5.325763359001661
 21
24.17429148122743
 31
0.0
  0
TEXT
  5
10F
330
17
100
AcDbEntity
  8
TEXT_Top_Y
100
AcDbText
 10
7.6875
 20
25.6875
 30
0.0
 40
0.2
  1
8 шаг 200
 11
7.6875
 21
25.6875
 31
0.0
100
AcDbText
  0
TEXT
  5
110
330
17
100
AcDbEntity
  8
TEXT_Top_Y
100
AcDbText
 10
7.6875
 20
25.4375
 30
0.0
 40
0.2
  1
(5480x1200)
 11
7.6875
 21
25.4375
 31
0.0
100
AcDbText
  0
LINE
  5
111
330
17
100
AcDbEntity
  8
Top_Y
 62
9
100
AcDbLine
 10
0.0
 20
23.25
 30
0.0
 11
0.0
 21
24.75
 31
0.0
  0
LINE
  5
112
330
17
100
AcDbEntity
  8
Top_Y
100
AcDbLine
 10
-0.3999999999999999
 20
23.200000000000003
 30
0.0
 11
-0.3999999999999999
 21
24.8
 31
0.0
  0
LINE
  5
113
330
17
100
AcDbEntity
  8
Top_Y
 62
9
100
AcDbLine
 10
0.0
 20
24.75
 30
0.0
 11
6.0
 21
24.75
 31
0.0
  0
LINE
  5
114
330
17
100
AcDbEntity
  8
Top_Y
100
AcDbLine
 10
-0.3999999999999999
 20
24.8
 30
0.0
 11
6.4
 21
24.8
 31
0.0
  0
LINE
  5
115
330
17
100
AcDbEntity
  8
Top_Y
 62
9
100
AcDbLine
 10
6.0
 20
24.75
 30
0.0
 11
6.0
 21
23.25
 31
0.0
  0
LINE
  5
116
330
17
100
AcDbEntity
  8
Top_Y
100
AcDbLine
 10
6.4
 20
24.8
 30
0.0
 11
6.4
 21
23.200000000000003
 31
0.0
  0
LINE
  5
117
330
17
100
AcDbEntity
  8
Top_Y
 62
9
100
AcDbLine
 10
6.0
 20
23.25
 30
0.0
 11
0.0
 21
23.25
 31
0.0
  0
LINE
  5
118
330
17
100
AcDbEntity
  8
Top_Y
100
AcDbLine
 10
6.4
 20
23.200000000000003
 30
0.0
 11
-0.3999999999999999
 21
23.200000000000003
 31
0.0
  0
TEXT
  5
119
330
17
100
AcDbEntity
  8
TEXT_Top_Y
100
AcDbText
 10
3.0
 20
24.0
 30
0.0
 40
0.2
  1
10 шаг 200
 11
3.0
 21
24.0
 31
0.0
100
AcDbText
  0
TEXT
  5
11A
330
17
100
AcDbEntity
  8
TEXT_Top_Y
100
AcDbText
 10
3.0
 20
23.75
 30
0.0
 40
0.2
  1
(6800x1600)
 11
3.0
 21
23.75
 31
0.0
100
AcDbText
  0
LINE
  5
11D
330
17
100
AcDbEntity
  8
Bot_X
 62
9
100
AcDbLine
 10
2.25
 20
25.5
 30
0.0
 11
2.25
 21
26.25
 31
0.0
  0
LINE
  5
11E
330
17
100
AcDbEntity
  8
Bot_X
100
AcDbLine
 10
1.9400000000000004
 20
25.474999999999998
 30
0.0
 11
1.9400000000000004
 21
26.275
 31
0.0
  0
LINE
  5
11F
330
17
100
AcDbEntity
  8
Bot_X
 62
9
100
AcDbLine
 10
2.25
 20
26.25
 30
0.0
 11
3.0
 21
26.25
 31
0.0
  0
LINE
  5
120
330
17
100
AcDbEntity
  8
Bot_X
100
AcDbLine
 10
1.9400000000000004
 20
26.275
 30
0.0
 11
3.3100000000000005
 21
26.275
 31
0.0
  0
LINE
  5
121
330
17
100
AcDbEntity
  8
Bot_X
 62
9
100
AcDbLine
 10
3.0
 20
26.25
 30
0.0
 11
3.0
 21
25.5
 31
0.0
  0
LINE
  5
122
330
17
100
AcDbEntity
  8
Bot_X
100
AcDbLine
 10
3.3100000000000005
 20
26.275
 30
0.0
 11
3.3100000000000005
 21
25.474999999999998
 31
0.0
  0
LINE
  5
123
330
17
100
AcDbEntity
  8
Bot_X
 62
9
100
AcDbLine
 10
3.0
 20
25.5
 30
0.0
 11
2.25
 21
25.5
 31
0.0
  0
LINE
  5
124
330
17
100
AcDbEntity
  8
Bot_X
100
AcDbLine
 10
3.3100000000000005
 20
25.474999999999998
 30
0.0
 11
1.9400000000000004
 21
25.474999999999998
 31
0.0
  0
TEXT
  5
125
330
17
100
AcDbEntity
  8
TEXT_Bot_X
100
AcDbText
 10
2.625
 20
25.875
 30
0.0
 40
0.2
  1
6 шаг 200
 11
2.625
 21
25.875
 31
0.0
100
AcDbText
  0
TEXT
  5
126
330
17
100
AcDbEntity
  8
TEXT_Bot_X
100
AcDbText
 10
2.625
 20
25.625
 30
0.0
 40
0.2
  1
(1370x800)
 11
2.625
 21
25.625
 31
0.0
100
AcDbText
  0
LINE
  5
127
330
17
100
AcDbEntity
  8
Bot_X
 62
9
100
AcDbLine
 10
8.999999999499998
 20
32.2499999975
 30
0.0
 11
11.624999996999998
 21
34.875000002
 31
0.0
  0
LINE
  5
128
330
17
100
AcDbEntity
  8
Bot_X
100
AcDbLine
 10
8.725628797579686
 20
32.08052777521056
 30
0.0
 11
11.794472218784056
 21
35.149371203014596
 31
0.0
  0
LINE
  5
129
330
17
100
AcDbEntity
  8
Bot_X
 62
9
100
AcDbLine
 10
11.624999996999998
 20
34.875000002
 30
0.0
 11
13.5
 21
33.000000004
 31
0.0
  0
LINE
  5
12A
330
17
100
AcDbEntity
  8
Bot_X
100
AcDbLine
 10
11.794472218784056
 20
35.149371203014596
 30
0.0
 11
13.774371201920314
 21
33.16947222628944
 31
0.0
  0
LINE
  5
12B
330
17
100
AcDbEntity
  8
Bot_X
 62
9
100
AcDbLine
 10
13.5
 20
33.000000004
 30
0.0
 11
10.8750000025
 21
30.374999999499998
 31
0.0
  0
LINE
  5
12C
330
17
100
AcDbEntity
  8
Bot_X
100
AcDbLine
 10
13.774371201920314
 20
33.16947222628944
 30
0.0
 11
10.705527780715945
 21
30.10062879848541
 31
0.0
  0
LINE
  5
12D
330
17
100
AcDbEntity
  8
Bot_X
 62
9
100
AcDbLine
 10
10.8750000025
 20
30.374999999499998
 30
0.0
 11
8.999999999499998
 21
32.2499999975
 31
0.0
  0
LINE
  5
12E
330
17
100
AcDbEntity
  8
Bot_X
100
AcDbLine
 10
10.705527780715945
 20
30.10062879848541
 30
0.0
 11
8.725628797579686
 21
32.08052777521056
 31
0.0
  0
TEXT
  5
12F
330
17
100
AcDbEntity
  8
TEXT_Bot_X
100
AcDbText
 10
11.249999999749999
 20
32.62500000075
 30
0.0
 40
0.2
  1
6 шаг 200
 11
11.249999999749999
 21
32.62500000075
 31
0.0
100
AcDbText
  0
TEXT
  5
130
330
17
100
AcDbEntity
  8
TEXT_Bot_X
100
AcDbText
 10
11.249999999749999
 20
32.37500000075
 30
0.0
 40
0.2
  1
(4340x2800)
 11
11.249999999749999
 21
32.37500000075
 31
0.0
100
AcDbText
  0
LINE
  5
131
330
17
100
AcDbEntity
  8
Bot_X
 62
9
100
AcDbLine
 10
4.125
 20
1.8749999949999996
 30
0.0
 11
6.749999999
 21
4.500000001
 31
0.0
  0
LINE
  5
132
330
17
100
AcDbEntity
  8
Bot_X
100
AcDbLine
 10
3.822344526544512
 20
1.6772435032508142
 30
0.0
 11
6.947756490211479
 21
4.802655473366595
 31
0.0
  0
LINE
  5
133
330
17
100
AcDbEntity
  8
Bot_X
 62
9
100
AcDbLine
 10
6.749999999
 20
4.500000001
 30
0.0
 11
8.625
 21
2.625000005000001
 31
0.0
  0
LINE
  5
134
330
17
100
AcDbEntity
  8
Bot_X
100
AcDbLine
 10
6.947756490211479
 20
4.802655473366595
 30
0.0
 11
8.92765547345549
 21
2.8227564967491863
 31
0.0
  0
LINE
  5
135
330
17
100
AcDbEntity
  8
Bot_X
 62
9
100
AcDbLine
 10
8.625
 20
2.625000005000001
 30
0.0
 11
6.000000000999999
 21
-9.999998618729595e-10
 31
0.0
  0
LINE
  5
136
330
17
100
AcDbEntity
  8
Bot_X
100
AcDbLine
 10
8.92765547345549
 20
2.8227564967491863
 30
0.0
 11
5.802243509788522
 21
-0.3026554733665951
 31
0.0
  0
LINE
  5
137
330
17
100
AcDbEntity
  8
Bot_X
 62
9
100
AcDbLine
 10
6.000000000999999
 20
-9.999998618729595e-10
 30
0.0
 11
4.125
 21
1.8749999949999996
 31
0.0
  0
LINE
  5
138
330
17
100
AcDbEntity
  8
Bot_X
100
AcDbLine
 10
5.802243509788522
 20
-0.3026554733665951
 30
0.0
 11
3.822344526544512
 21
1.6772435032508142
 31
0.0
  0
TEXT
  5
139
330
17
100
AcDbEntity
  8
TEXT_Bot_X
100
AcDbText
 10
6.375
 20
2.25
 30
0.0
 40
0.2
  1
8 шаг 200
 11
6.375
 21
2.25
 31
0.0
100
AcDbText
  0
TEXT
  5
13A
330
17
100
AcDbEntity
  8
TEXT_Bot_X
100
AcDbText
 10
6.375
 20
2.0
 30
0.0
 40
0.2
  1
(4420x2800)
 11
6.375
 21
2.0
 31
0.0
100
AcDbText
  0
LINE
  5
13B
330
17
100
AcDbEntity
  8
Bot_X
 62
9
100
AcDbLine
 10
1.5
 20
0.0
 30
0.0
 11
1.5
 21
4.5
 31
0.0
  0
LINE
  5
13C
330
17
100
AcDbEntity
  8
Bot_X
100
AcDbLine
 10
1.1499999999999995
 20
-0.04999999999999982
 30
0.0
 11
1.1499999999999995
 21
4.55
 31
0.0
  0
LINE
  5
13D
330
17
100
AcDbEntity
  8
Bot_X
 62
9
100
AcDbLine
 10
1.5
 20
4.5
 30
0.0
 11
6.0
 21
4.5
 31
0.0
  0
LINE
  5
13E
330
17
100
AcDbEntity
  8
Bot_X
100
AcDbLine
 10
1.1499999999999995
 20
4.55
 30
0.0
 11
6.35
 21
4.55
 31
0.0
  0
LINE
  5
13F
330
17
100
AcDbEntity
  8
Bot_X
 62
9
100
AcDbLine
 10
6.0
 20
4.5
 30
0.0
 11
6.0
 21
0.0
 31
0.0
  0
LINE
  5
140
330
17
100
AcDbEntity
  8
Bot_X
100
AcDbLine
 10
6.35
 20
4.55
 30
0.0
 11
6.35
 21
-0.04999999999999982
 31
0.0
  0
LINE
  5
141
330
17
100
AcDbEntity
  8
Bot_X
 62
9
100
AcDbLine
 10
6.0
 20
0.0
 30
0.0
 11
1.5
 21
0.0
 31
0.0
  0
LINE
  5
142
330
17
100
AcDbEntity
  8
Bot_X
100
AcDbLine
 10
6.35
 20
-0.04999999999999982
 30
0.0
 11
1.1499999999999995
 21
-0.04999999999999982
 31
0.0
  0
TEXT
  5
143
330
17
100
AcDbEntity
  8
TEXT_Bot_X
100
AcDbText
 10
3.75
 20
2.25
 30
0.0
 40
0.2
  1
8 шаг 200
 11
3.75
 21
2.25
 31
0.0
100
AcDbText
  0
TEXT
  5
144
330
17
100
AcDbEntity
  8
TEXT_Bot_X
100
AcDbText
 10
3.75
 20
2.0
 30
0.0
 40
0.2
  1
(5200x4600)
 11
3.75
 21
2.0
 31
0.0
100
AcDbText
  0
LINE
  5
145
330
17
100
AcDbEntity
  8
Bot_X
 62
9
100
AcDbLine
 10
4.875
 20
27.374999997
 30
0.0
 11
6.374999999500001
 21
28.8750000005
 31
0.0
  0
LINE
  5
146
330
17
100
AcDbEntity
  8
Bot_X
100
AcDbLine
 10
4.649542754899796
 20
27.155913598345702
 30
0.0
 11
6.594086397843787
 21
29.100457244149542
 31
0.0
  0
LINE
  5
147
330
17
100
AcDbEntity
  8
Bot_X
 62
9
100
AcDbLine
 10
6.374999999500001
 20
28.8750000005
 30
0.0
 11
7.500000001000001
 21
27.750000002
 31
0.0
  0
LINE
  5
148
330
17
100
AcDbEntity
  8
Bot_X
100
AcDbLine
 10
6.594086397843787
 20
29.100457244149542
 30
0.0
 11
7.725457246100207
 21
27.969086400654316
 31
0.0
  0
LINE
  5
149
330
17
100
AcDbEntity
  8
Bot_X
 62
9
100
AcDbLine
 10
7.500000001000001
 20
27.750000002
 30
0.0
 11
6.0000000015
 21
26.249999998499998
 31
0.0
  0
LINE
  5
14A
330
17
100
AcDbEntity
  8
Bot_X
100
AcDbLine
 10
7.725457246100207
 20
27.969086400654316
 30
0.0
 11
5.780913603156213
 21
26.024542754850465
 31
0.0
  0
LINE
  5
14B
330
17
100
AcDbEntity
  8
Bot_X
 62
9
100
AcDbLine
 10
6.0000000015
 20
26.249999998499998
 30
0.0
 11
4.875
 21
27.374999997
 31
0.0
  0
LINE
  5
14C
330
17
100
AcDbEntity
  8
Bot_X
100
AcDbLine
 10
5.780913603156213
 20
26.024542754850465
 30
0.0
 11
4.649542754899796
 21
27.155913598345702
 31
0.0
  0
TEXT
  5
14D
330
17
100
AcDbEntity
  8
TEXT_Bot_X
100
AcDbText
 10
6.1875000005
 20
27.5624999995
 30
0.0
 40
0.2
  1
6 шаг 200
 11
6.1875000005
 21
27.5624999995
 31
0.0
100
AcDbText
  0
TEXT
  5
14E
330
17
100
AcDbEntity
  8
TEXT_Bot_X
100
AcDbText
 10
6.1875000005
 20
27.3124999995
 30
0.0
 40
0.2
  1
(2750x1600)
 11
6.1875000005
 21
27.3124999995
 31
0.0
100
AcDbText
  0
LINE
  5
14F
330
17
100
AcDbEntity
  8
Bot_X
 62
9
100
AcDbLine
 10
1.5
 20
27.0
 30
0.0
 11
1.5
 21
29.25
 31
0.0
  0
LINE
  5
150
330
17
100
AcDbEntity
  8
Bot_X
100
AcDbLine
 10
1.1900000000000008
 20
26.925
 30
0.0
 11
1.1900000000000008
 21
29.325
 31
0.0
  0
LINE
  5
151
330
17
100
AcDbEntity
  8
Bot_X
 62
9
100
AcDbLine
 10
1.5
 20
29.25
 30
0.0
 11
6.0
 21
29.25
 31
0.0
  0
LINE
  5
152
330
17
100
AcDbEntity
  8
Bot_X
100
AcDbLine
 10
1.1900000000000008
 20
29.325
 30
0.0
 11
6.3100000000000005
 21
29.325
 31
0.0
  0
LINE
  5
153
330
17
100
AcDbEntity
  8
Bot_X
 62
9
100
AcDbLine
 10
6.0
 20
29.25
 30
0.0
 11
6.0
 21
27.0
 31
0.0
  0
LINE
  5
154
330
17
100
AcDbEntity
  8
Bot_X
100
AcDbLine
 10
6.3100000000000005
 20
29.325
 30
0.0
 11
6.3100000000000005
 21
26.925
 31
0.0
  0
LINE
  5
155
330
17
100
AcDbEntity
  8
Bot_X
 62
9
100
AcDbLine
 10
6.0
 20
27.0
 30
0.0
 11
1.5
 21
27.0
 31
0.0
  0
LINE
  5
156
330
17
100
AcDbEntity
  8
Bot_X
100
AcDbLine
 10
6.3100000000000005
 20
26.925
 30
0.0
 11
1.1900000000000008
 21
26.925
 31
0.0
  0
TEXT
  5
157
330
17
100
AcDbEntity
  8
TEXT_Bot_X
100
AcDbText
 10
3.75
 20
28.125
 30
0.0
 40
0.2
  1
6 шаг 200
 11
3.75
 21
28.125
 31
0.0
100
AcDbText
  0
TEXT
  5
158
330
17
100
AcDbEntity
  8
TEXT_Bot_X
100
AcDbText
 10
3.75
 20
27.875
 30
0.0
 40
0.2
  1
(5120x2400)
 11
3.75
 21
27.875
 31
0.0
100
AcDbText
  0
LINE
  5
15B
330
17
100
AcDbEntity
  8
Bot_Y
 62
9
100
AcDbLine
 10
11.249999999999998
 20
13.499999998999998
 30
0.0
 11
11.9999999995
 21
14.2500000005
 31
0.0
  0
LINE
  5
15C
330
17
100
AcDbEntity
  8
Bot_Y
100
AcDbLine
 10
11.002862737290314
 20
13.302126803070104
 30
0.0
 11
12.197873195232837
 21
14.497137262351417
 31
0.0
  0
LINE
  5
15D
330
17
100
AcDbEntity
  8
Bot_Y
 62
9
100
AcDbLine
 10
11.9999999995
 20
14.2500000005
 30
0.0
 11
12.375
 21
13.875000001
 31
0.0
  0
LINE
  5
15E
330
17
100
AcDbEntity
  8
Bot_Y
100
AcDbLine
 10
12.197873195232837
 20
14.497137262351417
 30
0.0
 11
12.622137262709689
 21
14.072873196929892
 31
0.0
  0
LINE
  5
15F
330
17
100
AcDbEntity
  8
Bot_Y
 62
9
100
AcDbLine
 10
12.375
 20
13.875000001
 30
0.0
 11
11.625000000499998
 21
13.124999999499998
 31
0.0
  0
LINE
  5
160
330
17
100
AcDbEntity
  8
Bot_Y
100
AcDbLine
 10
12.622137262709689
 20
14.072873196929892
 30
0.0
 11
11.427126804767163
 21
12.877862737648579
 31
0.0
  0
LINE
  5
161
330
17
100
AcDbEntity
  8
Bot_Y
 62
9
100
AcDbLine
 10
11.625000000499998
 20
13.124999999499998
 30
0.0
 11
11.249999999999998
 21
13.499999998999998
 31
0.0
  0
LINE
  5
162
330
17
100
AcDbEntity
  8
Bot_Y
100
AcDbLine
 10
11.427126804767163
 20
12.877862737648579
 30
0.0
 11
11.002862737290314
 21
13.302126803070104
 31
0.0
  0
TEXT
  5
163
330
17
100
AcDbEntity
  8
TEXT_Bot_Y
100
AcDbText
 10
11.8125
 20
13.687499999999998
 30
0.0
 40
0.2
  1
6 шаг 200
 11
11.8125
 21
13.687499999999998
 31
0.0
100
AcDbText
  0
TEXT
  5
164
330
17
100
AcDbEntity
  8
TEXT_Bot_Y
100
AcDbText
 10
11.8125
 20
13.437499999999998
 30
0.0
 40
0.2
  1
(1690x600)
 11
11.8125
 21
13.437499999999998
 31
0.0
100
AcDbText
  0
LINE
  5
165
330
17
100
AcDbEntity
  8
Bot_Y
 62
9
100
AcDbLine
 10
11.25
 20
19.499999999
 30
0.0
 11
11.9999999995
 21
20.2500000005
 31
0.0
  0
LINE
  5
166
330
17
100
AcDbEntity
  8
Bot_Y
100
AcDbLine
 10
11.002862737290314
 20
19.30212680307011
 30
0.0
 11
12.197873195232834
 21
20.497137262351416
 31
0.0
  0
LINE
  5
167
330
17
100
AcDbEntity
  8
Bot_Y
 62
9
100
AcDbLine
 10
11.9999999995
 20
20.2500000005
 30
0.0
 11
12.375
 21
19.875000001
 31
0.0
  0
LINE
  5
168
330
17
100
AcDbEntity
  8
Bot_Y
100
AcDbLine
 10
12.197873195232834
 20
20.497137262351416
 30
0.0
 11
12.622137262709686
 21
20.072873196929894
 31
0.0
  0
LINE
  5
169
330
17
100
AcDbEntity
  8
Bot_Y
 62
9
100
AcDbLine
 10
12.375
 20
19.875000001
 30
0.0
 11
11.6250000005
 21
19.124999999499998
 31
0.0
  0
LINE
  5
16A
330
17
100
AcDbEntity
  8
Bot_Y
100
AcDbLine
 10
12.622137262709686
 20
20.072873196929894
 30
0.0
 11
11.427126804767163
 21
18.87786273764858
 31
0.0
  0
LINE
  5
16B
330
17
100
AcDbEntity
  8
Bot_Y
 62
9
100
AcDbLine
 10
11.6250000005
 20
19.124999999499998
 30
0.0
 11
11.25
 21
19.499999999
 31
0.0
  0
LINE
  5
16C
330
17
100
AcDbEntity
  8
Bot_Y
100
AcDbLine
 10
11.427126804767163
 20
18.87786273764858
 30
0.0
 11
11.002862737290314
 21
19.30212680307011
 31
0.0
  0
TEXT
  5
16D
330
17
100
AcDbEntity
  8
TEXT_Bot_Y
100
AcDbText
 10
11.8125
 20
19.6875
 30
0.0
 40
0.2
  1
6 шаг 200
 11
11.8125
 21
19.6875
 31
0.0
100
AcDbText
  0
TEXT
  5
16E
330
17
100
AcDbEntity
  8
TEXT_Bot_Y
100
AcDbText
 10
11.8125
 20
19.4375
 30
0.0
 40
0.2
  1
(1690x600)
 11
11.8125
 21
19.4375
 31
0.0
100
AcDbText
  0
LINE
  5
16F
330
17
100
AcDbEntity
  8
Bot_Y
 62
9
100
AcDbLine
 10
9.749999999999998
 20
24.749999999
 30
0.0
 11
11.624999998
 21
26.625000002
 31
0.0
  0
LINE
  5
170
330
17
100
AcDbEntity
  8
Bot_Y
100
AcDbLine
 10
9.478580815068465
 20
24.577108944271025
 30
0.0
 11
11.797891052321972
 21
26.896419186653414
 31
0.0
  0
LINE
  5
171
330
17
100
AcDbEntity
  8
Bot_Y
 62
9
100
AcDbLine
 10
11.624999998
 20
26.625000002
 30
0.0
 11
12.3750000005
 21
25.8750000015
 31
0.0
  0
LINE
  5
172
330
17
100
AcDbEntity
  8
Bot_Y
100
AcDbLine
 10
11.797891052321972
 20
26.896419186653414
 30
0.0
 11
12.646419185431537
 21
26.047891056228966
 31
0.0
  0
LINE
  5
173
330
17
100
AcDbEntity
  8
Bot_Y
 62
9
100
AcDbLine
 10
12.3750000005
 20
25.8750000015
 30
0.0
 11
10.500000002499998
 21
23.999999998499998
 31
0.0
  0
LINE
  5
174
330
17
100
AcDbEntity
  8
Bot_Y
100
AcDbLine
 10
12.646419185431537
 20
26.047891056228966
 30
0.0
 11
10.327108948178028
 21
23.72858081384658
 31
0.0
  0
LINE
  5
175
330
17
100
AcDbEntity
  8
Bot_Y
 62
9
100
AcDbLine
 10
10.500000002499998
 20
23.999999998499998
 30
0.0
 11
9.749999999999998
 21
24.749999999
 31
0.0
  0
LINE
  5
176
330
17
100
AcDbEntity
  8
Bot_Y
100
AcDbLine
 10
10.327108948178028
 20
23.72858081384658
 30
0.0
 11
9.478580815068465
 21
24.577108944271025
 31
0.0
  0
TEXT
  5
177
330
17
100
AcDbEntity
  8
TEXT_Bot_Y
100
AcDbText
 10
11.062500000250001
 20
25.31250000025
 30
0.0
 40
0.2
  1
6 шаг 200
 11
11.062500000250001
 21
25.31250000025
 31
0.0
100
AcDbText
  0
TEXT
  5
178
330
17
100
AcDbEntity
  8
TEXT_Bot_Y
100
AcDbText
 10
11.062500000250001
 20
25.06250000025
 30
0.0
 40
0.2
  1
(3280x1200)
 11
11.062500000250001
 21
25.06250000025
 31
0.0
100
AcDbText
  0
LINE
  5
179
330
17
100
AcDbEntity
  8
Bot_Y
 62
9
100
AcDbLine
 10
4.125
 20
2.624999995
 30
0.0
 11
11.249999992
 21
9.750000006
 31
0.0
  0
LINE
  5
17A
330
17
100
AcDbEntity
  8
Bot_Y
100
AcDbLine
 10
3.788389632938043
 20
2.3932885893921854
 30
0.0
 11
11.481711397043643
 21
10.086610373108215
 31
0.0
  0
LINE
  5
17B
330
17
100
AcDbEntity
  8
Bot_Y
 62
9
100
AcDbLine
 10
11.249999992
 20
9.750000006
 30
0.0
 11
13.125
 21
7.875000003
 31
0.0
  0
LINE
  5
17C
330
17
100
AcDbEntity
  8
Bot_Y
100
AcDbLine
 10
11.481711397043643
 20
10.086610373108215
 30
0.0
 11
13.461610367061956
 21
8.106711408607815
 31
0.0
  0
LINE
  5
17D
330
17
100
AcDbEntity
  8
Bot_Y
 62
9
100
AcDbLine
 10
13.125
 20
7.875000003
 30
0.0
 11
6.000000008000001
 21
0.7499999919999998
 31
0.0
  0
LINE
  5
17E
330
17
100
AcDbEntity
  8
Bot_Y
100
AcDbLine
 10
13.461610367061956
 20
8.106711408607815
 30
0.0
 11
5.768288602956357
 21
0.4133896248917861
 31
0.0
  0
LINE
  5
17F
330
17
100
AcDbEntity
  8
Bot_Y
 62
9
100
AcDbLine
 10
6.000000008000001
 20
0.7499999919999998
 30
0.0
 11
4.125
 21
2.624999995
 31
0.0
  0
LINE
  5
180
330
17
100
AcDbEntity
  8
Bot_Y
100
AcDbLine
 10
5.768288602956357
 20
0.4133896248917861
 30
0.0
 11
3.788389632938043
 21
2.3932885893921854
 31
0.0
  0
TEXT
  5
181
330
17
100
AcDbEntity
  8
TEXT_Bot_Y
100
AcDbText
 10
8.625
 20
5.249999999
 30
0.0
 40
0.2
  1
10 шаг 200
 11
8.625
 21
5.249999999
 31
0.0
100
AcDbText
  0
TEXT
  5
182
330
17
100
AcDbEntity
  8
TEXT_Bot_Y
100
AcDbText
 10
8.625
 20
4.999999999
 30
0.0
 40
0.2
  1
(10880x2800)
 11
8.625
 21
4.999999999
 31
0.0
100
AcDbText
  0
LINE
  5
183
330
17
100
AcDbEntity
  8
Bot_Y
 62
9
100
AcDbLine
 10
0.0
 20
0.75
 30
0.0
 11
0.0
 21
4.5
 31
0.0
  0
LINE
  5
184
330
17
100
AcDbEntity
  8
Bot_Y
100
AcDbLine
 10
-0.3500000000000001
 20
0.7250000000000002
 30
0.0
 11
-0.3500000000000001
 21
4.525
 31
0.0
  0
LINE
  5
185
330
17
100
AcDbEntity
  8
Bot_Y
 62
9
100
AcDbLine
 10
0.0
 20
4.5
 30
0.0
 11
6.0
 21
4.5
 31
0.0
  0
LINE
  5
186
330
17
100
AcDbEntity
  8
Bot_Y
100
AcDbLine
 10
-0.3500000000000001
 20
4.525
 30
0.0
 11
6.35
 21
4.525
 31
0.0
  0
LINE
  5
187
330
17
100
AcDbEntity
  8
Bot_Y
 62
9
100
AcDbLine
 10
6.0
 20
4.5
 30
0.0
 11
6.0
 21
0.75
 31
0.0
  0
LINE
  5
188
330
17
100
AcDbEntity
  8
Bot_Y
100
AcDbLine
 10
6.35
 20
4.525
 30
0.0
 11
6.35
 21
0.7250000000000002
 31
0.0
  0
LINE
  5
189
330
17
100
AcDbEntity
  8
Bot_Y
 62
9
100
AcDbLine
 10
6.0
 20
0.75
 30
0.0
 11
0.0
 21
0.75
 31
0.0
  0
LINE
  5
18A
330
17
100
AcDbEntity
  8
Bot_Y
100
AcDbLine
 10
6.35
 20
0.7250000000000002
 30
0.0
 11
-0.3500000000000001
 21
0.7250000000000002
 31
0.0
  0
TEXT
  5
18B
330
17
100
AcDbEntity
  8
TEXT_Bot_Y
100
AcDbText
 10
3.0
 20
2.625
 30
0.0
 40
0.2
  1
8 шаг 100
 11
3.0
 21
2.625
 31
0.0
100
AcDbText
  0
TEXT
  5
18C
330
17
100
AcDbEntity
  8
TEXT_Bot_Y
100
AcDbText
 10
3.0
 20
2.375
 30
0.0
 40
0.2
  1
(6700x3800)
 11
3.0
 21
2.375
 31
0.0
100
AcDbText
  0
LINE
  5
18D
330
17
100
AcDbEntity
  8
Bot_Y
 62
9
100
AcDbLine
 10
5.625
 20
9.374999999
 30
0.0
 11
6.749999999000001
 21
10.500000001
 31
0.0
  0
LINE
  5
18E
330
17
100
AcDbEntity
  8
Bot_Y
100
AcDbLine
 10
5.377979441157406
 20
9.177243505174145
 30
0.0
 11
6.947756492695108
 21
10.747020559314
 31
0.0
  0
LINE
  5
18F
330
17
100
AcDbEntity
  8
Bot_Y
 62
9
100
AcDbLine
 10
6.749999999000001
 20
10.500000001
 30
0.0
 11
7.125
 21
10.125000001
 31
0.0
  0
LINE
  5
190
330
17
100
AcDbEntity
  8
Bot_Y
100
AcDbLine
 10
6.947756492695108
 20
10.747020559314
 30
0.0
 11
7.372020558842594
 21
10.322756494825855
 31
0.0
  0
LINE
  5
191
330
17
100
AcDbEntity
  8
Bot_Y
 62
9
100
AcDbLine
 10
7.125
 20
10.125000001
 30
0.0
 11
6.000000000999999
 21
8.999999999
 31
0.0
  0
LINE
  5
192
330
17
100
AcDbEntity
  8
Bot_Y
100
AcDbLine
 10
7.372020558842594
 20
10.322756494825855
 30
0.0
 11
5.802243507304894
 21
8.752979440686001
 31
0.0
  0
LINE
  5
193
330
17
100
AcDbEntity
  8
Bot_Y
 62
9
100
AcDbLine
 10
6.000000000999999
 20
8.999999999
 30
0.0
 11
5.625
 21
9.374999999
 31
0.0
  0
LINE
  5
194
330
17
100
AcDbEntity
  8
Bot_Y
100
AcDbLine
 10
5.802243507304894
 20
8.752979440686001
 30
0.0
 11
5.377979441157406
 21
9.177243505174145
 31
0.0
  0
TEXT
  5
195
330
17
100
AcDbEntity
  8
TEXT_Bot_Y
100
AcDbText
 10
6.375
 20
9.75
 30
0.0
 40
0.2
  1
6 шаг 200
 11
6.375
 21
9.75
 31
0.0
100
AcDbText
  0
TEXT
  5
196
330
17
100
AcDbEntity
  8
TEXT_Bot_Y
100
AcDbText
 10
6.375
 20
9.5
 30
0.0
 40
0.2
  1
(2220x600)
 11
6.375
 21
9.5
 31
0.0
100
AcDbText
  0
LINE
  5
197
330
17
100
AcDbEntity
  8
Bot_Y
 62
9
100
AcDbLine
 10
0.0
 20
8.25
 30
0.0
 11
0.0
 21
10.5
 31
0.0
  0
LINE
  5
198
330
17
100
AcDbEntity
  8
Bot_Y
100
AcDbLine
 10
-0.3099999999999996
 20
8.175
 30
0.0
 11
-0.3099999999999996
 21
10.575
 31
0.0
  0
LINE
  5
199
330
17
100
AcDbEntity
  8
Bot_Y
 62
9
100
AcDbLine
 10
0.0
 20
10.5
 30
0.0
 11
6.0
 21
10.5
 31
0.0
  0
LINE
  5
19A
330
17
100
AcDbEntity
  8
Bot_Y
100
AcDbLine
 10
-0.3099999999999996
 20
10.575
 30
0.0
 11
6.31
 21
10.575
 31
0.0
  0
LINE
  5
19B
330
17
100
AcDbEntity
  8
Bot_Y
 62
9
100
AcDbLine
 10
6.0
 20
10.5
 30
0.0
 11
6.0
 21
8.25
 31
0.0
  0
LINE
  5
19C
330
17
100
AcDbEntity
  8
Bot_Y
100
AcDbLine
 10
6.31
 20
10.575
 30
0.0
 11
6.31
 21
8.175
 31
0.0
  0
LINE
  5
19D
330
17
100
AcDbEntity
  8
Bot_Y
 62
9
100
AcDbLine
 10
6.0
 20
8.25
 30
0.0
 11
0.0
 21
8.25
 31
0.0
  0
LINE
  5
19E
330
17
100
AcDbEntity
  8
Bot_Y
100
AcDbLine
 10
6.31
 20
8.175
 30
0.0
 11
-0.3099999999999996
 21
8.175
 31
0.0
  0
TEXT
  5
19F
330
17
100
AcDbEntity
  8
TEXT_Bot_Y
100
AcDbText
 10
3.0
 20
9.375
 30
0.0
 40
0.2
  1
6 шаг 200
 11
3.0
 21
9.375
 31
0.0
100
AcDbText
  0
TEXT
  5
1A0
330
17
100
AcDbEntity
  8
TEXT_Bot_Y
100
AcDbText
 10
3.0
 20
9.125
 30
0.0
 40
0.2
  1
(6620x2400)
 11
3.0
 21
9.125
 31
0.0
100
AcDbText
  0
LINE
  5
1A1
330
17
100
AcDbEntity
  8
Bot_Y
 62
9
100
AcDbLine
 10
5.625
 20
15.374999999
 30
0.0
 11
6.749999999000002
 21
16.500000001
 31
0.0
  0
LINE
  5
1A2
330
17
100
AcDbEntity
  8
Bot_Y
100
AcDbLine
 10
5.3779794411574064
 20
15.177243505174147
 30
0.0
 11
6.947756492695109
 21
16.747020559314
 31
0.0
  0
LINE
  5
1A3
330
17
100
AcDbEntity
  8
Bot_Y
 62
9
100
AcDbLine
 10
6.749999999000002
 20
16.500000001
 30
0.0
 11
7.125000000000001
 21
16.125000001
 31
0.0
  0
LINE
  5
1A4
330
17
100
AcDbEntity
  8
Bot_Y
100
AcDbLine
 10
6.947756492695109
 20
16.747020559314
 30
0.0
 11
7.372020558842597
 21
16.322756494825853
 31
0.0
  0
LINE
  5
1A5
330
17
100
AcDbEntity
  8
Bot_Y
 62
9
100
AcDbLine
 10
7.125000000000001
 20
16.125000001
 30
0.0
 11
6.000000000999999
 21
14.999999999
 31
0.0
  0
LINE
  5
1A6
330
17
100
AcDbEntity
  8
Bot_Y
100
AcDbLine
 10
7.372020558842597
 20
16.322756494825853
 30
0.0
 11
5.802243507304895
 21
14.752979440686001
 31
0.0
  0
LINE
  5
1A7
330
17
100
AcDbEntity
  8
Bot_Y
 62
9
100
AcDbLine
 10
6.000000000999999
 20
14.999999999
 30
0.0
 11
5.625
 21
15.374999999
 31
0.0
  0
LINE
  5
1A8
330
17
100
AcDbEntity
  8
Bot_Y
100
AcDbLine
 10
5.802243507304895
 20
14.752979440686001
 30
0.0
 11
5.3779794411574064
 21
15.177243505174147
 31
0.0
  0
TEXT
  5
1A9
330
17
100
AcDbEntity
  8
TEXT_Bot_Y
100
AcDbText
 10
6.375000000000001
 20
15.75
 30
0.0
 40
0.2
  1
6 шаг 200
 11
6.375000000000001
 21
15.75
 31
0.0
100
AcDbText
  0
TEXT
  5
1AA
330
17
100
AcDbEntity
  8
TEXT_Bot_Y
100
AcDbText
 10
6.375000000000001
 20
15.5
 30
0.0
 40
0.2
  1
(2220x600)
 11
6.375000000000001
 21
15.5
 31
0.0
100
AcDbText
  0
LINE
  5
1AB
330
17
100
AcDbEntity
  8
Bot_Y
 62
9
100
AcDbLine
 10
0.0
 20
14.25
 30
0.0
 11
0.0
 21
16.5
 31
0.0
  0
LINE
  5
1AC
330
17
100
AcDbEntity
  8
Bot_Y
100
AcDbLine
 10
-0.3099999999999996
 20
14.175
 30
0.0
 11
-0.3099999999999996
 21
16.575000000000003
 31
0.0
  0
LINE
  5
1AD
330
17
100
AcDbEntity
  8
Bot_Y
 62
9
100
AcDbLine
 10
0.0
 20
16.5
 30
0.0
 11
6.0
 21
16.5
 31
0.0
  0
LINE
  5
1AE
330
17
100
AcDbEntity
  8
Bot_Y
100
AcDbLine
 10
-0.3099999999999996
 20
16.575000000000003
 30
0.0
 11
6.31
 21
16.575000000000003
 31
0.0
  0
LINE
  5
1AF
330
17
100
AcDbEntity
  8
Bot_Y
 62
9
100
AcDbLine
 10
6.0
 20
16.5
 30
0.0
 11
6.0
 21
14.25
 31
0.0
  0
LINE
  5
1B0
330
17
100
AcDbEntity
  8
Bot_Y
100
AcDbLine
 10
6.31
 20
16.575000000000003
 30
0.0
 11
6.31
 21
14.175
 31
0.0
  0
LINE
  5
1B1
330
17
100
AcDbEntity
  8
Bot_Y
 62
9
100
AcDbLine
 10
6.0
 20
14.25
 30
0.0
 11
0.0
 21
14.25
 31
0.0
  0
LINE
  5
1B2
330
17
100
AcDbEntity
  8
Bot_Y
100
AcDbLine
 10
6.31
 20
14.175
 30
0.0
 11
-0.3099999999999996
 21
14.175
 31
0.0
  0
TEXT
  5
1B3
330
17
100
AcDbEntity
  8
TEXT_Bot_Y
100
AcDbText
 10
3.0
 20
15.375
 30
0.0
 40
0.2
  1
6 шаг 200
 11
3.0
 21
15.375
 31
0.0
100
AcDbText
  0
TEXT
  5
1B4
330
17
100
AcDbEntity
  8
TEXT_Bot_Y
100
AcDbText
 10
3.0
 20
15.125
 30
0.0
 40
0.2
  1
(6620x2400)
 11
3.0
 21
15.125
 31
0.0
100
AcDbText
  0
LINE
  5
1B5
330
17
100
AcDbEntity
  8
Bot_Y
 62
9
100
AcDbLine
 10
5.624999999999998
 20
21.374999999
 30
0.0
 11
6.3749999995
 21
22.125000000500002
 31
0.0
  0
LINE
  5
1B6
330
17
100
AcDbEntity
  8
Bot_Y
100
AcDbLine
 10
5.377862737290315
 20
21.17712680307011
 30
0.0
 11
6.5728731952328365
 21
22.372137262351423
 31
0.0
  0
LINE
  5
1B7
330
17
100
AcDbEntity
  8
Bot_Y
 62
9
100
AcDbLine
 10
6.3749999995
 20
22.125000000500002
 30
0.0
 11
6.750000000000001
 21
21.750000001
 31
0.0
  0
LINE
  5
1B8
330
17
100
AcDbEntity
  8
Bot_Y
100
AcDbLine
 10
6.5728731952328365
 20
22.372137262351423
 30
0.0
 11
6.997137262709685
 21
21.947873196929894
 31
0.0
  0
LINE
  5
1B9
330
17
100
AcDbEntity
  8
Bot_Y
 62
9
100
AcDbLine
 10
6.750000000000001
 20
21.750000001
 30
0.0
 11
6.000000000499999
 21
20.999999999499998
 31
0.0
  0
LINE
  5
1BA
330
17
100
AcDbEntity
  8
Bot_Y
100
AcDbLine
 10
6.997137262709685
 20
21.947873196929894
 30
0.0
 11
5.802126804767162
 21
20.75286273764858
 31
0.0
  0
LINE
  5
1BB
330
17
100
AcDbEntity
  8
Bot_Y
 62
9
100
AcDbLine
 10
6.000000000499999
 20
20.999999999499998
 30
0.0
 11
5.624999999999998
 21
21.374999999
 31
0.0
  0
LINE
  5
1BC
330
17
100
AcDbEntity
  8
Bot_Y
100
AcDbLine
 10
5.802126804767162
 20
20.75286273764858
 30
0.0
 11
5.377862737290315
 21
21.17712680307011
 31
0.0
  0
TEXT
  5
1BD
330
17
100
AcDbEntity
  8
TEXT_Bot_Y
100
AcDbText
 10
6.187499999999999
 20
21.5625
 30
0.0
 40
0.2
  1
6 шаг 200
 11
6.187499999999999
 21
21.5625
 31
0.0
100
AcDbText
  0
TEXT
  5
1BE
330
17
100
AcDbEntity
  8
TEXT_Bot_Y
100
AcDbText
 10
6.187499999999999
 20
21.3125
 30
0.0
 40
0.2
  1
(1690x600)
 11
6.187499999999999
 21
21.3125
 31
0.0
100
AcDbText
  0
LINE
  5
1BF
330
17
100
AcDbEntity
  8
Bot_Y
 62
9
100
AcDbLine
 10
0.0
 20
20.25
 30
0.0
 11
0.0
 21
21.75
 31
0.0
  0
LINE
  5
1C0
330
17
100
AcDbEntity
  8
Bot_Y
100
AcDbLine
 10
-0.3099999999999996
 20
20.200000000000003
 30
0.0
 11
-0.3099999999999996
 21
21.8
 31
0.0
  0
LINE
  5
1C1
330
17
100
AcDbEntity
  8
Bot_Y
 62
9
100
AcDbLine
 10
0.0
 20
21.75
 30
0.0
 11
6.0
 21
21.75
 31
0.0
  0
LINE
  5
1C2
330
17
100
AcDbEntity
  8
Bot_Y
100
AcDbLine
 10
-0.3099999999999996
 20
21.8
 30
0.0
 11
6.31
 21
21.8
 31
0.0
  0
LINE
  5
1C3
330
17
100
AcDbEntity
  8
Bot_Y
 62
9
100
AcDbLine
 10
6.0
 20
21.75
 30
0.0
 11
6.0
 21
20.25
 31
0.0
  0
LINE
  5
1C4
330
17
100
AcDbEntity
  8
Bot_Y
100
AcDbLine
 10
6.31
 20
21.8
 30
0.0
 11
6.31
 21
20.200000000000003
 31
0.0
  0
LINE
  5
1C5
330
17
100
AcDbEntity
  8
Bot_Y
 62
9
100
AcDbLine
 10
6.0
 20
20.25
 30
0.0
 11
0.0
 21
20.25
 31
0.0
  0
LINE
  5
1C6
330
17
100
AcDbEntity
  8
Bot_Y
100
AcDbLine
 10
6.31
 20
20.200000000000003
 30
0.0
 11
-0.3099999999999996
 21
20.200000000000003
 31
0.0
  0
TEXT
  5
1C7
330
17
100
AcDbEntity
  8
TEXT_Bot_Y
100
AcDbText
 10
3.0
 20
21.0
 30
0.0
 40
0.2
  1
6 шаг 200
 11
3.0
 21
21.0
 31
0.0
100
AcDbText
  0
TEXT
  5
1C8
330
17
100
AcDbEntity
  8
TEXT_Bot_Y
100
AcDbText
 10
3.0
 20
20.75
 30
0.0
 40
0.2
  1
(6620x1600)
 11
3.0
 21
20.75
 31
0.0
100
AcDbText
  0
LINE
  5
1C9
330
17
100
AcDbEntity
  8
Bot_Y
 62
9
100
AcDbLine
 10
4.5
 20
27.749999996
 30
0.0
 11
11.624999992500001
 21
34.8750000075
 31
0.0
  0
LINE
  5
1CA
330
17
100
AcDbEntity
  8
Bot_Y
100
AcDbLine
 10
4.184836242452003
 20
27.496841983321044
 30
0.0
 11
11.878158005012246
 21
35.19016376426336
 31
0.0
  0
LINE
  5
1CB
330
17
100
AcDbEntity
  8
Bot_Y
 62
9
100
AcDbLine
 10
11.624999992500001
 20
34.8750000075
 30
0.0
 11
14.250000000500002
 21
32.2500000065
 31
0.0
  0
LINE
  5
1CC
330
17
100
AcDbEntity
  8
Bot_Y
100
AcDbLine
 10
11.878158005012246
 20
35.19016376426336
 30
0.0
 11
14.565163758048
 21
32.50315801917897
 31
0.0
  0
LINE
  5
1CD
330
17
100
AcDbEntity
  8
Bot_Y
 62
9
100
AcDbLine
 10
14.250000000500002
 20
32.2500000065
 30
0.0
 11
7.125000008000001
 21
25.124999995
 31
0.0
  0
LINE
  5
1CE
330
17
100
AcDbEntity
  8
Bot_Y
100
AcDbLine
 10
14.565163758048
 20
32.50315801917897
 30
0.0
 11
6.871841995487758
 21
24.80983623823664
 31
0.0
  0
LINE
  5
1CF
330
17
100
AcDbEntity
  8
Bot_Y
 62
9
100
AcDbLine
 10
7.125000008000001
 20
25.124999995
 30
0.0
 11
4.5
 21
27.749999996
 31
0.0
  0
LINE
  5
1D0
330
17
100
AcDbEntity
  8
Bot_Y
100
AcDbLine
 10
6.871841995487758
 20
24.80983623823664
 30
0.0
 11
4.184836242452003
 21
27.496841983321044
 31
0.0
  0
TEXT
  5
1D1
330
17
100
AcDbEntity
  8
TEXT_Bot_Y
100
AcDbText
 10
9.375000000250001
 20
30.00000000125
 30
0.0
 40
0.2
  1
10 шаг 200
 11
9.375000000250001
 21
30.00000000125
 31
0.0
100
AcDbText
  0
TEXT
  5
1D2
330
17
100
AcDbEntity
  8
TEXT_Bot_Y
100
AcDbText
 10
9.375000000250001
 20
29.75000000125
 30
0.0
 40
0.2
  1
(10880x3800)
 11
9.375000000250001
 21
29.75000000125
 31
0.0
100
AcDbText
  0
LINE
  5
1D3
330
17
100
AcDbEntity
  8
Bot_Y
 62
9
100
AcDbLine
 10
0.0
 20
25.5
 30
0.0
 11
0.0
 21
29.25
 31
0.0
  0
LINE
  5
1D4
330
17
100
AcDbEntity
  8
Bot_Y
100
AcDbLine
 10
-0.3500000000000001
 20
25.475
 30
0.0
 11
-0.3500000000000001
 21
29.275000000000002
 31
0.0
  0
LINE
  5
1D5
330
17
100
AcDbEntity
  8
Bot_Y
 62
9
100
AcDbLine
 10
0.0
 20
29.25
 30
0.0
 11
6.0
 21
29.25
 31
0.0
  0
LINE
  5
1D6
330
17
100
AcDbEntity
  8
Bot_Y
100
AcDbLine
 10
-0.3500000000000001
 20
29.275000000000002
 30
0.0
 11
6.35
 21
29.275000000000002
 31
0.0
  0
LINE
  5
1D7
330
17
100
AcDbEntity
  8
Bot_Y
 62
9
100
AcDbLine
 10
6.0
 20
29.25
 30
0.0
 11
6.0
 21
25.5
 31
0.0
  0
LINE
  5
1D8
330
17
100
AcDbEntity
  8
Bot_Y
100
AcDbLine
 10
6.35
 20
29.275000000000002
 30
0.0
 11
6.35
 21
25.475
 31
0.0
  0
LINE
  5
1D9
330
17
100
AcDbEntity
  8
Bot_Y
 62
9
100
AcDbLine
 10
6.0
 20
25.5
 30
0.0
 11
0.0
 21
25.5
 31
0.0
  0
LINE
  5
1DA
330
17
100
AcDbEntity
  8
Bot_Y
100
AcDbLine
 10
6.35
 20
25.475
 30
0.0
 11
-0.3500000000000001
 21
25.475
 31
0.0
  0
TEXT
  5
1DB
330
17
100
AcDbEntity
  8
TEXT_Bot_Y
100
AcDbText
 10
3.0
 20
27.375
 30
0.0
 40
0.2
  1
8 шаг 100
 11
3.0
 21
27.375
 31
0.0
100
AcDbText
  0
TEXT
  5
1DC
330
17
100
AcDbEntity
  8
TEXT_Bot_Y
100
AcDbText
 10
3.0
 20
27.125
 30
0.0
 40
0.2
  1
(6700x3800)
 11
3.0
 21
27.125
 31
0.0
100
AcDbText
  0
ENDSEC
  0
SECTION
  2
OBJECTS
  0
DICTIONARY
  5
A
330
0
100
AcDbDictionary
281
1
  3
ACAD_COLOR
350
B
  3
ACAD_GROUP
350
C
  3
ACAD_LAYOUT
350
D
  3
ACAD_MATERIAL
350
E
  3
ACAD_MLEADERSTYLE
350
F
  3
ACAD_MLINESTYLE
350
10
  3
ACAD_PLOTSETTINGS
350
11
  3
ACAD_PLOTSTYLENAME
350
12
  3
ACAD_SCALELIST
350
14
  3
ACAD_TABLESTYLE
350
15
  3
ACAD_VISUALSTYLE
350
16
  3
EZDXF_META
350
2D
  0
DICTIONARY
  5
B
330
A
100
AcDbDictionary
281
1
  0
DICTIONARY
  5
C
330
A
100
AcDbDictionary
281
1
  0
DICTIONARY
  5
D
330
A
100
AcDbDictionary
281
1
  3
Model
350
1A
  3
Layout1
350
1E
  0
DICTIONARY
  5
E
330
A
100
AcDbDictionary
281
1
  3
ByBlock
350
1F
  3
ByLayer
350
20
  3
Global
350
21
  0
DICTIONARY
  5
F
330
A
100
AcDbDictionary
281
1
  3
Standard
350
2C
  0
DICTIONARY
  5
10
330
A
100
AcDbDictionary
281
1
  3
Standard
350
22
  0
DICTIONARY
  5
11
330
A
100
AcDbDictionary
281
1
  0
ACDBDICTIONARYWDFLT
  5
12
330
A
100
AcDbDictionary
281
1
  3
Normal
350
13
100
AcDbDictionaryWithDefault
340
13
  0
ACDBPLACEHOLDER
  5
13
330
12
  0
DICTIONARY
  5
14
330
A
100
AcDbDictionary
281
1
  0
DICTIONARY
  5
15
330
A
100
AcDbDictionary
281
1
  0
DICTIONARY
  5
16
330
A
100
AcDbDictionary
281
1
  0
LAYOUT
  5
1A
330
D
100
AcDbPlotSettings
  1

  2
Adobe PDF
  4
A3
  6

 40
7.5
 41
20.0
 42
7.5
 43
20.0
 44
420.0
 45
297.0
 46
0.0
 47
0.0
 48
0.0
 49
0.0
140
0.0
141
0.0
142
1.0
143
1.0
 70
1024
 72
1
 73
1
 74
5
  7

 75
16
 76
0
 77
2
 78
300
147
1.0
148
0.0
149
0.0
100
AcDbLayout
  1
Model
 70
1
 71
0
 10
0.0
 20
0.0
 11
420.0
 21
297.0
 12
0.0
 22
0.0
 32
0.0
 14
1e+20
 24
1e+20
 34
1e+20
 15
-1e+20
 25
-1e+20
 35
-1e+20
146
0.0
 13
0.0
 23
0.0
 33
0.0
 16
1.0
 26
0.0
 36
0.0
 17
0.0
 27
1.0
 37
0.0
 76
1
330
17
  0
LAYOUT
  5
1E
330
D
100
AcDbPlotSettings
  1

  2
Adobe PDF
  4
A3
  6

 40
7.5
 41
20.0
 42
7.5
 43
20.0
 44
420.0
 45
297.0
 46
0.0
 47
0.0
 48
0.0
 49
0.0
140
0.0
141
0.0
142
1.0
143
1.0
 70
0
 72
1
 73
1
 74
5
  7

 75
16
 76
0
 77
2
 78
300
147
1.0
148
0.0
149
0.0
100
AcDbLayout
  1
Layout1
 70
1
 71
1
 10
0.0
 20
0.0
 11
420.0
 21
297.0
 12
0.0
 22
0.0
 32
0.0
 14
1e+20
 24
1e+20
 34
1e+20
 15
-1e+20
 25
-1e+20
 35
-1e+20
146
0.0
 13
0.0
 23
0.0
 33
0.0
 16
1.0
 26
0.0
 36
0.0
 17
0.0
 27
1.0
 37
0.0
 76
1
330
1B
  0
MATERIAL
  5
1F
102
{ACAD_REACTORS
330
E
102
}
330
E
100
AcDbMaterial
  1
ByBlock
  2

 70
0
 40
1.0
 71
1
 41
1.0
 91
-1023410177
 42
1.0
 72
1
  3

 73
1
 74
1
 75
1
 44
0.5
 73
0
 45
1.0
 46
1.0
 77
1
  4

 78
1
 79
1
170
1
 48
1.0
171
1
  6

172
1
173
1
174
1
140
1.0
141
1.0
175
1
  7

176
1
177
1
178
1
143
1.0
179
1
  8

270
1
271
1
272
1
145
1.0
146
1.0
273
1
  9

274
1
275
1
276
1
 42
1.0
 72
1
  3

 73
1
 74
1
 75
1
 94
63
  0
MATERIAL
  5
20
102
{ACAD_REACTORS
330
E
102
}
330
E
100
AcDbMaterial
  1
ByLayer
  2

 70
0
 40
1.0
 71
1
 41
1.0
 91
-1023410177
 42
1.0
 72
1
  3

 73
1
 74
1
 75
1
 44
0.5
 73
0
 45
1.0
 46
1.0
 77
1
  4

 78
1
 79
1
170
1
 48
1.0
171
1
  6

172
1
173
1
174
1
140
1.0
141
1.0
175
1
  7

176
1
177
1
178
1
143
1.0
179
1
  8

270
1
271
1
272
1
145
1.0
146
1.0
273
1
  9

274
1
275
1
276
1
 42
1.0
 72
1
  3

 73
1
 74
1
 75
1
 94
63
  0
MATERIAL
  5
21
102
{ACAD_REACTORS
330
E
102
}
330
E
100
AcDbMaterial
  1
Global
  2

 70
0
 40
1.0
 71
1
 41
1.0
 91
-1023410177
 42
1.0
 72
1
  3

 73
1
 74
1
 75
1
 44
0.5
 73
0
 45
1.0
 46
1.0
 77
1
  4

 78
1
 79
1
170
1
 48
1.0
171
1
  6

172
1
173
1
174
1
140
1.0
141
1.0
175
1
  7

176
1
177
1
178
1
143
1.0
179
1
  8

270
1
271
1
272
1
145
1.0
146
1.0
273
1
  9

274
1
275
1
276
1
 42
1.0
 72
1
  3

 73
1
 74
1
 75
1
 94
63
  0
MLINESTYLE
  5
22
102
{ACAD_REACTORS
330
10
102
}
330
10
100
AcDbMlineStyle
  2
Standard
 70
0
  3

 62
256
 51
90.0
 52
90.0
 71
2
 49
0.5
 62
256
  6
BYLAYER
 49
-0.5
 62
256
  6
BYLAYER
  0
MLEADERSTYLE
  5
2C
102
{ACAD_REACTORS
330
F
102
}
330
F
100
AcDbMLeaderStyle
179
2
170
2
171
1
172
0
 90
2
 40
0.0
 41
0.0
173
1
 91
-1056964608
 92
-2
290
1
 42
2.0
291
1
 43
8.0
  3
Standard
 44
4.0
300

342
29
174
1
175
1
176
0
178
1
 93
-1056964608
 45
4.0
292
0
297
0
 46
4.0
 94
-1056964608
 47
1.0
 49
1.0
140
1.0
294
1
141
0.0
177
0
142
1.0
295
0
296
0
143
3.75
271
0
272
9
273
9
  0
DICTIONARY
  5
2D
330
A
100
AcDbDictionary
280
1
281
1
  3
CREATED_BY_EZDXF
350
2E
  3
WRITTEN_BY_EZDXF
350
1E3
  0
DICTIONARYVAR
  5
2E
330
2D
100
DictionaryVariables
280
0
  1
0.18.1 @ 2022-09-30T10:37:08.054704+00:00
  0
DICTIONARYVAR
  5
1E3
330
2D
100
DictionaryVariables
280
0
  1
0.18.1 @ 2022-09-30T10:37:08.122906+00:00
  0
ENDSEC
  0
EOF
