  0
SECTION
  2
HEADER
  9
$ACADVER
  1
AC1027
  9
$ACADMAINTVER
 70
105
  9
$DWGCODEPAGE
  3
ANSI_1252
  9
$LASTSAVEDBY
  1
ezdxf
  9
$REQUIREDVERSIONS
160
0
  9
$INSBASE
 10
0.0
 20
0.0
 30
0.0
  9
$EXTMIN
 10
1e+20
 20
1e+20
 30
1e+20
  9
$EXTMAX
 10
-1e+20
 20
-1e+20
 30
-1e+20
  9
$LIMMIN
 10
0.0
 20
0.0
  9
$LIMMAX
 10
420.0
 20
297.0
  9
$ORTHOMODE
 70
0
  9
$REGENMODE
 70
1
  9
$FILLMODE
 70
1
  9
$QTEXTMODE
 70
0
  9
$MIRRTEXT
 70
1
  9
$LTSCALE
 40
1.0
  9
$ATTMODE
 70
1
  9
$TEXTSIZE
 40
2.5
  9
$TRACEWID
 40
1.0
  9
$TEXTSTYLE
  7
Standard
  9
$CLAYER
  8
0
  9
$CELTYPE
  6
ByLayer
  9
$CECOLOR
 62
256
  9
$CELTSCALE
 40
1.0
  9
$DISPSILH
 70
0
  9
$DIMSCALE
 40
1.0
  9
$DIMASZ
 40
2.5
  9
$DIMEXO
 40
0.625
  9
$DIMDLI
 40
3.75
  9
$DIMRND
 40
0.0
  9
$DIMDLE
 40
0.0
  9
$DIMEXE
 40
1.25
  9
$DIMTP
 40
0.0
  9
$DIMTM
 40
0.0
  9
$DIMTXT
 40
2.5
  9
$DIMCEN
 40
2.5
  9
$DIMTSZ
 40
0.0
  9
$DIMTOL
 70
0
  9
$DIMLIM
 70
0
  9
$DIMTIH
 70
0
  9
$DIMTOH
 70
0
  9
$DIMSE1
 70
0
  9
$DIMSE2
 70
0
  9
$DIMTAD
 70
1
  9
$DIMZIN
 70
8
  9
$DIMBLK
  1

  9
$DIMASO
 70
1
  9
$DIMSHO
 70
1
  9
$DIMPOST
  1

  9
$DIMAPOST
  1

  9
$DIMALT
 70
0
  9
$DIMALTD
 70
3
  9
$DIMALTF
 40
0.03937007874
  9
$DIMLFAC
 40
1.0
  9
$DIMTOFL
 70
1
  9
$DIMTVP
 40
0.0
  9
$DIMTIX
 70
0
  9
$DIMSOXD
 70
0
  9
$DIMSAH
 70
0
  9
$DIMBLK1
  1

  9
$DIMBLK2
  1

  9
$DIMSTYLE
  2
ISO-25
  9
$DIMCLRD
 70
0
  9
$DIMCLRE
 70
0
  9
$DIMCLRT
 70
0
  9
$DIMTFAC
 40
1.0
  9
$DIMGAP
 40
0.625
  9
$DIMJUST
 70
0
  9
$DIMSD1
 70
0
  9
$DIMSD2
 70
0
  9
$DIMTOLJ
 70
0
  9
$DIMTZIN
 70
8
  9
$DIMALTZ
 70
0
  9
$DIMALTTZ
 70
0
  9
$DIMUPT
 70
0
  9
$DIMDEC
 70
2
  9
$DIMTDEC
 70
2
  9
$DIMALTU
 70
2
  9
$DIMALTTD
 70
3
  9
$DIMTXSTY
  7
Standard
  9
$DIMAUNIT
 70
0
  9
$DIMADEC
 70
0
  9
$DIMALTRND
 40
0.0
  9
$DIMAZIN
 70
0
  9
$DIMDSEP
 70
44
  9
$DIMATFIT
 70
3
  9
$DIMFRAC
 70
0
  9
$DIMLDRBLK
  1

  9
$DIMLUNIT
 70
2
  9
$DIMLWD
 70
-2
  9
$DIMLWE
 70
-2
  9
$DIMTMOVE
 70
0
  9
$DIMFXL
 40
1.0
  9
$DIMFXLON
 70
0
  9
$DIMJOGANG
 40
0.785398163397
  9
$DIMTFILL
 70
0
  9
$DIMTFILLCLR
 70
0
  9
$DIMARCSYM
 70
0
  9
$DIMLTYPE
  6

  9
$DIMLTEX1
  6

  9
$DIMLTEX2
  6

  9
$DIMTXTDIRECTION
 70
0
  9
$LUNITS
 70
2
  9
$LUPREC
 70
4
  9
$SKETCHINC
 40
1.0
  9
$FILLETRAD
 40
10.0
  9
$AUNITS
 70
0
  9
$AUPREC
 70
2
  9
$MENU
  1
.
  9
$ELEVATION
 40
0.0
  9
$PELEVATION
 40
0.0
  9
$THICKNESS
 40
0.0
  9
$LIMCHECK
 70
0
  9
$CHAMFERA
 40
0.0
  9
$CHAMFERB
 40
0.0
  9
$CHAMFERC
 40
0.0
  9
$CHAMFERD
 40
0.0
  9
$SKPOLY
 70
0
  9
$TDCREATE
 40
2459853.566550926
  9
$TDUCREATE
 40
2458532.153996898
  9
$TDUPDATE
 40
2459853.566550926
  9
$TDUUPDATE
 40
2458532.1544311
  9
$TDINDWG
 40
0.0
  9
$TDUSRTIMER
 40
0.0
  9
$USRTIMER
 70
1
  9
$ANGBASE
 50
0.0
  9
$ANGDIR
 70
0
  9
$PDMODE
 70
0
  9
$PDSIZE
 40
0.0
  9
$PLINEWID
 40
0.0
  9
$SPLFRAME
 70
0
  9
$SPLINETYPE
 70
6
  9
$SPLINESEGS
 70
8
  9
$HANDSEED
  5
B8
  9
$SURFTAB1
 70
6
  9
$SURFTAB2
 70
6
  9
$SURFTYPE
 70
6
  9
$SURFU
 70
6
  9
$SURFV
 70
6
  9
$UCSBASE
  2

  9
$UCSNAME
  2

  9
$UCSORG
 10
0.0
 20
0.0
 30
0.0
  9
$UCSXDIR
 10
1.0
 20
0.0
 30
0.0
  9
$UCSYDIR
 10
0.0
 20
1.0
 30
0.0
  9
$UCSORTHOREF
  2

  9
$UCSORTHOVIEW
 70
0
  9
$UCSORGTOP
 10
0.0
 20
0.0
 30
0.0
  9
$UCSORGBOTTOM
 10
0.0
 20
0.0
 30
0.0
  9
$UCSORGLEFT
 10
0.0
 20
0.0
 30
0.0
  9
$UCSORGRIGHT
 10
0.0
 20
0.0
 30
0.0
  9
$UCSORGFRONT
 10
0.0
 20
0.0
 30
0.0
  9
$UCSORGBACK
 10
0.0
 20
0.0
 30
0.0
  9
$PUCSBASE
  2

  9
$PUCSNAME
  2

  9
$PUCSORG
 10
0.0
 20
0.0
 30
0.0
  9
$PUCSXDIR
 10
1.0
 20
0.0
 30
0.0
  9
$PUCSYDIR
 10
0.0
 20
1.0
 30
0.0
  9
$PUCSORTHOREF
  2

  9
$PUCSORTHOVIEW
 70
0
  9
$PUCSORGTOP
 10
0.0
 20
0.0
 30
0.0
  9
$PUCSORGBOTTOM
 10
0.0
 20
0.0
 30
0.0
  9
$PUCSORGLEFT
 10
0.0
 20
0.0
 30
0.0
  9
$PUCSORGRIGHT
 10
0.0
 20
0.0
 30
0.0
  9
$PUCSORGFRONT
 10
0.0
 20
0.0
 30
0.0
  9
$PUCSORGBACK
 10
0.0
 20
0.0
 30
0.0
  9
$USERI1
 70
0
  9
$USERI2
 70
0
  9
$USERI3
 70
0
  9
$USERI4
 70
0
  9
$USERI5
 70
0
  9
$USERR1
 40
0.0
  9
$USERR2
 40
0.0
  9
$USERR3
 40
0.0
  9
$USERR4
 40
0.0
  9
$USERR5
 40
0.0
  9
$WORLDVIEW
 70
1
  9
$SHADEDGE
 70
3
  9
$SHADEDIF
 70
70
  9
$TILEMODE
 70
1
  9
$MAXACTVP
 70
64
  9
$PINSBASE
 10
0.0
 20
0.0
 30
0.0
  9
$PLIMCHECK
 70
0
  9
$PEXTMIN
 10
1e+20
 20
1e+20
 30
1e+20
  9
$PEXTMAX
 10
-1e+20
 20
-1e+20
 30
-1e+20
  9
$PLIMMIN
 10
0.0
 20
0.0
  9
$PLIMMAX
 10
420.0
 20
297.0
  9
$UNITMODE
 70
0
  9
$VISRETAIN
 70
1
  9
$PLINEGEN
 70
0
  9
$PSLTSCALE
 70
1
  9
$TREEDEPTH
 70
3020
  9
$CMLSTYLE
  2
Standard
  9
$CMLJUST
 70
0
  9
$CMLSCALE
 40
20.0
  9
$PROXYGRAPHICS
 70
1
  9
$MEASUREMENT
 70
1
  9
$CELWEIGHT
370
-1
  9
$ENDCAPS
280
0
  9
$JOINSTYLE
280
0
  9
$LWDISPLAY
290
0
  9
$INSUNITS
 70
6
  9
$HYPERLINKBASE
  1

  9
$STYLESHEET
  1

  9
$XEDIT
290
1
  9
$CEPSNTYPE
380
0
  9
$PSTYLEMODE
290
1
  9
$FINGERPRINTGUID
  2
{98A678CF-B8E4-4CA3-8039-212BFB7715EE}
  9
$VERSIONGUID
  2
{A36C50B9-013A-4EBA-A344-F1BC4FC30C22}
  9
$EXTNAMES
290
1
  9
$PSVPSCALE
 40
0.0
  9
$OLESTARTUP
290
0
  9
$SORTENTS
280
127
  9
$INDEXCTL
280
0
  9
$HIDETEXT
280
1
  9
$XCLIPFRAME
280
0
  9
$HALOGAP
280
0
  9
$OBSCOLOR
 70
257
  9
$OBSLTYPE
280
0
  9
$INTERSECTIONDISPLAY
280
0
  9
$INTERSECTIONCOLOR
 70
257
  9
$DIMASSOC
280
2
  9
$PROJECTNAME
  1

  9
$CAMERADISPLAY
290
0
  9
$LENSLENGTH
 40
50.0
  9
$CAMERAHEIGHT
 40
0.0
  9
$STEPSPERSEC
 40
24.0
  9
$STEPSIZE
 40
100.0
  9
$3DDWFPREC
 40
2.0
  9
$PSOLWIDTH
 40
0.005
  9
$PSOLHEIGHT
 40
0.08
  9
$LOFTANG1
 40
1.570796326795
  9
$LOFTANG2
 40
1.570796326795
  9
$LOFTMAG1
 40
0.0
  9
$LOFTMAG2
 40
0.0
  9
$LOFTPARAM
 70
7
  9
$LOFTNORMALS
280
1
  9
$LATITUDE
 40
37.795
  9
$LONGITUDE
 40
-122.394
  9
$NORTHDIRECTION
 40
0.0
  9
$TIMEZONE
 70
-8000
  9
$LIGHTGLYPHDISPLAY
280
1
  9
$TILEMODELIGHTSYNCH
280
1
  9
$CMATERIAL
347
20
  9
$SOLIDHIST
280
0
  9
$SHOWHIST
280
1
  9
$DWFFRAME
280
2
  9
$DGNFRAME
280
2
  9
$REALWORLDSCALE
290
1
  9
$INTERFERECOLOR
 62
256
  9
$CSHADOW
280
0
  9
$SHADOWPLANELOCATION
 40
0.0
  0
ENDSEC
  0
SECTION
  2
CLASSES
  0
CLASS
  1
ACDBDICTIONARYWDFLT
  2
AcDbDictionaryWithDefault
  3
ObjectDBX Classes
 90
0
 91
0
280
0
281
0
  0
CLASS
  1
SUN
  2
AcDbSun
  3
SCENEOE
 90
1153
 91
0
280
0
281
0
  0
CLASS
  1
VISUALSTYLE
  2
AcDbVisualStyle
  3
ObjectDBX Classes
 90
4095
 91
0
280
0
281
0
  0
CLASS
  1
MATERIAL
  2
AcDbMaterial
  3
ObjectDBX Classes
 90
1153
 91
0
280
0
281
0
  0
CLASS
  1
SCALE
  2
AcDbScale
  3
ObjectDBX Classes
 90
1153
 91
0
280
0
281
0
  0
CLASS
  1
TABLESTYLE
  2
AcDbTableStyle
  3
ObjectDBX Classes
 90
4095
 91
0
280
0
281
0
  0
CLASS
  1
MLEADERSTYLE
  2
AcDbMLeaderStyle
  3
ACDB_MLEADERSTYLE_CLASS
 90
4095
 91
0
280
0
281
0
  0
CLASS
  1
DICTIONARYVAR
  2
AcDbDictionaryVar
  3
ObjectDBX Classes
 90
0
 91
0
280
0
281
0
  0
CLASS
  1
CELLSTYLEMAP
  2
AcDbCellStyleMap
  3
ObjectDBX Classes
 90
1152
 91
0
280
0
281
0
  0
CLASS
  1
MENTALRAYRENDERSETTINGS
  2
AcDbMentalRayRenderSettings
  3
SCENEOE
 90
1024
 91
0
280
0
281
0
  0
CLASS
  1
ACDBDETAILVIEWSTYLE
  2
AcDbDetailViewStyle
  3
ObjectDBX Classes
 90
1025
 91
0
280
0
281
0
  0
CLASS
  1
ACDBSECTIONVIEWSTYLE
  2
AcDbSectionViewStyle
  3
ObjectDBX Classes
 90
1025
 91
0
280
0
281
0
  0
CLASS
  1
RASTERVARIABLES
  2
AcDbRasterVariables
  3
ISM
 90
0
 91
0
280
0
281
0
  0
CLASS
  1
ACDBPLACEHOLDER
  2
AcDbPlaceHolder
  3
ObjectDBX Classes
 90
0
 91
0
280
0
281
0
  0
CLASS
  1
LAYOUT
  2
AcDbLayout
  3
ObjectDBX Classes
 90
0
 91
0
280
0
281
0
  0
ENDSEC
  0
SECTION
  2
TABLES
  0
TABLE
  2
VPORT
  5
8
330
0
100
AcDbSymbolTable
 70
1
  0
VPORT
  5
23
330
8
100
AcDbSymbolTableRecord
100
AcDbViewportTableRecord
  2
*Active
 70
0
 10
0.0
 20
0.0
 11
1.0
 21
1.0
 12
0.0
 22
0.0
 13
0.0
 23
0.0
 14
0.5
 24
0.5
 15
0.5
 25
0.5
 16
0.0
 26
0.0
 36
1.0
 17
0.0
 27
0.0
 37
0.0
 40
1000.0
 41
1.34
 42
50.0
 43
0.0
 44
0.0
 50
0.0
 51
0.0
 71
0
 72
1000
 73
1
 74
3
 75
0
 76
0
 77
0
 78
0
281
0
 65
0
146
0.0
  0
ENDTAB
  0
TABLE
  2
LTYPE
  5
2
330
0
100
AcDbSymbolTable
 70
3
  0
LTYPE
  5
24
330
2
100
AcDbSymbolTableRecord
100
AcDbLinetypeTableRecord
  2
ByBlock
 70
0
  3

 72
65
 73
0
 40
0.0
  0
LTYPE
  5
25
330
2
100
AcDbSymbolTableRecord
100
AcDbLinetypeTableRecord
  2
ByLayer
 70
0
  3

 72
65
 73
0
 40
0.0
  0
LTYPE
  5
26
330
2
100
AcDbSymbolTableRecord
100
AcDbLinetypeTableRecord
  2
Continuous
 70
0
  3

 72
65
 73
0
 40
0.0
  0
ENDTAB
  0
TABLE
  2
LAYER
  5
1
330
0
100
AcDbSymbolTable
 70
15
  0
LAYER
  5
27
330
1
100
AcDbSymbolTableRecord
100
AcDbLayerTableRecord
  2
0
 70
0
 62
7
  6
Continuous
370
-3
390
13
347
21
  0
LAYER
  5
28
330
1
100
AcDbSymbolTableRecord
100
AcDbLayerTableRecord
  2
Defpoints
 70
0
 62
7
  6
Continuous
290
0
370
-3
390
13
347
21
  0
LAYER
  5
2F
330
1
100
AcDbSymbolTableRecord
100
AcDbLayerTableRecord
  2
TEXT
 70
0
 62
104
  6
Continuous
370
-3
390
13
347
21
  0
LAYER
  5
31
330
1
100
AcDbSymbolTableRecord
100
AcDbLayerTableRecord
  2
Top_X
 70
0
 62
165
  6
Continuous
370
-3
390
13
347
21
  0
LAYER
  5
32
330
1
100
AcDbSymbolTableRecord
100
AcDbLayerTableRecord
  2
TEXT_Top_X
 70
0
 62
224
  6
Continuous
370
-3
390
13
347
21
  0
LAYER
  5
5B
330
1
100
AcDbSymbolTableRecord
100
AcDbLayerTableRecord
  2
Top_Y
 70
0
 62
72
  6
Continuous
370
-3
390
13
347
21
  0
LAYER
  5
5C
330
1
100
AcDbSymbolTableRecord
100
AcDbLayerTableRecord
  2
TEXT_Top_Y
 70
0
 62
129
  6
Continuous
370
-3
390
13
347
21
  0
LAYER
  5
85
330
1
100
AcDbSymbolTableRecord
100
AcDbLayerTableRecord
  2
Bot_X
 70
0
 62
87
  6
Continuous
370
-3
390
13
347
21
  0
LAYER
  5
86
330
1
100
AcDbSymbolTableRecord
100
AcDbLayerTableRecord
  2
TEXT_Bot_X
 70
0
 62
52
  6
Continuous
370
-3
390
13
347
21
  0
LAYER
  5
9B
330
1
100
AcDbSymbolTableRecord
100
AcDbLayerTableRecord
  2
Bot_Y
 70
0
 62
103
  6
Continuous
370
-3
390
13
347
21
  0
LAYER
  5
9C
330
1
100
AcDbSymbolTableRecord
100
AcDbLayerTableRecord
  2
TEXT_Bot_Y
 70
0
 62
71
  6
Continuous
370
-3
390
13
347
21
  0
LAYER
  5
B1
330
1
100
AcDbSymbolTableRecord
100
AcDbLayerTableRecord
  2
Lat_X
 70
0
 62
144
  6
Continuous
370
-3
390
13
347
21
  0
LAYER
  5
B2
330
1
100
AcDbSymbolTableRecord
100
AcDbLayerTableRecord
  2
TEXT_Lat_X
 70
0
 62
75
  6
Continuous
370
-3
390
13
347
21
  0
LAYER
  5
B3
330
1
100
AcDbSymbolTableRecord
100
AcDbLayerTableRecord
  2
Lat_Y
 70
0
 62
23
  6
Continuous
370
-3
390
13
347
21
  0
LAYER
  5
B4
330
1
100
AcDbSymbolTableRecord
100
AcDbLayerTableRecord
  2
TEXT_Lat_Y
 70
0
 62
66
  6
Continuous
370
-3
390
13
347
21
  0
ENDTAB
  0
TABLE
  2
STYLE
  5
5
330
0
100
AcDbSymbolTable
 70
1
  0
STYLE
  5
29
330
5
100
AcDbSymbolTableRecord
100
AcDbTextStyleTableRecord
  2
Standard
 70
0
 40
0.0
 41
1.0
 50
0.0
 71
0
 42
2.5
  3
txt
  4

  0
ENDTAB
  0
TABLE
  2
VIEW
  5
7
330
0
100
AcDbSymbolTable
 70
0
  0
ENDTAB
  0
TABLE
  2
UCS
  5
6
330
0
100
AcDbSymbolTable
 70
0
  0
ENDTAB
  0
TABLE
  2
APPID
  5
3
330
0
100
AcDbSymbolTable
 70
3
  0
APPID
  5
2A
330
3
100
AcDbSymbolTableRecord
100
AcDbRegAppTableRecord
  2
ACAD
 70
0
  0
APPID
  5
B5
330
3
100
AcDbSymbolTableRecord
100
AcDbRegAppTableRecord
  2
HATCHBACKGROUNDCOLOR
 70
0
  0
APPID
  5
B6
330
3
100
AcDbSymbolTableRecord
100
AcDbRegAppTableRecord
  2
EZDXF
 70
0
  0
ENDTAB
  0
TABLE
  2
DIMSTYLE
  5
4
330
0
100
AcDbSymbolTable
 70
1
100
AcDbDimStyleTable
  0
DIMSTYLE
105
2B
330
4
100
AcDbSymbolTableRecord
100
AcDbDimStyleTableRecord
  2
Standard
 70
0
 40
1.0
 41
2.5
 42
0.625
 43
3.75
 44
1.25
 45
0.0
 46
0.0
 47
0.0
 48
0.0
 49
2.5
140
2.5
141
2.5
142
0.0
143
0.03937007874
144
1.0
145
0.0
146
1.0
147
0.625
148
0.0
 69
0
 70
0
 71
0
 72
0
 73
0
 74
0
 75
0
 76
0
 77
1
 78
8
 79
3
170
0
171
3
172
1
173
0
174
0
175
0
176
0
177
0
178
0
179
2
271
2
272
2
273
2
274
3
275
0
276
0
277
2
278
44
279
0
280
0
281
0
282
0
283
0
284
8
285
0
286
0
288
0
289
3
290
0
371
-2
372
-2
  0
ENDTAB
  0
TABLE
  2
BLOCK_RECORD
  5
9
330
0
100
AcDbSymbolTable
 70
2
  0
BLOCK_RECORD
  5
17
330
9
100
AcDbSymbolTableRecord
100
AcDbBlockTableRecord
  2
*Model_Space
340
1A
 70
0
280
1
281
0
  0
BLOCK_RECORD
  5
1B
330
9
100
AcDbSymbolTableRecord
100
AcDbBlockTableRecord
  2
*Paper_Space
340
1E
 70
0
280
1
281
0
  0
ENDTAB
  0
ENDSEC
  0
SECTION
  2
BLOCKS
  0
BLOCK
  5
18
330
17
100
AcDbEntity
  8
0
100
AcDbBlockBegin
  2
*Model_Space
 70
0
 10
0.0
 20
0.0
 30
0.0
  3
*Model_Space
  1

  0
ENDBLK
  5
19
330
17
100
AcDbEntity
  8
0
100
AcDbBlockEnd
  0
BLOCK
  5
1C
330
1B
100
AcDbEntity
  8
0
100
AcDbBlockBegin
  2
*Paper_Space
 70
0
 10
0.0
 20
0.0
 30
0.0
  3
*Paper_Space
  1

  0
ENDBLK
  5
1D
330
1B
100
AcDbEntity
  8
0
100
AcDbBlockEnd
  0
ENDSEC
  0
SECTION
  2
ENTITIES
  0
TEXT
  5
30
330
17
100
AcDbEntity
  8
TEXT
100
AcDbText
 10
0.0
 20
0.0
 30
0.0
 40
0.2
  1
Фон 6 шаг 200
 11
0.0
 21
0.0
 31
0.0
100
AcDbText
  0
LINE
  5
33
330
17
100
AcDbEntity
  8
Top_X
 62
9
100
AcDbLine
 10
0.9999999995000001
 20
0.5
 30
0.0
 11
3.0
 21
0.5000000019999998
 31
0.0
  0
LINE
  5
34
330
17
100
AcDbEntity
  8
Top_X
100
AcDbLine
 10
0.900000000655
 20
0.9049999906200009
 30
0.0
 11
3.099999999555
 21
0.9049999989
 31
0.0
  0
LINE
  5
35
330
17
100
AcDbEntity
  8
Top_X
 62
9
100
AcDbLine
 10
3.0
 20
0.5000000019999998
 30
0.0
 11
3.0000000005
 21
5.0000020912938845e-19
 31
0.0
  0
LINE
  5
36
330
17
100
AcDbEntity
  8
Top_X
100
AcDbLine
 10
3.099999999555
 20
0.9049999989
 30
0.0
 11
3.099999999345
 21
-0.40499999062000064
 31
0.0
  0
LINE
  5
37
330
17
100
AcDbEntity
  8
Top_X
 62
9
100
AcDbLine
 10
3.0000000005
 20
5.0000020912938845e-19
 30
0.0
 11
1.0
 21
-1.9999998438562116e-09
 31
0.0
  0
LINE
  5
38
330
17
100
AcDbEntity
  8
Top_X
100
AcDbLine
 10
3.099999999345
 20
-0.40499999062000064
 30
0.0
 11
0.900000000445
 21
-0.4049999988999999
 31
0.0
  0
LINE
  5
39
330
17
100
AcDbEntity
  8
Top_X
 62
9
100
AcDbLine
 10
1.0
 20
-1.9999998438562116e-09
 30
0.0
 11
0.9999999995000001
 21
0.5
 31
0.0
  0
LINE
  5
3A
330
17
100
AcDbEntity
  8
Top_X
100
AcDbLine
 10
0.900000000445
 20
-0.4049999988999999
 30
0.0
 11
0.900000000655
 21
0.9049999906200009
 31
0.0
  0
TEXT
  5
3B
330
17
100
AcDbEntity
  8
TEXT_Top_X
100
AcDbText
 10
2.0
 20
0.24999999999999997
 30
0.0
 40
0.2
  1
10 шаг 200
 11
2.0
 21
0.24999999999999997
 31
0.0
100
AcDbText
  0
TEXT
  5
3C
330
17
100
AcDbEntity
  8
TEXT_Top_X
100
AcDbText
 10
2.0
 20
-2.7755575615628914e-17
 30
0.0
 40
0.2
  1
(1310x2200)
 11
2.0
 21
-2.7755575615628914e-17
 31
0.0
100
AcDbText
  0
LINE
  5
3D
330
17
100
AcDbEntity
  8
Top_X
 62
9
100
AcDbLine
 10
2.75
 20
0.2499999999166664
 30
0.0
 11
3.7499999997499995
 21
1.2499999999999998
 31
0.0
  0
LINE
  5
3E
330
17
100
AcDbEntity
  8
Top_X
100
AcDbLine
 10
2.498420997621545
 20
0.05908116893467508
 30
0.0
 11
3.940918830648132
 21
1.5015790021875368
 31
0.0
  0
LINE
  5
3F
330
17
100
AcDbEntity
  8
Top_X
 62
9
100
AcDbLine
 10
3.7499999997499995
 20
1.2499999999999998
 30
0.0
 11
4.749999999999999
 21
0.25000000008333323
 31
0.0
  0
LINE
  5
40
330
17
100
AcDbEntity
  8
Top_X
100
AcDbLine
 10
3.940918830648132
 20
1.5015790021875368
 30
0.0
 11
5.001579002378456
 21
0.4409188310653246
 31
0.0
  0
LINE
  5
41
330
17
100
AcDbEntity
  8
Top_X
 62
9
100
AcDbLine
 10
4.749999999999999
 20
0.25000000008333323
 30
0.0
 11
3.7500000002499996
 21
-0.75
 31
0.0
  0
LINE
  5
42
330
17
100
AcDbEntity
  8
Top_X
100
AcDbLine
 10
5.001579002378456
 20
0.4409188310653246
 30
0.0
 11
3.559081169351868
 21
-1.0015790021875368
 31
0.0
  0
LINE
  5
43
330
17
100
AcDbEntity
  8
Top_X
 62
9
100
AcDbLine
 10
3.7500000002499996
 20
-0.75
 30
0.0
 11
2.75
 21
0.2499999999166664
 31
0.0
  0
LINE
  5
44
330
17
100
AcDbEntity
  8
Top_X
100
AcDbLine
 10
3.559081169351868
 20
-1.0015790021875368
 30
0.0
 11
2.498420997621545
 21
0.05908116893467508
 31
0.0
  0
TEXT
  5
45
330
17
100
AcDbEntity
  8
TEXT_Top_X
100
AcDbText
 10
3.7499999999999996
 20
0.2499999999999999
 30
0.0
 40
0.2
  1
6 шаг 100
 11
3.7499999999999996
 21
0.2499999999999999
 31
0.0
100
AcDbText
  0
TEXT
  5
46
330
17
100
AcDbEntity
  8
TEXT_Top_X
100
AcDbText
 10
3.7499999999999996
 20
-1.1102230246251565e-16
 30
0.0
 40
0.2
  1
(2040x1500)
 11
3.7499999999999996
 21
-1.1102230246251565e-16
 31
0.0
100
AcDbText
  0
LINE
  5
47
330
17
100
AcDbEntity
  8
Top_X
 62
9
100
AcDbLine
 10
0.9999999995
 20
3.0
 30
0.0
 11
3.0
 21
3.0000000019999997
 31
0.0
  0
LINE
  5
48
330
17
100
AcDbEntity
  8
Top_X
100
AcDbLine
 10
0.900000000655
 20
3.404999990620002
 30
0.0
 11
3.099999999555
 21
3.404999998900001
 31
0.0
  0
LINE
  5
49
330
17
100
AcDbEntity
  8
Top_X
 62
9
100
AcDbLine
 10
3.0
 20
3.0000000019999997
 30
0.0
 11
3.0000000005
 21
2.5
 31
0.0
  0
LINE
  5
4A
330
17
100
AcDbEntity
  8
Top_X
100
AcDbLine
 10
3.099999999555
 20
3.404999998900001
 30
0.0
 11
3.099999999345
 21
2.0950000093799996
 31
0.0
  0
LINE
  5
4B
330
17
100
AcDbEntity
  8
Top_X
 62
9
100
AcDbLine
 10
3.0000000005
 20
2.5
 30
0.0
 11
1.0
 21
2.4999999980000003
 31
0.0
  0
LINE
  5
4C
330
17
100
AcDbEntity
  8
Top_X
100
AcDbLine
 10
3.099999999345
 20
2.0950000093799996
 30
0.0
 11
0.9000000004450002
 21
2.0950000011000007
 31
0.0
  0
LINE
  5
4D
330
17
100
AcDbEntity
  8
Top_X
 62
9
100
AcDbLine
 10
1.0
 20
2.4999999980000003
 30
0.0
 11
0.9999999995
 21
3.0
 31
0.0
  0
LINE
  5
4E
330
17
100
AcDbEntity
  8
Top_X
100
AcDbLine
 10
0.9000000004450002
 20
2.0950000011000007
 30
0.0
 11
0.900000000655
 21
3.404999990620002
 31
0.0
  0
TEXT
  5
4F
330
17
100
AcDbEntity
  8
TEXT_Top_X
100
AcDbText
 10
2.0
 20
2.75
 30
0.0
 40
0.2
  1
10 шаг 200
 11
2.0
 21
2.75
 31
0.0
100
AcDbText
  0
TEXT
  5
50
330
17
100
AcDbEntity
  8
TEXT_Top_X
100
AcDbText
 10
2.0
 20
2.5
 30
0.0
 40
0.2
  1
(1310x2200)
 11
2.0
 21
2.5
 31
0.0
100
AcDbText
  0
LINE
  5
51
330
17
100
AcDbEntity
  8
Top_X
 62
9
100
AcDbLine
 10
2.75
 20
2.749999999916666
 30
0.0
 11
3.9999999996666666
 21
4.0
 31
0.0
  0
LINE
  5
52
330
17
100
AcDbEntity
  8
Top_X
100
AcDbLine
 10
2.4549716834862854
 20
2.47776388907642
 30
0.0
 11
4.272236110408571
 21
4.2950283162414795
 31
0.0
  0
LINE
  5
53
330
17
100
AcDbEntity
  8
Top_X
 62
9
100
AcDbLine
 10
3.9999999996666666
 20
4.0
 30
0.0
 11
5.25
 21
2.7500000000833333
 31
0.0
  0
LINE
  5
54
330
17
100
AcDbEntity
  8
Top_X
100
AcDbLine
 10
4.272236110408571
 20
4.2950283162414795
 30
0.0
 11
5.545028316513716
 21
3.02223611092358
 31
0.0
  0
LINE
  5
55
330
17
100
AcDbEntity
  8
Top_X
 62
9
100
AcDbLine
 10
5.25
 20
2.7500000000833333
 30
0.0
 11
4.0000000003333325
 21
1.5
 31
0.0
  0
LINE
  5
56
330
17
100
AcDbEntity
  8
Top_X
100
AcDbLine
 10
5.545028316513716
 20
3.02223611092358
 30
0.0
 11
3.7277638895914285
 21
1.2049716837585214
 31
0.0
  0
LINE
  5
57
330
17
100
AcDbEntity
  8
Top_X
 62
9
100
AcDbLine
 10
4.0000000003333325
 20
1.5
 30
0.0
 11
2.75
 21
2.749999999916666
 31
0.0
  0
LINE
  5
58
330
17
100
AcDbEntity
  8
Top_X
100
AcDbLine
 10
3.7277638895914285
 20
1.2049716837585214
 30
0.0
 11
2.4549716834862854
 21
2.47776388907642
 31
0.0
  0
TEXT
  5
59
330
17
100
AcDbEntity
  8
TEXT_Top_X
100
AcDbText
 10
4.0
 20
2.75
 30
0.0
 40
0.2
  1
10 шаг 200
 11
4.0
 21
2.75
 31
0.0
100
AcDbText
  0
TEXT
  5
5A
330
17
100
AcDbEntity
  8
TEXT_Top_X
100
AcDbText
 10
4.0
 20
2.5
 30
0.0
 40
0.2
  1
(2570x1800)
 11
4.0
 21
2.5
 31
0.0
100
AcDbText
  0
LINE
  5
5D
330
17
100
AcDbEntity
  8
Top_Y
 62
9
100
AcDbLine
 10
1.4999999995
 20
0.5
 30
0.0
 11
3.0
 21
0.5000000014999999
 31
0.0
  0
LINE
  5
5E
330
17
100
AcDbEntity
  8
Top_Y
100
AcDbLine
 10
1.4500000005650002
 20
0.8149999940200003
 30
0.0
 11
3.0499999994983336
 21
0.8149999991999999
 31
0.0
  0
LINE
  5
5F
330
17
100
AcDbEntity
  8
Top_Y
 62
9
100
AcDbLine
 10
3.0
 20
0.5000000014999999
 30
0.0
 11
3.0000000005
 21
5.0000020912938845e-19
 31
0.0
  0
LINE
  5
60
330
17
100
AcDbEntity
  8
Top_Y
100
AcDbLine
 10
3.0499999994983336
 20
0.8149999991999999
 30
0.0
 11
3.0499999994349998
 21
-0.3149999940200005
 31
0.0
  0
LINE
  5
61
330
17
100
AcDbEntity
  8
Top_Y
 62
9
100
AcDbLine
 10
3.0000000005
 20
5.0000020912938845e-19
 30
0.0
 11
1.5
 21
-1.499999882892159e-09
 31
0.0
  0
LINE
  5
62
330
17
100
AcDbEntity
  8
Top_Y
100
AcDbLine
 10
3.0499999994349998
 20
-0.3149999940200005
 30
0.0
 11
1.4500000005016669
 21
-0.31499999920000005
 31
0.0
  0
LINE
  5
63
330
17
100
AcDbEntity
  8
Top_Y
 62
9
100
AcDbLine
 10
1.5
 20
-1.499999882892159e-09
 30
0.0
 11
1.4999999995
 21
0.5
 31
0.0
  0
LINE
  5
64
330
17
100
AcDbEntity
  8
Top_Y
100
AcDbLine
 10
1.4500000005016669
 20
-0.31499999920000005
 30
0.0
 11
1.4500000005650002
 21
0.8149999940200003
 31
0.0
  0
TEXT
  5
65
330
17
100
AcDbEntity
  8
TEXT_Top_Y
100
AcDbText
 10
2.25
 20
0.25
 30
0.0
 40
0.2
  1
6 шаг 200
 11
2.25
 21
0.25
 31
0.0
100
AcDbText
  0
TEXT
  5
66
330
17
100
AcDbEntity
  8
TEXT_Top_Y
100
AcDbText
 10
2.25
 20
0.0
 30
0.0
 40
0.2
  1
(1130x1600)
 11
2.25
 21
0.0
 31
0.0
100
AcDbText
  0
LINE
  5
67
330
17
100
AcDbEntity
  8
Top_Y
 62
9
100
AcDbLine
 10
2.75
 20
0.2499999999166664
 30
0.0
 11
3.999999999666666
 21
1.4999999999999998
 31
0.0
  0
LINE
  5
68
330
17
100
AcDbEntity
  8
Top_Y
100
AcDbLine
 10
2.4549716834862862
 20
-0.02223611092358002
 30
0.0
 11
4.272236110408571
 21
1.7950283162414786
 31
0.0
  0
LINE
  5
69
330
17
100
AcDbEntity
  8
Top_Y
 62
9
100
AcDbLine
 10
3.999999999666666
 20
1.4999999999999998
 30
0.0
 11
5.249999999999999
 21
0.25000000008333323
 31
0.0
  0
LINE
  5
6A
330
17
100
AcDbEntity
  8
Top_Y
100
AcDbLine
 10
4.272236110408571
 20
1.7950283162414786
 30
0.0
 11
5.545028316513715
 21
0.5222361109235797
 31
0.0
  0
LINE
  5
6B
330
17
100
AcDbEntity
  8
Top_Y
 62
9
100
AcDbLine
 10
5.249999999999999
 20
0.25000000008333323
 30
0.0
 11
4.0000000003333325
 21
-1.0
 31
0.0
  0
LINE
  5
6C
330
17
100
AcDbEntity
  8
Top_Y
100
AcDbLine
 10
5.545028316513715
 20
0.5222361109235797
 30
0.0
 11
3.7277638895914293
 21
-1.295028316241479
 31
0.0
  0
LINE
  5
6D
330
17
100
AcDbEntity
  8
Top_Y
 62
9
100
AcDbLine
 10
4.0000000003333325
 20
-1.0
 30
0.0
 11
2.75
 21
0.2499999999166664
 31
0.0
  0
LINE
  5
6E
330
17
100
AcDbEntity
  8
Top_Y
100
AcDbLine
 10
3.7277638895914293
 20
-1.295028316241479
 30
0.0
 11
2.4549716834862862
 21
-0.02223611092358002
 31
0.0
  0
TEXT
  5
6F
330
17
100
AcDbEntity
  8
TEXT_Top_Y
100
AcDbText
 10
4.0
 20
0.2499999999999999
 30
0.0
 40
0.2
  1
10 шаг 200
 11
4.0
 21
0.2499999999999999
 31
0.0
100
AcDbText
  0
TEXT
  5
70
330
17
100
AcDbEntity
  8
TEXT_Top_Y
100
AcDbText
 10
4.0
 20
-1.1102230246251565e-16
 30
0.0
 40
0.2
  1
(2570x1800)
 11
4.0
 21
-1.1102230246251565e-16
 31
0.0
100
AcDbText
  0
LINE
  5
71
330
17
100
AcDbEntity
  8
Top_Y
 62
9
100
AcDbLine
 10
1.4999999995
 20
3.0
 30
0.0
 11
3.0
 21
3.0000000015
 31
0.0
  0
LINE
  5
72
330
17
100
AcDbEntity
  8
Top_Y
100
AcDbLine
 10
1.4500000005650004
 20
3.31499999402
 30
0.0
 11
3.049999999498334
 21
3.3149999991999994
 31
0.0
  0
LINE
  5
73
330
17
100
AcDbEntity
  8
Top_Y
 62
9
100
AcDbLine
 10
3.0
 20
3.0000000015
 30
0.0
 11
3.0000000005
 21
2.5
 31
0.0
  0
LINE
  5
74
330
17
100
AcDbEntity
  8
Top_Y
100
AcDbLine
 10
3.049999999498334
 20
3.3149999991999994
 30
0.0
 11
3.049999999435
 21
2.18500000598
 31
0.0
  0
LINE
  5
75
330
17
100
AcDbEntity
  8
Top_Y
 62
9
100
AcDbLine
 10
3.0000000005
 20
2.5
 30
0.0
 11
1.5
 21
2.4999999985
 31
0.0
  0
LINE
  5
76
330
17
100
AcDbEntity
  8
Top_Y
100
AcDbLine
 10
3.049999999435
 20
2.18500000598
 30
0.0
 11
1.4500000005016673
 21
2.1850000008000006
 31
0.0
  0
LINE
  5
77
330
17
100
AcDbEntity
  8
Top_Y
 62
9
100
AcDbLine
 10
1.5
 20
2.4999999985
 30
0.0
 11
1.4999999995
 21
3.0
 31
0.0
  0
LINE
  5
78
330
17
100
AcDbEntity
  8
Top_Y
100
AcDbLine
 10
1.4500000005016673
 20
2.1850000008000006
 30
0.0
 11
1.4500000005650004
 21
3.31499999402
 31
0.0
  0
TEXT
  5
79
330
17
100
AcDbEntity
  8
TEXT_Top_Y
100
AcDbText
 10
2.25
 20
2.75
 30
0.0
 40
0.2
  1
6 шаг 200
 11
2.25
 21
2.75
 31
0.0
100
AcDbText
  0
TEXT
  5
7A
330
17
100
AcDbEntity
  8
TEXT_Top_Y
100
AcDbText
 10
2.25
 20
2.5
 30
0.0
 40
0.2
  1
(1130x1600)
 11
2.25
 21
2.5
 31
0.0
100
AcDbText
  0
LINE
  5
7B
330
17
100
AcDbEntity
  8
Top_Y
 62
9
100
AcDbLine
 10
2.75
 20
2.749999999916666
 30
0.0
 11
3.74999999975
 21
3.7499999999999996
 31
0.0
  0
LINE
  5
7C
330
17
100
AcDbEntity
  8
Top_Y
100
AcDbLine
 10
2.4984209976215435
 20
2.559081168934675
 30
0.0
 11
3.940918830648131
 21
4.001579002187537
 31
0.0
  0
LINE
  5
7D
330
17
100
AcDbEntity
  8
Top_Y
 62
9
100
AcDbLine
 10
3.74999999975
 20
3.7499999999999996
 30
0.0
 11
4.749999999999999
 21
2.7500000000833333
 31
0.0
  0
LINE
  5
7E
330
17
100
AcDbEntity
  8
Top_Y
100
AcDbLine
 10
3.940918830648131
 20
4.001579002187537
 30
0.0
 11
5.001579002378454
 21
2.940918831065324
 31
0.0
  0
LINE
  5
7F
330
17
100
AcDbEntity
  8
Top_Y
 62
9
100
AcDbLine
 10
4.749999999999999
 20
2.7500000000833333
 30
0.0
 11
3.7500000002499996
 21
1.75
 31
0.0
  0
LINE
  5
80
330
17
100
AcDbEntity
  8
Top_Y
100
AcDbLine
 10
5.001579002378454
 20
2.940918831065324
 30
0.0
 11
3.559081169351868
 21
1.4984209978124627
 31
0.0
  0
LINE
  5
81
330
17
100
AcDbEntity
  8
Top_Y
 62
9
100
AcDbLine
 10
3.7500000002499996
 20
1.75
 30
0.0
 11
2.75
 21
2.749999999916666
 31
0.0
  0
LINE
  5
82
330
17
100
AcDbEntity
  8
Top_Y
100
AcDbLine
 10
3.559081169351868
 20
1.4984209978124627
 30
0.0
 11
2.4984209976215435
 21
2.559081168934675
 31
0.0
  0
TEXT
  5
83
330
17
100
AcDbEntity
  8
TEXT_Top_Y
100
AcDbText
 10
3.7499999999999996
 20
2.75
 30
0.0
 40
0.2
  1
6 шаг 100
 11
3.7499999999999996
 21
2.75
 31
0.0
100
AcDbText
  0
TEXT
  5
84
330
17
100
AcDbEntity
  8
TEXT_Top_Y
100
AcDbText
 10
3.7499999999999996
 20
2.5
 30
0.0
 40
0.2
  1
(2040x1500)
 11
3.7499999999999996
 21
2.5
 31
0.0
100
AcDbText
  0
LINE
  5
87
330
17
100
AcDbEntity
  8
Bot_X
 62
9
100
AcDbLine
 10
1.4999999985
 20
2.4999999995
 30
0.0
 11
3.0
 21
2.500000001
 31
0.0
  0
LINE
  5
88
330
17
100
AcDbEntity
  8
Bot_X
100
AcDbLine
 10
1.450000001655
 20
2.904999996335
 30
0.0
 11
3.0499999973883343
 21
2.90499999895
 31
0.0
  0
LINE
  5
89
330
17
100
AcDbEntity
  8
Bot_X
 62
9
100
AcDbLine
 10
3.0
 20
2.500000001
 30
0.0
 11
3.0000000019999997
 21
0.5
 31
0.0
  0
LINE
  5
8A
330
17
100
AcDbEntity
  8
Bot_X
100
AcDbLine
 10
3.0499999973883343
 20
2.90499999895
 30
0.0
 11
3.049999998845
 21
0.0950000031649999
 31
0.0
  0
LINE
  5
8B
330
17
100
AcDbEntity
  8
Bot_X
 62
9
100
AcDbLine
 10
3.0000000019999997
 20
0.5
 30
0.0
 11
1.5000000004999998
 21
0.49999999850000015
 31
0.0
  0
LINE
  5
8C
330
17
100
AcDbEntity
  8
Bot_X
100
AcDbLine
 10
3.049999998845
 20
0.0950000031649999
 30
0.0
 11
1.4500000031116664
 21
0.09500000055000013
 31
0.0
  0
LINE
  5
8D
330
17
100
AcDbEntity
  8
Bot_X
 62
9
100
AcDbLine
 10
1.5000000004999998
 20
0.49999999850000015
 30
0.0
 11
1.4999999985
 21
2.4999999995
 31
0.0
  0
LINE
  5
8E
330
17
100
AcDbEntity
  8
Bot_X
100
AcDbLine
 10
1.4500000031116664
 20
0.09500000055000013
 30
0.0
 11
1.450000001655
 21
2.904999996335
 31
0.0
  0
TEXT
  5
8F
330
17
100
AcDbEntity
  8
TEXT_Bot_X
100
AcDbText
 10
2.25000000025
 20
1.49999999975
 30
0.0
 40
0.2
  1
10 шаг 200
 11
2.25000000025
 21
1.49999999975
 31
0.0
100
AcDbText
  0
TEXT
  5
90
330
17
100
AcDbEntity
  8
TEXT_Bot_X
100
AcDbText
 10
2.25000000025
 20
1.24999999975
 30
0.0
 40
0.2
  1
(2810x1600)
 11
2.25000000025
 21
1.24999999975
 31
0.0
100
AcDbText
  0
LINE
  5
91
330
17
100
AcDbEntity
  8
Bot_X
 62
9
100
AcDbLine
 10
2.25
 20
1.2499999997499998
 30
0.0
 11
3.74999999975
 21
2.75
 31
0.0
  0
LINE
  5
92
330
17
100
AcDbEntity
  8
Bot_X
100
AcDbLine
 10
1.9362711067737024
 20
0.991906024608987
 30
0.0
 11
4.008093974786437
 21
3.0637288929682054
 31
0.0
  0
LINE
  5
93
330
17
100
AcDbEntity
  8
Bot_X
 62
9
100
AcDbLine
 10
3.74999999975
 20
2.75
 30
0.0
 11
5.2500000000833325
 21
1.2500000001666667
 31
0.0
  0
LINE
  5
94
330
17
100
AcDbEntity
  8
Bot_X
100
AcDbLine
 10
4.008093974786437
 20
3.0637288929682054
 30
0.0
 11
5.563728893309632
 21
1.50809397530768
 31
0.0
  0
LINE
  5
95
330
17
100
AcDbEntity
  8
Bot_X
 62
9
100
AcDbLine
 10
5.2500000000833325
 20
1.2500000001666667
 30
0.0
 11
3.7500000003333325
 21
-0.25000000008333345
 31
0.0
  0
LINE
  5
96
330
17
100
AcDbEntity
  8
Bot_X
100
AcDbLine
 10
5.563728893309632
 20
1.50809397530768
 30
0.0
 11
3.4919060252968954
 21
-0.5637288930515381
 31
0.0
  0
LINE
  5
97
330
17
100
AcDbEntity
  8
Bot_X
 62
9
100
AcDbLine
 10
3.7500000003333325
 20
-0.25000000008333345
 30
0.0
 11
2.25
 21
1.2499999997499998
 31
0.0
  0
LINE
  5
98
330
17
100
AcDbEntity
  8
Bot_X
100
AcDbLine
 10
3.4919060252968954
 20
-0.5637288930515381
 30
0.0
 11
1.9362711067737024
 21
0.991906024608987
 31
0.0
  0
TEXT
  5
99
330
17
100
AcDbEntity
  8
TEXT_Bot_X
100
AcDbText
 10
3.7500000000416662
 20
1.2499999999583333
 30
0.0
 40
0.2
  1
10 шаг 200
 11
3.7500000000416662
 21
1.2499999999583333
 31
0.0
100
AcDbText
  0
TEXT
  5
9A
330
17
100
AcDbEntity
  8
TEXT_Bot_X
100
AcDbText
 10
3.7500000000416662
 20
0.9999999999583333
 30
0.0
 40
0.2
  1
(2930x2200)
 11
3.7500000000416662
 21
0.9999999999583333
 31
0.0
100
AcDbText
  0
LINE
  5
9D
330
17
100
AcDbEntity
  8
Bot_Y
 62
9
100
AcDbLine
 10
1.9999999985000003
 20
2.4999999995
 30
0.0
 11
3.0
 21
2.5000000005
 31
0.0
  0
LINE
  5
9E
330
17
100
AcDbEntity
  8
Bot_Y
100
AcDbLine
 10
1.900000001605
 20
2.85499999764
 30
0.0
 11
3.0999999968050007
 21
2.85499999915
 31
0.0
  0
LINE
  5
9F
330
17
100
AcDbEntity
  8
Bot_Y
 62
9
100
AcDbLine
 10
3.0
 20
2.5000000005
 30
0.0
 11
3.0000000019999997
 21
0.5
 31
0.0
  0
LINE
  5
A0
330
17
100
AcDbEntity
  8
Bot_Y
100
AcDbLine
 10
3.0999999968050007
 20
2.85499999915
 30
0.0
 11
3.0999999988950004
 21
0.1450000018599995
 31
0.0
  0
LINE
  5
A1
330
17
100
AcDbEntity
  8
Bot_Y
 62
9
100
AcDbLine
 10
3.0000000019999997
 20
0.5
 30
0.0
 11
2.0000000005
 21
0.4999999990000001
 31
0.0
  0
LINE
  5
A2
330
17
100
AcDbEntity
  8
Bot_Y
100
AcDbLine
 10
3.0999999988950004
 20
0.1450000018599995
 30
0.0
 11
1.9000000036949998
 21
0.1450000003499997
 31
0.0
  0
LINE
  5
A3
330
17
100
AcDbEntity
  8
Bot_Y
 62
9
100
AcDbLine
 10
2.0000000005
 20
0.4999999990000001
 30
0.0
 11
1.9999999985000003
 21
2.4999999995
 31
0.0
  0
LINE
  5
A4
330
17
100
AcDbEntity
  8
Bot_Y
100
AcDbLine
 10
1.9000000036949998
 20
0.1450000003499997
 30
0.0
 11
1.900000001605
 21
2.85499999764
 31
0.0
  0
TEXT
  5
A5
330
17
100
AcDbEntity
  8
TEXT_Bot_Y
100
AcDbText
 10
2.50000000025
 20
1.49999999975
 30
0.0
 40
0.2
  1
8 шаг 200
 11
2.50000000025
 21
1.49999999975
 31
0.0
100
AcDbText
  0
TEXT
  5
A6
330
17
100
AcDbEntity
  8
TEXT_Bot_Y
100
AcDbText
 10
2.50000000025
 20
1.24999999975
 30
0.0
 40
0.2
  1
(2710x1200)
 11
2.50000000025
 21
1.24999999975
 31
0.0
100
AcDbText
  0
LINE
  5
A7
330
17
100
AcDbEntity
  8
Bot_Y
 62
9
100
AcDbLine
 10
2.25
 20
1.7499999997499995
 30
0.0
 11
3.749999999666667
 21
3.2499999999166667
 31
0.0
  0
LINE
  5
A8
330
17
100
AcDbEntity
  8
Bot_Y
100
AcDbLine
 10
1.936271106732034
 20
1.4919060245673206
 30
0.0
 11
4.00809397474477
 21
3.5637288929265383
 31
0.0
  0
LINE
  5
A9
330
17
100
AcDbEntity
  8
Bot_Y
 62
9
100
AcDbLine
 10
3.749999999666667
 20
3.2499999999166667
 30
0.0
 11
5.25
 21
1.750000000083334
 31
0.0
  0
LINE
  5
AA
330
17
100
AcDbEntity
  8
Bot_Y
100
AcDbLine
 10
4.00809397474477
 20
3.5637288929265383
 30
0.0
 11
5.563728893267965
 21
2.0080939752660143
 31
0.0
  0
LINE
  5
AB
330
17
100
AcDbEntity
  8
Bot_Y
 62
9
100
AcDbLine
 10
5.25
 20
1.750000000083334
 30
0.0
 11
3.750000000333333
 21
0.24999999991666674
 31
0.0
  0
LINE
  5
AC
330
17
100
AcDbEntity
  8
Bot_Y
100
AcDbLine
 10
5.563728893267965
 20
2.0080939752660143
 30
0.0
 11
3.49190602525523
 21
-0.06372889309320395
 31
0.0
  0
LINE
  5
AD
330
17
100
AcDbEntity
  8
Bot_Y
 62
9
100
AcDbLine
 10
3.750000000333333
 20
0.24999999991666674
 30
0.0
 11
2.25
 21
1.7499999997499995
 31
0.0
  0
LINE
  5
AE
330
17
100
AcDbEntity
  8
Bot_Y
100
AcDbLine
 10
3.49190602525523
 20
-0.06372889309320395
 30
0.0
 11
1.936271106732034
 21
1.4919060245673206
 31
0.0
  0
TEXT
  5
AF
330
17
100
AcDbEntity
  8
TEXT_Bot_Y
100
AcDbText
 10
3.75
 20
1.7499999999166669
 30
0.0
 40
0.2
  1
10 шаг 200
 11
3.75
 21
1.7499999999166669
 31
0.0
100
AcDbText
  0
TEXT
  5
B0
330
17
100
AcDbEntity
  8
TEXT_Bot_Y
100
AcDbText
 10
3.75
 20
1.4999999999166669
 30
0.0
 40
0.2
  1
(2930x2200)
 11
3.75
 21
1.4999999999166669
 31
0.0
100
AcDbText
  0
ENDSEC
  0
SECTION
  2
OBJECTS
  0
DICTIONARY
  5
A
330
0
100
AcDbDictionary
281
1
  3
ACAD_COLOR
350
B
  3
ACAD_GROUP
350
C
  3
ACAD_LAYOUT
350
D
  3
ACAD_MATERIAL
350
E
  3
ACAD_MLEADERSTYLE
350
F
  3
ACAD_MLINESTYLE
350
10
  3
ACAD_PLOTSETTINGS
350
11
  3
ACAD_PLOTSTYLENAME
350
12
  3
ACAD_SCALELIST
350
14
  3
ACAD_TABLESTYLE
350
15
  3
ACAD_VISUALSTYLE
350
16
  3
EZDXF_META
350
2D
  0
DICTIONARY
  5
B
330
A
100
AcDbDictionary
281
1
  0
DICTIONARY
  5
C
330
A
100
AcDbDictionary
281
1
  0
DICTIONARY
  5
D
330
A
100
AcDbDictionary
281
1
  3
Model
350
1A
  3
Layout1
350
1E
  0
DICTIONARY
  5
E
330
A
100
AcDbDictionary
281
1
  3
ByBlock
350
1F
  3
ByLayer
350
20
  3
Global
350
21
  0
DICTIONARY
  5
F
330
A
100
AcDbDictionary
281
1
  3
Standard
350
2C
  0
DICTIONARY
  5
10
330
A
100
AcDbDictionary
281
1
  3
Standard
350
22
  0
DICTIONARY
  5
11
330
A
100
AcDbDictionary
281
1
  0
ACDBDICTIONARYWDFLT
  5
12
330
A
100
AcDbDictionary
281
1
  3
Normal
350
13
100
AcDbDictionaryWithDefault
340
13
  0
ACDBPLACEHOLDER
  5
13
330
12
  0
DICTIONARY
  5
14
330
A
100
AcDbDictionary
281
1
  0
DICTIONARY
  5
15
330
A
100
AcDbDictionary
281
1
  0
DICTIONARY
  5
16
330
A
100
AcDbDictionary
281
1
  0
LAYOUT
  5
1A
330
D
100
AcDbPlotSettings
  1

  2
Adobe PDF
  4
A3
  6

 40
7.5
 41
20.0
 42
7.5
 43
20.0
 44
420.0
 45
297.0
 46
0.0
 47
0.0
 48
0.0
 49
0.0
140
0.0
141
0.0
142
1.0
143
1.0
 70
1024
 72
1
 73
1
 74
5
  7

 75
16
 76
0
 77
2
 78
300
147
1.0
148
0.0
149
0.0
100
AcDbLayout
  1
Model
 70
1
 71
0
 10
0.0
 20
0.0
 11
420.0
 21
297.0
 12
0.0
 22
0.0
 32
0.0
 14
1e+20
 24
1e+20
 34
1e+20
 15
-1e+20
 25
-1e+20
 35
-1e+20
146
0.0
 13
0.0
 23
0.0
 33
0.0
 16
1.0
 26
0.0
 36
0.0
 17
0.0
 27
1.0
 37
0.0
 76
1
330
17
  0
LAYOUT
  5
1E
330
D
100
AcDbPlotSettings
  1

  2
Adobe PDF
  4
A3
  6

 40
7.5
 41
20.0
 42
7.5
 43
20.0
 44
420.0
 45
297.0
 46
0.0
 47
0.0
 48
0.0
 49
0.0
140
0.0
141
0.0
142
1.0
143
1.0
 70
0
 72
1
 73
1
 74
5
  7

 75
16
 76
0
 77
2
 78
300
147
1.0
148
0.0
149
0.0
100
AcDbLayout
  1
Layout1
 70
1
 71
1
 10
0.0
 20
0.0
 11
420.0
 21
297.0
 12
0.0
 22
0.0
 32
0.0
 14
1e+20
 24
1e+20
 34
1e+20
 15
-1e+20
 25
-1e+20
 35
-1e+20
146
0.0
 13
0.0
 23
0.0
 33
0.0
 16
1.0
 26
0.0
 36
0.0
 17
0.0
 27
1.0
 37
0.0
 76
1
330
1B
  0
MATERIAL
  5
1F
102
{ACAD_REACTORS
330
E
102
}
330
E
100
AcDbMaterial
  1
ByBlock
  2

 70
0
 40
1.0
 71
1
 41
1.0
 91
-1023410177
 42
1.0
 72
1
  3

 73
1
 74
1
 75
1
 44
0.5
 73
0
 45
1.0
 46
1.0
 77
1
  4

 78
1
 79
1
170
1
 48
1.0
171
1
  6

172
1
173
1
174
1
140
1.0
141
1.0
175
1
  7

176
1
177
1
178
1
143
1.0
179
1
  8

270
1
271
1
272
1
145
1.0
146
1.0
273
1
  9

274
1
275
1
276
1
 42
1.0
 72
1
  3

 73
1
 74
1
 75
1
 94
63
  0
MATERIAL
  5
20
102
{ACAD_REACTORS
330
E
102
}
330
E
100
AcDbMaterial
  1
ByLayer
  2

 70
0
 40
1.0
 71
1
 41
1.0
 91
-1023410177
 42
1.0
 72
1
  3

 73
1
 74
1
 75
1
 44
0.5
 73
0
 45
1.0
 46
1.0
 77
1
  4

 78
1
 79
1
170
1
 48
1.0
171
1
  6

172
1
173
1
174
1
140
1.0
141
1.0
175
1
  7

176
1
177
1
178
1
143
1.0
179
1
  8

270
1
271
1
272
1
145
1.0
146
1.0
273
1
  9

274
1
275
1
276
1
 42
1.0
 72
1
  3

 73
1
 74
1
 75
1
 94
63
  0
MATERIAL
  5
21
102
{ACAD_REACTORS
330
E
102
}
330
E
100
AcDbMaterial
  1
Global
  2

 70
0
 40
1.0
 71
1
 41
1.0
 91
-1023410177
 42
1.0
 72
1
  3

 73
1
 74
1
 75
1
 44
0.5
 73
0
 45
1.0
 46
1.0
 77
1
  4

 78
1
 79
1
170
1
 48
1.0
171
1
  6

172
1
173
1
174
1
140
1.0
141
1.0
175
1
  7

176
1
177
1
178
1
143
1.0
179
1
  8

270
1
271
1
272
1
145
1.0
146
1.0
273
1
  9

274
1
275
1
276
1
 42
1.0
 72
1
  3

 73
1
 74
1
 75
1
 94
63
  0
MLINESTYLE
  5
22
102
{ACAD_REACTORS
330
10
102
}
330
10
100
AcDbMlineStyle
  2
Standard
 70
0
  3

 62
256
 51
90.0
 52
90.0
 71
2
 49
0.5
 62
256
  6
BYLAYER
 49
-0.5
 62
256
  6
BYLAYER
  0
MLEADERSTYLE
  5
2C
102
{ACAD_REACTORS
330
F
102
}
330
F
100
AcDbMLeaderStyle
179
2
170
2
171
1
172
0
 90
2
 40
0.0
 41
0.0
173
1
 91
-1056964608
 92
-2
290
1
 42
2.0
291
1
 43
8.0
  3
Standard
 44
4.0
300

342
29
174
1
175
1
176
0
178
1
 93
-1056964608
 45
4.0
292
0
297
0
 46
4.0
 94
-1056964608
 47
1.0
 49
1.0
140
1.0
294
1
141
0.0
177
0
142
1.0
295
0
296
0
143
3.75
271
0
272
9
273
9
  0
DICTIONARY
  5
2D
330
A
100
AcDbDictionary
280
1
281
1
  3
CREATED_BY_EZDXF
350
2E
  3
WRITTEN_BY_EZDXF
350
B7
  0
DICTIONARYVAR
  5
2E
330
2D
100
DictionaryVariables
280
0
  1
0.18.1 @ 2022-09-30T10:35:50.159479+00:00
  0
DICTIONARYVAR
  5
B7
330
2D
100
DictionaryVariables
280
0
  1
0.18.1 @ 2022-09-30T10:35:50.182435+00:00
  0
ENDSEC
  0
EOF
